<svg xmlns="http://www.w3.org/2000/svg" xmlns:xlink="http://www.w3.org/1999/xlink" width="567.954" height="365.579" viewBox="0 0 567.954 365.579">
  <defs>
    <clipPath id="clip-path">
      <rect id="Rectangle_1278" data-name="Rectangle 1278" width="444" height="250.157" transform="translate(567.737 299.914)" fill="none"/>
    </clipPath>
  </defs>
  <g id="Group_886" data-name="Group 886" transform="translate(-495.047 -236.561)">
    <path id="Path_9688" data-name="Path 9688" d="M1034.209,427.412c2.611-5.844,5.218-11.685,7.482-17.575,7.165-18.643,8.841-37.962,7.227-57.121-3.416-40.507-37.561-58.184-69.435-44.19S914.6,340.2,883.871,321.047s-58.045-91.326-112.679-83.961-62.6,72.176-97.887,67.021-45.53-38.3-93.335-22.094-5.692,75.859-30.733,95.009-45.526,29.458-53.494,61.129,54.634,54.5,78.535,88.38,31.874,68.495,87.644,75.122,92.2-56.709,149.1-53.765c28.449,1.472,50.642,13.53,73.387,22.929,38.425,15.877,107.68,28.962,130.339-6.061,9.854-15.231,7.174-32.737,6.62-48.785-.577-16.69-3.6-34-.642-50.634,2.3-12.951,7.9-25.439,13.479-37.925" fill="#fdc61b"/>
    <path id="Path_9688-2" data-name="Path 9688" d="M1034.209,427.412c2.611-5.844,5.218-11.685,7.482-17.575,7.165-18.643,8.841-37.962,7.227-57.121-3.416-40.507-37.561-58.184-69.435-44.19S914.6,340.2,883.871,321.047s-58.045-91.326-112.679-83.961-62.6,72.176-97.887,67.021-45.53-38.3-93.335-22.094-5.692,75.859-30.733,95.009-45.526,29.458-53.494,61.129,54.634,54.5,78.535,88.38,31.874,68.495,87.644,75.122,92.2-56.709,149.1-53.765c28.449,1.472,50.642,13.53,73.387,22.929,38.425,15.877,107.68,28.962,130.339-6.061,9.854-15.231,7.174-32.737,6.62-48.785-.577-16.69-3.6-34-.642-50.634,2.3-12.951,7.9-25.439,13.479-37.925" fill="#fff" opacity="0.8" style="isolation: isolate"/>
    <g id="Group_884" data-name="Group 884">
      <path id="Path_10035" data-name="Path 10035" d="M993.679,588.553l-1.83-23.034a5.459,5.459,0,0,0-2.713-4.3l-20.017-11.55a5.46,5.46,0,0,1,.633-9.77l21.342-8.858a5.463,5.463,0,0,0,3.248-3.908l4.809-22.606a5.46,5.46,0,0,1,9.49-2.414l15.02,17.56a5.455,5.455,0,0,0,4.72,1.881l22.982-2.418a5.459,5.459,0,0,1,5.229,8.279l-12.057,19.71a5.461,5.461,0,0,0-.33,5.071l9.4,21.106a5.46,5.46,0,0,1-6.256,7.529l-22.478-5.373a5.46,5.46,0,0,0-4.925,1.253l-17.17,15.463a5.459,5.459,0,0,1-9.1-3.625" fill="#eeedee"/>
      <path id="Path_10036" data-name="Path 10036" d="M998.19,531.57a10.692,10.692,0,0,0,1.322-3.339l3.137-14.761a4.137,4.137,0,0,1,7.189-1.829l9.81,11.468a10.744,10.744,0,0,0,9.284,3.7l15.01-1.58a4.136,4.136,0,0,1,3.961,6.272l-4.024,6.577-1-.611,4.026-6.574a2.963,2.963,0,0,0-2.838-4.493l-15.01,1.575a11.916,11.916,0,0,1-10.3-4.1l-9.809-11.471a2.961,2.961,0,0,0-5.149,1.31l-3.139,14.758a11.881,11.881,0,0,1-1.47,3.7Z" fill="#fff" opacity="0.5" style="isolation: isolate"/>
      <path id="Path_10037" data-name="Path 10037" d="M977.114,547.461a4.145,4.145,0,0,1,1.736-5.6c.11-.058.222-.111.337-.158l10.663-4.427.449,1.085-10.663,4.425a2.963,2.963,0,0,0-.344,5.3l13.068,7.544a12.028,12.028,0,0,1,5.921,9.374l1.194,15.044a2.963,2.963,0,0,0,4.937,1.966l11.214-10.1a11.91,11.91,0,0,1,10.745-2.73l14.677,3.511a2.962,2.962,0,0,0,3.4-4.086l-6.14-13.787a11.842,11.842,0,0,1-1.024-4.5l1.172-.033a10.659,10.659,0,0,0,.926,4.061l6.14,13.787a4.136,4.136,0,0,1-4.741,5.706l-14.677-3.511a10.733,10.733,0,0,0-9.685,2.462L1005.2,582.9a4.135,4.135,0,0,1-6.892-2.746l-1.194-15.043a10.833,10.833,0,0,0-5.339-8.451l-13.068-7.546a4.134,4.134,0,0,1-1.592-1.644" fill="#fff" opacity="0.5" style="isolation: isolate"/>
    </g>
    <path id="Path_10026" data-name="Path 10026" d="M566.8,282.336l.1-.064a6.191,6.191,0,0,0,1.981-8.53v0l-3.9-6.244-.023.014a36.791,36.791,0,0,0-62.222,39.262l78.4,125.664a7.123,7.123,0,0,0,9.812,2.273l50.365-31.429a7.119,7.119,0,0,0,2.273-9.808v0L604.4,330.67a7.122,7.122,0,0,0-4.433-3.166l-71.49-16.552h0a24.1,24.1,0,0,1-11.37-6.211,25.457,25.457,0,0,1-1.9-2.057c-.059-.07-.123-.141-.182-.215a23.3,23.3,0,0,1-1.673-2.328,24.289,24.289,0,1,1,41.018-26.026l3.9,6.242a6.19,6.19,0,0,0,8.526,1.983l.006,0" fill="#eeedee"/>
    <g id="Group_877" data-name="Group 877">
      <rect id="Rectangle_1181" data-name="Rectangle 1181" width="67.563" height="2.475" transform="matrix(0.31, -0.951, 0.951, 0.31, 1020.223, 304.77)" fill="#e0e0e0"/>
      <rect id="Rectangle_1182" data-name="Rectangle 1182" width="67.563" height="2.475" transform="translate(1035.277 309.68) rotate(-71.932)" fill="#e0e0e0"/>
      <path id="Path_10017" data-name="Path 10017" d="M1059.076,249.5l-19.528-6.371a2.97,2.97,0,0,1,1.842-5.647l19.528,6.371a2.97,2.97,0,0,1-1.776,5.669l-.066-.022" fill="#eeedee"/>
      <path id="Path_10018" data-name="Path 10018" d="M985.851,389.354h0a2.723,2.723,0,0,1-1.744-3.432h0l2.226-6.823,5.176,1.688-2.226,6.824a2.721,2.721,0,0,1-3.43,1.745h0" fill="#15375e"/>
      <path id="Path_10019" data-name="Path 10019" d="M1016.2,399.257h0a2.723,2.723,0,0,1-1.744-3.432h0l2.226-6.822,5.177,1.688-2.227,6.823a2.721,2.721,0,0,1-3.431,1.744h0" fill="#e0e0e0"/>
      <path id="Path_10020" data-name="Path 10020" d="M1016.619,392.884l-27.581-9a16.724,16.724,0,0,1-10.681-21.028l22.816-69.931a16.725,16.725,0,0,1,21.027-10.681l27.581,9a16.727,16.727,0,0,1,10.682,21.028L1037.647,382.2a16.727,16.727,0,0,1-21.028,10.681" fill="#eeedee"/>
      <path id="Path_10021" data-name="Path 10021" d="M987.553,367.781h0a1.116,1.116,0,0,1-.713-1.4l23.182-71.052a1.114,1.114,0,1,1,2.119.691h0l-23.184,71.053a1.116,1.116,0,0,1-1.4.713" fill="#fff" opacity="0.5" style="isolation: isolate"/>
      <path id="Path_10022" data-name="Path 10022" d="M997.493,371.024h0a1.116,1.116,0,0,1-.713-1.4l23.182-71.052a1.115,1.115,0,0,1,2.119.692L998.9,370.312a1.114,1.114,0,0,1-1.4.713" fill="#fff" opacity="0.5" style="isolation: isolate"/>
      <path id="Path_10023" data-name="Path 10023" d="M1007.434,374.269h0a1.117,1.117,0,0,1-.714-1.4l23.183-71.052a1.114,1.114,0,1,1,2.118.691l-23.181,71.051a1.115,1.115,0,0,1-1.4.713" fill="#fff" opacity="0.5" style="isolation: isolate"/>
      <path id="Path_10024" data-name="Path 10024" d="M1017.375,377.511h0a1.118,1.118,0,0,1-.714-1.4l23.183-71.052a1.114,1.114,0,1,1,2.118.691L1018.779,376.8a1.115,1.115,0,0,1-1.4.713" fill="#fff" opacity="0.5" style="isolation: isolate"/>
      <path id="Path_10025" data-name="Path 10025" d="M1027.394,380.52h0a1.115,1.115,0,0,1-.713-1.4l23.182-71.053a1.114,1.114,0,1,1,2.118.691h0L1028.8,379.806a1.117,1.117,0,0,1-1.4.714" fill="#fff" opacity="0.5" style="isolation: isolate"/>
    </g>
    <g id="Group_881" data-name="Group 881">
      <g id="Group_1140" data-name="Group 1140">
        <g id="Group_1335" data-name="Group 1335">
          <g id="Group_880" data-name="Group 880">
            <path id="Path_10027" data-name="Path 10027" d="M556.024,535.472a23.555,23.555,0,1,1,31.5-10.845h0a23.581,23.581,0,0,1-31.5,10.845M575.6,495.339a21.1,21.1,0,1,0,9.714,28.214h0a21.121,21.121,0,0,0-9.714-28.214" fill="#e0e0e0"/>
            <path id="Path_10028" data-name="Path 10028" d="M553.1,518.338l-3.92-20.366a5.715,5.715,0,0,0-6.691-4.531l-38.078,7.331a5.717,5.717,0,0,0-4.532,6.69l3.925,20.368a5.714,5.714,0,0,0,6.691,4.531l38.073-7.331a5.717,5.717,0,0,0,4.531-6.691m-12.278-8.2a3.19,3.19,0,1,1,3.735,2.53h0a3.19,3.19,0,0,1-3.735-2.53" fill="#ebebeb"/>
            <path id="Path_10029" data-name="Path 10029" d="M546.732,496.758a3.885,3.885,0,0,1,.676,1.554l3.921,20.367a3.9,3.9,0,0,1-3.088,4.57l-.009,0-38.078,7.33a3.919,3.919,0,0,1-3.9-1.538,3.849,3.849,0,0,1-.674-1.553l-3.921-20.368a3.9,3.9,0,0,1,3.089-4.57h.008l38.074-7.332a3.925,3.925,0,0,1,3.9,1.539m-6.82,15.722a5.016,5.016,0,1,0-.866-2,4.953,4.953,0,0,0,.866,2m8.284-16.788a5.714,5.714,0,0,0-5.7-2.252l-38.075,7.33a5.716,5.716,0,0,0-4.531,6.691l3.923,20.369a5.71,5.71,0,0,0,6.686,4.53h.006l38.073-7.33a5.715,5.715,0,0,0,4.531-6.691l-3.916-20.364a5.693,5.693,0,0,0-.988-2.28m-6.82,15.721a3.19,3.19,0,1,1,3.183,1.257,3.189,3.189,0,0,1-3.183-1.257" fill="#e0e0e0"/>
            <path id="Path_10030" data-name="Path 10030" d="M549.334,557.941l-6.9-3.368a1.025,1.025,0,0,0-1.369.472l-4.669,9.572a.985.985,0,0,0-.1.492l.112,2.813a.987.987,0,0,1-.105.492l-.675,1.4a1.064,1.064,0,0,1-.59.527l-.875.295a1.027,1.027,0,0,0-.64,1.3l0,.005v.02a1.023,1.023,0,0,1-.627,1.3l-.011,0-.012.006a1.026,1.026,0,0,0-.639,1.3l0,.005.307.892a1.057,1.057,0,0,1-.048.783l-1.44,2.975a1.041,1.041,0,0,1-.587.519l-.2.068a1.026,1.026,0,0,0-.64,1.3l0,.005.208.6-.173.354-.6.208a1.025,1.025,0,0,0-.64,1.3l0,.006.2.612-.388.133a.841.841,0,0,0-.523,1.068v0a1.039,1.039,0,0,1-.052.791l-.408.835a1.038,1.038,0,0,0-.077.672l.75,3.37.026.117a1.024,1.024,0,0,0,.55.7,1.041,1.041,0,0,0,.894.007l.109-.051,1.17-.559,1.937-.927a.979.979,0,0,0,.481-.475l.408-.835a1.072,1.072,0,0,1,.591-.528.846.846,0,0,0,.523-1.071l-.136-.389.608-.216a1.026,1.026,0,0,0,.639-1.3v-.005l-.208-.6.173-.354.6-.208a1.026,1.026,0,0,0,.639-1.3v-.006l-.062-.2a1,1,0,0,1,.047-.781l1.447-2.968a1.055,1.055,0,0,1,.587-.519l.9-.3a1.043,1.043,0,0,0,.638-1.308l-.012-.017a1.026,1.026,0,0,1,.632-1.306l.005,0,.026-.009a1.044,1.044,0,0,0,.638-1.308l-.306-.871a1.021,1.021,0,0,1,.051-.789l.684-1.4a1.1,1.1,0,0,1,.322-.386l2.294-1.639a1.1,1.1,0,0,0,.323-.386l4.669-9.573a1.027,1.027,0,0,0-.47-1.374l-.006,0" fill="#ebebeb"/>
            <path id="Path_10031" data-name="Path 10031" d="M529.334,590.215l-.016-.008a.863.863,0,0,1-.4-1.153l13.064-26.784a.861.861,0,0,1,1.152-.4l.017.007a.862.862,0,0,1,.4,1.152h0l-13.064,26.784a.861.861,0,0,1-1.151.4h0" fill="#e0e0e0"/>
            <path id="Path_10032" data-name="Path 10032" d="M566.224,549.148a15.163,15.163,0,1,0-26.161,1.871,4.289,4.289,0,0,0-.32.542c-1.356,2.78.6,6.523,4.359,8.356s7.912,1.07,9.268-1.71a4.085,4.085,0,0,0,.228-.586,15.145,15.145,0,0,0,12.625-8.473m-8.478-17.205c2.462,1.2,3.837,3.457,3.065,5.038s-3.39,1.877-5.852.677-3.827-3.452-3.06-5.024,3.385-1.892,5.847-.691" fill="#e0e0e0"/>
            <path id="Path_10033" data-name="Path 10033" d="M546.026,508.756l-2.253-1.1a23.583,23.583,0,0,0,2.942,19.6l1.271-2.606a21.122,21.122,0,0,1-1.959-15.9" fill="#e0e0e0"/>
            <path id="Path_10034" data-name="Path 10034" d="M576.676,493.13a23.536,23.536,0,0,0-22.377.955l1.629.794-.763,1.564a21.086,21.086,0,1,1,1.937,36.82c-.161-.079-.307-.175-.464-.256l-1.077,2.208c.161.078.3.177.464.255a23.554,23.554,0,1,0,20.651-42.34h0" fill="#e0e0e0"/>
          </g>
        </g>
      </g>
    </g>
    <g id="Group_885" data-name="Group 885">
      <g id="Group_715" data-name="Group 715">
        <g id="Group_1142" data-name="Group 1142">
          <g id="Group_1141" data-name="Group 1141" clip-path="url(#clip-path)">
            <g id="Group_714" data-name="Group 714">
              <path id="Path_9601" data-name="Path 9601" d="M567.737,350.481V538.668a11.4,11.4,0,0,0,11.4,11.4h421.2a11.4,11.4,0,0,0,11.4-11.4V350.481Z" fill="#cedfe7"/>
            </g>
          </g>
        </g>
      </g>
      <g id="Group_717" data-name="Group 717">
        <g id="Group_1144" data-name="Group 1144">
          <g id="Group_1143" data-name="Group 1143" clip-path="url(#clip-path)">
            <g id="Group_716" data-name="Group 716">
              <path id="Path_9602" data-name="Path 9602" d="M937.357,527.259H642.117a10.5,10.5,0,0,1-10.5-10.5h0V459.443a10.5,10.5,0,0,1,10.5-10.5h295.24a10.5,10.5,0,0,1,10.5,10.5h0v57.314a10.5,10.5,0,0,1-10.5,10.5h0" fill="#fff"/>
              <path id="Path_9603" data-name="Path 9603" d="M697.188,463.331H642.715a3.494,3.494,0,0,1-3.494-3.494h0a3.494,3.494,0,0,1,3.494-3.494h54.472a3.495,3.495,0,0,1,0,6.989" fill="#e0e9f8"/>
              <path id="Path_9604" data-name="Path 9604" d="M841.385,489.435H673.447a3.495,3.495,0,0,1,0-6.989H841.385a3.495,3.495,0,0,1,.117,6.989q-.059,0-.117,0" fill="#e0e9f8"/>
              <path id="Path_9605" data-name="Path 9605" d="M781.972,501.871H673.447a3.495,3.495,0,1,1,0-6.989H781.972a3.495,3.495,0,0,1,0,6.989" fill="#e0e9f8"/>
              <path id="Path_9606" data-name="Path 9606" d="M766.255,463.331H711.782a3.494,3.494,0,0,1-3.494-3.494h0a3.5,3.5,0,0,1,3.494-3.494h54.473a3.495,3.495,0,0,1,0,6.989" fill="#e0e9f8"/>
              <path id="Path_9607" data-name="Path 9607" d="M655.343,501.872h-7.371a8.751,8.751,0,0,1-8.751-8.751V485.75A8.751,8.751,0,0,1,647.972,477h7.371a8.751,8.751,0,0,1,8.751,8.751h0v7.371a8.751,8.751,0,0,1-8.751,8.751" fill="#cedfe7"/>
              <path id="Path_9608" data-name="Path 9608" d="M829.027,454.878l1.039,2.1a1.657,1.657,0,0,0,1.246.9l2.322.337a.5.5,0,0,1,.417.571.506.506,0,0,1-.141.277l-1.68,1.638a1.655,1.655,0,0,0-.476,1.465l.4,2.312a.5.5,0,0,1-.415.573.491.491,0,0,1-.306-.049l-2.077-1.092a1.659,1.659,0,0,0-1.541,0l-2.076,1.092a.5.5,0,0,1-.722-.524l.4-2.312a1.655,1.655,0,0,0-.476-1.465l-1.68-1.638a.5.5,0,0,1,.276-.848l2.322-.337a1.657,1.657,0,0,0,1.246-.9l1.039-2.1a.5.5,0,0,1,.892,0" fill="#febd10"/>
              <path id="Path_9609" data-name="Path 9609" d="M817.591,454.878l1.039,2.1a1.657,1.657,0,0,0,1.246.9l2.322.337a.5.5,0,0,1,.417.571.505.505,0,0,1-.141.277l-1.681,1.638a1.655,1.655,0,0,0-.476,1.465l.4,2.312a.5.5,0,0,1-.722.524l-2.076-1.092a1.659,1.659,0,0,0-1.541,0l-2.077,1.092a.5.5,0,0,1-.722-.524l.4-2.312a1.655,1.655,0,0,0-.476-1.465l-1.689-1.633a.5.5,0,0,1,0-.708.5.5,0,0,1,.276-.14l2.322-.337a1.657,1.657,0,0,0,1.246-.9l1.039-2.1a.5.5,0,0,1,.892,0" fill="#febd10"/>
              <path id="Path_9610" data-name="Path 9610" d="M806.15,454.878l1.039,2.1a1.657,1.657,0,0,0,1.246.9l2.322.337a.5.5,0,0,1,.416.571.505.505,0,0,1-.141.277l-1.68,1.638a1.655,1.655,0,0,0-.476,1.465l.4,2.312a.5.5,0,0,1-.415.573.491.491,0,0,1-.306-.049l-2.077-1.092a1.659,1.659,0,0,0-1.541,0l-2.076,1.092a.5.5,0,0,1-.722-.524l.4-2.312a1.655,1.655,0,0,0-.476-1.465l-1.68-1.638a.5.5,0,0,1,.276-.848l2.322-.337a1.657,1.657,0,0,0,1.246-.9l1.039-2.1a.5.5,0,0,1,.892,0" fill="#febd10"/>
              <path id="Path_9611" data-name="Path 9611" d="M794.717,454.878l1.038,2.1a1.657,1.657,0,0,0,1.246.9l2.322.337a.5.5,0,0,1,.417.571.505.505,0,0,1-.141.277l-1.68,1.638a1.655,1.655,0,0,0-.476,1.465l.4,2.312a.5.5,0,0,1-.722.524l-2.077-1.092a1.659,1.659,0,0,0-1.541,0l-2.077,1.092a.5.5,0,0,1-.722-.524l.4-2.312a1.655,1.655,0,0,0-.476-1.465l-1.681-1.638a.5.5,0,0,1,.276-.848l2.322-.337a1.657,1.657,0,0,0,1.246-.9l1.038-2.1a.5.5,0,0,1,.892,0" fill="#febd10"/>
              <path id="Path_9612" data-name="Path 9612" d="M783.28,454.878l1.039,2.1a1.657,1.657,0,0,0,1.246.9l2.322.337a.5.5,0,0,1,.416.571.505.505,0,0,1-.141.277l-1.68,1.638a1.655,1.655,0,0,0-.476,1.465l.4,2.312a.5.5,0,0,1-.415.573.491.491,0,0,1-.306-.049l-2.077-1.092a1.659,1.659,0,0,0-1.541,0l-2.077,1.092a.5.5,0,0,1-.721-.524l.4-2.312a1.655,1.655,0,0,0-.476-1.465l-1.68-1.638a.5.5,0,0,1,.276-.848l2.322-.337a1.657,1.657,0,0,0,1.246-.9l1.039-2.1a.5.5,0,0,1,.892,0" fill="#febd10"/>
              <path id="Path_9613" data-name="Path 9613" d="M926.715,500.535H878.859a12.437,12.437,0,0,1,0-24.872h47.856a12.437,12.437,0,0,1,0,24.872" fill="#b9d531"/>
              <path id="Path_9614" data-name="Path 9614" d="M876.387,491.529h-2.3a.953.953,0,0,1-.711-.224,1,1,0,0,1-.212-.71v-5.65a.982.982,0,0,1,.218-.715.971.971,0,0,1,.7-.218h2.436a5.719,5.719,0,0,1,.933.067,2,2,0,0,1,.707.256,1.908,1.908,0,0,1,.472.4,1.783,1.783,0,0,1,.42,1.161,1.728,1.728,0,0,1-1.128,1.651,1.836,1.836,0,0,1,1.482,1.836,2.066,2.066,0,0,1-.323,1.136,1.936,1.936,0,0,1-.872.746,3.046,3.046,0,0,1-.79.2,7.876,7.876,0,0,1-1.041.059m-1.7-6.374v1.943h1.394a2.786,2.786,0,0,0,.88-.108.837.837,0,0,0,.474-.41.923.923,0,0,0,.128-.482.75.75,0,0,0-.4-.756,3.116,3.116,0,0,0-1.236-.187Zm1.584,3.036h-1.584v2.2h1.635q1.543,0,1.544-1.113a.906.906,0,0,0-.4-.826,2.236,2.236,0,0,0-1.195-.256" fill="#fff"/>
              <path id="Path_9615" data-name="Path 9615" d="M884.038,483.884a4,4,0,0,1,2.008.474,3.076,3.076,0,0,1,1.269,1.349,4.6,4.6,0,0,1,.431,2.052,5.02,5.02,0,0,1-.236,1.586,3.451,3.451,0,0,1-.707,1.236,3.1,3.1,0,0,1-1.159.8,4.208,4.208,0,0,1-1.574.277,4.158,4.158,0,0,1-1.579-.285,3.144,3.144,0,0,1-1.164-.8,3.44,3.44,0,0,1-.7-1.246,5.005,5.005,0,0,1-.239-1.574,4.847,4.847,0,0,1,.249-1.59,3.39,3.39,0,0,1,.72-1.231,3.106,3.106,0,0,1,1.148-.777,4.122,4.122,0,0,1,1.538-.269m2.164,3.866a3.507,3.507,0,0,0-.267-1.431,1.99,1.99,0,0,0-.761-.915,2.089,2.089,0,0,0-1.136-.31,2.039,2.039,0,0,0-.843.172,1.825,1.825,0,0,0-.667.5,2.369,2.369,0,0,0-.441.838,3.8,3.8,0,0,0-.162,1.146,3.888,3.888,0,0,0,.162,1.159,2.375,2.375,0,0,0,.456.859,1.93,1.93,0,0,0,.677.51,2.141,2.141,0,0,0,1.913-.123,2.03,2.03,0,0,0,.78-.9,3.484,3.484,0,0,0,.289-1.5" fill="#fff"/>
              <path id="Path_9616" data-name="Path 9616" d="M892.355,483.884a4,4,0,0,1,2.008.474,3.076,3.076,0,0,1,1.269,1.349,4.6,4.6,0,0,1,.431,2.052,5.02,5.02,0,0,1-.236,1.586,3.451,3.451,0,0,1-.707,1.236,3.1,3.1,0,0,1-1.159.8,4.208,4.208,0,0,1-1.574.277,4.158,4.158,0,0,1-1.579-.285,3.145,3.145,0,0,1-1.164-.8,3.44,3.44,0,0,1-.7-1.246,5.007,5.007,0,0,1-.239-1.574,4.847,4.847,0,0,1,.249-1.59,3.391,3.391,0,0,1,.72-1.231,3.106,3.106,0,0,1,1.148-.777,4.122,4.122,0,0,1,1.538-.269m2.164,3.866a3.507,3.507,0,0,0-.267-1.431,1.991,1.991,0,0,0-.761-.915,2.089,2.089,0,0,0-1.136-.31,2.039,2.039,0,0,0-.843.172,1.825,1.825,0,0,0-.667.5,2.4,2.4,0,0,0-.441.838,3.8,3.8,0,0,0-.162,1.146,3.888,3.888,0,0,0,.162,1.159,2.375,2.375,0,0,0,.456.859,1.93,1.93,0,0,0,.677.51,2.141,2.141,0,0,0,1.913-.123,2.033,2.033,0,0,0,.779-.9,3.485,3.485,0,0,0,.289-1.5" fill="#fff"/>
              <path id="Path_9617" data-name="Path 9617" d="M898.9,484.806v2.635l2.989-3.119a2.759,2.759,0,0,1,.366-.334.681.681,0,0,1,.4-.107.731.731,0,0,1,.53.193.621.621,0,0,1,.2.469.932.932,0,0,1-.343.661l-1.852,1.753,2.133,3.057a3.754,3.754,0,0,1,.339.556,1.079,1.079,0,0,1,.113.464.581.581,0,0,1-.2.436.76.76,0,0,1-.536.184.909.909,0,0,1-.518-.135,1.183,1.183,0,0,1-.339-.362q-.138-.225-.246-.41l-1.8-2.769-1.246,1.2v1.554a.992.992,0,0,1-.216.7.727.727,0,0,1-.554.228.747.747,0,0,1-.375-.1.722.722,0,0,1-.277-.277.922.922,0,0,1-.087-.333q-.015-.191-.015-.549v-5.589a1.026,1.026,0,0,1,.2-.692.7.7,0,0,1,.551-.231.724.724,0,0,1,.556.228.985.985,0,0,1,.213.7" fill="#fff"/>
              <path id="Path_9618" data-name="Path 9618" d="M909.743,484.8l2.928,4.43v-4.471a.982.982,0,0,1,.187-.654.635.635,0,0,1,.505-.218.653.653,0,0,1,.518.218.972.972,0,0,1,.19.654v5.912q0,.99-.82.99a1.076,1.076,0,0,1-.369-.059.91.91,0,0,1-.308-.187,1.776,1.776,0,0,1-.267-.3q-.123-.171-.246-.351l-2.856-4.379v4.4a.942.942,0,0,1-.2.651.66.66,0,0,1-.513.221.652.652,0,0,1-.518-.223.958.958,0,0,1-.2-.649v-5.8a1.628,1.628,0,0,1,.082-.579.828.828,0,0,1,.323-.377.886.886,0,0,1,.487-.146.8.8,0,0,1,.608.246,1.925,1.925,0,0,1,.225.292c.077.119.157.244.238.374" fill="#fff"/>
              <path id="Path_9619" data-name="Path 9619" d="M919.049,483.884a4,4,0,0,1,2.008.474,3.076,3.076,0,0,1,1.269,1.349,4.6,4.6,0,0,1,.431,2.052,5.02,5.02,0,0,1-.236,1.586,3.43,3.43,0,0,1-.708,1.236,3.1,3.1,0,0,1-1.159.8,4.208,4.208,0,0,1-1.574.277,4.159,4.159,0,0,1-1.579-.285,3.145,3.145,0,0,1-1.164-.8,3.44,3.44,0,0,1-.7-1.246,5.005,5.005,0,0,1-.239-1.574,4.849,4.849,0,0,1,.249-1.59,3.391,3.391,0,0,1,.72-1.231,3.106,3.106,0,0,1,1.148-.777,4.122,4.122,0,0,1,1.538-.269m2.162,3.863a3.548,3.548,0,0,0-.267-1.431,2,2,0,0,0-.761-.915,2.106,2.106,0,0,0-1.136-.31,2.071,2.071,0,0,0-.843.172,1.847,1.847,0,0,0-.667.5,2.369,2.369,0,0,0-.441.838,3.773,3.773,0,0,0-.162,1.146,3.879,3.879,0,0,0,.162,1.159,2.359,2.359,0,0,0,.456.859,1.907,1.907,0,0,0,.677.51,2.137,2.137,0,0,0,1.913-.122,2.03,2.03,0,0,0,.779-.9,3.5,3.5,0,0,0,.29-1.5" fill="#fff"/>
              <path id="Path_9620" data-name="Path 9620" d="M929.509,490.345l-1.215-4.508-1.23,4.508c-.1.341-.172.587-.228.736a.991.991,0,0,1-.295.4.848.848,0,0,1-.559.177.931.931,0,0,1-.464-.1.817.817,0,0,1-.295-.3,1.862,1.862,0,0,1-.185-.457c-.048-.176-.091-.34-.128-.49l-1.251-5.061a3,3,0,0,1-.113-.671.659.659,0,0,1,.2-.493.7.7,0,0,1,.507-.2.574.574,0,0,1,.559.267,3.049,3.049,0,0,1,.251.774l.984,4.389,1.1-4.107a6.842,6.842,0,0,1,.22-.718,1.036,1.036,0,0,1,.318-.425.922.922,0,0,1,.6-.18.874.874,0,0,1,.6.187,1.022,1.022,0,0,1,.3.408q.082.219.22.728l1.113,4.107.984-4.389a5.233,5.233,0,0,1,.136-.538.85.85,0,0,1,.221-.349.614.614,0,0,1,.454-.154.708.708,0,0,1,.5.2.656.656,0,0,1,.208.5,3.246,3.246,0,0,1-.113.671l-1.251,5.061c-.086.342-.157.592-.213.752a1.025,1.025,0,0,1-.287.418.834.834,0,0,1-.572.18.851.851,0,0,1-.559-.174.944.944,0,0,1-.292-.392c-.055-.146-.132-.394-.231-.746" fill="#fff"/>
              <path id="Path_9621" data-name="Path 9621" d="M937.357,440.411H642.117a10.5,10.5,0,0,1-10.5-10.5h0V372.6a10.5,10.5,0,0,1,10.5-10.5h295.24a10.5,10.5,0,0,1,10.5,10.5V429.91a10.5,10.5,0,0,1-10.5,10.5" fill="#fff"/>
              <path id="Path_9622" data-name="Path 9622" d="M697.188,376.484H642.715a3.495,3.495,0,1,1,0-6.989h54.472a3.495,3.495,0,0,1,0,6.989" fill="#e0e9f8"/>
              <path id="Path_9623" data-name="Path 9623" d="M841.385,402.589H673.447a3.5,3.5,0,0,1-3.495-3.494h0a3.5,3.5,0,0,1,3.495-3.494H841.385a3.494,3.494,0,0,1,0,6.989" fill="#e0e9f8"/>
              <path id="Path_9624" data-name="Path 9624" d="M781.972,415.025H673.447a3.494,3.494,0,1,1,0-6.989H781.972a3.494,3.494,0,0,1,0,6.989" fill="#e0e9f8"/>
              <path id="Path_9625" data-name="Path 9625" d="M766.255,376.484H711.782a3.495,3.495,0,1,1,0-6.989h54.473a3.495,3.495,0,0,1,0,6.989" fill="#e0e9f8"/>
              <path id="Path_9626" data-name="Path 9626" d="M655.343,415.025h-7.371a8.751,8.751,0,0,1-8.751-8.751h0V398.9a8.75,8.75,0,0,1,8.751-8.751h7.371a8.75,8.75,0,0,1,8.751,8.751h0v7.371a8.751,8.751,0,0,1-8.751,8.751h0" fill="#cedfe7"/>
              <path id="Path_9627" data-name="Path 9627" d="M829.027,368.031l1.039,2.1a1.658,1.658,0,0,0,1.246.906l2.322.337a.5.5,0,0,1,.417.571.506.506,0,0,1-.141.277l-1.68,1.638a1.655,1.655,0,0,0-.476,1.465l.4,2.313a.5.5,0,0,1-.721.524l-2.077-1.092a1.653,1.653,0,0,0-1.541,0l-2.076,1.092a.5.5,0,0,1-.722-.524l.4-2.313a1.655,1.655,0,0,0-.476-1.465l-1.68-1.638a.5.5,0,0,1,.276-.848l2.322-.337a1.658,1.658,0,0,0,1.246-.906l1.039-2.1a.5.5,0,0,1,.892,0" fill="#febd10"/>
              <path id="Path_9628" data-name="Path 9628" d="M817.591,368.031l1.039,2.1a1.658,1.658,0,0,0,1.246.906l2.322.337a.5.5,0,0,1,.417.571.505.505,0,0,1-.141.277l-1.681,1.638a1.655,1.655,0,0,0-.476,1.465l.4,2.313a.5.5,0,0,1-.722.524l-2.076-1.092a1.653,1.653,0,0,0-1.541,0l-2.077,1.092a.5.5,0,0,1-.722-.524l.4-2.313a1.655,1.655,0,0,0-.476-1.465l-1.689-1.634a.5.5,0,0,1,0-.708.5.5,0,0,1,.276-.14l2.322-.337a1.657,1.657,0,0,0,1.246-.907l1.039-2.1a.5.5,0,0,1,.672-.22.508.508,0,0,1,.22.22" fill="#febd10"/>
              <path id="Path_9629" data-name="Path 9629" d="M806.15,368.031l1.039,2.1a1.658,1.658,0,0,0,1.246.906l2.322.337a.5.5,0,0,1,.416.571.505.505,0,0,1-.141.277l-1.68,1.638a1.655,1.655,0,0,0-.476,1.465l.4,2.313a.5.5,0,0,1-.721.524l-2.077-1.092a1.653,1.653,0,0,0-1.541,0l-2.076,1.092a.5.5,0,0,1-.722-.524l.4-2.313a1.655,1.655,0,0,0-.476-1.465l-1.68-1.638a.5.5,0,0,1,.276-.848l2.322-.337a1.658,1.658,0,0,0,1.246-.906l1.039-2.1a.5.5,0,0,1,.892,0" fill="#febd10"/>
              <path id="Path_9630" data-name="Path 9630" d="M794.717,368.031l1.038,2.1a1.658,1.658,0,0,0,1.246.906l2.322.337a.5.5,0,0,1,.417.571.505.505,0,0,1-.141.277l-1.68,1.638a1.655,1.655,0,0,0-.476,1.465l.4,2.313a.5.5,0,0,1-.722.524l-2.077-1.092a1.653,1.653,0,0,0-1.541,0l-2.077,1.092a.5.5,0,0,1-.722-.524l.4-2.313a1.655,1.655,0,0,0-.476-1.465l-1.681-1.638a.5.5,0,0,1,.276-.848l2.322-.337a1.658,1.658,0,0,0,1.246-.906l1.038-2.1a.5.5,0,0,1,.892,0" fill="#febd10"/>
              <path id="Path_9631" data-name="Path 9631" d="M783.28,368.031l1.039,2.1a1.658,1.658,0,0,0,1.246.906l2.322.337a.5.5,0,0,1,.416.571.505.505,0,0,1-.141.277l-1.68,1.638a1.655,1.655,0,0,0-.476,1.465l.4,2.313a.5.5,0,0,1-.721.524l-2.077-1.092a1.653,1.653,0,0,0-1.541,0l-2.077,1.092a.5.5,0,0,1-.673-.219.5.5,0,0,1-.048-.3l.4-2.313a1.655,1.655,0,0,0-.476-1.465l-1.68-1.638a.5.5,0,0,1,.276-.848l2.322-.337a1.658,1.658,0,0,0,1.246-.906l1.039-2.1a.5.5,0,0,1,.892,0" fill="#febd10"/>
              <path id="Path_9632" data-name="Path 9632" d="M926.715,413.69H878.859a12.437,12.437,0,1,1,0-24.873h47.856a12.437,12.437,0,0,1,0,24.873" fill="#b9d531"/>
              <path id="Path_9633" data-name="Path 9633" d="M876.387,404.682h-2.3a.957.957,0,0,1-.711-.223,1,1,0,0,1-.212-.71V398.1a.979.979,0,0,1,.218-.715.966.966,0,0,1,.7-.218h2.436a5.608,5.608,0,0,1,.933.066,1.965,1.965,0,0,1,.707.256,1.866,1.866,0,0,1,.472.4,1.779,1.779,0,0,1,.42,1.161,1.729,1.729,0,0,1-1.128,1.651,1.835,1.835,0,0,1,1.482,1.836,2.069,2.069,0,0,1-.323,1.136,1.942,1.942,0,0,1-.872.746,3.128,3.128,0,0,1-.79.2,8.241,8.241,0,0,1-1.041.059m-1.7-6.374v1.943h1.394a2.816,2.816,0,0,0,.88-.108.844.844,0,0,0,.474-.41.928.928,0,0,0,.128-.482.749.749,0,0,0-.4-.756,3.081,3.081,0,0,0-1.236-.187Zm1.6,3.037H874.69v2.2h1.635q1.543,0,1.544-1.113a.906.906,0,0,0-.4-.826,2.227,2.227,0,0,0-1.2-.256" fill="#fff"/>
              <path id="Path_9634" data-name="Path 9634" d="M884.038,397.036a4,4,0,0,1,2.008.474,3.076,3.076,0,0,1,1.269,1.349,4.6,4.6,0,0,1,.431,2.053,5.019,5.019,0,0,1-.236,1.585,3.451,3.451,0,0,1-.707,1.236,3.1,3.1,0,0,1-1.159.8,4.207,4.207,0,0,1-1.574.277,4.159,4.159,0,0,1-1.579-.285,3.145,3.145,0,0,1-1.164-.8,3.44,3.44,0,0,1-.7-1.246,5.005,5.005,0,0,1-.239-1.574,4.847,4.847,0,0,1,.249-1.59,3.39,3.39,0,0,1,.72-1.231,3.106,3.106,0,0,1,1.148-.777,4.122,4.122,0,0,1,1.538-.269m2.164,3.866a3.508,3.508,0,0,0-.267-1.431,2,2,0,0,0-.761-.916,2.106,2.106,0,0,0-1.136-.31,2.071,2.071,0,0,0-.843.172,1.847,1.847,0,0,0-.667.5,2.373,2.373,0,0,0-.441.839,3.794,3.794,0,0,0-.162,1.146,3.877,3.877,0,0,0,.162,1.158,2.371,2.371,0,0,0,.456.86,1.93,1.93,0,0,0,.677.51,2.141,2.141,0,0,0,1.913-.123,2.03,2.03,0,0,0,.78-.9,3.484,3.484,0,0,0,.289-1.5" fill="#fff"/>
              <path id="Path_9635" data-name="Path 9635" d="M892.355,397.036a4,4,0,0,1,2.008.474,3.076,3.076,0,0,1,1.269,1.349,4.6,4.6,0,0,1,.431,2.053,5.019,5.019,0,0,1-.236,1.585,3.46,3.46,0,0,1-.707,1.236,3.1,3.1,0,0,1-1.159.8,4.207,4.207,0,0,1-1.574.277,4.159,4.159,0,0,1-1.579-.285,3.146,3.146,0,0,1-1.164-.8,3.441,3.441,0,0,1-.7-1.246,5.007,5.007,0,0,1-.239-1.574,4.847,4.847,0,0,1,.249-1.59,3.39,3.39,0,0,1,.72-1.231,3.106,3.106,0,0,1,1.148-.777,4.122,4.122,0,0,1,1.538-.269m2.164,3.866a3.508,3.508,0,0,0-.267-1.431,2,2,0,0,0-.761-.916,2.106,2.106,0,0,0-1.136-.31,2.071,2.071,0,0,0-.843.172,1.847,1.847,0,0,0-.667.5,2.382,2.382,0,0,0-.441.839,3.794,3.794,0,0,0-.162,1.146,3.877,3.877,0,0,0,.162,1.158,2.371,2.371,0,0,0,.456.86,1.93,1.93,0,0,0,.677.51,2.141,2.141,0,0,0,1.913-.123,2.033,2.033,0,0,0,.779-.9,3.485,3.485,0,0,0,.289-1.5" fill="#fff"/>
              <path id="Path_9636" data-name="Path 9636" d="M898.9,397.959v2.635l2.989-3.118a2.683,2.683,0,0,1,.366-.333.675.675,0,0,1,.4-.108.731.731,0,0,1,.53.193.618.618,0,0,1,.2.469.932.932,0,0,1-.343.661l-1.852,1.753,2.133,3.056a3.86,3.86,0,0,1,.339.556,1.086,1.086,0,0,1,.113.464.577.577,0,0,1-.2.436.751.751,0,0,1-.536.184.909.909,0,0,1-.518-.135,1.161,1.161,0,0,1-.339-.362c-.092-.15-.174-.286-.246-.41l-1.8-2.769-1.246,1.195v1.552a.992.992,0,0,1-.216.7.734.734,0,0,1-.554.228.757.757,0,0,1-.375-.1.718.718,0,0,1-.277-.278.911.911,0,0,1-.087-.333c-.01-.126-.015-.309-.015-.548v-5.589a1.024,1.024,0,0,1,.2-.691.7.7,0,0,1,.551-.231.724.724,0,0,1,.556.228.985.985,0,0,1,.213.7" fill="#fff"/>
              <path id="Path_9637" data-name="Path 9637" d="M909.743,397.95l2.928,4.43v-4.471a.979.979,0,0,1,.187-.654.629.629,0,0,1,.505-.218.647.647,0,0,1,.518.218.969.969,0,0,1,.19.654v5.911q0,.99-.82.99a1.076,1.076,0,0,1-.369-.059.911.911,0,0,1-.308-.187,1.776,1.776,0,0,1-.267-.3q-.123-.171-.246-.351l-2.856-4.379v4.4a.942.942,0,0,1-.2.651.659.659,0,0,1-.513.22.652.652,0,0,1-.518-.223.957.957,0,0,1-.2-.648v-5.8a1.622,1.622,0,0,1,.082-.579.825.825,0,0,1,.323-.378.886.886,0,0,1,.487-.146.8.8,0,0,1,.609.246,1.925,1.925,0,0,1,.225.292c.077.119.157.244.238.374" fill="#fff"/>
              <path id="Path_9638" data-name="Path 9638" d="M919.049,397.036a4,4,0,0,1,2.008.474,3.076,3.076,0,0,1,1.269,1.349,4.6,4.6,0,0,1,.431,2.053,5.019,5.019,0,0,1-.236,1.585,3.43,3.43,0,0,1-.708,1.236,3.1,3.1,0,0,1-1.159.8,4.207,4.207,0,0,1-1.574.277,4.159,4.159,0,0,1-1.579-.285,3.146,3.146,0,0,1-1.164-.8,3.441,3.441,0,0,1-.7-1.246,5.005,5.005,0,0,1-.239-1.574,4.849,4.849,0,0,1,.249-1.59,3.391,3.391,0,0,1,.72-1.231,3.106,3.106,0,0,1,1.148-.777,4.122,4.122,0,0,1,1.538-.269m2.162,3.864a3.541,3.541,0,0,0-.267-1.431,1.99,1.99,0,0,0-.761-.915,2.089,2.089,0,0,0-1.136-.31,2.039,2.039,0,0,0-.843.172,1.825,1.825,0,0,0-.667.5,2.361,2.361,0,0,0-.441.838,3.764,3.764,0,0,0-.162,1.146,3.888,3.888,0,0,0,.162,1.159,2.375,2.375,0,0,0,.456.859,1.93,1.93,0,0,0,.677.51,2.141,2.141,0,0,0,1.913-.123,2.033,2.033,0,0,0,.779-.9,3.5,3.5,0,0,0,.29-1.5" fill="#fff"/>
              <path id="Path_9639" data-name="Path 9639" d="M929.509,403.5l-1.215-4.507-1.23,4.507q-.144.513-.228.736a.991.991,0,0,1-.295.4.848.848,0,0,1-.559.177.926.926,0,0,1-.464-.106.806.806,0,0,1-.295-.3,1.862,1.862,0,0,1-.185-.457c-.048-.176-.091-.34-.128-.49l-1.251-5.061a3,3,0,0,1-.113-.671.659.659,0,0,1,.2-.493.7.7,0,0,1,.507-.2.575.575,0,0,1,.559.266,3.062,3.062,0,0,1,.251.774l.984,4.389,1.1-4.107a6.9,6.9,0,0,1,.22-.717,1.03,1.03,0,0,1,.318-.425.922.922,0,0,1,.6-.18.874.874,0,0,1,.6.187,1.022,1.022,0,0,1,.3.408q.082.221.22.728l1.113,4.107.984-4.389a5.168,5.168,0,0,1,.136-.538.85.85,0,0,1,.221-.349.614.614,0,0,1,.454-.154.7.7,0,0,1,.5.2.654.654,0,0,1,.208.5,3.258,3.258,0,0,1-.113.671l-1.251,5.061c-.086.342-.157.592-.213.752a1.025,1.025,0,0,1-.287.418.992.992,0,0,1-1.131.006.944.944,0,0,1-.292-.392c-.055-.146-.132-.394-.231-.746" fill="#fff"/>
            </g>
          </g>
        </g>
      </g>
      <g id="Group_718" data-name="Group 718">
        <g id="Path_9640" data-name="Path 9640">
          <path id="Path_10341" data-name="Path 10341" d="M1001.248,549.57l-397.451-.8V335.974h407.44V540.288c0,5.118-4.481,9.281-9.989,9.282Z" fill="#fff"/>
          <path id="Path_10342" data-name="Path 10342" d="M604.3,336.474v211.8l396.95.8c5.233,0,9.49-3.94,9.49-8.782V336.474H604.3m-1-1h408.44V540.288c0,5.4-4.7,9.782-10.49,9.782l-397.95-.8V335.474Z" fill="#d8e2e8"/>
        </g>
        <path id="Path_9641" data-name="Path 9641" d="M1011.737,335.474h-444v-24.36a11.2,11.2,0,0,1,11.2-11.2h421.6a11.2,11.2,0,0,1,11.2,11.2h0Z" fill="#fdc61b"/>
        <path id="Path_9642" data-name="Path 9642" d="M877.384,372.825H678.364a8.574,8.574,0,1,1,0-17.147h199.02a8.574,8.574,0,0,1,0,17.147" fill="#d8e2e8"/>
        <path id="Path_9643" data-name="Path 9643" d="M981.93,406.69H674.83a4.029,4.029,0,1,1,0-8.057h307.1a4.029,4.029,0,0,1,0,8.057" fill="#d8e2e8"/>
        <path id="Path_9644" data-name="Path 9644" d="M981.93,427.895H674.83a4.028,4.028,0,1,1,0-8.057h307.1a4.028,4.028,0,0,1,0,8.057" fill="#d8e2e8"/>
        <path id="Path_9645" data-name="Path 9645" d="M778.285,449.1H674.828a4.029,4.029,0,1,1,0-8.057H778.285a4.029,4.029,0,0,1,0,8.057" fill="#d8e2e8"/>
        <path id="Path_9646" data-name="Path 9646" d="M651.518,364.251a17.862,17.862,0,1,1-17.862-17.862,17.863,17.863,0,0,1,17.862,17.862h0" fill="#d8e2e8"/>
        <path id="Path_9647" data-name="Path 9647" d="M603.3,550.07h-24.36a11.2,11.2,0,0,1-11.2-11.2h0v-203.4H603.3Z" fill="#15375e"/>
        <path id="Path_9648" data-name="Path 9648" d="M590.69,345.11h-6.2v5.426h-6.2V343.56h-1.55v11.627h1.55v-2.325h13.95v2.325h1.55v-6.976a3.1,3.1,0,0,0-3.1-3.1m-9.3,4.651a2.325,2.325,0,1,0-2.325-2.325h0a2.325,2.325,0,0,0,2.325,2.325" fill="#fff"/>
        <path id="Path_9649" data-name="Path 9649" d="M593.711,388.247h-.779V370.494a.934.934,0,0,0-.934-.934H578.917a.934.934,0,0,0-.934.934h0v17.752H577.2a.467.467,0,0,0-.467.467v.779h17.44v-.779a.467.467,0,0,0-.467-.467m-11.99-15.727a.467.467,0,0,1,.467-.465h1.557a.467.467,0,0,1,.467.467v1.557a.468.468,0,0,1-.467.467h-1.557a.468.468,0,0,1-.467-.467Zm0,3.737a.467.467,0,0,1,.467-.467h1.557a.467.467,0,0,1,.467.467v1.557a.468.468,0,0,1-.467.467h-1.557a.468.468,0,0,1-.467-.467Zm2.024,5.762h-1.557a.468.468,0,0,1-.467-.467v-1.558a.467.467,0,0,1,.467-.466h1.557a.467.467,0,0,1,.467.466v1.561a.468.468,0,0,1-.467.467m2.959,6.229h-2.491v-3.27a.467.467,0,0,1,.467-.467h1.557a.467.467,0,0,1,.467.467Zm2.491-6.7a.468.468,0,0,1-.467.467H587.17a.468.468,0,0,1-.467-.467v-1.557a.467.467,0,0,1,.467-.467h1.557a.467.467,0,0,1,.467.467Zm0-3.737a.468.468,0,0,1-.467.467H587.17a.468.468,0,0,1-.467-.467v-1.559a.467.467,0,0,1,.467-.467h1.557a.467.467,0,0,1,.467.467Zm0-3.737a.468.468,0,0,1-.467.467H587.17a.468.468,0,0,1-.467-.467v-1.557a.467.467,0,0,1,.467-.467h1.557a.467.467,0,0,1,.467.467Z" fill="#fff"/>
        <path id="Path_9650" data-name="Path 9650" d="M579.353,409.8a1.744,1.744,0,1,0-1.744-1.744h0a1.747,1.747,0,0,0,1.744,1.744m12.209,0a1.744,1.744,0,1,0-1.744-1.744h0a1.747,1.747,0,0,0,1.744,1.744m.872.872H590.69a1.732,1.732,0,0,0-1.229.507,3.984,3.984,0,0,1,2.047,2.98h1.8a.87.87,0,0,0,.872-.87v-.874a1.747,1.747,0,0,0-1.744-1.744m-6.976,0a3.052,3.052,0,1,0-3.052-3.052,3.052,3.052,0,0,0,3.052,3.052h0m2.093.872h-.226a4.215,4.215,0,0,1-3.733,0h-.226a3.14,3.14,0,0,0-3.139,3.14v.785a1.308,1.308,0,0,0,1.308,1.308h7.841a1.308,1.308,0,0,0,1.308-1.308h0v-.785a3.141,3.141,0,0,0-3.139-3.14m-6.1-.364a1.732,1.732,0,0,0-1.229-.507h-1.74a1.746,1.746,0,0,0-1.744,1.744v.872a.871.871,0,0,0,.87.872h1.8a4,4,0,0,1,2.049-2.981" fill="#fff"/>
        <path id="Path_9651" data-name="Path 9651" d="M583.714,440.717h0c0-.442.036-.238-2.318-4.947a1.31,1.31,0,0,0-2.34,0c-2.374,4.749-2.318,4.52-2.318,4.947h0c0,1.2,1.562,2.179,3.488,2.179s3.488-.976,3.488-2.179m-3.488-4.36,1.962,3.924h-3.925Zm13.952,4.36c0-.442.036-.238-2.318-4.947a1.31,1.31,0,0,0-2.34,0c-2.374,4.749-2.318,4.52-2.318,4.947h0c0,1.2,1.562,2.179,3.488,2.179S594.178,441.92,594.178,440.717Zm-5.45-.436,1.962-3.925,1.962,3.925Zm2.4,3.488h-4.8v-8.033a2.183,2.183,0,0,0,1.264-1.56h3.532a.436.436,0,0,0,.436-.436h0v-.872a.436.436,0,0,0-.436-.436h-3.932a2.158,2.158,0,0,0-3.468,0h-3.935a.436.436,0,0,0-.436.436h0v.872a.436.436,0,0,0,.436.436h3.532a2.183,2.183,0,0,0,1.264,1.56v8.032h-4.8a.436.436,0,0,0-.436.436h0v.872a.436.436,0,0,0,.436.436h11.341a.436.436,0,0,0,.436-.436h0V444.2a.436.436,0,0,0-.436-.436h0" fill="#fff"/>
        <path id="Path_9652" data-name="Path 9652" d="M583.713,468.7H587.2v-.872h-1.163v-4.069H585L583.659,465l.7.727a3.026,3.026,0,0,0,.5-.518h.018v2.616h-1.164Zm4.651-2.326a4.625,4.625,0,0,1-.191,1.29,4.911,4.911,0,0,1-.541,1.217,2.825,2.825,0,0,1-.922.917,2.4,2.4,0,0,1-2.507,0,2.816,2.816,0,0,1-.922-.917,4.913,4.913,0,0,1-.541-1.217,4.463,4.463,0,0,1,0-2.58,4.881,4.881,0,0,1,.541-1.217,2.8,2.8,0,0,1,.922-.917,2.4,2.4,0,0,1,2.507,0,2.8,2.8,0,0,1,.922.917,4.878,4.878,0,0,1,.541,1.217,4.614,4.614,0,0,1,.191,1.29m4.651,2.326v-4.655a2.327,2.327,0,0,1-2.325-2.326H580.225a2.328,2.328,0,0,1-2.325,2.326V468.7a2.326,2.326,0,0,1,2.325,2.325H590.69a2.325,2.325,0,0,1,2.325-2.325m1.162-7.551v10.465a.591.591,0,0,1-.582.581H577.318a.589.589,0,0,1-.581-.581V461.144a.588.588,0,0,1,.581-.581H593.6a.588.588,0,0,1,.582.581" fill="#fff"/>
        <path id="Path_9653" data-name="Path 9653" d="M594.178,503.878a3.948,3.948,0,0,1-.851,2.548,2.549,2.549,0,0,1-2.051,1.062H579.639a2.549,2.549,0,0,1-2.051-1.062,3.949,3.949,0,0,1-.852-2.548,19.718,19.718,0,0,1,.116-2.187,11.7,11.7,0,0,1,.429-2.071,6.885,6.885,0,0,1,.8-1.785,3.8,3.8,0,0,1,1.281-1.212,3.528,3.528,0,0,1,1.833-.47,6.088,6.088,0,0,0,8.529,0,3.528,3.528,0,0,1,1.833.47,3.809,3.809,0,0,1,1.281,1.212,6.9,6.9,0,0,1,.8,1.785,11.7,11.7,0,0,1,.429,2.071,19.718,19.718,0,0,1,.116,2.187M590.7,491.792a5.231,5.231,0,1,1-1.532-3.7,5.038,5.038,0,0,1,1.533,3.7" fill="#fff"/>
        <path id="Path_9654" data-name="Path 9654" d="M588.364,531.28a2.905,2.905,0,1,0-.852,2.055,2.8,2.8,0,0,0,.852-2.055m5.814-1.238v2.521a.441.441,0,0,1-.091.261.349.349,0,0,1-.227.148l-2.1.318a7.351,7.351,0,0,1-.443,1.033q.4.567,1.215,1.567a.442.442,0,0,1,.113.284.384.384,0,0,1-.1.261,11.541,11.541,0,0,1-1.124,1.226q-.818.805-1.067.806a.563.563,0,0,1-.3-.1l-1.567-1.226a6.527,6.527,0,0,1-1.033.431,18.6,18.6,0,0,1-.329,2.112.383.383,0,0,1-.409.318H584.2a.433.433,0,0,1-.278-.1.334.334,0,0,1-.131-.244l-.318-2.089a7.1,7.1,0,0,1-1.022-.42l-1.6,1.215a.411.411,0,0,1-.284.1.391.391,0,0,1-.284-.125,15,15,0,0,1-1.874-1.907.452.452,0,0,1-.08-.261.433.433,0,0,1,.091-.261q.17-.238.579-.755t.613-.8a5.6,5.6,0,0,1-.466-1.124l-2.078-.307a.362.362,0,0,1-.239-.142.425.425,0,0,1-.091-.267v-2.521a.431.431,0,0,1,.091-.261.338.338,0,0,1,.216-.148l2.112-.318a5.559,5.559,0,0,1,.443-1.045q-.454-.648-1.215-1.567a.429.429,0,0,1-.113-.273.478.478,0,0,1,.1-.261,11.349,11.349,0,0,1,1.119-1.221q.824-.813,1.073-.812a.479.479,0,0,1,.3.114l1.567,1.215a6.441,6.441,0,0,1,1.033-.432,18.6,18.6,0,0,1,.329-2.112.383.383,0,0,1,.409-.318h2.521a.424.424,0,0,1,.278.1.336.336,0,0,1,.131.244l.318,2.089a7,7,0,0,1,1.022.42l1.612-1.215a.361.361,0,0,1,.272-.1.435.435,0,0,1,.284.114,15.538,15.538,0,0,1,1.874,1.93.367.367,0,0,1,.079.25.442.442,0,0,1-.091.261q-.17.237-.579.755t-.613.8a6.786,6.786,0,0,1,.466,1.113l2.078.318a.356.356,0,0,1,.239.142.436.436,0,0,1,.091.267" fill="#fff"/>
        <path id="Path_9655" data-name="Path 9655" d="M877.455,506.573H678.435a8.574,8.574,0,1,1,0-17.147h199.02a8.574,8.574,0,0,1,0,17.147" fill="#d8e2e8"/>
        <path id="Path_9656" data-name="Path 9656" d="M838.171,539.463h-165.1c-1.774,0-3.211-1.724-3.211-3.85s1.438-3.851,3.211-3.851h165.1c1.773,0,3.211,1.724,3.211,3.851s-1.438,3.85-3.211,3.85" fill="#d8e2e8"/>
        <path id="Path_9657" data-name="Path 9657" d="M651.518,364.251a17.862,17.862,0,1,1-17.862-17.862,17.863,17.863,0,0,1,17.862,17.862h0" fill="#fdc61b"/>
        <path id="Path_9658" data-name="Path 9658" d="M646.981,376.116a30.99,30.99,0,0,0-.168-3.166,18.53,18.53,0,0,0-.678-3.273,10.876,10.876,0,0,0-1.26-2.821,6.026,6.026,0,0,0-2.024-1.917,5.584,5.584,0,0,0-2.9-.743,9.621,9.621,0,0,1-13.48,0,5.584,5.584,0,0,0-2.9.743,6.008,6.008,0,0,0-2.024,1.917,10.876,10.876,0,0,0-1.26,2.821,18.562,18.562,0,0,0-.667,3.277c-.077.679-.086,1.434-.115,2.167a17.812,17.812,0,0,0,27.479,1" fill="#fff"/>
        <path id="Path_9659" data-name="Path 9659" d="M633.211,349.037a8.269,8.269,0,1,0,5.846,2.422,7.965,7.965,0,0,0-5.846-2.422" fill="#fff"/>
        <path id="Path_9660" data-name="Path 9660" d="M651.518,498a17.862,17.862,0,1,1-17.862-17.862A17.863,17.863,0,0,1,651.518,498h0" fill="#fdc61b"/>
        <path id="Path_9661" data-name="Path 9661" d="M646.981,509.865a30.99,30.99,0,0,0-.168-3.166,18.53,18.53,0,0,0-.678-3.273,10.876,10.876,0,0,0-1.26-2.821,6.014,6.014,0,0,0-2.024-1.916,5.584,5.584,0,0,0-2.9-.743,9.619,9.619,0,0,1-13.48,0,5.584,5.584,0,0,0-2.9.743,6,6,0,0,0-2.024,1.916,10.876,10.876,0,0,0-1.26,2.821,18.53,18.53,0,0,0-.678,3.273c-.077.679-.086,1.434-.115,2.167a17.812,17.812,0,0,0,27.479,1" fill="#fff"/>
        <path id="Path_9662" data-name="Path 9662" d="M633.211,482.786a8.271,8.271,0,1,0,5.846,2.423,7.97,7.97,0,0,0-5.846-2.423" fill="#fff"/>
      </g>
      <g id="Group_1322" data-name="Group 1322" transform="translate(-233.535 -77.591)">
        <path id="Path_10387" data-name="Path 10387" d="M826.5,386.6l.005,4.236a1.239,1.239,0,0,1-.1.5,1.328,1.328,0,0,1-.276.409,1.27,1.27,0,0,1-.409.274,1.244,1.244,0,0,1-.5.1,1.267,1.267,0,0,1-.335-.045,1.183,1.183,0,0,1-.31-.129l0,1.382a2.674,2.674,0,0,0,.645.081,2.512,2.512,0,0,0,1-.2,2.564,2.564,0,0,0,1.364-1.367,2.454,2.454,0,0,0,.2-1l0-4.237Z" transform="translate(9.591 0.464)" fill="#fff"/>
        <path id="Path_10388" data-name="Path 10388" d="M831.75,390.1a2.521,2.521,0,0,1-.2,1,2.491,2.491,0,0,1-.543.8,2.552,2.552,0,0,1-1.8.731,2.5,2.5,0,0,1-.987-.2,2.578,2.578,0,0,1-.808-.532,2.491,2.491,0,0,1-.547-.8,2.642,2.642,0,0,1,0-2.016,2.456,2.456,0,0,1,.545-.806,2.547,2.547,0,0,1,1.794-.726,2.665,2.665,0,0,1,.991.179,2.385,2.385,0,0,1,1.349,1.319,2.64,2.64,0,0,1,.2,1.041m-1.278,0a1.385,1.385,0,0,0-.1-.536,1.262,1.262,0,0,0-.272-.412,1.184,1.184,0,0,0-.4-.263,1.288,1.288,0,0,0-.491-.091,1.319,1.319,0,0,0-.489.091,1.181,1.181,0,0,0-.4.265,1.274,1.274,0,0,0-.267.414,1.422,1.422,0,0,0-.1.536,1.32,1.32,0,0,0,.1.516,1.289,1.289,0,0,0,.267.412,1.255,1.255,0,0,0,.4.276,1.217,1.217,0,0,0,.489.1,1.288,1.288,0,0,0,.491-.095,1.217,1.217,0,0,0,.4-.265,1.234,1.234,0,0,0,.272-.414,1.389,1.389,0,0,0,.1-.534" transform="translate(11.251 1.226)" fill="#fff"/>
        <path id="Path_10389" data-name="Path 10389" d="M834.884,390.092a2.51,2.51,0,0,1-.74,1.808,2.585,2.585,0,0,1-2.783.538,2.593,2.593,0,0,1-.808-.534,2.491,2.491,0,0,1-.547-.8,2.642,2.642,0,0,1,0-2.016,2.457,2.457,0,0,1,.545-.806,2.547,2.547,0,0,1,1.794-.726,2.673,2.673,0,0,1,.991.179,2.384,2.384,0,0,1,1.349,1.319,2.6,2.6,0,0,1,.2,1.041m-1.276,0a1.39,1.39,0,0,0-.1-.536,1.261,1.261,0,0,0-.272-.412,1.183,1.183,0,0,0-.4-.263,1.359,1.359,0,0,0-.98,0,1.179,1.179,0,0,0-.4.265,1.275,1.275,0,0,0-.267.414,1.418,1.418,0,0,0-.1.536,1.317,1.317,0,0,0,.1.516,1.287,1.287,0,0,0,.267.412,1.255,1.255,0,0,0,.4.276,1.211,1.211,0,0,0,.489.1,1.288,1.288,0,0,0,.491-.095,1.218,1.218,0,0,0,.4-.265,1.234,1.234,0,0,0,.272-.414,1.39,1.39,0,0,0,.1-.534" transform="translate(13.735 1.223)" fill="#fff"/>
        <path id="Path_10390" data-name="Path 10390" d="M837.853,393.3h0a.58.58,0,0,1-.47-.24l-.3-.418a3.992,3.992,0,0,1-.371.294,2.74,2.74,0,0,1-.409.238,2.635,2.635,0,0,1-.421.154,2.358,2.358,0,0,1-.548.063,2.389,2.389,0,0,1-.887-.188,2.439,2.439,0,0,1-.781-.529,2.5,2.5,0,0,1-.527-.8,2.593,2.593,0,0,1-.2-1.011,2.634,2.634,0,0,1,.192-1.009,2.507,2.507,0,0,1,.527-.808,2.434,2.434,0,0,1,.78-.536,2.368,2.368,0,0,1,.953-.194,2.195,2.195,0,0,1,.335.027,1.8,1.8,0,0,1,.335.086,1.392,1.392,0,0,1,.308.159.888.888,0,0,1,.242.242l0-2.244,1.233,0Zm-1.237-2.444a1.262,1.262,0,0,0-.1-.486,1.4,1.4,0,0,0-.263-.417,1.321,1.321,0,0,0-.389-.29,1.053,1.053,0,0,0-.473-.109,1.255,1.255,0,0,0-.473.09,1.12,1.12,0,0,0-.385.258,1.2,1.2,0,0,0-.258.412,1.5,1.5,0,0,0-.093.547,1.363,1.363,0,0,0,.353.919,1.225,1.225,0,0,0,.385.283,1.126,1.126,0,0,0,.475.1,1.055,1.055,0,0,0,.473-.111,1.312,1.312,0,0,0,.387-.292,1.392,1.392,0,0,0,.262-.417,1.271,1.271,0,0,0,.1-.487" transform="translate(16.219 0.455)" fill="#fff"/>
        <path id="Path_10391" data-name="Path 10391" d="M829.729,395.847a1.847,1.847,0,0,1-.152.749,1.981,1.981,0,0,1-.414.613,1.955,1.955,0,0,1-.611.416,1.888,1.888,0,0,1-.751.154l-3.217,0-.007-6.434,3.217,0a1.842,1.842,0,0,1,.749.15,1.956,1.956,0,0,1,1.029,1.027,1.841,1.841,0,0,1,.154.749,1.468,1.468,0,0,1-.048.367,1.782,1.782,0,0,1-.14.364,1.552,1.552,0,0,1-.215.319,1.2,1.2,0,0,1-.278.238.979.979,0,0,1,.283.229,1.713,1.713,0,0,1,.217.321,1.654,1.654,0,0,1,.136.366,1.5,1.5,0,0,1,.049.371m-3.862-1.925,1.93,0a.679.679,0,0,0,.251-.05.663.663,0,0,0,.2-.138.643.643,0,0,0,.185-.459.661.661,0,0,0-.048-.253.638.638,0,0,0-.138-.2.624.624,0,0,0-.2-.138.647.647,0,0,0-.251-.048l-1.928,0Zm0,2.57,1.93,0a.62.62,0,0,0,.251-.05.628.628,0,0,0,.2-.136.659.659,0,0,0,.136-.2.676.676,0,0,0,0-.5.624.624,0,0,0-.138-.2.664.664,0,0,0-.2-.138.646.646,0,0,0-.251-.048l-1.93,0Z" transform="translate(9.594 4.226)" fill="#fff"/>
        <path id="Path_10392" data-name="Path 10392" d="M832.814,394.638a2.527,2.527,0,0,1-.2,1,2.5,2.5,0,0,1-.543.8,2.582,2.582,0,0,1-2.781.538,2.594,2.594,0,0,1-.81-.532,2.509,2.509,0,0,1-.547-.8,2.646,2.646,0,0,1,0-2.018,2.469,2.469,0,0,1,.545-.8,2.526,2.526,0,0,1,.807-.534,2.566,2.566,0,0,1,.987-.194,2.668,2.668,0,0,1,.991.181,2.4,2.4,0,0,1,.806.514,2.427,2.427,0,0,1,.543.8,2.641,2.641,0,0,1,.2,1.043m-1.278,0a1.386,1.386,0,0,0-.1-.536,1.242,1.242,0,0,0-.272-.412,1.162,1.162,0,0,0-.4-.265,1.321,1.321,0,0,0-.491-.091,1.284,1.284,0,0,0-.489.093,1.131,1.131,0,0,0-.4.265,1.248,1.248,0,0,0-.267.412,1.428,1.428,0,0,0-.1.538,1.314,1.314,0,0,0,.1.514,1.294,1.294,0,0,0,.267.414,1.224,1.224,0,0,0,.4.274,1.2,1.2,0,0,0,.489.1,1.288,1.288,0,0,0,.491-.1,1.188,1.188,0,0,0,.4-.265,1.227,1.227,0,0,0,.272-.412,1.4,1.4,0,0,0,.1-.534" transform="translate(12.094 4.822)" fill="#fff"/>
        <path id="Path_10393" data-name="Path 10393" d="M835.958,394.634a2.549,2.549,0,0,1-3.523,2.344,2.585,2.585,0,0,1-.808-.532,2.508,2.508,0,0,1-.747-1.806,2.563,2.563,0,0,1,.2-1.014,2.491,2.491,0,0,1,.545-.8,2.546,2.546,0,0,1,1.794-.728,2.668,2.668,0,0,1,.991.181,2.4,2.4,0,0,1,.807.514,2.461,2.461,0,0,1,.545.8,2.642,2.642,0,0,1,.2,1.043m-1.278,0a1.353,1.353,0,0,0-.1-.536,1.243,1.243,0,0,0-.272-.412,1.129,1.129,0,0,0-.4-.265,1.306,1.306,0,0,0-.489-.091,1.272,1.272,0,0,0-.489.093,1.124,1.124,0,0,0-.4.265,1.248,1.248,0,0,0-.267.412,1.429,1.429,0,0,0-.1.538,1.348,1.348,0,0,0,.1.514,1.3,1.3,0,0,0,.267.414,1.242,1.242,0,0,0,.4.274,1.2,1.2,0,0,0,.491.1,1.286,1.286,0,0,0,.489-.1,1.208,1.208,0,0,0,.672-.677,1.4,1.4,0,0,0,.1-.534" transform="translate(14.586 4.819)" fill="#fff"/>
        <path id="Path_10394" data-name="Path 10394" d="M838.518,392.968l-1.409,0-1.823,2.317,0-3.953-1.234,0,.008,6.435h1.234v-.615l.852-1.132.975,1.745,1.409,0-1.6-2.794Z" transform="translate(17.095 4.217)" fill="#fff"/>
        <path id="Path_10395" data-name="Path 10395" d="M838.291,391.911a.739.739,0,0,1-.063.3.8.8,0,0,1-.167.246.819.819,0,0,1-.249.167.757.757,0,0,1-.3.061.729.729,0,0,1-.3-.061.785.785,0,0,1-.247-.165.806.806,0,0,1-.167-.246.738.738,0,0,1-.063-.3.746.746,0,0,1,.063-.3.77.77,0,0,1,.412-.414.758.758,0,0,1,.3-.063.788.788,0,0,1,.3.061.821.821,0,0,1,.249.167.8.8,0,0,1,.169.247.747.747,0,0,1,.063.3" transform="translate(19.217 4.062)" fill="#fff"/>
        <path id="Path_10396" data-name="Path 10396" d="M839.012,397.085l-1.226,0-.005-4.8a.642.642,0,0,1,.489.222l.211.244a2.134,2.134,0,0,1,1.452-.563,2.04,2.04,0,0,1,.832.167,2.152,2.152,0,0,1,.683.461,2.234,2.234,0,0,1,.461.686,2.123,2.123,0,0,1,.168.837l0,2.745-1.226,0,0-2.745a.933.933,0,0,0-.271-.65.935.935,0,0,0-.292-.2.878.878,0,0,0-.355-.072.961.961,0,0,0-.364.072.921.921,0,0,0-.493.493.916.916,0,0,0-.07.357Z" transform="translate(20.053 4.892)" fill="#fff"/>
        <path id="Path_10397" data-name="Path 10397" d="M845.347,396.516a2.353,2.353,0,0,1-.193.952,2.449,2.449,0,0,1-.527.776,2.489,2.489,0,0,1-.78.525,2.383,2.383,0,0,1-.955.194l-.615-.009v-1.226l.606.009a1.451,1.451,0,0,0,.489-.073.99.99,0,0,0,.564-.5,1.94,1.94,0,0,0,.131-.349.53.53,0,0,1-.206.19,1.432,1.432,0,0,1-.3.122,1.939,1.939,0,0,1-.34.065,3.152,3.152,0,0,1-.332.018,2.58,2.58,0,0,1-.952-.174,2.331,2.331,0,0,1-.781-.5,2.3,2.3,0,0,1-.527-.8,2.772,2.772,0,0,1-.193-1.063,2.616,2.616,0,0,1,.193-1.011,2.5,2.5,0,0,1,.527-.806,2.416,2.416,0,0,1,.781-.534,2.36,2.36,0,0,1,.952-.194,1.84,1.84,0,0,1,.462.059,2.243,2.243,0,0,1,.445.161,2.627,2.627,0,0,1,.41.242,3.326,3.326,0,0,1,.365.3l.287-.342a.628.628,0,0,1,.486-.228Zm-1.233-1.839a1.272,1.272,0,0,0-.1-.487,1.4,1.4,0,0,0-.263-.418,1.346,1.346,0,0,0-.387-.292,1.08,1.08,0,0,0-.475-.109,1.3,1.3,0,0,0-.473.086,1.087,1.087,0,0,0-.385.251,1.181,1.181,0,0,0-.258.41,1.551,1.551,0,0,0-.095.559,1.463,1.463,0,0,0,.095.539,1.213,1.213,0,0,0,.258.41,1.118,1.118,0,0,0,.385.263,1.236,1.236,0,0,0,.473.091,1.056,1.056,0,0,0,.475-.109,1.315,1.315,0,0,0,.387-.292,1.376,1.376,0,0,0,.263-.418,1.263,1.263,0,0,0,.1-.486" transform="translate(22.158 4.851)" fill="#fff"/>
        <rect id="Rectangle_1287" data-name="Rectangle 1287" width="1.234" height="4.805" transform="translate(856.11 397.175) rotate(-0.077)" fill="#fff"/>
        <g id="Group_1161" data-name="Group 1161" transform="translate(817.749 392.199)">
          <g id="Group_1160" data-name="Group 1160">
            <path id="Path_10398" data-name="Path 10398" d="M821.782,395.828l-3.279-.573a3.1,3.1,0,0,1-2.514-2.514l-.314-1.781-.262-1.5,3.278.572a3.094,3.094,0,0,1,1.444.668,3.135,3.135,0,0,1,.342.332,2.886,2.886,0,0,1,.278.367,3.032,3.032,0,0,1,.452,1.147l.179,1.025.084.479.084.48Z" transform="translate(-815.413 -389.463)" fill="#fff"/>
          </g>
        </g>
        <g id="Group_1162" data-name="Group 1162" transform="translate(812.464 386.009)">
          <path id="Path_10399" data-name="Path 10399" d="M814.659,395.1a.427.427,0,0,0,.127.3.213.213,0,0,0,.041.039.431.431,0,0,0,.048.03l.833.482,1.552.9h0l3.453,1.995a.432.432,0,0,0,.432,0h0l5.84-3.374a.433.433,0,0,0,.048-.03.215.215,0,0,0,.041-.039.424.424,0,0,0,.127-.3V391.85a.26.26,0,0,1,.129-.226l1.677-.968a.259.259,0,0,1,.389.224V395.1a2.636,2.636,0,0,1-1.314,2.276l-5.844,3.373a2.631,2.631,0,0,1-2.627,0l-5.842-3.373a2.636,2.636,0,0,1-1.314-2.276v-4.222a.259.259,0,0,1,.389-.224l1.677.968a.26.26,0,0,1,.129.226Z" transform="translate(-812.464 -382.356)" fill="#fff"/>
          <path id="Path_10400" data-name="Path 10400" d="M813.231,390.154a2.6,2.6,0,0,1,.258-.228,2.7,2.7,0,0,1,.288-.194l5.842-3.374a2.5,2.5,0,0,1,.312-.152,2.648,2.648,0,0,1,2.005,0,2.343,2.343,0,0,1,.31.152l4.047,2.337,1.8,1.038a2.908,2.908,0,0,1,.288.194,2.617,2.617,0,0,1,.258.228,2.644,2.644,0,0,1,.767,1.857v.319a.259.259,0,0,1-.129.226l-.941.543-.737.425a.259.259,0,0,1-.389-.224v-1.289a.441.441,0,0,0-.057-.213l-.016-.027-.023-.034c-.011-.011-.02-.021-.031-.03l-.012-.014-.029-.023-.007-.005-.041-.027-3.717-2.147-2.124-1.228h0a.432.432,0,0,0-.05-.025.317.317,0,0,0-.081-.023.372.372,0,0,0-.167,0,.329.329,0,0,0-.082.023c-.018.007-.034.016-.052.025l-3.453,1.995h0l-1.554.9-.832.48a.215.215,0,0,0-.048.034l-.029.023-.013.014-.031.03a.206.206,0,0,0-.023.036.18.18,0,0,0-.021.034.449.449,0,0,0-.052.2V393.3a.259.259,0,0,1-.389.224l-1.677-.968a.259.259,0,0,1-.129-.226v-.319A2.644,2.644,0,0,1,813.231,390.154Z" transform="translate(-812.464 -386.009)" fill="#fff"/>
        </g>
      </g>
    </g>
  </g>
</svg>
