<svg xmlns="http://www.w3.org/2000/svg" xmlns:xlink="http://www.w3.org/1999/xlink" width="215.147" height="131.984" viewBox="0 0 215.147 131.984">
  <defs>
    <clipPath id="clip-path">
      <rect id="Rectangle_1235" data-name="Rectangle 1235" width="64.306" height="64.392" fill="none"/>
    </clipPath>
    <clipPath id="clip-path-2">
      <rect id="Rectangle_1236" data-name="Rectangle 1236" width="83.016" height="83.126" fill="none"/>
    </clipPath>
  </defs>
  <g id="Group_1069" data-name="Group 1069" transform="translate(-989 -1713.419)">
    <g id="Group_801" data-name="Group 801" transform="translate(-35 157)">
      <path id="Path_9767" data-name="Path 9767" d="M11.221,131.985c35.169,36.486,81.092-18.523,124.491-13.747,27.952,3.076,58.866-10.6,54.951-45.1C184.969,22.98,105.22,22.079,62.205,32.366s-82.126,67.311-50.984,99.619" transform="translate(1041 1543.844)" fill="#d0d7df"/>
    </g>
    <g id="Group_964" data-name="Group 964" transform="matrix(0.819, -0.574, 0.574, 0.819, 1114.537, 1750.303)" clip-path="url(#clip-path)">
      <path id="Path_10271" data-name="Path 10271" d="M53.912,58.467l-15.24-5.087a3.8,3.8,0,0,0-3.487.569l-12.831,9.67a3.8,3.8,0,0,1-6.081-3.062L16.4,44.491a3.8,3.8,0,0,0-1.619-3.141L1.62,32.136a3.8,3.8,0,0,1,1.033-6.73l15.32-4.843a3.8,3.8,0,0,0,2.487-2.51l4.7-15.366a3.8,3.8,0,0,1,6.719-1.1l9.34,13.074a3.8,3.8,0,0,0,3.156,1.589l16.064-.282a3.8,3.8,0,0,1,3.12,6.052L54.008,34.946a3.8,3.8,0,0,0-.536,3.493L58.7,53.629a3.8,3.8,0,0,1-4.792,4.837" transform="translate(0 0)" fill="#15375e"/>
      <path id="Path_10272" data-name="Path 10272" d="M35.9,57.314a7.435,7.435,0,0,0-1.778-1.754l-8.6-6.018a2.876,2.876,0,0,1,.783-5.1l10.005-3.163a7.468,7.468,0,0,0,4.891-4.938l3.067-10.035a2.876,2.876,0,0,1,5.09-.831l3.117,4.362-.664.474L48.7,25.951a2.06,2.06,0,0,0-3.647.6L41.99,36.582a8.285,8.285,0,0,1-5.426,5.477l-10,3.163A2.059,2.059,0,0,0,26,48.874l8.6,6.018a8.258,8.258,0,0,1,1.971,1.945Z" transform="translate(-17.239 -17.217)" fill="#4b617b"/>
      <path id="Path_10273" data-name="Path 10273" d="M71.886,105.278a2.882,2.882,0,0,1-3.122-2.891l.064-8.028.817.007-.065,8.028a2.06,2.06,0,0,0,3.3,1.661l8.379-6.315A8.365,8.365,0,0,1,88.868,96.5l9.953,3.323a2.06,2.06,0,0,0,2.6-2.625L98,87.272a8.279,8.279,0,0,1,1.17-7.619l6.235-8.441a2.059,2.059,0,0,0-1.693-3.284l-10.493.184a8.233,8.233,0,0,1-3.159-.567l.3-.76a7.417,7.417,0,0,0,2.848.511l10.492-.184a2.875,2.875,0,0,1,2.363,4.584L99.83,80.137a7.463,7.463,0,0,0-1.055,6.868l3.417,9.922a2.876,2.876,0,0,1-3.63,3.665L88.61,97.27a7.534,7.534,0,0,0-6.859,1.121l-8.38,6.315a2.872,2.872,0,0,1-1.485.572" transform="translate(-48.775 -47.372)" fill="#4b617b"/>
    </g>
    <g id="Group_965" data-name="Group 965" transform="matrix(0.819, -0.574, 0.574, 0.819, 989, 1762.246)" clip-path="url(#clip-path-2)">
      <path id="Path_10274" data-name="Path 10274" d="M69.6,75.478,49.924,68.91a4.9,4.9,0,0,0-4.5.735L28.858,82.13a4.9,4.9,0,0,1-7.851-3.953l.166-20.741a4.9,4.9,0,0,0-2.09-4.054L2.092,41.486A4.9,4.9,0,0,1,3.425,32.8L23.2,26.546a4.9,4.9,0,0,0,3.21-3.24L32.475,3.47A4.9,4.9,0,0,1,41.15,2.054L53.207,18.931a4.9,4.9,0,0,0,4.074,2.051l20.738-.364a4.9,4.9,0,0,1,4.028,7.813L69.721,45.113a4.9,4.9,0,0,0-.692,4.509l6.755,19.611A4.9,4.9,0,0,1,69.6,75.478" transform="translate(0 0)" fill="#4b617b"/>
      <path id="Path_10275" data-name="Path 10275" d="M39.279,66.927a9.6,9.6,0,0,0-2.3-2.264l-11.1-7.769A3.713,3.713,0,0,1,26.9,50.313L39.814,46.23a9.641,9.641,0,0,0,6.314-6.374L50.088,26.9a3.712,3.712,0,0,1,6.572-1.072l4.024,5.632-.857.612L55.8,26.44a2.659,2.659,0,0,0-4.708.768L47.136,40.164a10.7,10.7,0,0,1-7,7.071L27.216,51.317a2.659,2.659,0,0,0-.724,4.714l11.1,7.769a10.661,10.661,0,0,1,2.545,2.511Z" transform="translate(-15.183 -15.164)" fill="#15375e"/>
      <path id="Path_10276" data-name="Path 10276" d="M72.794,116.477a3.721,3.721,0,0,1-4.03-3.733l.083-10.363,1.054.009-.083,10.363a2.659,2.659,0,0,0,4.26,2.144l10.817-8.152a10.8,10.8,0,0,1,9.823-1.6l12.849,4.29a2.66,2.66,0,0,0,3.357-3.389l-4.411-12.809a10.688,10.688,0,0,1,1.51-9.835l8.049-10.9a2.659,2.659,0,0,0-2.185-4.239l-13.545.238a10.629,10.629,0,0,1-4.078-.732l.384-.981a9.574,9.574,0,0,0,3.676.659l13.545-.238a3.712,3.712,0,0,1,3.05,5.918l-8.049,10.9a9.634,9.634,0,0,0-1.362,8.866l4.412,12.809a3.713,3.713,0,0,1-4.686,4.732l-12.849-4.29a9.726,9.726,0,0,0-8.855,1.447l-10.818,8.152a3.708,3.708,0,0,1-1.917.739" transform="translate(-42.959 -41.724)" fill="#15375e"/>
    </g>
    <path id="Union_2" data-name="Union 2" d="M55.464,114.948,20.371,103.254c-.5,1.6-.836,2.621-.9,2.82a2.453,2.453,0,0,1-2.327,1.689H2.45A2.45,2.45,0,0,1,0,105.314V61.229a2.449,2.449,0,0,1,.769-1.784A2.555,2.555,0,0,1,2.6,58.784c5.046.3,21.831,1.588,26.03,5.565a2.437,2.437,0,0,1,.754,1.989c-.073.832-.177,1.72-.307,2.654l42.482,9.44c7.249,1.81,10.889,5.4,11.59,11.527l15.85-3.964a16.01,16.01,0,0,1,18.31,8.421,2.45,2.45,0,0,1-1.175,3.326L89.189,109.986c-12.785,5.246-18.6,7.416-23.57,7.416C62.424,117.4,59.583,116.5,55.464,114.948ZM36.737,68.577A2.462,2.462,0,0,1,35,67.861L25.922,58.78H22.043a2.449,2.449,0,1,1,0-4.9h2.448A44.168,44.168,0,0,1,58.78,10.895V9.8a9.8,9.8,0,1,1,19.593,0v1.1a44.167,44.167,0,0,1,34.287,42.987h2.45a2.449,2.449,0,0,1,0,4.9h-3.88l-9.081,9.081a2.467,2.467,0,0,1-1.734.716Z" transform="translate(1042.306 1728)" fill="#fee28d"/>
    <g id="room-service" transform="translate(1042.306 1728.001)">
      <g id="Group_36" data-name="Group 36" transform="translate(0 58.784)">
        <g id="Group_35" data-name="Group 35">
          <path id="Path_7803" data-name="Path 7803" d="M28.626,261.932c-4.2-3.978-20.984-5.266-26.029-5.565a2.553,2.553,0,0,0-1.827.661A2.449,2.449,0,0,0,0,258.812V302.9a2.45,2.45,0,0,0,2.449,2.449H17.144a2.453,2.453,0,0,0,2.327-1.69c.358-1.1,8.8-27,9.909-39.735A2.437,2.437,0,0,0,28.626,261.932ZM15.356,300.448H4.9v-39.01c7.872.622,16.37,1.974,19.451,3.473C23.051,275.638,17.178,294.7,15.356,300.448Z" transform="translate(0 -256.368)" fill="#fdc61b"/>
        </g>
      </g>
      <g id="Group_38" data-name="Group 38" transform="translate(17.146 85.502)">
        <g id="Group_37" data-name="Group 37">
          <path id="Path_7804" data-name="Path 7804" d="M174.832,381.643a16.01,16.01,0,0,0-18.31-8.42l-18.765,4.692a2.448,2.448,0,0,0,1.185,4.751l18.765-4.683a11.139,11.139,0,0,1,11.34,3.7l-24.281,11.041c-20.592,8.44-21.3,8.17-30.134,4.839L77.9,385.322a2.447,2.447,0,1,0-1.548,4.643l36.644,12.212c4.119,1.553,6.961,2.454,10.154,2.454,4.967,0,10.786-2.17,23.571-7.416l26.94-12.246a2.451,2.451,0,0,0,1.176-3.326Z" transform="translate(-74.674 -372.731)" fill="#fdc61b"/>
        </g>
      </g>
      <g id="Group_40" data-name="Group 40" transform="translate(24.488 68.583)">
        <g id="Group_39" data-name="Group 39">
          <path id="Path_7805" data-name="Path 7805" d="M153.717,308.9l-44.085-9.8a2.482,2.482,0,0,0-2.924,1.861,2.453,2.453,0,0,0,1.861,2.924l44.021,9.782c5.427,1.357,7.607,3.492,7.906,7.965l-4.7,1.176a12.253,12.253,0,0,1-5.368.127l-21.249-4.252a2.448,2.448,0,1,0-.96,4.8l21.254,4.252a17.269,17.269,0,0,0,7.514-.181l6.593-1.646a2.451,2.451,0,0,0,1.856-2.376v-.774C165.434,315.194,161.843,310.923,153.717,308.9Z" transform="translate(-106.65 -299.047)" fill="#fdc61b"/>
        </g>
      </g>
      <g id="Group_42" data-name="Group 42" transform="translate(19.593 53.881)">
        <g id="Group_41" data-name="Group 41">
          <path id="Path_7806" data-name="Path 7806" d="M180.85,235.015H87.782a2.449,2.449,0,1,0,0,4.9H180.85a2.449,2.449,0,1,0,0-4.9Z" transform="translate(-85.333 -235.015)" fill="#fdc61b"/>
        </g>
      </g>
      <g id="Group_44" data-name="Group 44" transform="translate(24.492 9.797)">
        <g id="Group_43" data-name="Group 43">
          <path id="Path_7807" data-name="Path 7807" d="M150.752,43.015A44.138,44.138,0,0,0,106.667,87.1v2.449A2.45,2.45,0,0,0,109.116,92h83.271a2.45,2.45,0,0,0,2.449-2.449V87.1A44.138,44.138,0,0,0,150.752,43.015ZM111.565,87.1a39.186,39.186,0,1,1,78.373,0Z" transform="translate(-106.667 -43.015)" fill="#fdc61b"/>
        </g>
      </g>
      <g id="Group_46" data-name="Group 46" transform="translate(35.144 19.593)">
        <g id="Group_45" data-name="Group 45">
          <path id="Path_7808" data-name="Path 7808" d="M186.492,85.682a34.17,34.17,0,0,0-33.367,26.372A2.455,2.455,0,0,0,154.942,115a2.286,2.286,0,0,0,.568.069,2.446,2.446,0,0,0,2.381-1.886,29.294,29.294,0,0,1,28.6-22.606,2.449,2.449,0,0,0,0-4.9Z" transform="translate(-153.059 -85.682)" fill="#fdc61b"/>
        </g>
      </g>
      <g id="Group_48" data-name="Group 48" transform="translate(58.779 0)">
        <g id="Group_47" data-name="Group 47" transform="translate(0 0)">
          <path id="Path_7809" data-name="Path 7809" d="M265.8.348a9.806,9.806,0,0,0-9.8,9.8v2.449a2.449,2.449,0,1,0,4.9,0V10.145a4.9,4.9,0,0,1,9.8,0v2.449a2.449,2.449,0,1,0,4.9,0V10.145A9.807,9.807,0,0,0,265.8.348Z" transform="translate(-256 -0.348)" fill="#fdc61b"/>
        </g>
      </g>
      <g id="Group_50" data-name="Group 50" transform="translate(24.49 53.885)">
        <g id="Group_49" data-name="Group 49">
          <path id="Path_7810" data-name="Path 7810" d="M194.116,235.747a2.451,2.451,0,0,0-3.463,0l-9.081,9.081h-61.65l-9.081-9.081a2.449,2.449,0,0,0-3.463,3.463l9.8,9.8a2.467,2.467,0,0,0,1.734.715h63.678a2.467,2.467,0,0,0,1.734-.715l9.8-9.8A2.451,2.451,0,0,0,194.116,235.747Z" transform="translate(-106.661 -235.031)" fill="#fdc61b"/>
        </g>
      </g>
    </g>
  </g>
</svg>
