<svg xmlns="http://www.w3.org/2000/svg" width="716" height="716" viewBox="0 0 716 716">
  <g id="Group_1075" data-name="Group 1075" transform="translate(-600.252 -106.289)">
    <g id="Group_820" data-name="Group 820">
      <g id="Group_803" data-name="Group 803">
        <g id="Group_1174" data-name="Group 1174">
          <g id="Group_802" data-name="Group 802">
            <path id="Path_9791" data-name="Path 9791" d="M963.782,316.925c-5.436-1.5-10.869-3.007-16.348-4.312-17.342-4.129-35.313-5.1-53.134-4.164-37.68,1.968-54.122,21.643-41.1,40.01s29.459,37.388,11.647,55.1-84.952,33.45-78.1,64.933,67.138,36.076,62.343,56.409-35.625,26.238-20.552,53.791,70.564,3.28,88.377,17.711,27.4,26.235,56.862,30.828,50.7-31.485,82.212-45.258,63.713-18.367,69.878-50.506-52.75-53.129-50.012-85.923c1.369-16.393,12.586-29.183,21.329-42.291,14.769-22.143,26.941-62.052-5.638-75.11-14.168-5.679-30.452-4.134-45.379-3.815-15.525.332-31.626,2.073-47.1.37-12.047-1.327-23.664-4.553-35.278-7.767" fill="#15375e"/>
            <path id="Path_9791-2" data-name="Path 9791" d="M963.782,316.925c-5.436-1.5-10.869-3.007-16.348-4.312-17.342-4.129-35.313-5.1-53.134-4.164-37.68,1.968-54.122,21.643-41.1,40.01s29.459,37.388,11.647,55.1-84.952,33.45-78.1,64.933,67.138,36.076,62.343,56.409-35.625,26.238-20.552,53.791,70.564,3.28,88.377,17.711,27.4,26.235,56.862,30.828,50.7-31.485,82.212-45.258,63.713-18.367,69.878-50.506-52.75-53.129-50.012-85.923c1.369-16.393,12.586-29.183,21.329-42.291,14.769-22.143,26.941-62.052-5.638-75.11-14.168-5.679-30.452-4.134-45.379-3.815-15.525.332-31.626,2.073-47.1.37-12.047-1.327-23.664-4.553-35.278-7.767" fill="#fff" opacity="0.8" style="isolation: isolate"/>
            <path id="Path_9792" data-name="Path 9792" d="M1019.632,317.918l-.851.4" fill="none" stroke="#15375e" stroke-linecap="round" stroke-linejoin="round" stroke-width="0.879"/>
            <path id="Path_9793" data-name="Path 9793" d="M1016.222,319.516c-22.245,10.43-146.784,68.868-178.7,84.827-35.088,17.544-38.309,58.2,24.148,44.166,39.884-8.963,195.793-37.9,214.741-7.019,18.552,30.233-4.762,60.147-40.207,70.455" fill="none" stroke="#15375e" stroke-linecap="round" stroke-linejoin="round" stroke-width="0.879" stroke-dasharray="1.755 2.632"/>
            <path id="Path_9794" data-name="Path 9794" d="M1034.829,512.332q-.454.125-.914.245" fill="none" stroke="#15375e" stroke-linecap="round" stroke-linejoin="round" stroke-width="0.879"/>
            <path id="Path_9795" data-name="Path 9795" d="M1114.228,533.374a263.143,263.143,0,0,1-59.1,52.31c-64.1,41.287-129.818,43.243-172.079,32.41-13.211-3.385-18.748-6.644-19.594-11.04-2.937-15.249,51.64-38.5,96.759-55.324" fill="none" stroke="#15375e" stroke-linecap="round" stroke-linejoin="round" stroke-width="0.879"/>
            <path id="Path_9796" data-name="Path 9796" d="M1067.33,285.762l-58.853,6.685,14.866,11.081Z" fill="#fff"/>
            <path id="Path_9797" data-name="Path 9797" d="M1067.33,285.762l-58.853,6.685,14.866,11.081Z" fill="none" stroke="#15375e" stroke-linecap="round" stroke-linejoin="round" stroke-width="0.879"/>
            <path id="Path_9798" data-name="Path 9798" d="M1023.342,303.528l-.109,12.011,44.1-29.778Z" fill="#fff"/>
            <path id="Path_9799" data-name="Path 9799" d="M1023.342,303.528l-.109,12.011,44.1-29.778Z" fill="none" stroke="#15375e" stroke-linecap="round" stroke-linejoin="round" stroke-width="0.879"/>
            <path id="Path_9800" data-name="Path 9800" d="M1023.234,315.539l6.893-9.737,37.2-20.041Z" fill="#fff"/>
            <path id="Path_9801" data-name="Path 9801" d="M1023.234,315.539l6.893-9.737,37.2-20.041Z" fill="none" stroke="#15375e" stroke-linecap="round" stroke-linejoin="round" stroke-width="0.879"/>
            <path id="Path_9802" data-name="Path 9802" d="M1030.127,305.8l19.385,14.484,17.818-34.525Z" fill="#fff"/>
            <path id="Path_9803" data-name="Path 9803" d="M1030.127,305.8l19.385,14.484,17.818-34.525Z" fill="none" stroke="#15375e" stroke-linecap="round" stroke-linejoin="round" stroke-width="0.879"/>
            <path id="Path_9804" data-name="Path 9804" d="M1114.228,491.782A16.023,16.023,0,0,0,1098.2,507.8h0c0,8.848,16.023,25.568,16.023,25.568s16.023-16.72,16.023-25.568a16.023,16.023,0,0,0-16.022-16.024h0m0,21.756a6.755,6.755,0,1,1,6.754-6.756v0a6.754,6.754,0,0,1-6.754,6.754" fill="#fdc61b"/>
            <path id="Path_9805" data-name="Path 9805" d="M899.85,299.11c-7.388-3.892-17.174-4.634-26.177-1.983-9.119,2.686-16.989,8.7-21.048,16.076a2.435,2.435,0,1,0,4.266,2.349c3.455-6.281,10.243-11.422,18.159-13.753,7.817-2.3,16.241-1.7,22.535,1.621a2.433,2.433,0,0,0,2.267-4.305" fill="#fdc61b"/>
            <path id="Path_9806" data-name="Path 9806" d="M895.466,307.75a28.638,28.638,0,0,0-34.427,10.23,2.432,2.432,0,0,0,4.064,2.674,23.776,23.776,0,0,1,28.421-8.441,2.433,2.433,0,0,0,2.033-4.421l-.092-.04" fill="#fdc61b"/>
            <path id="Path_9807" data-name="Path 9807" d="M891.012,316.317a17.73,17.73,0,0,0-21.779,6.722,2.433,2.433,0,0,0,4.041,2.711,12.865,12.865,0,0,1,15.918-4.922,2.433,2.433,0,0,0,1.821-4.512" fill="#fdc61b"/>
            <path id="Path_9808" data-name="Path 9808" d="M881.55,323.891a5.839,5.839,0,1,0,7.251,3.952h0a5.839,5.839,0,0,0-7.25-3.951" fill="#fdc61b"/>
            <path id="Path_9809" data-name="Path 9809" d="M1097.813,351.971h-42.236a6.258,6.258,0,0,0-6.257,6.257h0v22.59a6.258,6.258,0,0,0,6.257,6.258h1.315c-1.312,2.916-3.833,7.344-7.9,9.984,0,0,8.568-.6,17.5-9.984h31.318a6.257,6.257,0,0,0,6.257-6.257h0v-22.59a6.256,6.256,0,0,0-6.254-6.257" fill="#fdc61b"/>
            <path id="Path_9810" data-name="Path 9810" d="M1069.432,368.721a3.221,3.221,0,1,0-3.222,3.22h0a3.22,3.22,0,0,0,3.22-3.22" fill="#fff"/>
            <path id="Path_9811" data-name="Path 9811" d="M1080.383,368.721a3.221,3.221,0,1,0-3.222,3.22h0a3.22,3.22,0,0,0,3.221-3.22" fill="#fff"/>
            <path id="Path_9812" data-name="Path 9812" d="M1091.332,368.721a3.22,3.22,0,1,0-3.22,3.22,3.22,3.22,0,0,0,3.22-3.22" fill="#fff"/>
            <path id="Path_9813" data-name="Path 9813" d="M866.238,488.105a16.707,16.707,0,1,0-16.707,16.707,16.707,16.707,0,0,0,16.707-16.707v0" fill="#fdc61b"/>
            <path id="Path_9814" data-name="Path 9814" d="M841.993,477.7l18.026,10.407-18.026,10.406Z" fill="#fff"/>
            <path id="Path_9815" data-name="Path 9815" d="M845.366,601.4a15.524,15.524,0,0,1-8.322-2.236c-11.951-7.162-18.992-17.811-21.976-31.273a18.484,18.484,0,0,1-.244-8.442,12.376,12.376,0,0,1,9.235-9.544,3.429,3.429,0,0,1,4.348,2.016,88.482,88.482,0,0,1,2.834,9.482,3.026,3.026,0,0,1-1.9,3.415c-1.4.709-2.837,1.347-4.3,1.918a1.454,1.454,0,0,0-.959,2.153,52,52,0,0,0,12.963,20.038c.868.839,1.5.7,2.284-.169a24.01,24.01,0,0,1,3.318-3.12,3.409,3.409,0,0,1,4.383-.048,73.994,73.994,0,0,1,6.522,5.424c2.386,2.344,2.226,4.6-.168,6.933a11.794,11.794,0,0,1-8.026,3.455" fill="#fdc61b"/>
            <path id="Path_9816" data-name="Path 9816" d="M862.138,573.735c-.2,1.507-.312,3.031-.608,4.519a2.215,2.215,0,0,1-2.868,1.911c-1.239-.294-1.881-1.457-1.6-2.991a18.825,18.825,0,0,0-13.86-21.7,6.356,6.356,0,0,1-1.25-.361,2.193,2.193,0,0,1-1.338-2.558,2.046,2.046,0,0,1,2.257-1.809,2.09,2.09,0,0,1,.223.037,29.91,29.91,0,0,1,6.038,2.008,23.614,23.614,0,0,1,13.01,20.939" fill="#fdc61b"/>
            <path id="Path_9817" data-name="Path 9817" d="M854.3,574.914c-.074.565-.154,1.656-.375,2.718a2.271,2.271,0,0,1-2.533,1.978c-.029,0-.057-.007-.086-.012a2.4,2.4,0,0,1-1.927-2.794l0-.018a17.731,17.731,0,0,0,.086-4.15c-.892-5.229-3.984-8.573-9.09-10.023-1.668-.472-2.516-1.527-2.214-2.837.328-1.413,1.566-2.038,3.293-1.661,7.319,1.6,12.86,8.618,12.844,16.8" fill="#fdc61b"/>
            <path id="Path_9818" data-name="Path 9818" d="M841.806,575.689a5.279,5.279,0,0,0-4.025-5.785c-1.612-.5-2.362-1.632-1.984-3,.368-1.325,1.628-1.889,3.282-1.465a9.966,9.966,0,0,1,7.258,11.183c-.293,1.662-1.168,2.433-2.6,2.284-1.4-.145-2.081-1.125-1.969-2.832.01-.13.022-.259.034-.39" fill="#fdc61b"/>
            <line id="Line_160" data-name="Line 160" x2="0.543" y2="1.537" transform="translate(828.005 563.276)" fill="none" stroke="#fff" stroke-linecap="round" stroke-linejoin="round" stroke-width="0.879"/>
            <line id="Line_161" data-name="Line 161" x2="3.776" y2="10.666" transform="translate(823.631 550.919)" fill="none" stroke="#fff" stroke-linecap="round" stroke-linejoin="round" stroke-width="0.879"/>
            <line id="Line_162" data-name="Line 162" x2="9.18" y2="8.02" transform="translate(844.942 588.881)" fill="none" stroke="#fff" stroke-linecap="round" stroke-linejoin="round" stroke-width="0.879"/>
            <line id="Line_163" data-name="Line 163" x2="1.507" y2="1.318" transform="translate(842.442 586.697)" fill="none" stroke="#fff" stroke-linecap="round" stroke-linejoin="round" stroke-width="0.879"/>
          </g>
        </g>
      </g>
    </g>
    <g id="Ellipse_6" data-name="Ellipse 6">
      <circle id="Ellipse_13" data-name="Ellipse 13" cx="265" cy="265" r="265" transform="translate(693.252 199.289)" fill="none"/>
      <circle id="Ellipse_14" data-name="Ellipse 14" cx="264.56" cy="264.56" r="264.56" transform="translate(693.692 199.729)" fill="none" stroke="#15375e" stroke-linecap="round" stroke-width="0.88" stroke-dasharray="1.75 2.63"/>
    </g>
    <g id="Ellipse_7" data-name="Ellipse 7">
      <circle id="Ellipse_15" data-name="Ellipse 15" cx="358" cy="358" r="358" transform="translate(600.252 106.289)" fill="none"/>
      <circle id="Ellipse_16" data-name="Ellipse 16" cx="357.56" cy="357.56" r="357.56" transform="translate(600.692 106.729)" fill="none" stroke="#15375e" stroke-linecap="round" stroke-width="0.88" stroke-dasharray="1.75 2.63"/>
    </g>
    <path id="Path_10304" data-name="Path 10304" d="M1022.477,337.558l-20.678-.1a5.138,5.138,0,0,0-5.043,5.226l-.016,3.75a5.135,5.135,0,0,1-5.042,5.226l-40.3-.187a5.141,5.141,0,0,1-5-5.271l.016-3.75a5.143,5.143,0,0,0-5-5.273l-7.268-.03-18.1-.083A16.271,16.271,0,0,0,899.7,353.261v.005L898.6,614.24a16.271,16.271,0,0,0,16.2,16.339l106.436.49a16.269,16.269,0,0,0,16.345-16.195v-.005l1.094-260.973a16.268,16.268,0,0,0-16.194-16.338" transform="translate(-0.344 0.223)" fill="#fff"/>
    <path id="Path_10305" data-name="Path 10305" d="M1022.628,328.57l-106.649-.493A23.233,23.233,0,0,0,892.643,351.2v.005l-1.13,267.371a23.231,23.231,0,0,0,23.124,23.329l106.649.493a23.231,23.231,0,0,0,23.34-23.121v-.011l1.129-267.372a23.232,23.232,0,0,0-23.124-23.329m14.94,286.54a16.269,16.269,0,0,1-16.337,16.2h-.008l-106.437-.49a16.271,16.271,0,0,1-16.2-16.339l1.1-260.973a16.272,16.272,0,0,1,16.34-16.2h.005l18.1.084,7.273.034a5.142,5.142,0,0,1,5,5.272l-.015,3.75a5.142,5.142,0,0,0,5,5.272l40.3.186a5.135,5.135,0,0,0,5.042-5.226l.017-3.75a5.137,5.137,0,0,1,5.042-5.226l20.678.1a16.269,16.269,0,0,1,16.194,16.339Z" fill="#15375e"/>
    <g id="Group_1178" data-name="Group 1178" transform="translate(17.252 -24.489)">
      <g id="Group_1176" data-name="Group 1176" transform="translate(936.648 493.641)">
        <g id="Group_1175" data-name="Group 1175">
          <path id="Path_10448" data-name="Path 10448" d="M952.576,507.2l-15.293-2.681A14.446,14.446,0,0,1,925.556,492.8l-1.459-8.305-1.219-6.979,15.284,2.672a14.433,14.433,0,0,1,6.733,3.114,14.278,14.278,0,0,1,1.6,1.546,13.267,13.267,0,0,1,1.3,1.715,14.312,14.312,0,0,1,2.107,5.35l.836,4.779.392,2.228.394,2.243Z" transform="translate(-922.877 -477.515)" fill="#fdc61b"/>
        </g>
      </g>
      <g id="Group_1177" data-name="Group 1177" transform="translate(912 464.778)">
        <path id="Path_10449" data-name="Path 10449" d="M922.24,502.682a1.986,1.986,0,0,0,.589,1.416,1.018,1.018,0,0,0,.2.181,2.211,2.211,0,0,0,.222.145l3.891,2.243,7.235,4.19h.009l16.1,9.3a2.019,2.019,0,0,0,2.012,0h.009l27.24-15.735a2.232,2.232,0,0,0,.222-.145,1.018,1.018,0,0,0,.2-.181,1.98,1.98,0,0,0,.589-1.416V487.515a1.211,1.211,0,0,1,.6-1.047l7.822-4.516A1.209,1.209,0,0,1,991,483v19.683a12.3,12.3,0,0,1-6.127,10.616l-27.249,15.729a12.278,12.278,0,0,1-12.255,0L918.127,513.3A12.3,12.3,0,0,1,912,502.682V483a1.209,1.209,0,0,1,1.815-1.047l7.82,4.516a1.213,1.213,0,0,1,.6,1.047Z" transform="translate(-912 -443.244)" fill="#15375e"/>
        <path id="Path_10450" data-name="Path 10450" d="M915.576,484.107a11.9,11.9,0,0,1,1.2-1.058,11.018,11.018,0,0,1,1.348-.9l27.24-15.738a11.511,11.511,0,0,1,1.459-.707,12.3,12.3,0,0,1,9.345,0,10.839,10.839,0,0,1,1.45.707l18.87,10.9,8.38,4.838a11.768,11.768,0,0,1,1.348.9,11.9,11.9,0,0,1,1.2,1.058A12.342,12.342,0,0,1,991,492.761v1.5a1.213,1.213,0,0,1-.605,1.047l-4.387,2.536c-1.144.657-2.291,1.321-3.435,1.983a1.209,1.209,0,0,1-1.813-1.049v-6.012a2,2,0,0,0-.265-.99.505.505,0,0,0-.077-.127c-.034-.052-.077-.1-.111-.154a1.181,1.181,0,0,0-.136-.145c-.018-.027-.043-.043-.061-.068a.73.73,0,0,0-.136-.111l-.027-.02a1.628,1.628,0,0,0-.2-.127l-17.328-10.014-9.909-5.722H952.5a1.775,1.775,0,0,0-.238-.12,1.557,1.557,0,0,0-.376-.111,2.026,2.026,0,0,0-.775,0,1.626,1.626,0,0,0-.385.111,1.928,1.928,0,0,0-.238.12l-16.1,9.3h-.009l-7.245,4.181-3.882,2.246a1.214,1.214,0,0,0-.222.154.822.822,0,0,0-.138.111c-.016.025-.041.041-.059.068-.043.043-.093.093-.136.145a.644.644,0,0,0-.111.161.8.8,0,0,0-.1.163,2.02,2.02,0,0,0-.24.947v6.012a1.209,1.209,0,0,1-1.815,1.047l-7.82-4.516a1.213,1.213,0,0,1-.605-1.047v-1.5A12.342,12.342,0,0,1,915.576,484.107Z" transform="translate(-912 -464.778)" fill="#15375e"/>
      </g>
    </g>
  </g>
</svg>
