<svg xmlns="http://www.w3.org/2000/svg" xmlns:xlink="http://www.w3.org/1999/xlink" width="212.395" height="147.796" viewBox="0 0 212.395 147.796">
  <defs>
    <clipPath id="clip-path">
      <rect id="Rectangle_1187" data-name="Rectangle 1187" width="78.472" height="78.576" fill="none"/>
    </clipPath>
  </defs>
  <g id="Group_1067" data-name="Group 1067" transform="translate(-430.261 -1698.853)">
    <g id="Group_799" data-name="Group 799" transform="translate(-35 156)">
      <path id="Path_8921" data-name="Path 8921" d="M183.22,39.97C147.378,2.786,100.576,58.847,56.347,53.98,27.859,50.845-3.646,64.787.344,99.94c5.8,51.121,87.079,52.038,130.917,41.555s83.7-68.6,51.96-101.525" transform="translate(483 1543.844)" fill="#d0d7df"/>
    </g>
    <g id="Group_887" data-name="Group 887" transform="matrix(0.819, -0.574, 0.574, 0.819, 430.261, 1743.863)" clip-path="url(#clip-path)">
      <path id="Path_10038" data-name="Path 10038" d="M65.789,71.346l-18.6-6.208a4.632,4.632,0,0,0-4.255.695l-15.657,11.8A4.633,4.633,0,0,1,19.857,73.9l.157-19.606a4.634,4.634,0,0,0-1.975-3.832L1.977,39.215A4.633,4.633,0,0,1,3.238,31l18.695-5.909a4.631,4.631,0,0,0,3.034-3.063L30.7,3.28a4.632,4.632,0,0,1,8.2-1.339l11.4,15.954a4.633,4.633,0,0,0,3.851,1.939l19.6-.344a4.633,4.633,0,0,1,3.808,7.385L65.9,42.644a4.632,4.632,0,0,0-.654,4.262l6.385,18.538a4.633,4.633,0,0,1-5.847,5.9" transform="translate(0 0)" fill="#15375e"/>
      <path id="Path_10039" data-name="Path 10039" d="M38.46,64.593a9.072,9.072,0,0,0-2.169-2.14L25.8,55.109a3.51,3.51,0,0,1,.955-6.221l12.209-3.86A9.114,9.114,0,0,0,44.934,39l3.743-12.246a3.509,3.509,0,0,1,6.212-1.014l3.8,5.323-.81.579-3.8-5.324a2.514,2.514,0,0,0-4.45.726L45.886,39.294a10.11,10.11,0,0,1-6.621,6.684L27.056,49.837a2.513,2.513,0,0,0-.684,4.456l10.489,7.343a10.078,10.078,0,0,1,2.406,2.374Z" transform="translate(-15.683 -15.662)" fill="#4b617b"/>
      <path id="Path_10040" data-name="Path 10040" d="M72.573,113.757a3.517,3.517,0,0,1-3.81-3.528l.078-9.8,1,.008-.079,9.8a2.513,2.513,0,0,0,4.027,2.027l10.225-7.706a10.208,10.208,0,0,1,9.285-1.517l12.146,4.055a2.514,2.514,0,0,0,3.173-3.2l-4.169-12.108a10.1,10.1,0,0,1,1.427-9.3l7.609-10.3a2.513,2.513,0,0,0-2.066-4.007l-12.8.225a10.047,10.047,0,0,1-3.855-.692l.363-.927a9.05,9.05,0,0,0,3.475.623l12.8-.225a3.508,3.508,0,0,1,2.884,5.594l-7.608,10.3a9.107,9.107,0,0,0-1.288,8.381l4.17,12.108a3.51,3.51,0,0,1-4.43,4.473l-12.145-4.055a9.194,9.194,0,0,0-8.37,1.368l-10.226,7.706a3.505,3.505,0,0,1-1.812.7" transform="translate(-44.372 -43.096)" fill="#4b617b"/>
    </g>
    <path id="Path_10267" data-name="Path 10267" d="M22.522,0H62.349L63.93,9.271H76.242L78,17.26s7.479-7.3,13.289-7.989c5.423-.646,9.238,5.366,9.238,6.688l2.426,48.39A22.522,22.522,0,0,1,80.436,86.871H22.522A22.522,22.522,0,0,1,0,64.349V22.522A22.522,22.522,0,0,1,22.522,0Z" transform="translate(494.653 1759.175)" fill="#fee28d"/>
    <g id="robot" transform="translate(483.09 1733.435)">
      <circle id="Ellipse_4" data-name="Ellipse 4" cx="8.848" cy="8.848" r="8.848" transform="translate(26.041 63.323)" fill="#fee28d"/>
      <circle id="Ellipse_5" data-name="Ellipse 5" cx="8.848" cy="8.848" r="8.848" transform="translate(79.129 63.323)" fill="#fee28d"/>
      <ellipse id="Ellipse_2" data-name="Ellipse 2" cx="8.044" cy="10.457" rx="8.044" ry="10.457" transform="translate(3.519 61.714)" fill="#fee28d"/>
      <ellipse id="Ellipse_3" data-name="Ellipse 3" cx="8.044" cy="10.457" rx="8.044" ry="10.457" transform="translate(106.478 61.714)" fill="#fee28d"/>
      <path id="Path_7790" data-name="Path 7790" d="M84.728,188.719A12.087,12.087,0,0,0,76.9,191.7a11.533,11.533,0,0,0-3.981,8.837,11.814,11.814,0,1,0,11.814-11.814Zm0,19.23a7.416,7.416,0,1,1,7.417-7.414A7.424,7.424,0,0,1,84.728,207.949Zm0,0" transform="translate(-49.429 -128.003)" fill="#fdc61b" stroke="#fdc61b" stroke-width="1"/>
      <path id="Path_7791" data-name="Path 7791" d="M247.634,188.719a11.814,11.814,0,1,0,11.814,11.814A11.827,11.827,0,0,0,247.634,188.719Zm0,19.23a7.416,7.416,0,1,1,7.417-7.414A7.424,7.424,0,0,1,247.634,207.949Zm0,0" transform="translate(-159.864 -128.003)" fill="#fdc61b" stroke="#fdc61b" stroke-width="1"/>
      <path id="Path_7792" data-name="Path 7792" d="M176.146,275.786c-6.7,3.451-13.393,3.445-20.46-.019a2.2,2.2,0,1,0-1.936,3.947,27.818,27.818,0,0,0,12.325,3.042A26.146,26.146,0,0,0,178.16,279.7a2.2,2.2,0,0,0-2.013-3.909Zm0,0" transform="translate(-103.394 -186.86)" fill="#fdc61b" stroke="#fdc61b" stroke-width="1"/>
      <path id="Path_7793" data-name="Path 7793" d="M131.93.215H74.759a2.2,2.2,0,0,0-2.2,2.2V24.4h-8.8V11.209a2.2,2.2,0,1,0-4.4,0V24.4H37.161A26.2,26.2,0,0,0,10.994,50.568v7.682a14.658,14.658,0,0,0,0,28.386v9.5a16.232,16.232,0,0,0,16.214,16.215H98.125a16.232,16.232,0,0,0,16.214-16.214V86.246a14.658,14.658,0,0,0,0-27.584V50.568a26.028,26.028,0,0,0-3.45-12.974h21.04a2.2,2.2,0,0,0,2.2-2.2V2.413a2.2,2.2,0,0,0-2.2-2.2ZM4.4,72.447a10.367,10.367,0,0,1,6.6-9.619v19.25A10.346,10.346,0,0,1,4.4,72.447Zm115.239,0a10.387,10.387,0,0,1-5.3,8.977V63.466A10.342,10.342,0,0,1,119.636,72.447ZM106.01,38.086a21.645,21.645,0,0,1,3.931,12.482V84.187a2.17,2.17,0,0,0-.014.961c0,.014.011.024.014.036V96.141a11.83,11.83,0,0,1-11.816,11.816H27.208A11.831,11.831,0,0,1,15.391,96.141V50.568A21.794,21.794,0,0,1,37.161,28.8h35.4v6.6a2.2,2.2,0,0,0,2.2,2.2H85.753v9.794a2.2,2.2,0,0,0,3.836,1.47l10.1-11.263h6.107A2.052,2.052,0,0,0,106.01,38.086ZM129.73,33.2H98.706a2.2,2.2,0,0,0-1.637.73l-6.917,7.715V35.4a2.2,2.2,0,0,0-2.2-2.2H76.959V4.612H129.73Zm0,0" transform="translate(0 -0.215)" fill="#fdc61b" stroke="#fdc61b" stroke-width="1"/>
      <path id="Path_7794" data-name="Path 7794" d="M258.452,38.363h12.706a2.2,2.2,0,0,0,0-4.4H258.452a2.2,2.2,0,0,0,0,4.4Zm0,0" transform="translate(-173.716 -23.094)" fill="#fdc61b" stroke="#fdc61b" stroke-width="1"/>
      <path id="Path_7795" data-name="Path 7795" d="M258.452,72.5h38.4a2.2,2.2,0,0,0,0-4.4h-38.4a2.2,2.2,0,0,0,0,4.4Zm0,0" transform="translate(-173.716 -46.233)" fill="#fdc61b" stroke="#fdc61b" stroke-width="1"/>
    </g>
  </g>
</svg>
