<svg xmlns="http://www.w3.org/2000/svg" width="192.446" height="117.167" viewBox="0 0 192.446 117.167">
  <g id="Group_1182" data-name="Group 1182" transform="translate(-1342.512 -388.13)">
    <g id="Group_1066" data-name="Group 1066">
      <path id="Path_8921" data-name="Path 8921" d="M1353.711,492.749c35.1,36.413,80.929-18.486,124.24-13.72,27.9,3.07,58.748-10.583,54.841-45.006-5.683-50.06-85.272-50.959-128.2-40.693s-81.962,67.175-50.881,99.419" fill="#15375e"/>
      <path id="Path_8921-2" data-name="Path 8921" d="M1353.711,492.749c35.1,36.413,80.929-18.486,124.24-13.72,27.9,3.07,58.748-10.583,54.841-45.006-5.683-50.06-85.272-50.959-128.2-40.693s-81.962,67.175-50.881,99.419" fill="#fff" opacity="0.8" style="isolation: isolate"/>
      <g id="Group_1180" data-name="Group 1180">
        <g id="Group_963" data-name="Group 963">
          <path id="Path_10268" data-name="Path 10268" d="M1531.454,461.243l-19.885,5.915a4.9,4.9,0,0,0-3.263,3.185l-6.4,19.734a4.9,4.9,0,0,1-8.7,1.269l-11.769-17.082a4.9,4.9,0,0,0-4.039-2.121l-20.744.01a4.9,4.9,0,0,1-3.894-7.879l12.606-16.472a4.9,4.9,0,0,0,.769-4.5l-6.418-19.726a4.9,4.9,0,0,1,6.292-6.14l19.562,6.9a4.9,4.9,0,0,0,4.514-.659l16.775-12.2a4.9,4.9,0,0,1,7.784,4.087l-.52,20.738a4.9,4.9,0,0,0,2.022,4.09l16.789,12.184a4.9,4.9,0,0,1-1.48,8.664" fill="#15375e"/>
          <path id="Path_10268-2" data-name="Path 10268" d="M1531.454,461.243l-19.885,5.915a4.9,4.9,0,0,0-3.263,3.185l-6.4,19.734a4.9,4.9,0,0,1-8.7,1.269l-11.769-17.082a4.9,4.9,0,0,0-4.039-2.121l-20.744.01a4.9,4.9,0,0,1-3.894-7.879l12.606-16.472a4.9,4.9,0,0,0,.769-4.5l-6.418-19.726a4.9,4.9,0,0,1,6.292-6.14l19.562,6.9a4.9,4.9,0,0,0,4.514-.659l16.775-12.2a4.9,4.9,0,0,1,7.784,4.087l-.52,20.738a4.9,4.9,0,0,0,2.022,4.09l16.789,12.184a4.9,4.9,0,0,1-1.48,8.664" fill="#fff" opacity="0.5" style="isolation: isolate"/>
          <path id="Path_10269" data-name="Path 10269" d="M1480.574,467.94a9.614,9.614,0,0,0-3.184-.534l-13.55.009a3.713,3.713,0,0,1-2.941-5.976l8.233-10.757a9.64,9.64,0,0,0,1.512-8.844l-4.193-12.884a3.713,3.713,0,0,1,4.767-4.651l6.528,2.3-.35.993-6.531-2.3a2.659,2.659,0,0,0-3.415,3.331l4.2,12.882a10.7,10.7,0,0,1-1.675,9.809l-8.238,10.76a2.659,2.659,0,0,0,2.113,4.276l13.55-.009a10.668,10.668,0,0,1,3.526.6Z" fill="#fff" opacity="0.5" style="isolation: isolate"/>
          <path id="Path_10270" data-name="Path 10270" d="M1498.47,483.475a3.722,3.722,0,0,1-5.241-.478c-.071-.086-.139-.175-.2-.266l-5.881-8.535.869-.6,5.88,8.535a2.66,2.66,0,0,0,4.72-.689l4.18-12.886a10.8,10.8,0,0,1,7.126-6.949l12.986-3.861a2.661,2.661,0,0,0,.8-4.7l-10.965-7.959a10.688,10.688,0,0,1-4.408-8.921l.335-13.547a2.659,2.659,0,0,0-4.223-2.218l-10.956,7.97a10.639,10.639,0,0,1-3.76,1.741l-.249-1.024a9.575,9.575,0,0,0,3.389-1.57l10.957-7.97a3.713,3.713,0,0,1,5.895,3.1l-.336,13.547a9.636,9.636,0,0,0,3.974,8.043l10.965,7.959a3.713,3.713,0,0,1-1.121,6.565l-12.986,3.862a9.728,9.728,0,0,0-6.422,6.268l-4.18,12.886a3.708,3.708,0,0,1-1.146,1.7" fill="#fff" opacity="0.5" style="isolation: isolate"/>
        </g>
      </g>
      <g id="Group_1181" data-name="Group 1181">
        <g id="Group_961" data-name="Group 961">
          <path id="Path_10260" data-name="Path 10260" d="M1415.578,450.721l-8.317,15.344a4.122,4.122,0,0,0-.048,3.838l7.92,15.549a4.124,4.124,0,0,1-4.424,5.928l-17.163-3.169a4.127,4.127,0,0,0-3.666,1.14L1377.545,501.7a4.124,4.124,0,0,1-7-2.374l-2.29-17.3a4.12,4.12,0,0,0-2.217-3.132l-15.552-7.921a4.124,4.124,0,0,1,.094-7.4l15.746-7.526a4.125,4.125,0,0,0,2.3-3.079l2.729-17.239a4.124,4.124,0,0,1,7.062-2.2l12.023,12.652a4.123,4.123,0,0,0,3.635,1.232l17.237-2.732a4.124,4.124,0,0,1,4.271,6.038" fill="#15375e"/>
          <path id="Path_10261" data-name="Path 10261" d="M1389.277,484.962a8.062,8.062,0,0,0-2.211,1.571l-8.059,8.06a3.124,3.124,0,0,1-5.306-1.8l-1.5-11.3a8.114,8.114,0,0,0-4.36-6.163l-10.157-5.175a3.124,3.124,0,0,1,.074-5.6l5.255-2.512.382.8-5.254,2.512a2.238,2.238,0,0,0-.052,4.014l10.156,5.173a9,9,0,0,1,4.836,6.838l1.495,11.3a2.237,2.237,0,0,0,3.8,1.289l8.059-8.06a8.979,8.979,0,0,1,2.453-1.743Z" fill="#fff" opacity="0.5" style="isolation: isolate"/>
          <path id="Path_10262" data-name="Path 10262" d="M1409.168,483.566a3.131,3.131,0,0,1-3.4,2.832c-.093-.009-.186-.021-.278-.038l-8.576-1.582.161-.873,8.575,1.583a2.237,2.237,0,0,0,2.4-3.218l-5.175-10.152a9.087,9.087,0,0,1,.109-8.374l5.432-10.021a2.238,2.238,0,0,0-2.318-3.277l-11.259,1.784a8.993,8.993,0,0,1-7.929-2.689l-7.854-8.262a2.237,2.237,0,0,0-3.832,1.192l-1.783,11.261a8.926,8.926,0,0,1-1.2,3.272l-.756-.461a8.061,8.061,0,0,0,1.083-2.95l1.783-11.261a3.123,3.123,0,0,1,5.35-1.664l7.854,8.263a8.109,8.109,0,0,0,7.148,2.424l11.259-1.784a3.124,3.124,0,0,1,3.237,4.574l-5.434,10.019a8.184,8.184,0,0,0-.095,7.549l5.175,10.153a3.114,3.114,0,0,1,.331,1.7" fill="#fff" opacity="0.5" style="isolation: isolate"/>
        </g>
      </g>
      <path id="Path_10263" data-name="Path 10263" d="M1485.725,497.815h-2.309l-2.6-10.366a3.205,3.205,0,0,0-3.111-2.422h-11.221v-4.8h9.619a3.2,3.2,0,1,0,.277-6.394c-.092,0-.185,0-.277,0v-1.6a38.461,38.461,0,0,0-35.27-38.23v-4.93h4.81a3.2,3.2,0,1,0,.277-6.394c-.092,0-.185,0-.277,0h-16.032a3.2,3.2,0,1,0-.277,6.394c.092,0,.185,0,.277,0h4.814V434a38.461,38.461,0,0,0-35.27,38.23v1.6a3.2,3.2,0,1,0-.277,6.394c.092,0,.185,0,.277,0h9.619v4.8h-11.227a3.2,3.2,0,0,0-3.111,2.422l-2.6,10.366h-2.305a3.2,3.2,0,1,0-.277,6.394c.092,0,.185,0,.277,0h96.194C1487.493,504.209,1487.493,497.815,1485.725,497.815Z" fill="#fdc61b" style="isolation: isolate"/>
      <g id="reception" style="isolation: isolate">
        <path id="Path_7784" data-name="Path 7784" d="M1485.725,498.038h-2.309l-2.6-10.4a3.208,3.208,0,0,0-3.111-2.429h-11.221V480.4h9.619a3.206,3.206,0,1,0,0-6.413h0v-1.6a38.527,38.527,0,0,0-35.27-38.342V429.1h4.81a3.207,3.207,0,1,0,0-6.413h-16.032a3.207,3.207,0,0,0,0,6.413h4.814v4.944a38.528,38.528,0,0,0-35.275,38.344v1.6a3.206,3.206,0,0,0,0,6.413h9.619v4.809h-11.222a3.207,3.207,0,0,0-3.111,2.429l-2.6,10.4h-2.305a3.206,3.206,0,0,0,0,6.413h96.194a3.206,3.206,0,1,0,0-6.413Zm-80.162-25.649a32.064,32.064,0,0,1,64.127,0v1.6h-64.127Zm9.619,8.016h44.889v4.809h-44.889Zm-16.735,17.633,1.6-6.413H1475.2l1.6,6.413Z" fill="#fdc61b"/>
        <path id="Path_7785" data-name="Path 7785" d="M1389.531,456.356h6.413a3.206,3.206,0,1,0,0-6.413h-6.413a3.206,3.206,0,0,0,0,6.413Z" fill="#fdc61b"/>
        <path id="Path_7786" data-name="Path 7786" d="M1479.309,456.356h6.413a3.206,3.206,0,1,0,0-6.413h-6.413a3.206,3.206,0,0,0,0,6.413Z" fill="#fdc61b"/>
        <path id="Path_7787" data-name="Path 7787" d="M1405.885,425.941a3.206,3.206,0,0,0,4.533-4.532l-4.535-4.535a3.206,3.206,0,1,0-4.534,4.534Z" fill="#fdc61b"/>
        <path id="Path_7788" data-name="Path 7788" d="M1467.1,426.882a3.2,3.2,0,0,0,2.267-.939l4.535-4.534a3.206,3.206,0,0,0-4.534-4.534h0l-4.538,4.533a3.21,3.21,0,0,0,2.27,5.474Z" fill="#fdc61b"/>
        <path id="Path_7789" data-name="Path 7789" d="M1437.626,414.673a3.206,3.206,0,0,0,3.206-3.206v-6.413a3.207,3.207,0,0,0-6.413,0v6.413a3.206,3.206,0,0,0,3.206,3.206Z" fill="#fdc61b"/>
      </g>
    </g>
    <path id="Path_10451" data-name="Path 10451" d="M1405.563,472.389a32.064,32.064,0,0,1,64.127,0v1.6h-64.127Z" fill="#fff" opacity="0.5" style="isolation: isolate"/>
    <rect id="Rectangle_1290" data-name="Rectangle 1290" width="44.889" height="4.809" transform="translate(1415.182 480.405)" fill="#fff" opacity="0.5" style="isolation: isolate"/>
    <path id="Path_10452" data-name="Path 10452" d="M1398.447,498.038l1.6-6.413H1475.2l1.6,6.413Z" fill="#fff" opacity="0.5" style="isolation: isolate"/>
  </g>
</svg>
