<svg xmlns="http://www.w3.org/2000/svg" xmlns:xlink="http://www.w3.org/1999/xlink" width="548.087" height="347.975" viewBox="0 0 548.087 347.975">
  <defs>
    <clipPath id="clip-path">
      <rect id="Rectangle_1280" data-name="Rectangle 1280" width="105.857" height="78.244" transform="matrix(0.839, -0.545, 0.545, 0.839, 756.927, 262.372)" fill="none"/>
    </clipPath>
    <clipPath id="clip-path-2">
      <rect id="Rectangle_1281" data-name="Rectangle 1281" width="113.124" height="112.974" transform="translate(991.155 504.937) rotate(-65)" fill="none"/>
    </clipPath>
    <clipPath id="clip-path-3">
      <rect id="Rectangle_1282" data-name="Rectangle 1282" width="171.142" height="65.668" transform="translate(1071.264 366.788) rotate(-51)" fill="none"/>
    </clipPath>
    <clipPath id="clip-path-4">
      <rect id="Rectangle_1284" data-name="Rectangle 1284" width="515.131" height="337.006" transform="translate(688.691 204.745)" fill="none"/>
    </clipPath>
  </defs>
  <g id="Group_1170" data-name="Group 1170" transform="translate(-681.914 -204.707)">
    <path id="Path_8921" data-name="Path 8921" d="M713.4,503.025c98.693,102.39,227.566-51.98,349.356-38.578,78.442,8.633,165.195-29.757,154.208-126.557C1200.987,197.127,977.188,194.6,856.477,223.466S626.012,412.359,713.4,503.025" fill="#fdc61b"/>
    <path id="Path_8921-2" data-name="Path 8921" d="M713.4,503.025c98.693,102.39,227.566-51.98,349.356-38.578,78.442,8.633,165.195-29.757,154.208-126.557C1200.987,197.127,977.188,194.6,856.477,223.466S626.012,412.359,713.4,503.025" fill="#fff" opacity="0.8" style="isolation: isolate"/>
    <path id="Path_8925" data-name="Path 8925" d="M1080.885,464.465c-.434.356-36.385,29.894-62.307,55.637q-.549-.781-1.025-1.617c25.986-25.753,61.713-55.111,62.148-55.466a.935.935,0,0,1,1.184,1.446" fill="#2786c7"/>
    <rect id="Rectangle_642" data-name="Rectangle 642" width="515.131" height="337.006" transform="translate(688.691 204.745)" fill="none"/>
    <g id="Group_891" data-name="Group 891">
      <g id="Group_1146" data-name="Group 1146">
        <g id="Group_1145" data-name="Group 1145" clip-path="url(#clip-path)">
          <g id="Group_890" data-name="Group 890">
            <path id="Path_10041" data-name="Path 10041" d="M888.323,270.323l-88.772,57.665-.055-.084a10.225,10.225,0,0,1,3-14.145l.006,0,71.622-46.524a10.224,10.224,0,0,1,14.143,3Z" fill="#eeedee"/>
            <rect id="Rectangle_1188" data-name="Rectangle 1188" width="85.985" height="7.588" transform="matrix(0.839, -0.545, 0.545, 0.839, 798.123, 307.549)" fill="#e2e2e2"/>
            <rect id="Rectangle_1189" data-name="Rectangle 1189" width="7.539" height="58.088" transform="matrix(0.839, -0.545, 0.545, 0.839, 799.371, 237.468)" fill="#b3b3b3"/>
            <path id="Path_10042" data-name="Path 10042" d="M801.515,233.408l-.4.262a9.469,9.469,0,0,0-2.783,13.1h0l.054.084,16.289-10.581-.054-.084a9.472,9.472,0,0,0-13.1-2.785l0,0" fill="#eeedee"/>
            <rect id="Rectangle_1190" data-name="Rectangle 1190" width="19.424" height="8.697" transform="matrix(0.839, -0.545, 0.545, 0.839, 801.337, 251.401)" fill="#e2e2e2"/>
            <path id="Path_10043" data-name="Path 10043" d="M865.985,257.113c-13.9-21.4-37.046-19.852-54.943-8.054-17.725,11.693-28.059,32.242-14.479,53.149Z" fill="#eeedee"/>
            <path id="Path_10044" data-name="Path 10044" d="M806.971,252.839c-11.959,11.867-17.118,28.4-6.39,44.917l7.11-4.619c-8.623-15.053-7.462-29.191-.72-40.3" fill="#fff"/>
          </g>
        </g>
      </g>
    </g>
    <g id="Group_888" data-name="Group 888">
      <g id="Group_1148" data-name="Group 1148">
        <g id="Group_1147" data-name="Group 1147" clip-path="url(#clip-path-2)">
          <g id="Group_887" data-name="Group 887">
            <path id="Path_10038" data-name="Path 10038" d="M1081.394,535.532l-20.489-19.415a6.667,6.667,0,0,0-5.974-1.683l-27.61,5.871a6.67,6.67,0,0,1-7.409-9.391l12.133-25.486a6.667,6.667,0,0,0-.246-6.2l-14.115-24.444a6.671,6.671,0,0,1,6.641-9.949l27.987,3.665a6.669,6.669,0,0,0,5.823-2.151l18.887-20.978a6.668,6.668,0,0,1,11.511,3.247l5.167,27.746a6.664,6.664,0,0,0,3.845,4.872l25.787,11.479a6.669,6.669,0,0,1,.475,11.952l-24.8,13.484a6.67,6.67,0,0,0-3.447,5.163l-2.948,28.073a6.67,6.67,0,0,1-11.222,4.146" fill="#eeedee"/>
            <path id="Path_10039" data-name="Path 10039" d="M1038.912,480.113a13.057,13.057,0,0,0-1.529-4.113l-9.218-15.963a5.053,5.053,0,0,1,5.032-7.537l18.278,2.392a13.12,13.12,0,0,0,11.453-4.23l12.334-13.7a5.052,5.052,0,0,1,8.722,2.456l1.724,9.26-1.409.263-1.722-9.26a3.618,3.618,0,0,0-6.25-1.756l-12.332,13.7a14.56,14.56,0,0,1-12.706,4.693l-18.278-2.393a3.617,3.617,0,0,0-3.6,5.4l9.217,15.963a14.518,14.518,0,0,1,1.695,4.561Z" fill="#e2e2e2"/>
            <path id="Path_10040" data-name="Path 10040" d="M1032.768,511.768a5.065,5.065,0,0,1-3-6.5q.079-.213.177-.419l6.06-12.732,1.295.617-6.062,12.731a3.618,3.618,0,0,0,4.022,5.094l18.029-3.832a14.7,14.7,0,0,1,13.039,3.67l13.376,12.679a3.621,3.621,0,0,0,6.089-2.25l1.929-18.333a14.542,14.542,0,0,1,7.519-11.262l16.2-8.81a3.618,3.618,0,0,0-.258-6.485l-16.843-7.5a14.464,14.464,0,0,1-4.607-3.252l1.036-.985a13.049,13.049,0,0,0,4.152,2.929l16.847,7.495a5.05,5.05,0,0,1,.358,9.052l-16.195,8.812a13.11,13.11,0,0,0-6.779,10.152l-1.929,18.333a5.053,5.053,0,0,1-8.5,3.141l-13.376-12.679a13.237,13.237,0,0,0-11.754-3.307l-18.032,3.832a5.049,5.049,0,0,1-2.789-.191" fill="#e2e2e2"/>
          </g>
        </g>
      </g>
    </g>
    <g id="Group_889" data-name="Group 889">
      <g id="Group_1150" data-name="Group 1150">
        <g id="Group_1149" data-name="Group 1149" clip-path="url(#clip-path-3)">
          <g id="Group_878" data-name="Group 878">
            <path id="Path_10026" data-name="Path 10026" d="M1197.571,306.206l.086.07a5.517,5.517,0,0,0,7.759-.81l4.128-5.1-.019-.015a32.78,32.78,0,0,0-51.127-41.037l-83.117,102.511a6.346,6.346,0,0,0,.931,8.925l41.087,33.313a6.343,6.343,0,0,0,8.922-.931h0L1167.76,351.9a6.345,6.345,0,0,0,1.382-4.654l-6.791-65.028h0a21.456,21.456,0,0,1,1.934-11.38,22.586,22.586,0,0,1,1.182-2.2c.041-.07.083-.144.128-.215a20.655,20.655,0,0,1,1.476-2.086,21.638,21.638,0,0,1,33.819,27l-4.127,5.1a5.515,5.515,0,0,0,.808,7.757h0" fill="#fdc61b"/>
          </g>
        </g>
      </g>
    </g>
    <rect id="Rectangle_645" data-name="Rectangle 645" width="515.131" height="337.006" transform="translate(688.691 204.745)" fill="none"/>
    <path id="Path_8959" data-name="Path 8959" d="M1045.475,214.536V327.483a9.79,9.79,0,0,1-9.791,9.791H865.076a9.791,9.791,0,0,1-9.791-9.791h0V214.536a9.792,9.792,0,0,1,9.79-9.792h170.608a9.791,9.791,0,0,1,9.792,9.79h0" fill="#0b2645"/>
    <path id="Path_8960" data-name="Path 8960" d="M1027.128,214.012v114a5.087,5.087,0,0,1-5.087,5.087H873.383a5.088,5.088,0,0,1-5.087-5.087h0v-114a5.087,5.087,0,0,1,5.087-5.087h148.659a5.086,5.086,0,0,1,5.087,5.087h0" fill="#fff"/>
    <path id="Path_8961" data-name="Path 8961" d="M1035.919,265.925a5.085,5.085,0,1,1-5.085,5.085h0a5.085,5.085,0,0,1,5.085-5.085" fill="#15375e"/>
    <path id="Path_8962" data-name="Path 8962" d="M862.863,252.083v37.856a1.03,1.03,0,0,1-1.03,1.03h-.041a1.032,1.032,0,0,1-1.031-1.029h0V252.083a1.031,1.031,0,0,1,1.031-1.031h.04a1.03,1.03,0,0,1,1.031,1.031h0" fill="#15375e"/>
    <g id="Path_8963" data-name="Path 8963">
      <path id="Path_10343" data-name="Path 10343" d="M989.563,235.056H942.43a1.689,1.689,0,1,1,0-3.379h47.134a1.689,1.689,0,0,1,0,3.379" fill="#15375e"/>
    </g>
    <g id="Path_8964" data-name="Path 8964">
      <path id="Path_10344" data-name="Path 10344" d="M923.767,293.149H876.635a1.69,1.69,0,0,1-.082-3.379h47.214a1.69,1.69,0,0,1,0,3.379" fill="#15375e"/>
    </g>
    <path id="Path_8965" data-name="Path 8965" d="M921.9,278.934H879.736A4.238,4.238,0,0,1,875.5,274.7V234.18a4.238,4.238,0,0,1,4.238-4.239H921.9a4.239,4.239,0,0,1,4.24,4.238h0V274.7a4.239,4.239,0,0,1-4.24,4.239h0" fill="#e2e2e2"/>
    <path id="Path_8966" data-name="Path 8966" d="M921.952,274.886H879.68v-40.9h42.272Zm0-41.746H879.68a.848.848,0,0,0-.848.848h0v40.9a.848.848,0,0,0,.848.848h42.272a.848.848,0,0,0,.848-.848v-40.9a.848.848,0,0,0-.848-.848" fill="#fdc61b"/>
    <path id="Path_8967" data-name="Path 8967" d="M879.423,275.74l14.008-25.213,11.458,16.114,6.962-8.557,10.358,17.654Z" fill="#fdc61b"/>
    <path id="Path_8968" data-name="Path 8968" d="M909.774,244.626a3.644,3.644,0,1,1-3.644-3.644h0a3.643,3.643,0,0,1,3.643,3.643h0" fill="#fdc61b"/>
    <path id="Path_8969" data-name="Path 8969" d="M1000.868,330.945H973.506a4.239,4.239,0,0,1-4.238-4.238h0v-26.2a4.239,4.239,0,0,1,4.238-4.24h27.361a4.239,4.239,0,0,1,4.239,4.24v26.2a4.239,4.239,0,0,1-4.239,4.239h0" fill="#e2e2e2"/>
    <path id="Path_8970" data-name="Path 8970" d="M1002.141,328.075H972.233V299.14h29.908Zm0-29.783H972.233a.848.848,0,0,0-.848.848v28.935a.848.848,0,0,0,.848.848h29.908a.847.847,0,0,0,.848-.848V299.14a.848.848,0,0,0-.848-.848" fill="#fdc61b"/>
    <path id="Path_8971" data-name="Path 8971" d="M972.048,327.977l9.914-17.842,8.109,11.4L995,315.479l7.33,12.494Z" fill="#fdc61b"/>
    <path id="Path_8972" data-name="Path 8972" d="M993.526,306.665a2.579,2.579,0,1,1-2.579-2.579,2.579,2.579,0,0,1,2.579,2.579h0" fill="#fdc61b"/>
    <line id="Line_17" data-name="Line 17" x2="62.819" transform="translate(941.137 244.26)" fill="none"/>
    <g id="Line_18" data-name="Line 18">
      <path id="Path_10345" data-name="Path 10345" d="M1003.956,245.39H941.138a1.13,1.13,0,1,1,0-2.26h62.818a1.13,1.13,0,1,1,0,2.26Z" fill="#4b617b"/>
    </g>
    <line id="Line_19" data-name="Line 19" x2="62.819" transform="translate(941.137 251.639)" fill="none"/>
    <g id="Line_20" data-name="Line 20">
      <path id="Path_10346" data-name="Path 10346" d="M1003.956,252.77H941.138a1.13,1.13,0,0,1,0-2.26h62.818a1.13,1.13,0,1,1,0,2.26Z" fill="#4b617b"/>
    </g>
    <line id="Line_21" data-name="Line 21" x2="62.819" transform="translate(941.137 259.018)" fill="none"/>
    <g id="Line_22" data-name="Line 22">
      <path id="Path_10347" data-name="Path 10347" d="M1003.956,260.147H941.138a1.13,1.13,0,1,1,0-2.259h62.818a1.13,1.13,0,1,1,0,2.259Z" fill="#4b617b"/>
    </g>
    <line id="Line_23" data-name="Line 23" x2="62.819" transform="translate(941.137 266.395)" fill="none"/>
    <g id="Line_24" data-name="Line 24">
      <path id="Path_10348" data-name="Path 10348" d="M1003.956,267.525H941.138a1.13,1.13,0,1,1,0-2.259h62.818a1.13,1.13,0,1,1,0,2.259Z" fill="#4b617b"/>
    </g>
    <line id="Line_25" data-name="Line 25" x2="62.819" transform="translate(941.137 273.775)" fill="none"/>
    <g id="Line_26" data-name="Line 26">
      <path id="Path_10349" data-name="Path 10349" d="M1003.956,274.9H941.138a1.13,1.13,0,1,1,0-2.259h62.818a1.13,1.13,0,1,1,0,2.259Z" fill="#4b617b"/>
    </g>
    <line id="Line_27" data-name="Line 27" x2="49.042" transform="translate(941.137 281.153)" fill="none"/>
    <g id="Line_28" data-name="Line 28">
      <path id="Path_10350" data-name="Path 10350" d="M990.18,282.282H941.138a1.13,1.13,0,0,1,0-2.26H990.18a1.13,1.13,0,0,1,0,2.26Z" fill="#4b617b"/>
    </g>
    <line id="Line_29" data-name="Line 29" x2="82.405" transform="translate(875.894 303.075)" fill="none"/>
    <g id="Line_30" data-name="Line 30">
      <path id="Path_10351" data-name="Path 10351" d="M958.3,304.2H875.9a1.13,1.13,0,1,1,0-2.26h82.4a1.13,1.13,0,1,1,0,2.26Z" fill="#4b617b"/>
    </g>
    <line id="Line_31" data-name="Line 31" x2="82.405" transform="translate(875.894 309.226)" fill="none"/>
    <g id="Line_32" data-name="Line 32">
      <path id="Path_10352" data-name="Path 10352" d="M958.3,310.355H875.9a1.13,1.13,0,1,1,0-2.259h82.4a1.13,1.13,0,1,1,0,2.259Z" fill="#4b617b"/>
    </g>
    <line id="Line_33" data-name="Line 33" x2="82.405" transform="translate(875.894 315.377)" fill="none"/>
    <g id="Line_34" data-name="Line 34">
      <path id="Path_10353" data-name="Path 10353" d="M958.3,316.506H875.9a1.13,1.13,0,1,1,0-2.259h82.4a1.13,1.13,0,1,1,0,2.259Z" fill="#4b617b"/>
    </g>
    <line id="Line_35" data-name="Line 35" x2="82.405" transform="translate(875.894 321.528)" fill="none"/>
    <g id="Line_36" data-name="Line 36">
      <path id="Path_10354" data-name="Path 10354" d="M958.3,322.657H875.9a1.13,1.13,0,0,1,0-2.26h82.4a1.13,1.13,0,0,1,0,2.26Z" fill="#4b617b"/>
    </g>
    <line id="Line_37" data-name="Line 37" x2="82.405" transform="translate(875.894 327.679)" fill="none"/>
    <g id="Line_38" data-name="Line 38">
      <path id="Path_10355" data-name="Path 10355" d="M958.3,328.809H875.9a1.13,1.13,0,1,1,0-2.26h82.4a1.13,1.13,0,1,1,0,2.26Z" fill="#4b617b"/>
    </g>
    <g id="Line_39" data-name="Line 39">
      <path id="Path_10356" data-name="Path 10356" d="M1019.9,215.787h-8.538a.5.5,0,0,1,0-1h8.538a.5.5,0,0,1,0,1Z" fill="#fdc61b"/>
    </g>
    <g id="Line_40" data-name="Line 40">
      <path id="Path_10357" data-name="Path 10357" d="M1019.9,218.531h-8.538a.5.5,0,0,1,0-1h8.538a.5.5,0,0,1,0,1Z" fill="#fdc61b"/>
    </g>
    <g id="Line_41" data-name="Line 41">
      <path id="Path_10358" data-name="Path 10358" d="M1019.9,221.276h-8.538a.5.5,0,0,1,0-1h8.538a.5.5,0,0,1,0,1Z" fill="#fdc61b"/>
    </g>
    <rect id="Rectangle_651" data-name="Rectangle 651" width="515.131" height="337.006" transform="translate(688.691 204.745)" fill="none"/>
    <g id="Group_924" data-name="Group 924">
      <g id="Group_1151" data-name="Group 1151">
        <g id="Group_923" data-name="Group 923">
          <path id="Path_10060" data-name="Path 10060" d="M823.079,465.541l-51.527,54.54L682.02,435.5l51.53-54.544a9.669,9.669,0,0,1,13.668-.388h0l75.471,71.3a9.668,9.668,0,0,1,.391,13.668l0,0" fill="#fdc61b"/>
          <path id="Path_10061" data-name="Path 10061" d="M720.509,424.444h0a15.827,15.827,0,1,0,26.269-7.844h0a15.828,15.828,0,0,0-26.269,7.844" fill="#fff" opacity="0.5" style="isolation: isolate"/>
          <path id="Path_10062" data-name="Path 10062" d="M741.632,476.594a28.418,28.418,0,0,1,2.945-3.647,7.756,7.756,0,0,1,4.769-2.767,5.069,5.069,0,0,1,4,1.508,5.552,5.552,0,0,1,1.929,3.826,7.809,7.809,0,0,1-2.453,5.611,8.333,8.333,0,0,1-1.467,1.309l5.5,5.187-1.671,1.769Zm8.281,4.477a8.192,8.192,0,0,0,1.524-1.331c2.016-2.134,2.211-4.414.319-6.2-1.81-1.714-3.894-1.255-5.738.7a10.124,10.124,0,0,0-1.433,1.8Z" fill="#fff" opacity="0.5" style="isolation: isolate"/>
          <path id="Path_10063" data-name="Path 10063" d="M763.487,471.956l2.967,5.5-1.731,1.83-9.307-17.608,2.017-2.135,18.127,8.271-1.787,1.889-5.7-2.607Zm2.862-5.8-5.213-2.384c-1.182-.54-2.188-1.1-3.174-1.65l-.038.039c.621.972,1.244,1.982,1.827,3.036l2.7,5.087Z" fill="#fff" opacity="0.5" style="isolation: isolate"/>
          <path id="Path_10064" data-name="Path 10064" d="M777,461.974a8.624,8.624,0,0,0,3.892-2.325c1.713-1.812,1.755-3.772.371-5.079-1.282-1.21-2.7-1.169-5.166.008-2.907,1.488-5.371,1.775-7.3-.049-2.134-2.014-2.05-5.287.466-7.951a8.56,8.56,0,0,1,3.534-2.394l.983,1.852a7.484,7.484,0,0,0-3.111,1.987c-1.764,1.872-1.323,3.641-.381,4.523,1.277,1.21,2.695.97,5.214-.226,3.085-1.474,5.319-1.6,7.332.3,2.114,2,2.466,5.293-.59,8.528a9.729,9.729,0,0,1-4.178,2.671Z" fill="#fff" opacity="0.5" style="isolation: isolate"/>
          <path id="Path_10065" data-name="Path 10065" d="M788.389,449.916a8.612,8.612,0,0,0,3.892-2.326c1.713-1.811,1.755-3.771.371-5.078-1.282-1.21-2.706-1.169-5.166.008-2.906,1.487-5.373,1.775-7.3-.05-2.134-2.013-2.05-5.285.467-7.949a8.572,8.572,0,0,1,3.533-2.4l.984,1.852a7.522,7.522,0,0,0-3.112,1.989c-1.764,1.87-1.323,3.639-.381,4.522,1.279,1.211,2.7.97,5.215-.227,3.085-1.474,5.318-1.6,7.332.306,2.114,2,2.465,5.3-.59,8.528a9.748,9.748,0,0,1-4.178,2.671Z" fill="#fff" opacity="0.5" style="isolation: isolate"/>
        </g>
      </g>
    </g>
    <g id="Group_902" data-name="Group 902">
      <g id="Group_1157" data-name="Group 1157">
        <g id="Group_1156" data-name="Group 1156" clip-path="url(#clip-path-4)">
          <g id="Group_1155" data-name="Group 1155">
            <path id="Path_10359" data-name="Path 10359" d="M889.471,215.488l0,2.364a.691.691,0,0,1-.057.278.74.74,0,0,1-.154.228.709.709,0,0,1-.228.153.694.694,0,0,1-.28.057.707.707,0,0,1-.187-.025.658.658,0,0,1-.173-.072v.771a1.486,1.486,0,0,0,.36.045,1.4,1.4,0,0,0,.56-.114,1.431,1.431,0,0,0,.761-.763,1.369,1.369,0,0,0,.112-.559l0-2.364Z" fill="#15375e"/>
            <path id="Path_10360" data-name="Path 10360" d="M893.325,217.866a1.4,1.4,0,0,1-.413,1.009,1.443,1.443,0,0,1-1.553.3,1.446,1.446,0,0,1-.451-.3,1.389,1.389,0,0,1-.3-.448,1.475,1.475,0,0,1,0-1.125,1.37,1.37,0,0,1,.3-.45,1.421,1.421,0,0,1,1-.4,1.488,1.488,0,0,1,.553.1,1.331,1.331,0,0,1,.753.736,1.454,1.454,0,0,1,.112.581m-.712,0a.777.777,0,0,0-.056-.3.7.7,0,0,0-.152-.23.661.661,0,0,0-.224-.147.718.718,0,0,0-.274-.051.736.736,0,0,0-.273.051.66.66,0,0,0-.222.148.712.712,0,0,0-.149.231.792.792,0,0,0-.054.3.736.736,0,0,0,.055.288.718.718,0,0,0,.149.23.7.7,0,0,0,.223.154.677.677,0,0,0,.273.056.719.719,0,0,0,.274-.053.679.679,0,0,0,.223-.148.689.689,0,0,0,.152-.231.775.775,0,0,0,.055-.3" fill="#15375e"/>
            <path id="Path_10361" data-name="Path 10361" d="M896.461,217.862a1.4,1.4,0,0,1-.413,1.009,1.443,1.443,0,0,1-1.553.3,1.446,1.446,0,0,1-.451-.3,1.39,1.39,0,0,1-.3-.448,1.475,1.475,0,0,1,0-1.125,1.371,1.371,0,0,1,.3-.45,1.421,1.421,0,0,1,1-.4,1.492,1.492,0,0,1,.553.1,1.33,1.33,0,0,1,.753.736,1.454,1.454,0,0,1,.112.581m-.712,0a.777.777,0,0,0-.056-.3.7.7,0,0,0-.152-.23.661.661,0,0,0-.224-.147.759.759,0,0,0-.547,0,.66.66,0,0,0-.222.148.712.712,0,0,0-.149.231.792.792,0,0,0-.054.3.735.735,0,0,0,.055.288.718.718,0,0,0,.149.23.7.7,0,0,0,.223.154.677.677,0,0,0,.273.056.719.719,0,0,0,.274-.053.679.679,0,0,0,.223-.148.688.688,0,0,0,.152-.231.774.774,0,0,0,.055-.3" fill="#15375e"/>
            <path id="Path_10362" data-name="Path 10362" d="M899.5,219.223h0a.324.324,0,0,1-.262-.134l-.169-.233a2.228,2.228,0,0,1-.207.164,1.525,1.525,0,0,1-.228.133,1.478,1.478,0,0,1-.235.086,1.267,1.267,0,0,1-.306.035,1.329,1.329,0,0,1-.495-.1,1.36,1.36,0,0,1-.436-.3,1.393,1.393,0,0,1-.294-.448,1.446,1.446,0,0,1-.109-.564,1.47,1.47,0,0,1,.107-.563,1.408,1.408,0,0,1,.294-.451,1.357,1.357,0,0,1,.435-.3,1.322,1.322,0,0,1,.532-.108,1.206,1.206,0,0,1,.186.015,1,1,0,0,1,.188.048.779.779,0,0,1,.172.089.5.5,0,0,1,.135.135v-1.252h.688Zm-.69-1.364a.7.7,0,0,0-.054-.271.781.781,0,0,0-.147-.233.737.737,0,0,0-.217-.162.588.588,0,0,0-.264-.061.7.7,0,0,0-.264.05.625.625,0,0,0-.215.144.681.681,0,0,0-.144.23.838.838,0,0,0-.052.3.739.739,0,0,0,.053.281.755.755,0,0,0,.144.232.685.685,0,0,0,.215.158.628.628,0,0,0,.265.057.589.589,0,0,0,.264-.062.733.733,0,0,0,.216-.163.778.778,0,0,0,.146-.233.706.706,0,0,0,.054-.272" fill="#15375e"/>
            <path id="Path_10363" data-name="Path 10363" d="M891.274,222.749a1.029,1.029,0,0,1-.085.418,1.1,1.1,0,0,1-.231.342,1.09,1.09,0,0,1-.341.232,1.037,1.037,0,0,1-.419.086l-1.795,0,0-3.59,1.795,0a1.027,1.027,0,0,1,.418.084,1.091,1.091,0,0,1,.574.573,1.028,1.028,0,0,1,.086.418.819.819,0,0,1-.027.205,1,1,0,0,1-.078.2.869.869,0,0,1-.12.178.673.673,0,0,1-.155.133.547.547,0,0,1,.158.128.954.954,0,0,1,.121.179.931.931,0,0,1,.076.2.841.841,0,0,1,.027.207m-2.155-1.074H890.2a.361.361,0,0,0,.14-.028.37.37,0,0,0,.114-.077.359.359,0,0,0,.1-.256.36.36,0,0,0-.027-.14.362.362,0,0,0-.191-.191.36.36,0,0,0-.14-.027h-1.076Zm0,1.435,1.077,0a.364.364,0,0,0,.14-.027.355.355,0,0,0,.19-.191.377.377,0,0,0,0-.28.348.348,0,0,0-.077-.114.369.369,0,0,0-.114-.077.36.36,0,0,0-.14-.027H889.12Z" fill="#15375e"/>
            <path id="Path_10364" data-name="Path 10364" d="M894.39,222.407a1.4,1.4,0,0,1-.414,1.008,1.413,1.413,0,0,1-1,.408,1.414,1.414,0,0,1-.551-.108,1.456,1.456,0,0,1-.451-.3,1.4,1.4,0,0,1-.3-.448,1.477,1.477,0,0,1,0-1.126,1.377,1.377,0,0,1,.3-.449,1.409,1.409,0,0,1,.45-.3,1.432,1.432,0,0,1,.551-.108,1.489,1.489,0,0,1,.553.1,1.337,1.337,0,0,1,.45.287,1.354,1.354,0,0,1,.3.448,1.474,1.474,0,0,1,.113.582m-.713,0a.773.773,0,0,0-.056-.3.693.693,0,0,0-.152-.23.648.648,0,0,0-.224-.148.737.737,0,0,0-.274-.051.717.717,0,0,0-.273.052.631.631,0,0,0-.222.148.7.7,0,0,0-.149.23.8.8,0,0,0-.054.3.734.734,0,0,0,.055.287.723.723,0,0,0,.149.231.682.682,0,0,0,.223.153.667.667,0,0,0,.273.056.7.7,0,0,0,.274-.053.664.664,0,0,0,.223-.148.683.683,0,0,0,.152-.23.779.779,0,0,0,.055-.3" fill="#15375e"/>
            <path id="Path_10365" data-name="Path 10365" d="M897.535,222.4a1.41,1.41,0,0,1-.111.56,1.4,1.4,0,0,1-.3.448,1.441,1.441,0,0,1-1.552.3,1.444,1.444,0,0,1-.451-.3,1.4,1.4,0,0,1-.417-1.008,1.432,1.432,0,0,1,.11-.566,1.393,1.393,0,0,1,.3-.449,1.421,1.421,0,0,1,1-.406,1.489,1.489,0,0,1,.553.1,1.337,1.337,0,0,1,.45.287,1.371,1.371,0,0,1,.3.448,1.472,1.472,0,0,1,.112.582m-.713,0a.755.755,0,0,0-.056-.3.694.694,0,0,0-.152-.23.63.63,0,0,0-.224-.148.728.728,0,0,0-.273-.051.71.71,0,0,0-.273.052.627.627,0,0,0-.223.148.7.7,0,0,0-.149.23.8.8,0,0,0-.054.3.752.752,0,0,0,.055.287.722.722,0,0,0,.149.231.693.693,0,0,0,.223.153.669.669,0,0,0,.274.056.7.7,0,0,0,.273-.053.674.674,0,0,0,.375-.378.779.779,0,0,0,.055-.3" fill="#15375e"/>
            <path id="Path_10366" data-name="Path 10366" d="M900.364,221.137h-.786l-1.017,1.293,0-2.206h-.689l0,3.591h.689v-.343l.475-.632.544.974h.786l-.891-1.559Z" fill="#15375e"/>
            <path id="Path_10367" data-name="Path 10367" d="M901.421,220.461a.412.412,0,0,1-.035.169.45.45,0,0,1-.093.137.459.459,0,0,1-.139.093.423.423,0,0,1-.17.034.407.407,0,0,1-.17-.034.438.438,0,0,1-.138-.092.449.449,0,0,1-.093-.137.412.412,0,0,1-.035-.169.417.417,0,0,1,.035-.167.422.422,0,0,1,.092-.138.439.439,0,0,1,.308-.128.424.424,0,0,1,.17.035.438.438,0,0,1,.139.092.444.444,0,0,1,.094.138.417.417,0,0,1,.035.167" fill="#fdc61b"/>
            <path id="Path_10368" data-name="Path 10368" d="M902.289,223.811h-.683l0-2.681a.358.358,0,0,1,.273.124l.118.136a1.19,1.19,0,0,1,.81-.314,1.138,1.138,0,0,1,.464.093,1.2,1.2,0,0,1,.381.257,1.245,1.245,0,0,1,.257.383,1.184,1.184,0,0,1,.094.467l0,1.532h-.684v-1.532a.52.52,0,0,0-.151-.363.521.521,0,0,0-.163-.11.49.49,0,0,0-.2-.04.533.533,0,0,0-.2.04.521.521,0,0,0-.165.111.53.53,0,0,0-.11.164.512.512,0,0,0-.039.2Z" fill="#15375e"/>
            <path id="Path_10369" data-name="Path 10369" d="M907,223.471a1.314,1.314,0,0,1-.108.531,1.368,1.368,0,0,1-.294.433,1.39,1.39,0,0,1-.435.293,1.33,1.33,0,0,1-.533.108l-.343-.005v-.684l.338,0a.785.785,0,0,0,.273-.041.553.553,0,0,0,.315-.277,1.061,1.061,0,0,0,.073-.195.3.3,0,0,1-.115.106.8.8,0,0,1-.166.068.993.993,0,0,1-.191.036,1.725,1.725,0,0,1-.184.01,1.439,1.439,0,0,1-.531-.1,1.285,1.285,0,0,1-.436-.28,1.267,1.267,0,0,1-.294-.444,1.547,1.547,0,0,1-.108-.593,1.46,1.46,0,0,1,.108-.564,1.381,1.381,0,0,1,.294-.45,1.347,1.347,0,0,1,.436-.3,1.317,1.317,0,0,1,.531-.108,1.026,1.026,0,0,1,.258.033,1.313,1.313,0,0,1,.248.09,1.462,1.462,0,0,1,.229.135,1.859,1.859,0,0,1,.2.168l.16-.191a.351.351,0,0,1,.271-.127Zm-.688-1.026a.709.709,0,0,0-.054-.272.782.782,0,0,0-.147-.233.751.751,0,0,0-.216-.163.6.6,0,0,0-.265-.061.727.727,0,0,0-.264.048.606.606,0,0,0-.215.14.658.658,0,0,0-.144.229.864.864,0,0,0-.053.312.815.815,0,0,0,.053.3.677.677,0,0,0,.144.229.624.624,0,0,0,.215.147.689.689,0,0,0,.264.051.589.589,0,0,0,.265-.061.733.733,0,0,0,.216-.163.769.769,0,0,0,.147-.233.7.7,0,0,0,.054-.271" fill="#15375e"/>
            <rect id="Rectangle_1283" data-name="Rectangle 1283" width="0.688" height="2.681" transform="translate(900.641 221.132) rotate(-0.077)" fill="#15375e"/>
            <g id="Group_1153" data-name="Group 1153">
              <g id="Group_1152" data-name="Group 1152">
                <path id="Path_10370" data-name="Path 10370" d="M882.789,221.908l-1.83-.321a1.729,1.729,0,0,1-1.4-1.4l-.175-.994-.146-.835,1.829.319a1.727,1.727,0,0,1,.806.373,1.753,1.753,0,0,1,.191.185,1.624,1.624,0,0,1,.155.205,1.692,1.692,0,0,1,.252.641l.1.571.047.267.047.268Z" fill="#fdc61b"/>
              </g>
            </g>
            <g id="Group_1154" data-name="Group 1154">
              <path id="Path_10371" data-name="Path 10371" d="M877.511,222.014a.239.239,0,0,0,.071.169.123.123,0,0,0,.023.022l.027.017.465.269.866.5h0l1.927,1.113a.241.241,0,0,0,.241,0h0l3.26-1.883.027-.017a.119.119,0,0,0,.023-.022.237.237,0,0,0,.071-.169V220.2a.142.142,0,0,1,.072-.125l.936-.541a.145.145,0,0,1,.217.125v2.356a1.471,1.471,0,0,1-.733,1.27l-3.261,1.882a1.469,1.469,0,0,1-1.466,0l-3.26-1.882a1.471,1.471,0,0,1-.733-1.27v-2.356a.144.144,0,0,1,.217-.125l.936.541a.142.142,0,0,1,.072.125Z" fill="#15375e"/>
              <path id="Path_10372" data-name="Path 10372" d="M876.714,217.214a1.455,1.455,0,0,1,.144-.127,1.507,1.507,0,0,1,.161-.108l3.26-1.883a1.4,1.4,0,0,1,.174-.085,1.478,1.478,0,0,1,1.119,0,1.321,1.321,0,0,1,.173.085L884,216.4l1,.579a1.6,1.6,0,0,1,.161.108,1.448,1.448,0,0,1,.144.127,1.475,1.475,0,0,1,.428,1.036v.178a.145.145,0,0,1-.072.126l-.525.3-.411.237a.144.144,0,0,1-.217-.125v-.719a.246.246,0,0,0-.032-.119l-.009-.015-.013-.019-.017-.017-.007-.008-.016-.013,0,0-.023-.015-2.074-1.2-1.186-.685h0a.245.245,0,0,0-.028-.014.179.179,0,0,0-.045-.013.209.209,0,0,0-.093,0,.186.186,0,0,0-.046.013l-.029.014-1.927,1.113h0l-.867.5-.464.268a.12.12,0,0,0-.027.019l-.016.013-.007.008-.017.017a.113.113,0,0,0-.013.02.1.1,0,0,0-.012.019.239.239,0,0,0-.029.114v.719a.144.144,0,0,1-.217.125l-.936-.54a.145.145,0,0,1-.072-.126v-.178A1.475,1.475,0,0,1,876.714,217.214Z" fill="#15375e"/>
            </g>
          </g>
        </g>
      </g>
    </g>
    <g id="Group_1159" data-name="Group 1159">
      <g id="Group_1158" data-name="Group 1158" clip-path="url(#clip-path-4)">
        <g id="Group_536" data-name="Group 536">
          <path id="Path_8987" data-name="Path 8987" d="M1030.908,526.482H789.752a12.35,12.35,0,0,1-12.35-12.349V363.025a12.351,12.351,0,0,1,12.35-12.35h241.156a12.35,12.35,0,0,1,12.351,12.349h0V514.133a12.35,12.35,0,0,1-12.35,12.35h0" fill="#0b2645"/>
          <path id="Path_8988" data-name="Path 8988" d="M1039.23,528.863H781.373a15.089,15.089,0,0,1-15.089-15.089v-.295h288.035v.295a15.088,15.088,0,0,1-15.089,15.089" fill="#0b2645"/>
          <path id="Path_8989" data-name="Path 8989" d="M1026.9,506.127H793.016a8.479,8.479,0,0,1-8.479-8.478V366.138a8.48,8.48,0,0,1,8.479-8.478H1026.9a8.478,8.478,0,0,1,8.478,8.478V497.649a8.477,8.477,0,0,1-8.478,8.478" fill="#e2e2e2"/>
          <path id="Path_8990" data-name="Path 8990" d="M884.122,513.48l.2.323a11.464,11.464,0,0,0,9.707,5.363h37.377a11.46,11.46,0,0,0,9.9-5.685Z" fill="#15375e"/>
          <path id="Path_8991" data-name="Path 8991" d="M1023.851,506.069H792.9V371.785a4.239,4.239,0,0,1,4.239-4.239h222.471a4.239,4.239,0,0,1,4.24,4.239h0Z" fill="#fcfdfd"/>
          <path id="Path_8992" data-name="Path 8992" d="M802.7,373.894a1.94,1.94,0,1,1-1.4-1.4,1.939,1.939,0,0,1,1.4,1.4" fill="#de221d"/>
          <path id="Path_8993" data-name="Path 8993" d="M810.609,373.894a1.941,1.941,0,1,1-1.4-1.4,1.941,1.941,0,0,1,1.4,1.4" fill="#f5910a"/>
          <path id="Path_8994" data-name="Path 8994" d="M818.515,373.894a1.94,1.94,0,1,1-1.4-1.4,1.939,1.939,0,0,1,1.4,1.4" fill="#15375e"/>
          <rect id="Rectangle_660" data-name="Rectangle 660" width="265.857" height="0.848" transform="translate(777.402 513.48)" fill="#15375e"/>
          <path id="Path_8995" data-name="Path 8995" d="M1014.512,393.536h-11.755a1.69,1.69,0,1,1,0-3.38h11.755a1.69,1.69,0,1,1,0,3.38" fill="#15375e"/>
          <path id="Path_8996" data-name="Path 8996" d="M953.346,393.536H941.591a1.69,1.69,0,0,1,0-3.38h11.755a1.69,1.69,0,0,1,0,3.38h0" fill="#fdc61b"/>
          <path id="Path_8997" data-name="Path 8997" d="M923.727,410H878.771a1.69,1.69,0,0,1-.082-3.379h45.038A1.69,1.69,0,0,1,923.81,410h-.083" fill="#15375e"/>
          <path id="Path_8998" data-name="Path 8998" d="M994.159,393.536h-7.065a1.69,1.69,0,0,1,0-3.38h7.065a1.69,1.69,0,0,1,0,3.38h0" fill="#15375e"/>
          <path id="Path_8999" data-name="Path 8999" d="M978.494,393.536h-16.55a1.69,1.69,0,0,1,0-3.38h16.55a1.69,1.69,0,0,1,0,3.38h0" fill="#15375e"/>
          <path id="Path_9000" data-name="Path 9000" d="M860.66,467.951H813.527a1.689,1.689,0,0,1,0-3.379H860.66a1.689,1.689,0,1,1,0,3.379" fill="#15375e"/>
          <path id="Path_9001" data-name="Path 9001" d="M858.238,455.61H816.077a4.238,4.238,0,0,1-4.239-4.237h0V410.856a4.239,4.239,0,0,1,4.238-4.238h42.162a4.238,4.238,0,0,1,4.239,4.237h0v40.516a4.237,4.237,0,0,1-4.238,4.238h0" fill="#e2e2e2"/>
          <path id="Path_9002" data-name="Path 9002" d="M815.76,451.417l14.008-25.211,11.458,16.113,6.962-8.557,10.358,17.655Z" fill="#fdc61b"/>
          <path id="Path_9003" data-name="Path 9003" d="M846.113,421.3a3.645,3.645,0,1,1-3.646-3.644h0a3.644,3.644,0,0,1,3.644,3.644h0" fill="#fdc61b"/>
          <path id="Path_9004" data-name="Path 9004" d="M908.651,501.351H881.29a4.238,4.238,0,0,1-4.239-4.239h0v-26.2a4.239,4.239,0,0,1,4.239-4.239h27.361a4.238,4.238,0,0,1,4.238,4.238h0v26.2a4.237,4.237,0,0,1-4.237,4.239h0" fill="#e2e2e2"/>
          <path id="Path_9005" data-name="Path 9005" d="M879.83,498.383l9.914-17.842,8.109,11.4,4.928-6.055,7.33,12.494Z" fill="#fdc61b"/>
          <path id="Path_9006" data-name="Path 9006" d="M901.307,477.07a2.579,2.579,0,1,1-2.579-2.579,2.578,2.578,0,0,1,2.579,2.579h0" fill="#fdc61b"/>
          <line id="Line_42" data-name="Line 42" x2="125.638" transform="translate(877.082 419.203)" fill="none"/>
          <g id="Line_43" data-name="Line 43">
            <path id="Path_10373" data-name="Path 10373" d="M1002.721,420.333H877.083a1.13,1.13,0,1,1,0-2.259h125.638a1.13,1.13,0,1,1,0,2.259Z" fill="#4b617b"/>
          </g>
          <line id="Line_44" data-name="Line 44" x2="125.638" transform="translate(877.082 426.581)" fill="none"/>
          <g id="Line_45" data-name="Line 45">
            <path id="Path_10374" data-name="Path 10374" d="M1002.721,427.711H877.083a1.13,1.13,0,1,1,0-2.259h125.638a1.13,1.13,0,1,1,0,2.259Z" fill="#4b617b"/>
          </g>
          <line id="Line_46" data-name="Line 46" x2="125.638" transform="translate(877.082 433.959)" fill="none"/>
          <g id="Line_47" data-name="Line 47">
            <path id="Path_10375" data-name="Path 10375" d="M1002.721,435.089H877.083a1.13,1.13,0,1,1,0-2.259h125.638a1.13,1.13,0,1,1,0,2.259Z" fill="#4b617b"/>
          </g>
          <line id="Line_48" data-name="Line 48" x2="125.638" transform="translate(877.082 441.338)" fill="none"/>
          <g id="Line_49" data-name="Line 49">
            <path id="Path_10376" data-name="Path 10376" d="M1002.721,442.468H877.083a1.13,1.13,0,1,1,0-2.26h125.638a1.13,1.13,0,1,1,0,2.26Z" fill="#4b617b"/>
          </g>
          <line id="Line_50" data-name="Line 50" x2="125.638" transform="translate(877.082 448.716)" fill="none"/>
          <g id="Line_51" data-name="Line 51">
            <path id="Path_10377" data-name="Path 10377" d="M1002.721,449.846H877.083a1.13,1.13,0,0,1,0-2.26h125.638a1.13,1.13,0,1,1,0,2.26Z" fill="#4b617b"/>
          </g>
          <line id="Line_52" data-name="Line 52" x2="49.043" transform="translate(877.082 456.094)" fill="none"/>
          <g id="Line_53" data-name="Line 53">
            <path id="Path_10378" data-name="Path 10378" d="M926.125,457.224H877.083a1.13,1.13,0,0,1,0-2.26h49.042a1.13,1.13,0,0,1,0,2.26Z" fill="#4b617b"/>
          </g>
          <line id="Line_54" data-name="Line 54" x2="82.579" transform="translate(919.222 470.414)" fill="none"/>
          <g id="Line_55" data-name="Line 55">
            <path id="Path_10379" data-name="Path 10379" d="M1001.8,471.544H919.223a1.13,1.13,0,1,1,0-2.259H1001.8a1.13,1.13,0,1,1,0,2.259Z" fill="#4b617b"/>
          </g>
          <line id="Line_56" data-name="Line 56" x2="82.579" transform="translate(919.222 478.246)" fill="none"/>
          <g id="Line_57" data-name="Line 57">
            <path id="Path_10380" data-name="Path 10380" d="M1001.8,479.376H919.223a1.13,1.13,0,1,1,0-2.259H1001.8a1.13,1.13,0,1,1,0,2.259Z" fill="#4b617b"/>
          </g>
          <line id="Line_58" data-name="Line 58" x2="82.579" transform="translate(919.222 486.079)" fill="none"/>
          <g id="Line_59" data-name="Line 59">
            <path id="Path_10381" data-name="Path 10381" d="M1001.8,487.209H919.223a1.13,1.13,0,1,1,0-2.259H1001.8a1.13,1.13,0,1,1,0,2.259Z" fill="#4b617b"/>
          </g>
          <line id="Line_60" data-name="Line 60" x2="59.84" transform="translate(919.222 493.912)" fill="none"/>
          <g id="Line_61" data-name="Line 61">
            <path id="Path_10382" data-name="Path 10382" d="M979.062,495.042H919.223a1.13,1.13,0,1,1,0-2.259h59.839a1.13,1.13,0,1,1,0,2.259Z" fill="#4b617b"/>
          </g>
          <line id="Line_62" data-name="Line 62" x2="49.227" transform="translate(813.252 480.705)" fill="none"/>
          <g id="Line_63" data-name="Line 63">
            <path id="Path_10383" data-name="Path 10383" d="M862.479,481.835H813.252a1.13,1.13,0,0,1,0-2.259h49.227a1.13,1.13,0,1,1,0,2.259Z" fill="#4b617b"/>
          </g>
          <line id="Line_64" data-name="Line 64" x2="49.227" transform="translate(813.252 486.856)" fill="none"/>
          <g id="Line_65" data-name="Line 65">
            <path id="Path_10384" data-name="Path 10384" d="M862.479,487.986H813.252a1.13,1.13,0,0,1,0-2.259h49.227a1.13,1.13,0,1,1,0,2.259Z" fill="#4b617b"/>
          </g>
          <line id="Line_66" data-name="Line 66" x2="49.227" transform="translate(813.252 493.007)" fill="none"/>
          <g id="Line_67" data-name="Line 67">
            <path id="Path_10385" data-name="Path 10385" d="M862.479,494.137H813.252a1.13,1.13,0,0,1,0-2.26h49.227a1.13,1.13,0,1,1,0,2.26Z" fill="#4b617b"/>
          </g>
          <path id="Path_9007" data-name="Path 9007" d="M813.252,499.158l41.041-.164" fill="#211c1a"/>
          <g id="Path_9008" data-name="Path 9008">
            <path id="Path_10386" data-name="Path 10386" d="M813.252,500.289a1.13,1.13,0,0,1,0-2.26l41.041-.164h0a1.13,1.13,0,0,1,0,2.26l-41.041.164Z" fill="#4b617b"/>
          </g>
          <path id="Path_9009" data-name="Path 9009" d="M858.553,451.418H815.765V410.812h42.788Zm0-41.454H815.765a.849.849,0,0,0-.847.848v40.606a.848.848,0,0,0,.847.848h42.788a.848.848,0,0,0,.847-.848V410.812a.848.848,0,0,0-.847-.848" fill="#fdc61b"/>
          <path id="Path_9010" data-name="Path 9010" d="M910.111,498.385H879.829V469.644h30.282Zm0-29.586H879.829a.848.848,0,0,0-.848.848v28.738a.848.848,0,0,0,.848.848h30.282a.847.847,0,0,0,.848-.848v-28.74a.848.848,0,0,0-.848-.848" fill="#fdc61b"/>
          <line id="Line_68" data-name="Line 68" x2="230.948" transform="translate(792.903 380.985)" fill="none"/>
          <g id="Line_69" data-name="Line 69">
            <rect id="Rectangle_1285" data-name="Rectangle 1285" width="230.948" height="0.565" transform="translate(792.903 380.703)" fill="#e2e2e2"/>
          </g>
        </g>
      </g>
    </g>
    <g id="Group_910" data-name="Group 910">
      <g id="Group_1165" data-name="Group 1165">
        <g id="Group_1164" data-name="Group 1164" clip-path="url(#clip-path-4)">
          <g id="Group_1163" data-name="Group 1163">
            <path id="Path_10387" data-name="Path 10387" d="M825.649,386.6l0,2.364a.691.691,0,0,1-.057.278.74.74,0,0,1-.154.228.708.708,0,0,1-.228.153.694.694,0,0,1-.28.057.707.707,0,0,1-.187-.025.66.66,0,0,1-.173-.072v.771a1.492,1.492,0,0,0,.36.045,1.4,1.4,0,0,0,.56-.114,1.431,1.431,0,0,0,.761-.763,1.369,1.369,0,0,0,.112-.559l0-2.364Z" fill="#15375e"/>
            <path id="Path_10388" data-name="Path 10388" d="M829.5,388.974a1.407,1.407,0,0,1-.111.56,1.39,1.39,0,0,1-.3.449,1.424,1.424,0,0,1-1,.408,1.4,1.4,0,0,1-.551-.109,1.439,1.439,0,0,1-.451-.3,1.39,1.39,0,0,1-.3-.448,1.474,1.474,0,0,1,0-1.125,1.371,1.371,0,0,1,.3-.45,1.421,1.421,0,0,1,1-.4,1.488,1.488,0,0,1,.553.1,1.33,1.33,0,0,1,.753.736,1.472,1.472,0,0,1,.113.581m-.713,0a.774.774,0,0,0-.056-.3.7.7,0,0,0-.152-.23.661.661,0,0,0-.224-.147.718.718,0,0,0-.274-.051.736.736,0,0,0-.273.051.66.66,0,0,0-.222.148.711.711,0,0,0-.149.231.793.793,0,0,0-.054.3.736.736,0,0,0,.055.288.719.719,0,0,0,.149.23.7.7,0,0,0,.223.154.68.68,0,0,0,.273.056.719.719,0,0,0,.274-.053.68.68,0,0,0,.223-.148.689.689,0,0,0,.152-.231.775.775,0,0,0,.055-.3" fill="#15375e"/>
            <path id="Path_10389" data-name="Path 10389" d="M832.639,388.97a1.4,1.4,0,0,1-.413,1.009,1.443,1.443,0,0,1-1.553.3,1.447,1.447,0,0,1-.451-.3,1.391,1.391,0,0,1-.3-.448,1.474,1.474,0,0,1,0-1.125,1.371,1.371,0,0,1,.3-.45,1.421,1.421,0,0,1,1-.4,1.491,1.491,0,0,1,.553.1,1.33,1.33,0,0,1,.753.736,1.454,1.454,0,0,1,.112.581m-.712,0a.776.776,0,0,0-.056-.3.7.7,0,0,0-.152-.23.66.66,0,0,0-.224-.147.758.758,0,0,0-.547,0,.659.659,0,0,0-.222.148.711.711,0,0,0-.149.231.792.792,0,0,0-.054.3.735.735,0,0,0,.055.288.719.719,0,0,0,.149.23.7.7,0,0,0,.223.154.676.676,0,0,0,.273.056.719.719,0,0,0,.274-.053.68.68,0,0,0,.223-.148.688.688,0,0,0,.152-.231.776.776,0,0,0,.055-.3" fill="#15375e"/>
            <path id="Path_10390" data-name="Path 10390" d="M835.682,390.331h0a.324.324,0,0,1-.262-.134l-.169-.233a2.223,2.223,0,0,1-.207.164,1.525,1.525,0,0,1-.228.133,1.469,1.469,0,0,1-.235.086,1.317,1.317,0,0,1-.306.035,1.334,1.334,0,0,1-.495-.1,1.361,1.361,0,0,1-.436-.3,1.4,1.4,0,0,1-.294-.448,1.447,1.447,0,0,1-.109-.564,1.47,1.47,0,0,1,.107-.563,1.4,1.4,0,0,1,.294-.451,1.357,1.357,0,0,1,.435-.3,1.321,1.321,0,0,1,.532-.108,1.225,1.225,0,0,1,.187.015,1.006,1.006,0,0,1,.187.048.779.779,0,0,1,.172.089.5.5,0,0,1,.135.135v-1.252h.688Zm-.69-1.364a.7.7,0,0,0-.054-.271.78.78,0,0,0-.147-.233.738.738,0,0,0-.217-.162.588.588,0,0,0-.264-.061.7.7,0,0,0-.264.05.626.626,0,0,0-.215.144.672.672,0,0,0-.144.23.837.837,0,0,0-.052.3.762.762,0,0,0,.2.513.685.685,0,0,0,.215.158.628.628,0,0,0,.265.057.589.589,0,0,0,.264-.062.732.732,0,0,0,.216-.163.778.778,0,0,0,.146-.233.709.709,0,0,0,.054-.272" fill="#15375e"/>
            <path id="Path_10391" data-name="Path 10391" d="M827.452,393.857a1.031,1.031,0,0,1-.085.418,1.1,1.1,0,0,1-.231.342,1.091,1.091,0,0,1-.341.232,1.054,1.054,0,0,1-.419.086l-1.795,0,0-3.59,1.795,0a1.027,1.027,0,0,1,.418.084,1.091,1.091,0,0,1,.574.573,1.028,1.028,0,0,1,.086.418.819.819,0,0,1-.027.2,1,1,0,0,1-.078.2.867.867,0,0,1-.12.178.671.671,0,0,1-.155.133.547.547,0,0,1,.158.128.953.953,0,0,1,.121.179.925.925,0,0,1,.076.2.841.841,0,0,1,.027.207m-2.155-1.074h1.077a.38.38,0,0,0,.14-.028.37.37,0,0,0,.114-.077.359.359,0,0,0,.1-.256.369.369,0,0,0-.027-.141.355.355,0,0,0-.077-.113.349.349,0,0,0-.114-.077.36.36,0,0,0-.14-.027H825.3Zm0,1.434h1.077a.346.346,0,0,0,.14-.028.35.35,0,0,0,.114-.076.367.367,0,0,0,.076-.114.377.377,0,0,0,0-.28.348.348,0,0,0-.077-.114.371.371,0,0,0-.114-.077.36.36,0,0,0-.14-.027H825.3Z" fill="#15375e"/>
            <path id="Path_10392" data-name="Path 10392" d="M830.568,393.515a1.422,1.422,0,0,1-1.966,1.308,1.448,1.448,0,0,1-.452-.3,1.4,1.4,0,0,1-.305-.448,1.477,1.477,0,0,1,0-1.126,1.377,1.377,0,0,1,.3-.449,1.409,1.409,0,0,1,.45-.3,1.432,1.432,0,0,1,.551-.108,1.489,1.489,0,0,1,.553.1,1.337,1.337,0,0,1,.45.287,1.354,1.354,0,0,1,.3.448,1.473,1.473,0,0,1,.113.582m-.713,0a.773.773,0,0,0-.056-.3.694.694,0,0,0-.152-.23.648.648,0,0,0-.224-.148.737.737,0,0,0-.274-.051.717.717,0,0,0-.273.052.632.632,0,0,0-.222.148.7.7,0,0,0-.149.23.8.8,0,0,0-.054.3.734.734,0,0,0,.055.287.722.722,0,0,0,.149.231.681.681,0,0,0,.223.153.667.667,0,0,0,.273.056.719.719,0,0,0,.274-.053.663.663,0,0,0,.223-.148.684.684,0,0,0,.152-.23.779.779,0,0,0,.055-.3" fill="#15375e"/>
            <path id="Path_10393" data-name="Path 10393" d="M833.713,393.511a1.422,1.422,0,0,1-1.966,1.308,1.443,1.443,0,0,1-.451-.3,1.4,1.4,0,0,1-.417-1.008,1.431,1.431,0,0,1,.11-.566,1.391,1.391,0,0,1,.3-.449,1.421,1.421,0,0,1,1-.406,1.489,1.489,0,0,1,.553.1,1.337,1.337,0,0,1,.45.287,1.372,1.372,0,0,1,.3.448,1.474,1.474,0,0,1,.112.582m-.713,0a.755.755,0,0,0-.056-.3.693.693,0,0,0-.152-.23.63.63,0,0,0-.224-.148.728.728,0,0,0-.273-.051.71.71,0,0,0-.273.052.626.626,0,0,0-.223.148.7.7,0,0,0-.149.23.8.8,0,0,0-.054.3.752.752,0,0,0,.055.287.723.723,0,0,0,.149.231.693.693,0,0,0,.223.153.669.669,0,0,0,.274.056.718.718,0,0,0,.273-.053.674.674,0,0,0,.375-.378.779.779,0,0,0,.055-.3" fill="#15375e"/>
            <path id="Path_10394" data-name="Path 10394" d="M836.542,392.245h-.786l-1.017,1.293,0-2.206h-.689l0,3.591h.689v-.343l.475-.632.544.974h.786l-.891-1.559Z" fill="#15375e"/>
            <path id="Path_10395" data-name="Path 10395" d="M837.6,391.569a.413.413,0,0,1-.035.169.449.449,0,0,1-.093.137.457.457,0,0,1-.139.093.423.423,0,0,1-.17.034.407.407,0,0,1-.17-.034.439.439,0,0,1-.138-.092.449.449,0,0,1-.093-.137.412.412,0,0,1-.035-.169.416.416,0,0,1,.035-.167.429.429,0,0,1,.23-.231.424.424,0,0,1,.17-.035.441.441,0,0,1,.17.034.458.458,0,0,1,.139.093.444.444,0,0,1,.094.138.417.417,0,0,1,.035.167" fill="#fdc61b"/>
            <path id="Path_10396" data-name="Path 10396" d="M838.468,394.919h-.684l0-2.681a.358.358,0,0,1,.273.124l.118.136a1.191,1.191,0,0,1,.81-.314,1.138,1.138,0,0,1,.464.093,1.2,1.2,0,0,1,.381.257,1.246,1.246,0,0,1,.257.383,1.184,1.184,0,0,1,.094.467l0,1.532H839.5v-1.532a.52.52,0,0,0-.151-.363.522.522,0,0,0-.163-.11.49.49,0,0,0-.2-.04.536.536,0,0,0-.2.04.514.514,0,0,0-.275.275.512.512,0,0,0-.039.2Z" fill="#15375e"/>
            <path id="Path_10397" data-name="Path 10397" d="M843.178,394.579a1.312,1.312,0,0,1-.108.531,1.366,1.366,0,0,1-.294.433,1.389,1.389,0,0,1-.435.293,1.33,1.33,0,0,1-.533.108l-.343-.005v-.684l.338.005a.809.809,0,0,0,.273-.041.552.552,0,0,0,.315-.277,1.083,1.083,0,0,0,.073-.195.3.3,0,0,1-.115.106.8.8,0,0,1-.166.068,1.082,1.082,0,0,1-.19.036,1.761,1.761,0,0,1-.185.01,1.439,1.439,0,0,1-.531-.1,1.3,1.3,0,0,1-.436-.28,1.28,1.28,0,0,1-.294-.444,1.547,1.547,0,0,1-.108-.593,1.46,1.46,0,0,1,.108-.564,1.4,1.4,0,0,1,.294-.45,1.347,1.347,0,0,1,.436-.3,1.317,1.317,0,0,1,.531-.108,1.026,1.026,0,0,1,.258.033,1.251,1.251,0,0,1,.248.09,1.466,1.466,0,0,1,.229.135,1.859,1.859,0,0,1,.2.168l.16-.191a.35.35,0,0,1,.271-.127Zm-.688-1.026a.709.709,0,0,0-.054-.272.779.779,0,0,0-.147-.233.749.749,0,0,0-.216-.163.6.6,0,0,0-.265-.061.727.727,0,0,0-.264.048.606.606,0,0,0-.215.14.658.658,0,0,0-.144.229.865.865,0,0,0-.053.312.816.816,0,0,0,.053.3.677.677,0,0,0,.144.229.625.625,0,0,0,.215.147.69.69,0,0,0,.264.051.589.589,0,0,0,.265-.061.733.733,0,0,0,.216-.163.767.767,0,0,0,.147-.233.7.7,0,0,0,.054-.271" fill="#15375e"/>
            <rect id="Rectangle_1287" data-name="Rectangle 1287" width="0.688" height="2.681" transform="translate(836.819 392.24) rotate(-0.077)" fill="#15375e"/>
            <g id="Group_1161" data-name="Group 1161">
              <g id="Group_1160" data-name="Group 1160">
                <path id="Path_10398" data-name="Path 10398" d="M818.967,393.015l-1.83-.32a1.729,1.729,0,0,1-1.4-1.4l-.175-.994-.146-.835,1.829.319a1.726,1.726,0,0,1,.806.373,1.752,1.752,0,0,1,.191.185,1.615,1.615,0,0,1,.155.205,1.693,1.693,0,0,1,.252.64l.1.572.047.267.047.268Z" fill="#fdc61b"/>
              </g>
            </g>
            <g id="Group_1162" data-name="Group 1162">
              <path id="Path_10399" data-name="Path 10399" d="M813.689,393.122a.238.238,0,0,0,.071.169.119.119,0,0,0,.023.022l.027.017.465.269.866.5h0l1.927,1.113a.241.241,0,0,0,.241,0h0l3.259-1.883.027-.017a.12.12,0,0,0,.023-.022.237.237,0,0,0,.071-.169v-1.815a.145.145,0,0,1,.072-.126l.936-.54a.145.145,0,0,1,.217.125v2.356a1.471,1.471,0,0,1-.733,1.27l-3.261,1.882a1.469,1.469,0,0,1-1.466,0l-3.26-1.882a1.471,1.471,0,0,1-.733-1.27v-2.356a.144.144,0,0,1,.217-.125l.936.54a.145.145,0,0,1,.072.126Z" fill="#15375e"/>
              <path id="Path_10400" data-name="Path 10400" d="M812.892,388.322a1.45,1.45,0,0,1,.144-.127,1.5,1.5,0,0,1,.161-.108l3.26-1.883a1.4,1.4,0,0,1,.174-.085,1.478,1.478,0,0,1,1.119,0,1.315,1.315,0,0,1,.173.085l2.258,1.3,1,.579a1.611,1.611,0,0,1,.161.108,1.457,1.457,0,0,1,.144.127,1.475,1.475,0,0,1,.428,1.036v.178a.145.145,0,0,1-.072.126l-.525.3-.411.237a.144.144,0,0,1-.217-.125v-.719a.246.246,0,0,0-.032-.119l-.009-.015-.013-.019c-.006-.006-.011-.012-.017-.017l-.007-.008-.016-.013,0,0-.023-.015-2.074-1.2-1.185-.685h0l-.028-.014a.177.177,0,0,0-.045-.013.208.208,0,0,0-.093,0,.184.184,0,0,0-.046.013l-.029.014-1.927,1.113h0l-.867.5-.464.268a.121.121,0,0,0-.027.019l-.016.013-.007.008-.017.017a.113.113,0,0,0-.013.02.1.1,0,0,0-.012.019.25.25,0,0,0-.029.114v.719a.144.144,0,0,1-.217.125l-.936-.54a.145.145,0,0,1-.072-.126v-.178A1.475,1.475,0,0,1,812.892,388.322Z" fill="#15375e"/>
            </g>
          </g>
        </g>
      </g>
    </g>
    <g id="Group_922" data-name="Group 922">
      <path id="Path_10045" data-name="Path 10045" d="M1121.053,408.263l-51.15-.234a11.124,11.124,0,0,1-11.091-11.157l.542-127.878a11.128,11.128,0,0,1,11.19-11.065h0l51.151.236a11.128,11.128,0,0,1,11.091,11.158l-.542,127.879a11.127,11.127,0,0,1-11.19,11.064h0" fill="#0b2645"/>
      <path id="Path_10046" data-name="Path 10046" d="M1121.626,262.576l-9.919-.046a2.461,2.461,0,0,0-2.418,2.5l-.009,1.794a2.458,2.458,0,0,1-2.417,2.5h0l-19.331-.089a2.461,2.461,0,0,1-2.4-2.522l.008-1.794a2.464,2.464,0,0,0-2.4-2.522l-3.487-.016-8.68-.039a7.794,7.794,0,0,0-7.84,7.746v0l-.529,124.818a7.793,7.793,0,0,0,7.768,7.815l51.048.235a7.791,7.791,0,0,0,7.839-7.744v0l.53-124.819a7.791,7.791,0,0,0-7.767-7.814" fill="#fff"/>
      <path id="Path_10047" data-name="Path 10047" d="M1119.1,350.888h-47.133a1.69,1.69,0,0,1,0-3.379H1119.1a1.69,1.69,0,0,1,0,3.379" fill="#15375e"/>
      <path id="Path_10048" data-name="Path 10048" d="M1117.229,338.042h-42.161a4.239,4.239,0,0,1-4.24-4.239h0V293.288a4.239,4.239,0,0,1,4.237-4.239h42.164a4.239,4.239,0,0,1,4.239,4.237V333.8a4.239,4.239,0,0,1-4.239,4.239h0" fill="#e2e2e2"/>
      <path id="Path_10049" data-name="Path 10049" d="M1074.755,333.848l14.009-25.212,11.458,16.114,6.962-8.557,10.357,17.654Z" fill="#fdc61b"/>
      <path id="Path_10050" data-name="Path 10050" d="M1105.106,303.734a3.644,3.644,0,1,1-3.644-3.644h0a3.644,3.644,0,0,1,3.643,3.644" fill="#fdc61b"/>
      <path id="Path_10051" data-name="Path 10051" d="M1117.542,333.847h-42.787v-40.6h42.787Zm0-41.454h-42.787a.849.849,0,0,0-.849.848h0v40.606a.848.848,0,0,0,.849.848h42.787a.847.847,0,0,0,.848-.847h0v-40.6a.848.848,0,0,0-.848-.848h0" fill="#fdc61b"/>
      <line id="Line_171" data-name="Line 171" x2="48.159" transform="translate(1070.828 360.81)" fill="none"/>
      <g id="Line_172" data-name="Line 172">
        <path id="Path_10401" data-name="Path 10401" d="M1118.986,361.94h-48.159a1.13,1.13,0,1,1,0-2.259h48.159a1.13,1.13,0,1,1,0,2.259Z" fill="#4b617b"/>
      </g>
      <line id="Line_173" data-name="Line 173" x2="48.159" transform="translate(1070.828 366.961)" fill="none"/>
      <g id="Line_174" data-name="Line 174">
        <path id="Path_10402" data-name="Path 10402" d="M1118.986,368.091h-48.159a1.13,1.13,0,1,1,0-2.259h48.159a1.13,1.13,0,1,1,0,2.259Z" fill="#4b617b"/>
      </g>
      <line id="Line_175" data-name="Line 175" x2="48.159" transform="translate(1070.828 373.113)" fill="none"/>
      <g id="Line_176" data-name="Line 176">
        <path id="Path_10403" data-name="Path 10403" d="M1118.986,374.243h-48.159a1.13,1.13,0,1,1,0-2.26h48.159a1.13,1.13,0,0,1,0,2.26Z" fill="#4b617b"/>
      </g>
      <line id="Line_177" data-name="Line 177" x2="48.159" transform="translate(1070.828 379.263)" fill="none"/>
      <g id="Line_178" data-name="Line 178">
        <path id="Path_10404" data-name="Path 10404" d="M1118.986,380.394h-48.159a1.13,1.13,0,1,1,0-2.26h48.159a1.13,1.13,0,0,1,0,2.26Z" fill="#4b617b"/>
      </g>
      <line id="Line_179" data-name="Line 179" x2="48.159" transform="translate(1070.828 385.413)" fill="none"/>
      <g id="Line_180" data-name="Line 180">
        <path id="Path_10405" data-name="Path 10405" d="M1118.986,386.543h-48.159a1.13,1.13,0,1,1,0-2.259h48.159a1.13,1.13,0,1,1,0,2.259Z" fill="#4b617b"/>
      </g>
      <line id="Line_181" data-name="Line 181" x2="31.033" transform="translate(1070.828 392.388)" fill="none"/>
      <g id="Line_182" data-name="Line 182">
        <path id="Path_10406" data-name="Path 10406" d="M1101.86,393.519h-31.033a1.13,1.13,0,1,1,0-2.26h31.033a1.13,1.13,0,0,1,0,2.26Z" fill="#4b617b"/>
      </g>
      <g id="Line_183" data-name="Line 183">
        <path id="Path_10407" data-name="Path 10407" d="M1125.311,276.086h-7.686a.5.5,0,0,1,0-1h7.686a.5.5,0,0,1,0,1Z" fill="#fdc61b"/>
      </g>
      <g id="Line_184" data-name="Line 184">
        <path id="Path_10408" data-name="Path 10408" d="M1125.311,278.558h-7.686a.5.5,0,0,1,0-1h7.686a.5.5,0,0,1,0,1Z" fill="#fdc61b"/>
      </g>
      <g id="Line_185" data-name="Line 185">
        <path id="Path_10409" data-name="Path 10409" d="M1125.311,281.029h-7.686a.5.5,0,0,1,0-1h7.686a.5.5,0,0,1,0,1Z" fill="#fdc61b"/>
      </g>
      <g id="Group_1169" data-name="Group 1169">
        <path id="Path_10410" data-name="Path 10410" d="M1080.911,274.449l0,1.807a.526.526,0,0,1-.043.213.564.564,0,0,1-.118.174.554.554,0,0,1-.389.162.537.537,0,0,1-.143-.02.512.512,0,0,1-.132-.055v.59a1.183,1.183,0,0,0,.275.034,1.06,1.06,0,0,0,.428-.087,1.118,1.118,0,0,0,.348-.235,1.093,1.093,0,0,0,.234-.349,1.058,1.058,0,0,0,.086-.427l0-1.808Z" fill="#15375e"/>
        <path id="Path_10411" data-name="Path 10411" d="M1083.859,276.268a1.067,1.067,0,0,1-.316.771,1.1,1.1,0,0,1-.343.228,1.108,1.108,0,0,1-.844,0,1.084,1.084,0,0,1-.345-.227,1.048,1.048,0,0,1-.233-.343,1.066,1.066,0,0,1-.086-.428,1.081,1.081,0,0,1,.085-.432,1.044,1.044,0,0,1,.232-.344,1.077,1.077,0,0,1,.344-.228,1.1,1.1,0,0,1,.421-.083,1.136,1.136,0,0,1,.423.078,1.012,1.012,0,0,1,.344.219,1.034,1.034,0,0,1,.232.343,1.118,1.118,0,0,1,.086.445m-.545,0a.575.575,0,0,0-.043-.228.524.524,0,0,0-.116-.176.506.506,0,0,0-.171-.113.579.579,0,0,0-.418,0,.494.494,0,0,0-.17.114.532.532,0,0,0-.114.176.6.6,0,0,0-.041.229.572.572,0,0,0,.042.22.536.536,0,0,0,.114.176.529.529,0,0,0,.379.16.54.54,0,0,0,.209-.04.515.515,0,0,0,.287-.29.6.6,0,0,0,.042-.228" fill="#15375e"/>
        <path id="Path_10412" data-name="Path 10412" d="M1086.257,276.265a1.066,1.066,0,0,1-.084.428,1.078,1.078,0,0,1-.232.343,1.1,1.1,0,0,1-.343.228,1.108,1.108,0,0,1-.844,0,1.082,1.082,0,0,1-.345-.227,1.076,1.076,0,0,1-.319-.771,1.081,1.081,0,0,1,.085-.432,1.042,1.042,0,0,1,.232-.344,1.071,1.071,0,0,1,.345-.228,1.093,1.093,0,0,1,.42-.083,1.136,1.136,0,0,1,.423.078,1,1,0,0,1,.344.219,1.037,1.037,0,0,1,.233.343,1.117,1.117,0,0,1,.085.445m-.544,0a.614.614,0,0,0-.043-.228.556.556,0,0,0-.116-.176.509.509,0,0,0-.172-.113.58.58,0,0,0-.418,0,.5.5,0,0,0-.17.114.545.545,0,0,0-.114.176.594.594,0,0,0-.041.229.569.569,0,0,0,.042.22.549.549,0,0,0,.114.176.528.528,0,0,0,.379.16.541.541,0,0,0,.209-.04.532.532,0,0,0,.172-.113.543.543,0,0,0,.115-.177.584.584,0,0,0,.043-.228" fill="#15375e"/>
        <path id="Path_10413" data-name="Path 10413" d="M1088.584,277.3h0a.247.247,0,0,1-.2-.1l-.13-.179a1.618,1.618,0,0,1-.157.126,1.135,1.135,0,0,1-.175.1,1.026,1.026,0,0,1-.18.066.969.969,0,0,1-.234.027,1.028,1.028,0,0,1-.712-.306,1.059,1.059,0,0,1-.225-.342,1.17,1.17,0,0,1,0-.863,1.079,1.079,0,0,1,.225-.344,1.022,1.022,0,0,1,.332-.229,1.032,1.032,0,0,1,.407-.083.89.89,0,0,1,.143.012.7.7,0,0,1,.143.037.589.589,0,0,1,.132.068.389.389,0,0,1,.1.1v-.957h.527Zm-.528-1.043a.55.55,0,0,0-.041-.207.6.6,0,0,0-.112-.178.559.559,0,0,0-.166-.124.442.442,0,0,0-.2-.047.542.542,0,0,0-.2.038.49.49,0,0,0-.165.111.526.526,0,0,0-.11.175.636.636,0,0,0-.039.234.573.573,0,0,0,.04.214.59.59,0,0,0,.11.178.515.515,0,0,0,.165.12.465.465,0,0,0,.2.044.451.451,0,0,0,.2-.047.564.564,0,0,0,.166-.125.581.581,0,0,0,.111-.178.533.533,0,0,0,.041-.208" fill="#15375e"/>
        <path id="Path_10414" data-name="Path 10414" d="M1082.29,280a.793.793,0,0,1-.064.319.863.863,0,0,1-.177.262.837.837,0,0,1-.261.177.787.787,0,0,1-.32.066h-1.373l0-2.745,1.373,0a.8.8,0,0,1,.319.065.831.831,0,0,1,.262.177.815.815,0,0,1,.177.261.781.781,0,0,1,.066.32.607.607,0,0,1-.021.156.787.787,0,0,1-.059.156.706.706,0,0,1-.092.136.505.505,0,0,1-.118.1.447.447,0,0,1,.12.1.646.646,0,0,1,.092.137.7.7,0,0,1,.059.156.674.674,0,0,1,.02.158m-1.647-.822h.823a.272.272,0,0,0,.107-.021.289.289,0,0,0,.087-.058.269.269,0,0,0,.058-.089.276.276,0,0,0,.021-.108.269.269,0,0,0-.166-.252.277.277,0,0,0-.108-.021h-.823Zm0,1.1h.823a.277.277,0,0,0,.108-.021.271.271,0,0,0,.087-.058.278.278,0,0,0,.058-.088.283.283,0,0,0,0-.214.291.291,0,0,0-.059-.087.273.273,0,0,0-.194-.079h-.824Z" fill="#15375e"/>
        <path id="Path_10415" data-name="Path 10415" d="M1084.673,279.74a1.087,1.087,0,0,1-1.5,1,1.106,1.106,0,0,1-.345-.227,1.069,1.069,0,0,1-.318-.77,1.088,1.088,0,0,1,.084-.433,1.047,1.047,0,0,1,.233-.344,1.089,1.089,0,0,1,.765-.31,1.123,1.123,0,0,1,.423.077,1.037,1.037,0,0,1,.344.219,1.055,1.055,0,0,1,.232.343,1.121,1.121,0,0,1,.086.445m-.545,0a.576.576,0,0,0-.043-.229.534.534,0,0,0-.116-.176.5.5,0,0,0-.171-.113.562.562,0,0,0-.209-.039.54.54,0,0,0-.209.04.5.5,0,0,0-.171.113.529.529,0,0,0-.113.176.6.6,0,0,0-.042.229.568.568,0,0,0,.042.22.558.558,0,0,0,.114.176.54.54,0,0,0,.171.118.525.525,0,0,0,.209.043.56.56,0,0,0,.209-.041.518.518,0,0,0,.287-.289.6.6,0,0,0,.042-.228" fill="#15375e"/>
        <path id="Path_10416" data-name="Path 10416" d="M1087.078,279.737a1.085,1.085,0,0,1-.084.428,1.066,1.066,0,0,1-.232.343,1.092,1.092,0,0,1-.343.228,1.108,1.108,0,0,1-.844,0,1.085,1.085,0,0,1-.345-.227,1.053,1.053,0,0,1-.233-.343,1.064,1.064,0,0,1-.086-.427,1.086,1.086,0,0,1,.085-.433,1.044,1.044,0,0,1,.232-.344,1.089,1.089,0,0,1,.765-.31,1.116,1.116,0,0,1,.423.077,1.012,1.012,0,0,1,.344.219,1.028,1.028,0,0,1,.232.343,1.121,1.121,0,0,1,.086.445m-.545,0a.594.594,0,0,0-.042-.229.552.552,0,0,0-.117-.176.5.5,0,0,0-.171-.113.559.559,0,0,0-.209-.039.54.54,0,0,0-.209.04.491.491,0,0,0-.17.113.547.547,0,0,0-.114.176.6.6,0,0,0-.041.229.572.572,0,0,0,.042.22.527.527,0,0,0,.114.176.534.534,0,0,0,.17.118.511.511,0,0,0,.209.042.54.54,0,0,0,.209-.04.515.515,0,0,0,.171-.113.534.534,0,0,0,.116-.176.6.6,0,0,0,.042-.228" fill="#15375e"/>
        <path id="Path_10417" data-name="Path 10417" d="M1089.242,278.769h-.6l-.778.989,0-1.687h-.527l0,2.746h.527v-.262l.363-.483.416.745h.6l-.681-1.192Z" fill="#15375e"/>
        <path id="Path_10418" data-name="Path 10418" d="M1090.05,278.252a.327.327,0,0,1-.026.129.338.338,0,0,1-.178.176.335.335,0,0,1-.13.026.314.314,0,0,1-.13-.026.324.324,0,0,1-.106-.071.348.348,0,0,1-.071-.1.325.325,0,0,1-.026-.129.308.308,0,0,1,.026-.128.323.323,0,0,1,.071-.106.341.341,0,0,1,.1-.071.335.335,0,0,1,.13-.026.318.318,0,0,1,.13.026.324.324,0,0,1,.106.071.307.307,0,0,1,.072.1.312.312,0,0,1,.027.128" fill="#fdc61b"/>
        <path id="Path_10419" data-name="Path 10419" d="M1090.714,280.814h-.522l0-2.051a.278.278,0,0,1,.209.1l.09.1a.912.912,0,0,1,.62-.24.882.882,0,0,1,.354.071.914.914,0,0,1,.488.49.888.888,0,0,1,.072.357l0,1.171h-.523v-1.172a.393.393,0,0,0-.031-.152.4.4,0,0,0-.084-.125.393.393,0,0,0-.125-.084.368.368,0,0,0-.151-.031.4.4,0,0,0-.155.031.4.4,0,0,0-.127.084.42.42,0,0,0-.084.126.392.392,0,0,0-.03.152Z" fill="#15375e"/>
        <path id="Path_10420" data-name="Path 10420" d="M1094.317,280.554a1.011,1.011,0,0,1-.083.406,1.056,1.056,0,0,1-.225.331,1.08,1.08,0,0,1-.333.224,1.014,1.014,0,0,1-.407.082l-.262,0v-.523l.258,0a.608.608,0,0,0,.209-.032.448.448,0,0,0,.146-.086.426.426,0,0,0,.094-.126.741.741,0,0,0,.057-.149.241.241,0,0,1-.088.082.622.622,0,0,1-.127.051.783.783,0,0,1-.146.028c-.05.005-.1.008-.141.008a1.1,1.1,0,0,1-.407-.075.978.978,0,0,1-.558-.553,1.19,1.19,0,0,1-.082-.454,1.115,1.115,0,0,1,.082-.431,1.058,1.058,0,0,1,.225-.344,1.039,1.039,0,0,1,.333-.228,1.014,1.014,0,0,1,.407-.083.816.816,0,0,1,.2.025,1.077,1.077,0,0,1,.19.069,1.276,1.276,0,0,1,.175.1,1.426,1.426,0,0,1,.156.129l.122-.146a.269.269,0,0,1,.208-.1Zm-.527-.785a.551.551,0,0,0-.041-.208.619.619,0,0,0-.112-.178.546.546,0,0,0-.166-.124.438.438,0,0,0-.2-.047.565.565,0,0,0-.2.036.454.454,0,0,0-.164.107.5.5,0,0,0-.11.175.662.662,0,0,0-.041.239.63.63,0,0,0,.041.231.516.516,0,0,0,.11.175.479.479,0,0,0,.164.112.527.527,0,0,0,.2.039.451.451,0,0,0,.2-.047.563.563,0,0,0,.166-.124.619.619,0,0,0,.112-.178.555.555,0,0,0,.041-.208" fill="#15375e"/>
        <rect id="Rectangle_1289" data-name="Rectangle 1289" width="0.526" height="2.051" transform="translate(1089.454 278.765) rotate(-0.077)" fill="#15375e"/>
        <g id="Group_1167" data-name="Group 1167">
          <g id="Group_1166" data-name="Group 1166">
            <path id="Path_10421" data-name="Path 10421" d="M1075.8,279.358l-1.4-.245a1.326,1.326,0,0,1-1.073-1.073l-.133-.76-.112-.639,1.4.245a1.316,1.316,0,0,1,.616.285,1.316,1.316,0,0,1,.457.788l.077.437.036.2.036.2Z" fill="#fdc61b"/>
          </g>
        </g>
        <g id="Group_1168" data-name="Group 1168">
          <path id="Path_10422" data-name="Path 10422" d="M1071.766,279.439a.181.181,0,0,0,.054.13.065.065,0,0,0,.017.016l.021.014.356.2.662.383h0l1.474.852a.188.188,0,0,0,.184,0h0l2.492-1.44.021-.014a.091.091,0,0,0,.018-.016.185.185,0,0,0,.054-.13v-1.388a.109.109,0,0,1,.055-.1l.716-.414a.111.111,0,0,1,.166.1v1.8a1.127,1.127,0,0,1-.561.972L1075,281.85a1.122,1.122,0,0,1-1.121,0l-2.493-1.439a1.127,1.127,0,0,1-.561-.972v-1.8a.112.112,0,0,1,.167-.1l.715.414a.108.108,0,0,1,.056.1Z" fill="#15375e"/>
          <path id="Path_10423" data-name="Path 10423" d="M1071.156,275.769a1.016,1.016,0,0,1,.11-.1,1.062,1.062,0,0,1,.123-.083l2.493-1.44a1.033,1.033,0,0,1,.134-.065,1.13,1.13,0,0,1,.855,0,1.01,1.01,0,0,1,.132.065l1.727,1,.767.443a1.141,1.141,0,0,1,.123.083,1,1,0,0,1,.11.1,1.126,1.126,0,0,1,.328.792v.137a.108.108,0,0,1-.056.1l-.4.232-.314.182a.111.111,0,0,1-.166-.1v-.55a.179.179,0,0,0-.025-.091l-.007-.012-.01-.014-.012-.013-.006-.006-.012-.01,0,0-.018-.012-1.586-.916-.906-.524h0l-.022-.011a.216.216,0,0,0-.034-.01.212.212,0,0,0-.071,0,.215.215,0,0,0-.036.01l-.021.011-1.474.852h0l-.663.382-.355.206a.122.122,0,0,0-.021.014l-.012.01-.005.006-.013.013a.063.063,0,0,0-.01.015l-.01.015a.186.186,0,0,0-.021.087v.55a.111.111,0,0,1-.166.1l-.716-.414a.11.11,0,0,1-.056-.1v-.137A1.13,1.13,0,0,1,1071.156,275.769Z" fill="#15375e"/>
        </g>
      </g>
    </g>
  </g>
</svg>
