<svg xmlns="http://www.w3.org/2000/svg" xmlns:xlink="http://www.w3.org/1999/xlink" width="230.739" height="130.772" viewBox="0 0 230.739 130.772">
  <defs>
    <clipPath id="clip-path">
      <rect id="Rectangle_1233" data-name="Rectangle 1233" width="57.94" height="58.017" fill="none"/>
    </clipPath>
    <clipPath id="clip-path-2">
      <rect id="Rectangle_1231" data-name="Rectangle 1231" width="83.016" height="83.126" fill="#4b617b"/>
    </clipPath>
  </defs>
  <g id="Group_1068" data-name="Group 1068" transform="translate(-700 -1714.63)">
    <g id="Group_800" data-name="Group 800" transform="translate(-35 157)">
      <path id="Path_9756" data-name="Path 9756" d="M179.779,39.729C144.61,3.243,98.687,58.252,55.289,53.476,27.336,50.4-3.578,64.08.337,98.573c5.694,50.161,85.443,51.061,128.458,40.775s82.126-67.31,50.984-99.618" transform="translate(762 1543.844)" fill="#d0d7df"/>
    </g>
    <g id="Group_962" data-name="Group 962" transform="matrix(0.819, -0.574, 0.574, 0.819, 850, 1747.863)" clip-path="url(#clip-path)">
      <path id="Path_10264" data-name="Path 10264" d="M48.575,52.679,34.844,48.095a3.42,3.42,0,0,0-3.142.513L20.141,57.321a3.421,3.421,0,0,1-5.479-2.759l.116-14.476a3.421,3.421,0,0,0-1.459-2.83L1.46,28.954a3.421,3.421,0,0,1,.931-6.064l13.8-4.363a3.419,3.419,0,0,0,2.24-2.262L22.666,2.422a3.42,3.42,0,0,1,6.054-.988l8.415,11.78a3.421,3.421,0,0,0,2.844,1.432l14.474-.254a3.421,3.421,0,0,1,2.811,5.453l-8.6,11.643a3.42,3.42,0,0,0-.483,3.147L52.892,48.32a3.42,3.42,0,0,1-4.317,4.358" transform="translate(0 0)" fill="#15375e"/>
      <path id="Path_10265" data-name="Path 10265" d="M34.756,54.043a6.7,6.7,0,0,0-1.6-1.58L25.409,47.04a2.591,2.591,0,0,1,.705-4.594l9.015-2.85a6.729,6.729,0,0,0,4.407-4.449L42.3,26.106a2.591,2.591,0,0,1,4.587-.749l2.808,3.93-.6.427-2.808-3.931A1.856,1.856,0,0,0,43,26.321l-2.763,9.042A7.465,7.465,0,0,1,35.35,40.3l-9.014,2.85a1.856,1.856,0,0,0-.5,3.29l7.744,5.422a7.441,7.441,0,0,1,1.776,1.753Z" transform="translate(-17.938 -17.915)" fill="#4b617b"/>
      <path id="Path_10266" data-name="Path 10266" d="M71.577,101.467a2.6,2.6,0,0,1-2.813-2.605l.058-7.233.736.006L69.5,98.868a1.856,1.856,0,0,0,2.973,1.5l7.549-5.689a7.537,7.537,0,0,1,6.856-1.12l8.968,2.994a1.856,1.856,0,0,0,2.343-2.366l-3.078-8.94a7.46,7.46,0,0,1,1.054-6.864l5.618-7.605a1.856,1.856,0,0,0-1.525-2.959l-9.454.166a7.418,7.418,0,0,1-2.846-.511l.268-.684a6.682,6.682,0,0,0,2.566.46l9.454-.166a2.59,2.59,0,0,1,2.129,4.13l-5.618,7.605A6.724,6.724,0,0,0,95.8,85l3.079,8.94a2.591,2.591,0,0,1-3.271,3.3l-8.967-2.994a6.788,6.788,0,0,0-6.18,1.01l-7.55,5.689a2.588,2.588,0,0,1-1.338.515" transform="translate(-50.754 -49.294)" fill="#4b617b"/>
    </g>
    <g id="Group_960" data-name="Group 960" transform="matrix(0.819, -0.574, 0.574, 0.819, 700, 1769.246)" clip-path="url(#clip-path-2)">
      <path id="Path_10257" data-name="Path 10257" d="M69.6,75.478,49.924,68.91a4.9,4.9,0,0,0-4.5.735L28.858,82.13a4.9,4.9,0,0,1-7.851-3.953l.166-20.741a4.9,4.9,0,0,0-2.09-4.054L2.092,41.486A4.9,4.9,0,0,1,3.425,32.8L23.2,26.546a4.9,4.9,0,0,0,3.21-3.24L32.475,3.47A4.9,4.9,0,0,1,41.15,2.054L53.207,18.931a4.9,4.9,0,0,0,4.074,2.051l20.738-.364a4.9,4.9,0,0,1,4.028,7.813L69.721,45.113a4.9,4.9,0,0,0-.692,4.509l6.755,19.611A4.9,4.9,0,0,1,69.6,75.478" transform="translate(0 0)" fill="#999dab"/>
      <path id="Path_10258" data-name="Path 10258" d="M39.279,66.927a9.6,9.6,0,0,0-2.3-2.264l-11.1-7.769A3.713,3.713,0,0,1,26.9,50.313L39.814,46.23a9.641,9.641,0,0,0,6.314-6.374L50.088,26.9a3.712,3.712,0,0,1,6.572-1.072l4.024,5.632-.857.612L55.8,26.44a2.659,2.659,0,0,0-4.708.768L47.136,40.164a10.7,10.7,0,0,1-7,7.071L27.216,51.317a2.659,2.659,0,0,0-.724,4.714l11.1,7.769a10.661,10.661,0,0,1,2.545,2.511Z" transform="translate(-15.183 -15.164)" fill="#15375e"/>
      <path id="Path_10259" data-name="Path 10259" d="M72.794,116.477a3.721,3.721,0,0,1-4.03-3.733l.083-10.363,1.054.009-.083,10.363a2.659,2.659,0,0,0,4.26,2.144l10.817-8.152a10.8,10.8,0,0,1,9.823-1.6l12.849,4.29a2.66,2.66,0,0,0,3.357-3.389l-4.411-12.809a10.688,10.688,0,0,1,1.51-9.835l8.049-10.9a2.659,2.659,0,0,0-2.185-4.239l-13.545.238a10.629,10.629,0,0,1-4.078-.732l.384-.981a9.574,9.574,0,0,0,3.676.659l13.545-.238a3.712,3.712,0,0,1,3.05,5.918l-8.049,10.9a9.634,9.634,0,0,0-1.362,8.866l4.412,12.809a3.713,3.713,0,0,1-4.686,4.732l-12.849-4.29a9.726,9.726,0,0,0-8.855,1.447l-10.818,8.152a3.708,3.708,0,0,1-1.917.739" transform="translate(-42.959 -41.724)" fill="#15375e"/>
    </g>
    <g id="surface1" transform="translate(773.373 1728.373)">
      <path id="Path_7796" data-name="Path 7796" d="M98.639,31.3l0-.089c-.05-1.108-.084-2.282-.1-3.586A12.227,12.227,0,0,0,87.018,15.651c-13.266-.741-23.528-5.067-32.3-13.613l-.075-.071a7.385,7.385,0,0,0-10.034,0l-.076.072c-8.769,8.546-19.031,12.872-32.3,13.613A12.227,12.227,0,0,0,.725,27.631c-.019,1.3-.054,2.469-.1,3.585l-.005.209C.358,44.952.037,61.787,5.669,77.068A58.09,58.09,0,0,0,19.608,98.78c7.008,6.838,16.186,12.267,27.281,16.136a8.312,8.312,0,0,0,1.116.3,8.215,8.215,0,0,0,3.246,0,8.413,8.413,0,0,0,1.122-.305c11.08-3.875,20.248-9.306,27.249-16.144A58.2,58.2,0,0,0,93.563,77.053C99.216,61.725,98.9,44.858,98.639,31.3Z" transform="translate(-0.5 0)" fill="#fee28d"/>
      <path id="Path_9757" data-name="Path 9757" d="M165.817,149.6a15.327,15.327,0,0,0-8.966,27.756l-.078,10.946v.024a9,9,0,0,0,18,.013l.079-11.031a15.326,15.326,0,0,0-9.031-27.708Z" transform="translate(-116.691 -115.889)" fill="#fef3d1"/>
      <path id="Path_7796-2" data-name="Path 7796" d="M98.639,31.3l0-.089c-.05-1.108-.084-2.282-.1-3.586A12.227,12.227,0,0,0,87.018,15.651c-13.266-.741-23.528-5.067-32.3-13.613l-.075-.071a7.385,7.385,0,0,0-10.034,0l-.076.072c-8.769,8.546-19.031,12.872-32.3,13.613A12.227,12.227,0,0,0,.725,27.631c-.019,1.3-.054,2.469-.1,3.585l-.005.209C.358,44.952.037,61.787,5.669,77.068A58.09,58.09,0,0,0,19.608,98.78c7.008,6.838,16.186,12.267,27.281,16.136a8.312,8.312,0,0,0,1.116.3,8.215,8.215,0,0,0,3.246,0,8.413,8.413,0,0,0,1.122-.305c11.08-3.875,20.248-9.306,27.249-16.144A58.2,58.2,0,0,0,93.563,77.053C99.216,61.725,98.9,44.858,98.639,31.3ZM87.21,74.709c-5.94,16.107-18.066,27.167-37.07,33.812a1.613,1.613,0,0,1-.216.059,1.489,1.489,0,0,1-.6,0,1.54,1.54,0,0,1-.213-.057c-19.025-6.634-31.159-17.689-37.1-33.8C6.83,60.641,7.125,45.188,7.385,31.553v-.075c.053-1.173.089-2.4.108-3.748a5.436,5.436,0,0,1,5.122-5.32,59.4,59.4,0,0,0,20.162-4.435A52.758,52.758,0,0,0,49.209,6.937a.625.625,0,0,1,.838,0A52.753,52.753,0,0,0,66.478,17.976,59.4,59.4,0,0,0,86.641,22.41a5.434,5.434,0,0,1,5.122,5.32c.02,1.357.055,2.583.108,3.747C92.129,45.128,92.416,60.594,87.21,74.709Zm0,0" transform="translate(-0.5 0)" fill="#fdc61b"/>
      <path id="Path_7797" data-name="Path 7797" d="M165.817,149.6a15.327,15.327,0,0,0-8.966,27.756l-.078,10.946v.024a9,9,0,0,0,18,.013l.079-11.031a15.326,15.326,0,0,0-9.031-27.708ZM168,188.328a2.227,2.227,0,0,1-4.454.009l.092-12.594a3.385,3.385,0,0,0-1.8-3.241,8.554,8.554,0,1,1,8.005-.025,3.383,3.383,0,0,0-1.755,3.435L168,188.3Zm0,0" transform="translate(-116.691 -115.888)" fill="#fdc61b"/>
    </g>
  </g>
</svg>
