<svg id="_2111532" data-name="2111532" xmlns="http://www.w3.org/2000/svg" width="25" height="25" viewBox="0 0 25 25">
  <path id="Path_8466" data-name="Path 8466" d="M24.64,24.684h.006V15.515c0-4.485-.966-7.941-6.209-7.941a5.444,5.444,0,0,0-4.9,2.695h-.073V7.993H8.489V24.683h5.177V16.419c0-2.176.412-4.28,3.107-4.28,2.655,0,2.695,2.483,2.695,4.42v8.126Z" transform="translate(0.354 0.316)" fill="#fdc61b"/>
  <path id="Path_8467" data-name="Path 8467" d="M.4,7.977H5.579V24.668H.4Z" transform="translate(0.017 0.332)" fill="#fdc61b"/>
  <path id="Path_8468" data-name="Path 8468" d="M3,0A3.016,3.016,0,1,0,6,3,3,3,0,0,0,3,0Z" fill="#fdc61b"/>
</svg>
