<svg xmlns="http://www.w3.org/2000/svg" xmlns:xlink="http://www.w3.org/1999/xlink" width="638.05" height="567.585" viewBox="0 0 638.05 567.585">
  <defs>
    <clipPath id="clip-path">
      <rect id="Rectangle_1368" data-name="Rectangle 1368" width="595" height="536.964" transform="translate(5586.378 8019.989)" fill="none"/>
    </clipPath>
    <clipPath id="clip-path-3">
      <path id="Path_10484" data-name="Path 10484" d="M5939.482,8092.614a5.588,5.588,0,0,0-5.589,5.587v5.123a9.408,9.408,0,0,1-9.407,9.409H5844.94a9.408,9.408,0,0,1-9.407-9.409V8098.2a5.589,5.589,0,0,0-5.589-5.587h-20.492a27.942,27.942,0,0,0-27.939,27.942v22.2h0v350.1h0v23.37a27.941,27.941,0,0,0,27.931,27.953h150.53a27.944,27.944,0,0,0,27.939-27.945V8120.556a27.945,27.945,0,0,0-27.944-27.942Z" fill="none"/>
    </clipPath>
    <clipPath id="clip-path-7">
      <rect id="Rectangle_1369" data-name="Rectangle 1369" width="129.359" height="232.586" transform="translate(5543.328 8356.422) rotate(-19.993)" fill="none"/>
    </clipPath>
  </defs>
  <g id="Group_1065" data-name="Group 1065" transform="translate(-5543.328 -8007.405)">
    <g id="Group_873" data-name="Group 873">
      <path id="Path_9791" data-name="Path 9791" d="M5877.114,8536.275c-9.252,2.561-18.5,5.118-27.827,7.339-29.519,7.027-60.108,8.672-90.443,7.089-64.137-3.351-92.126-36.843-69.968-68.1s50.143-63.641,19.825-93.785-144.6-56.947-132.94-110.542,114.28-61.4,106.117-96.014-60.639-44.66-34.983-91.552,120.112-5.584,150.433-30.147,46.643-44.657,96.788-52.474,86.294,53.593,139.938,77.037S6142.5,8116.388,6153,8171.1s-89.79,90.434-85.129,146.255c2.331,27.9,21.423,49.676,36.3,71.986,25.14,37.691,45.858,105.623-9.6,127.851-24.116,9.665-51.835,7.036-77.244,6.493-26.426-.565-53.832-3.527-80.171-.63-20.506,2.259-40.28,7.749-60.049,13.222" fill="#fef3d1"/>
      <g id="Group_872" data-name="Group 872">
        <g id="Group_869" data-name="Group 869">
          <g id="Group_1307" data-name="Group 1307">
            <g id="Group_1306" data-name="Group 1306" clip-path="url(#clip-path)">
              <g id="Group_868" data-name="Group 868">
                <g id="Group_843" data-name="Group 843">
                  <g id="Group_1293" data-name="Group 1293">
                    <g id="Group_1292" data-name="Group 1292" clip-path="url(#clip-path)">
                      <g id="Group_842" data-name="Group 842">
                        <path id="Path_9846" data-name="Path 9846" d="M6122.372,8143.819l-28.214-.117a7.008,7.008,0,0,0-6.893,7.123v0h0v5.115a7.011,7.011,0,0,1-6.877,7.141h0l-55.014-.262a7.01,7.01,0,0,1-6.82-7.185v-5.13a7.024,7.024,0,0,0-6.82-7.2h-9.924l-24.7-.1a22.21,22.21,0,0,0-22.312,22.108h0l-1.463,356.189a22.2,22.2,0,0,0,22.093,22.3h.015l145.267.67a22.211,22.211,0,0,0,22.312-22.107l1.457-356.188a22.2,22.2,0,0,0-22.033-22.356Z" fill="#f5f5f5"/>
                        <path id="Path_9847" data-name="Path 9847" d="M6102.834,8496.9l-107.974-.525c-1.108,0-2.011-1.224-2.011-2.725l.117-28.259c0-1.457.918-2.711,2.04-2.7l108.018.5c1.122,0,2.027,1.224,2.027,2.709l-.133,28.273c-.057,1.517-.976,2.726-2.084,2.726" fill="#e0e0e0"/>
                        <path id="Path_9848" data-name="Path 9848" d="M6024.672,8482.212l.335-.686a3.953,3.953,0,0,0,2.667,1.034c1.457,0,2.171-.653,2.186-1.457,0-2.329-4.984-.918-4.97-4.05,0-1.253.933-2.316,2.988-2.316a4.541,4.541,0,0,1,2.507.758l-.292.714a4.067,4.067,0,0,0-2.215-.7c-1.457,0-2.142.67-2.142,1.457,0,2.333,4.969.949,4.955,4.038,0,1.239-.947,2.3-3.017,2.287a4.222,4.222,0,0,1-3-1.077" fill="#fafafa"/>
                        <rect id="Rectangle_1151" data-name="Rectangle 1151" width="0.861" height="8.467" transform="translate(6032.585 8474.809)" fill="#fafafa"/>
                        <path id="Path_9849" data-name="Path 9849" d="M6042.845,8474.853v8.471h-.713l-5.175-6.9v6.864h-.845v-8.469h.7l5.188,6.895v-6.865Z" fill="#fafafa"/>
                        <path id="Path_9850" data-name="Path 9850" d="M6051.166,8479.118H6052v3.234a4.157,4.157,0,1,1-2.915-7.549,3.868,3.868,0,0,1,3,1.239l-.538.568a3.175,3.175,0,0,0-2.434-1,3.511,3.511,0,0,0,0,7.008,3.454,3.454,0,0,0,2.128-.641Z" fill="#fafafa"/>
                        <path id="Path_9851" data-name="Path 9851" d="M6057.375,8479.763v-4.837h.86v4.809c0,2.011.888,2.915,2.461,2.915s2.478-.917,2.492-2.915v-4.824h.845v4.853c0,2.419-1.268,3.674-3.337,3.674s-3.337-1.239-3.321-3.674" fill="#fafafa"/>
                        <path id="Path_9852" data-name="Path 9852" d="M6072.954,8477.9c0,1.791-1.268,2.915-3.323,2.915h-2.171v2.681h-.86v-8.469h3.031c2.084-.042,3.323,1.051,3.323,2.872m-.86,0c0-1.357-.845-2.129-2.463-2.129h-2.157V8480h2.157c1.6,0,2.463-.771,2.463-2.113Z" fill="#fafafa"/>
                        <rect id="Rectangle_1152" data-name="Rectangle 1152" width="6.878" height="37.482" transform="translate(5978.842 8255.173) rotate(-89.739)" fill="#e0e0e0"/>
                        <path id="Path_9853" data-name="Path 9853" d="M6126.234,8290.69a3.489,3.489,0,0,0,.845-.2,2.262,2.262,0,0,0,1.457-1.953V8269.2a2.831,2.831,0,0,0-.408-1.909,2.133,2.133,0,0,0-1.721-.889h-23.331l-121.9-.452a1.981,1.981,0,0,0-1.6.815,2.919,2.919,0,0,0-.377,1.9v17.487a13.015,13.015,0,0,0,0,2.056,2,2,0,0,0,1.137,1.312,2.247,2.247,0,0,0,.9.146h7.418l32.367.175,54.794.335,36.945.291,10.041.117h-46.992l-54.794-.16-32.367-.131h-7.493a3.2,3.2,0,0,1-1.194-.219,2.751,2.751,0,0,1-1.574-1.808,4.193,4.193,0,0,1-.089-1.166v-18.568c-.019-.39-.019-.777,0-1.166a2.7,2.7,0,0,1,.481-1.181,2.741,2.741,0,0,1,2.231-1.122l121.89.67,21.045.16h2.288a2.579,2.579,0,0,1,2.039,1.064,3.164,3.164,0,0,1,.468,2.142v2.04c0,2.652,0,5.072-.073,7.287,0,4.372-.089,7.724-.117,10.056a2.378,2.378,0,0,1-1.546,2.012,1.674,1.674,0,0,1-.771.2" fill="#e0e0e0"/>
                        <rect id="Rectangle_1153" data-name="Rectangle 1153" width="6.427" height="68.555" transform="translate(5988.894 8281.145) rotate(-89.714)" fill="#e0e0e0"/>
                        <rect id="Rectangle_1154" data-name="Rectangle 1154" width="6.879" height="37.482" transform="translate(5978.571 8317.925) rotate(-89.742)" fill="#e0e0e0"/>
                        <path id="Path_9854" data-name="Path 9854" d="M6125.272,8353.442a7.3,7.3,0,0,0,.86-.16,3.062,3.062,0,0,0,1.849-1.647,3.911,3.911,0,0,0,.248-1.851v-17.36a3.127,3.127,0,0,0-.437-1.924,2.9,2.9,0,0,0-1.574-1.224,8.929,8.929,0,0,0-2.2-.132h-20.985l-121.469-.437a2.654,2.654,0,0,0-2.654,2.332v17.488a10.011,10.011,0,0,0,.089,2.026,2.747,2.747,0,0,0,1.062,1.457,2.917,2.917,0,0,0,1.822.465h6.326l32.251.176,54.606.335,36.825.293,10,.114h-10.013l-36.871.16-54.606-.175-32.251-.131h-6.412a3.586,3.586,0,0,1-2.231-.6,3.387,3.387,0,0,1-1.354-1.909,9.865,9.865,0,0,1-.131-2.23v-17.567a3.439,3.439,0,0,1,3.41-3.019l121.468.686,20.987.146a8.827,8.827,0,0,1,2.317.159,3.225,3.225,0,0,1,1.792,1.457,3.5,3.5,0,0,1,.465,2.128v17.459a3.949,3.949,0,0,1-.306,1.909,3.1,3.1,0,0,1-1.951,1.663,2.356,2.356,0,0,1-.933-.089" fill="#e0e0e0"/>
                        <rect id="Rectangle_1155" data-name="Rectangle 1155" width="6.879" height="37.482" transform="translate(5978.304 8383.387) rotate(-89.739)" fill="#e0e0e0"/>
                        <path id="Path_9855" data-name="Path 9855" d="M6125,8418.891a3.484,3.484,0,0,0,.86-.159,3.058,3.058,0,0,0,1.851-1.647,3.887,3.887,0,0,0,.248-1.851v-17.357a3.159,3.159,0,0,0-.437-1.924,2.9,2.9,0,0,0-1.574-1.225,8.976,8.976,0,0,0-2.2-.116h-20.987l-121.468-.452a2.668,2.668,0,0,0-2.654,2.346v17.488a10.182,10.182,0,0,0,.087,2.04,2.763,2.763,0,0,0,1.064,1.457,2.909,2.909,0,0,0,1.822.466h6.325l32.25.176,54.606.337,36.814.291,10.012.117H6074.63l-54.606-.175-32.251-.131h-6.339a3.754,3.754,0,0,1-2.23-.6,3.449,3.449,0,0,1-1.355-1.924,9.857,9.857,0,0,1-.131-2.229v-17.559a3.424,3.424,0,0,1,3.41-3.017l121.469.67,20.986.146a9.655,9.655,0,0,1,2.434.307,3.356,3.356,0,0,1,1.794,1.457,3.524,3.524,0,0,1,.465,2.142v17.459a3.991,3.991,0,0,1-.306,1.909,3.022,3.022,0,0,1-1.953,1.661,2.316,2.316,0,0,1-1.02-.1" fill="#e0e0e0"/>
                        <rect id="Rectangle_1156" data-name="Rectangle 1156" width="6.427" height="68.554" transform="translate(5988.638 8343.925) rotate(-89.739)" fill="#e0e0e0"/>
                        <path id="Path_9856" data-name="Path 9856" d="M5994.855,8407a3,3,0,1,1-2.915-3.206,3.09,3.09,0,0,1,2.915,3.206" fill="#e0e0e0"/>
                        <path id="Path_9857" data-name="Path 9857" d="M6004.153,8407.047a3,3,0,1,1-2.988-3.206,3.1,3.1,0,0,1,2.988,3.206" fill="#e0e0e0"/>
                        <path id="Path_9858" data-name="Path 9858" d="M6013.436,8407.087a3,3,0,1,1-2.987-3.206,3.087,3.087,0,0,1,2.987,3.185v.021Z" fill="#e0e0e0"/>
                        <path id="Path_9859" data-name="Path 9859" d="M6022.719,8407.129a3,3,0,1,1-2.915-3.206,3.092,3.092,0,0,1,2.915,3.206" fill="#e0e0e0"/>
                        <path id="Path_9860" data-name="Path 9860" d="M6032.017,8407.174a3,3,0,1,1-2.988-3.206,3.1,3.1,0,0,1,2.988,3.206" fill="#e0e0e0"/>
                        <path id="Path_9861" data-name="Path 9861" d="M6041.3,8407.218a3,3,0,1,1-2.988-3.221,3.1,3.1,0,0,1,2.988,3.208v.013Z" fill="#e0e0e0"/>
                        <path id="Path_9862" data-name="Path 9862" d="M6050.584,8407.261a3,3,0,1,1-2.987-3.221,3.091,3.091,0,0,1,2.989,3.188v.032" fill="#e0e0e0"/>
                        <path id="Path_9863" data-name="Path 9863" d="M6059.867,8407.306a3,3,0,1,1,0-.418,3.316,3.316,0,0,1,0,.418" fill="#e0e0e0"/>
                        <path id="Path_9864" data-name="Path 9864" d="M6069.179,8407.349a3,3,0,1,1-2.988-3.221,3.1,3.1,0,0,1,2.988,3.208v.013Z" fill="#e0e0e0"/>
                        <path id="Path_9865" data-name="Path 9865" d="M6055.976,8196.954a5.656,5.656,0,0,0,3.366-5.232,5.32,5.32,0,1,0-10.611-.787h0a6.432,6.432,0,0,0,3.382,6.063c-8.161,1.224-7.782,10.1-7.782,10.1l19.279.087s.439-9.006-7.635-10.23" fill="#e0e0e0"/>
                        <rect id="Rectangle_1157" data-name="Rectangle 1157" width="8.219" height="68.771" transform="translate(6018.52 8220.8) rotate(-89.74)" fill="#e0e0e0"/>
                        <path id="Path_9866" data-name="Path 9866" d="M5783.4,8065.487a52.916,52.916,0,0,1,10.056,9.866l12.839-2.346,8.482,19.863-10.58,7.651a53.028,53.028,0,0,1,.16,14.092l10.741,7.418-8.059,20.053-12.884-2.071a53.333,53.333,0,0,1-9.866,10.056l2.346,12.839-19.864,8.482-7.651-10.58a53.032,53.032,0,0,1-14.092.16l-7.417,10.743-20.053-8.06,2.069-12.883a52.916,52.916,0,0,1-10.056-9.866l-12.854,2.346-8.467-19.863,10.58-7.651a52.967,52.967,0,0,1-.16-14.092l-10.74-7.419,8.059-20.053,12.883,2.069a52.9,52.9,0,0,1,9.866-10.056l-2.346-12.838,19.863-8.467,7.651,10.58a53.031,53.031,0,0,1,14.092-.16l7.418-10.7,20.038,8.059-2.054,12.886Zm-22.341,21.5a23.186,23.186,0,1,0,12.864,30.161l0,0v-.009a23.172,23.172,0,0,0-12.849-30.145h0l-.019-.007" fill="#e0e0e0" fill-rule="evenodd"/>
                        <path id="Path_9867" data-name="Path 9867" d="M5821.854,8132.713l-28.841-.131a7.155,7.155,0,0,0-7.039,7.269v5.235a7.157,7.157,0,0,1-7.021,7.287h-.017l-56.224-.262a7.169,7.169,0,0,1-6.981-7.287v-5.217a7.156,7.156,0,0,0-6.966-7.287h-10.2l-25.182-.277a22.662,22.662,0,0,0-22.793,22.53v.015l-1.545,363.023a22.661,22.661,0,0,0,22.589,22.72l148.473.685a22.661,22.661,0,0,0,22.807-22.512v-.018l1.457-363.037a22.66,22.66,0,0,0-22.515-22.736" fill="#fafafa"/>
                        <rect id="Rectangle_1158" data-name="Rectangle 1158" width="146.914" height="9.822" transform="translate(5672.521 8379.733)" fill="#e0e0e0"/>
                        <path id="Path_9868" data-name="Path 9868" d="M5814.146,8418.438c0,.35-31.362.641-70.025.641s-70.04-.291-70.04-.641,31.347-.654,70.04-.654,70.025.29,70.025.654" fill="#e0e0e0"/>
                        <path id="Path_9869" data-name="Path 9869" d="M5814.146,8185.324c0,.35-31.362.641-70.025.641s-70.04-.291-70.04-.641,31.347-.641,70.04-.641,70.025.277,70.025.641" fill="#e0e0e0"/>
                        <path id="Path_9870" data-name="Path 9870" d="M5814.146,8436.321c0,.363-31.362.641-70.025.641s-70.04-.277-70.04-.641,31.347-.642,70.04-.642,70.025.292,70.025.642" fill="#e0e0e0"/>
                        <path id="Path_9871" data-name="Path 9871" d="M5814.146,8454.217c0,.349-31.362.641-70.025.641s-70.04-.291-70.04-.641,31.347-.641,70.04-.641,70.025.276,70.025.641" fill="#e0e0e0"/>
                        <path id="Path_9872" data-name="Path 9872" d="M5814.146,8472.1c0,.364-31.362.642-70.025.642s-70.04-.277-70.04-.642,31.347-.64,70.04-.64,70.025.29,70.025.64" fill="#e0e0e0"/>
                        <path id="Path_9873" data-name="Path 9873" d="M5814.146,8489.994c0,.35-31.362.64-70.025.64s-70.04-.29-70.04-.64,31.347-.642,70.04-.642,70.025.277,70.025.642" fill="#e0e0e0"/>
                        <path id="Path_9874" data-name="Path 9874" d="M5816.186,8510.281c0,.35-31.347.641-70.025.641s-70.04-.291-70.04-.641,31.347-.642,70.04-.642,70.025.277,70.025.642" fill="#e0e0e0"/>
                        <rect id="Rectangle_1159" data-name="Rectangle 1159" width="147.278" height="142.498" transform="translate(5674.124 8205.727)" fill="#ebebeb"/>
                        <path id="Path_9875" data-name="Path 9875" d="M5685.535,8336.027l40.747-73.333,33.329,46.867,20.242-24.891,30.123,51.357Z" fill="#e0e0e0"/>
                        <path id="Path_9876" data-name="Path 9876" d="M5773.806,8248.427a10.609,10.609,0,1,1-10.624-10.595h.015a10.608,10.608,0,0,1,10.609,10.595" fill="#e0e0e0"/>
                        <path id="Path_9877" data-name="Path 9877" d="M5809.977,8336.42v-8.657c0-5.653-.087-13.832-.16-24.206-.073-20.811-.175-50.453-.306-85.982l.6.611-124.427.088c-.175.159,1.312-1.312.685-.671v118.948l-.612-.611,89.976.306,25.387.159,6.733.073h2.346a3.105,3.105,0,0,1-.539,0h-8.292l-25.241.159-90.355.322h-.612V8217.4c-.627.611.845-.89.714-.729l124.427.1h.612v.6c-.131,35.748-.233,65.58-.306,86.419,0,10.318-.131,18.451-.16,24.077,0,2.694,0,4.809-.073,6.294v1.59a2.127,2.127,0,0,1-.394.67" fill="#e0e0e0"/>
                        <path id="Path_9878" data-name="Path 9878" d="M5979.727,8019.989h160.73a5.73,5.73,0,0,1,5.727,5.729v33.518a5.727,5.727,0,0,1-5.727,5.726h-160.73a5.726,5.726,0,0,1-5.727-5.725h0v-33.519a5.729,5.729,0,0,1,5.727-5.728" fill="#e0e0e0"/>
                        <path id="Path_9879" data-name="Path 9879" d="M6001.428,8043.816a5.628,5.628,0,0,0,3.368-5.217,5.307,5.307,0,1,0-10.6-.555h0a5.264,5.264,0,0,0,0,.555,5.61,5.61,0,0,0,3.37,5.278,8.5,8.5,0,0,0-7.17,6.179,12.1,12.1,0,0,0,7.373,3.906h3.264a12.04,12.04,0,0,0,7.463-4.008,8.352,8.352,0,0,0-7.07-6.135" fill="#fafafa"/>
                        <rect id="Rectangle_1160" data-name="Rectangle 1160" width="42.395" height="3.177" transform="translate(6022.69 8031.677)" fill="#fafafa"/>
                        <rect id="Rectangle_1161" data-name="Rectangle 1161" width="74.266" height="3.177" transform="translate(6022.69 8049.646)" fill="#fafafa"/>
                        <rect id="Rectangle_1162" data-name="Rectangle 1162" width="107.626" height="3.177" transform="translate(6022.69 8040.435)" fill="#fafafa"/>
                        <path id="Path_9880" data-name="Path 9880" d="M6180.971,8556.439c0,.2-133.142.379-297.3.379s-297.293-.18-297.293-.379,133.04-.307,297.253-.307,297.34.087,297.34.307" fill="#0b2645"/>
                        <path id="Path_9887" data-name="Path 9887" d="M5861.232,8053.245a10.049,10.049,0,0,1,2.915,1.457,13.105,13.105,0,0,1,5.144,7.287,13.332,13.332,0,0,1,.277,6.208,13.564,13.564,0,0,1-3.162,6.412,12.854,12.854,0,0,1-2.988,2.507,13.06,13.06,0,0,1-3.745,1.6,13.479,13.479,0,0,1-14.923-6.033,12.774,12.774,0,0,1-1.588-3.745,13.074,13.074,0,0,1-.423-3.877,13.409,13.409,0,0,1,6.645-11.119,13.184,13.184,0,0,1,8.744-1.661,10.113,10.113,0,0,1,3.119.962,31.452,31.452,0,0,0-3.162-.67,13.232,13.232,0,0,0-8.394,1.836,12.925,12.925,0,0,0-6.223,10.668,11.684,11.684,0,0,0,.423,3.672,11.808,11.808,0,0,0,1.457,3.541,12.871,12.871,0,0,0,20.49,1.807,13.119,13.119,0,0,0,3.075-6.063,12.858,12.858,0,0,0-.189-5.946,13.225,13.225,0,0,0-4.78-7.141,31.484,31.484,0,0,0-2.711-1.7" fill="#0b2645"/>
                        <path id="Path_9888" data-name="Path 9888" d="M5873.983,8040.989a1.906,1.906,0,0,1,0-.466c0-.35.117-.8.189-1.457q.278-1.924.831-5.509l.073.131-11.381-4.474h.233l-4.212,6.15-.073.1h-.142a30.6,30.6,0,0,0-7.972.117h-.146l-.087-.117-4.375-6.017.321.087-11.382,4.868.175-.335c.423,2.273.889,4.765,1.355,7.287v.189l-.16.117a29.8,29.8,0,0,0-5.552,5.684l-.044.175h-.2l-7.287-1.166.364-.219-4.58,11.454-.131-.423,6.135,4.226.175.117v.219a30.281,30.281,0,0,0,.091,7.947v.219l-.189.131-6.033,4.372.131-.452,4.834,11.33-.408-.219,7.287-1.341h.219l.146.189a29.529,29.529,0,0,0,5.654,5.538,3.6,3.6,0,1,0,.146.364v.321l-.073.466-.146.918-.306,1.851c-.189,1.224-.393,2.448-.583,3.658l-.233-.408,11.44,4.6-.452.131,4.241-6.135.117-.175h.233a30.18,30.18,0,0,0,7.942-.087h.219l.131.175,4.372,6.048-.437-.131,11.338-4.824-.2.393c-.452-2.492-.889-4.94-1.326-7.287v-.2l.16-.117a30.067,30.067,0,0,0,5.567-5.669l.117-.16h.2l7.287,1.2-.335.189c1.618-4.022,3.148-7.811,4.62-11.426l.1.35-6.121-4.255-.131-.087v-.16a30.3,30.3,0,0,0,0-7.972v-.16l.117-.087,6.063-4.372v.276c-1.865-4.372-3.439-8.161-4.8-11.367l.189.1-7.287,1.3a31.618,31.618,0,0,0-4.124-4.372l-1.137-.962a2.736,2.736,0,0,1-.379-.321,2.409,2.409,0,0,1,.408.262c.277.2.67.5,1.18.933a28.689,28.689,0,0,1,4.241,4.372h-.117l7.287-1.457h.131v.131l4.882,11.324v.157l-.146.1-6.019,4.372.087-.233a30.017,30.017,0,0,1,.117,8.1l-.117-.262,6.135,4.226.189.131-.073.219c-1.457,3.614-2.915,7.418-4.576,11.44l-.1.233h-.248l-7.36-1.166.321-.131a31.09,31.09,0,0,1-5.684,5.829l.131-.335c.437,2.4.889,4.838,1.341,7.287v.277l-.262.1-11.323,4.857-.277.117-.16-.233-4.372-6.033.35.146a30.415,30.415,0,0,1-8.132.087l.35-.146-4.24,6.118-.16.248-.277-.117-11.455-4.591-.277-.1v-.306c.2-1.224.393-2.434.6-3.672l.291-1.836.146-.933.073-.452v-.441c.306.729.087.2.16.364a30.68,30.68,0,0,1-5.829-5.684l.364.131-7.287,1.341h-.306l-.117-.277-4.825-11.347-.117-.262.233-.175,6.048-4.372-.146.35a30.5,30.5,0,0,1-.087-8.132l.146.35-6.2-4.242-.233-.16.117-.262c1.588-3.979,3.162-7.855,4.6-11.44l.1-.248h.262l7.287,1.2-.321.117a30.659,30.659,0,0,1,5.7-5.829l-.117.306c-.466-2.565-.918-5.072-1.326-7.287v-.242l.219-.087,11.353-4.809.2-.087.117.175,4.372,6.048-.248-.1a30.154,30.154,0,0,1,8.1,0l-.2.087,4.255-6.106.087-.131h.146l11.411,4.663h.087v.087c-.408,2.361-.714,4.183-.933,5.45-.117.592-.2,1.078-.262,1.457a3.7,3.7,0,0,1-.1.466" fill="#0b2645"/>
                        <path id="Path_9889" data-name="Path 9889" d="M6043.632,8328.041a38.1,38.1,0,0,1,7.287,7.112l9.269-1.691,6.121,14.34-7.637,5.523a38.856,38.856,0,0,1,.117,10.2l7.738,5.365-5.829,14.472-9.3-1.457a37.828,37.828,0,0,1-7.112,7.287l1.691,9.282-14.34,6.121-5.523-7.636a38.152,38.152,0,0,1-10.2.1l-5.364,7.754-14.47-5.829,1.457-9.3a37.745,37.745,0,0,1-7.288-7.108l-9.181,1.588-6.121-14.34,7.636-5.523a38.3,38.3,0,0,1-.1-10.2l-7.753-5.348,5.829-14.471,9.3,1.457a38.1,38.1,0,0,1,7.112-7.287l-1.691-9.27,14.34-6.121,5.523,7.637a38.315,38.315,0,0,1,10.2-.117l5.348-7.738,14.47,5.829-1.457,9.313Zm-16.118,15.506a16.73,16.73,0,1,0,9.28,21.765v-.007a16.716,16.716,0,0,0-9.261-21.749Z" fill="#fafafa" fill-rule="evenodd"/>
                        <path id="Path_9890" data-name="Path 9890" d="M6027.514,8343.547a13.278,13.278,0,0,1,3.672,1.9,16.617,16.617,0,0,1,6.456,9.124,16.858,16.858,0,0,1,.335,7.823,17.1,17.1,0,0,1-4,8.06,17.035,17.035,0,0,1-8.466,5.173,16.964,16.964,0,0,1-18.756-7.491,16.4,16.4,0,0,1-2.011-4.722,15.919,15.919,0,0,1-.525-4.867,16.867,16.867,0,0,1,17.415-16.3,16.69,16.69,0,0,1,1.911.172,13.035,13.035,0,0,1,3.964,1.18,38,38,0,0,0-4.008-.889,16.737,16.737,0,0,0-10.668,2.3,16.386,16.386,0,1,0,24.279,9.706,16.659,16.659,0,0,0-6.108-9.036,40.016,40.016,0,0,0-3.5-2.128" fill="#0b2645"/>
                        <path id="Path_9891" data-name="Path 9891" d="M6043.632,8328.041a4.725,4.725,0,0,1,0-.6c0-.424.147-1.008.248-1.764.248-1.6.6-3.935,1.064-6.966v.13l-14.5-5.74.233-.072-5.217,7.766-.073.117h-.13a37.975,37.975,0,0,0-10.1.133H6015l-.089-.117-5.538-7.621.321.087-14.326,6.15.175-.337c.525,2.915,1.109,6.035,1.705,9.27v.189l-.159.117a37.648,37.648,0,0,0-7.04,7.214l-.117.159h-.2l-9.3-1.457.364-.2c-1.822,4.547-3.775,9.444-5.829,14.47l-.115-.423,7.752,5.348.175.117v.221a38.368,38.368,0,0,0,.117,10.069v.217l-.175.134-7.636,5.522.133-.438,6.119,14.34-.423-.232,9.283-1.69h.219l.146.189a38.324,38.324,0,0,0,7.186,7.039l.189.145v.22q-.743,4.676-1.457,9.3l-.235-.41,14.471,5.829-.45.131c1.807-2.608,3.585-5.187,5.362-7.736l.117-.189h.235a38.044,38.044,0,0,0,10.054-.1h.233l.131.175,5.509,7.636-.437-.117,14.355-6.107-.2.38c-.583-3.148-1.137-6.237-1.69-9.27v-.2l.175-.134a37.787,37.787,0,0,0,7.054-7.183l.117-.162h.2l9.3,1.457-.35.205,5.829-14.473.1.35-7.753-5.362-.131-.1v-.159a37.649,37.649,0,0,0-.089-10.1v-.145l.131-.087,7.651-5.509-.073.275c-2.361-5.566-4.372-10.3-6.077-14.368l.189.1-9.283,1.648a39.952,39.952,0,0,0-5.232-5.567c-.64-.554-1.121-.947-1.457-1.224-.162-.124-.318-.255-.466-.394l.51.351a17.46,17.46,0,0,1,1.457,1.179,36.011,36.011,0,0,1,5.348,5.51h-.117l9.27-1.75h.13v.131c1.734,4.054,3.774,8.744,6.165,14.326l.074.162-.147.1-7.666,5.422.1-.248a38.641,38.641,0,0,1,.131,10.2l-.118-.262,7.769,5.348.188.132-.087.2c-1.836,4.576-3.76,9.386-5.829,14.486l-.1.233h-.248l-9.3-1.457.306-.117a38.3,38.3,0,0,1-7.172,7.287l.133-.335q.831,4.575,1.705,9.269v.275l-.248.117-14.342,6.122-.262.116-.175-.232c-1.822-2.507-3.658-5.042-5.523-7.639l.35.162a39.038,39.038,0,0,1-10.274.117l.364-.162c-1.776,2.55-3.556,5.146-5.362,7.755l-.162.248-.291-.116-14.474-5.838-.277-.1v-.3c.5-3.074,1.006-6.178,1.457-9.3l.147.363a38.441,38.441,0,0,1-7.287-7.169l.364.13-9.27,1.692h-.306l-.117-.277c-2.1-4.941-4.168-9.808-6.106-14.34l-.115-.276.232-.176,7.651-5.522-.159.35a39.045,39.045,0,0,1-.1-10.2l.147.351c-2.683-1.865-5.321-3.7-7.74-5.364l-.233-.159.1-.264c2.026-5.026,4.008-9.923,5.829-14.47l.1-.248h.261l9.312,1.457-.321.131a38.454,38.454,0,0,1,7.185-7.287l-.117.306c-.581-3.234-1.151-6.4-1.674-9.269v-.249l.217-.086,14.356-6.092.188-.087.131.175,5.51,7.65-.235-.1a38.813,38.813,0,0,1,10.2-.086l-.2.1,5.376-7.737.089-.132h.144l14.442,5.829h.087v.1q-.765,4.5-1.166,6.892c-.144.774-.248,1.357-.319,1.779Z" fill="#0b2645"/>
                        <path id="Path_9892" data-name="Path 9892" d="M6000.216,8120.552v395.681a40.24,40.24,0,0,1-40.237,40.238H5809.455a40.241,40.241,0,0,1-40.237-40.238V8120.552a40.254,40.254,0,0,1,40.237-40.232h150.524a40.238,40.238,0,0,1,40.237,40.237" fill="#0b2645"/>
                        <path id="Path_9893" data-name="Path 9893" d="M5897.706,8098.759h-25.985a2.236,2.236,0,0,1,0-4.471h25.987a2.236,2.236,0,0,1,0,4.471" fill="#fff"/>
                        <path id="Path_9894" data-name="Path 9894" d="M5908.652,8098.759h-.978a2.236,2.236,0,0,1-.095-4.471h1.073a2.236,2.236,0,0,1,0,4.471" fill="#fff"/>
                      </g>
                    </g>
                  </g>
                </g>
                <g id="Group_845" data-name="Group 845">
                  <g id="Group_1295" data-name="Group 1295">
                    <g id="Group_1294" data-name="Group 1294" clip-path="url(#clip-path-3)">
                      <g id="Group_844" data-name="Group 844">
                        <rect id="Rectangle_1165" data-name="Rectangle 1165" width="206.408" height="451.563" transform="translate(5781.508 8092.614)" fill="#fff"/>
                        <rect id="Rectangle_1166" data-name="Rectangle 1166" width="206.408" height="65.401" transform="translate(5781.508 8092.613)" fill="#d8e2e8"/>
                        <path id="Path_9895" data-name="Path 9895" d="M5975.273,8181.587H5859.288a5,5,0,0,1,0-9.993h115.985a5,5,0,0,1,.374,9.993c-.125,0-.249,0-.374,0" fill="#d8e2e8"/>
                        <path id="Path_9896" data-name="Path 9896" d="M5977.924,8201.321H5857.229a2.35,2.35,0,1,1,0-4.7h120.7a2.35,2.35,0,0,1,0,4.7" fill="#d8e2e8"/>
                        <path id="Path_9897" data-name="Path 9897" d="M5977.924,8213.683H5857.229a2.35,2.35,0,1,1,0-4.7h120.7a2.35,2.35,0,0,1,0,4.7" fill="#d8e2e8"/>
                        <path id="Path_9898" data-name="Path 9898" d="M5917.521,8226.039h-60.293a2.35,2.35,0,1,1,0-4.7h60.293a2.35,2.35,0,1,1,0,4.7" fill="#d8e2e8"/>
                        <path id="Path_9899" data-name="Path 9899" d="M5843.643,8176.592a10.41,10.41,0,1,1-10.41-10.41,10.411,10.411,0,0,1,10.41,10.41h0" fill="#fdc61b"/>
                        <path id="Path_9900" data-name="Path 9900" d="M5841,8183.507a18.055,18.055,0,0,0-.1-1.845,10.973,10.973,0,0,0-.4-1.908,6.362,6.362,0,0,0-.734-1.644,3.522,3.522,0,0,0-1.179-1.116,3.264,3.264,0,0,0-1.689-.434,5.6,5.6,0,0,1-7.855,0,3.263,3.263,0,0,0-1.688.434,3.514,3.514,0,0,0-1.18,1.116,6.317,6.317,0,0,0-.735,1.644,10.821,10.821,0,0,0-.4,1.908c-.045.4-.051.835-.067,1.264a10.38,10.38,0,0,0,16.015.581" fill="#fff"/>
                        <path id="Path_9901" data-name="Path 9901" d="M5832.976,8167.725a4.821,4.821,0,1,0,3.407,1.412,4.64,4.64,0,0,0-3.407-1.412" fill="#fff"/>
                        <rect id="Rectangle_1167" data-name="Rectangle 1167" width="35.177" height="386.164" transform="translate(5781.508 8158.013)" fill="#15375e"/>
                      </g>
                    </g>
                  </g>
                </g>
                <g id="Group_847" data-name="Group 847">
                  <g id="Group_1297" data-name="Group 1297">
                    <g id="Group_1296" data-name="Group 1296" clip-path="url(#clip-path)">
                      <g id="Group_846" data-name="Group 846">
                        <path id="Path_9903" data-name="Path 9903" d="M5811.825,8239.482h-1.2V8212.1a1.441,1.441,0,0,0-1.443-1.439h-20.171a1.44,1.44,0,0,0-1.441,1.439v27.383h-1.2a.72.72,0,0,0-.721.72v1.2h26.9v-1.2a.72.72,0,0,0-.721-.72m-18.5-24.258a.721.721,0,0,1,.72-.72h2.4a.719.719,0,0,1,.721.719h0v2.4a.72.72,0,0,1-.721.721h-2.4a.72.72,0,0,1-.72-.721Zm0,5.766a.721.721,0,0,1,.72-.722h2.4a.721.721,0,0,1,.721.722v2.4a.72.72,0,0,1-.72.721h-2.4a.721.721,0,0,1-.72-.721Zm3.122,8.885h-2.4a.721.721,0,0,1-.72-.72v-2.4a.721.721,0,0,1,.72-.72h2.4a.719.719,0,0,1,.721.719h0v2.4a.719.719,0,0,1-.72.72h0m4.564,9.608h-3.843v-5.044a.722.722,0,0,1,.721-.722h2.4a.722.722,0,0,1,.72.722Zm3.843-10.328a.719.719,0,0,1-.72.72h-2.4a.719.719,0,0,1-.72-.72h0v-2.4a.719.719,0,0,1,.72-.72h2.4a.719.719,0,0,1,.721.719h0Zm0-5.765a.72.72,0,0,1-.72.721h-2.4a.72.72,0,0,1-.72-.721h0v-2.4a.722.722,0,0,1,.72-.722h2.4a.721.721,0,0,1,.721.722Zm0-5.765a.72.72,0,0,1-.721.721h-2.4a.72.72,0,0,1-.72-.721v-2.4a.719.719,0,0,1,.72-.72h2.4a.719.719,0,0,1,.721.719h0Z" fill="#fff"/>
                        <path id="Path_9904" data-name="Path 9904" d="M5789.681,8266.41a2.69,2.69,0,1,0-2.689-2.691h0a2.692,2.692,0,0,0,2.689,2.69m18.83,0a2.69,2.69,0,1,0-2.689-2.691h0a2.693,2.693,0,0,0,2.689,2.69m1.345,1.345h-2.69a2.681,2.681,0,0,0-1.9.781,6.153,6.153,0,0,1,3.157,4.6h2.773a1.342,1.342,0,0,0,1.346-1.34v-1.353a2.692,2.692,0,0,0-2.69-2.69m-10.76,0a4.7,4.7,0,1,0-.006,0h.006m3.228,1.345h-.35a6.5,6.5,0,0,1-5.758,0h-.348a4.843,4.843,0,0,0-4.843,4.842v1.211a2.018,2.018,0,0,0,2.017,2.017h12.106a2.018,2.018,0,0,0,2.017-2.017v-1.211a4.843,4.843,0,0,0-4.841-4.842m-9.4-.563a2.674,2.674,0,0,0-1.9-.781h-2.689a2.692,2.692,0,0,0-2.69,2.69v1.344a1.342,1.342,0,0,0,1.341,1.345h2.773a6.166,6.166,0,0,1,3.161-4.6" fill="#fff"/>
                        <path id="Path_9905" data-name="Path 9905" d="M5796.407,8354.789h5.38v-1.345h-1.794v-6.275h-1.6l-2.074,1.919,1.078,1.119a4.687,4.687,0,0,0,.771-.8h.028v4.034H5796.4Zm7.173-3.586a7.1,7.1,0,0,1-.294,1.989,7.48,7.48,0,0,1-.834,1.877,4.349,4.349,0,0,1-1.422,1.417,3.692,3.692,0,0,1-3.866,0,4.339,4.339,0,0,1-1.422-1.417,7.513,7.513,0,0,1-.834-1.877,6.862,6.862,0,0,1,0-3.979,7.533,7.533,0,0,1,.834-1.877,4.333,4.333,0,0,1,1.422-1.415,3.692,3.692,0,0,1,3.866,0,4.334,4.334,0,0,1,1.422,1.415,7.5,7.5,0,0,1,.834,1.877,7.1,7.1,0,0,1,.294,1.989m7.174,3.586v-7.172a3.587,3.587,0,0,1-3.588-3.586h-16.14a3.587,3.587,0,0,1-3.587,3.587h0v7.173a3.59,3.59,0,0,1,3.587,3.588h16.14a3.59,3.59,0,0,1,3.588-3.588m1.793-11.656v16.141a.908.908,0,0,1-.9.9h-25.1a.905.905,0,0,1-.9-.9v-16.141a.9.9,0,0,1,.9-.9h25.107a.907.907,0,0,1,.9.9" fill="#fff"/>
                        <path id="Path_9906" data-name="Path 9906" d="M5812.546,8403.5a6.091,6.091,0,0,1-1.313,3.93,3.938,3.938,0,0,1-3.164,1.639h-17.947a3.938,3.938,0,0,1-3.164-1.639,6.1,6.1,0,0,1-1.313-3.93,29.933,29.933,0,0,1,.179-3.372,18.044,18.044,0,0,1,.662-3.194,10.589,10.589,0,0,1,1.23-2.753,5.9,5.9,0,0,1,1.975-1.871,5.462,5.462,0,0,1,2.827-.726,9.382,9.382,0,0,0,13.155,0,5.462,5.462,0,0,1,2.827.726,5.9,5.9,0,0,1,1.975,1.871,10.606,10.606,0,0,1,1.23,2.753,18.24,18.24,0,0,1,.662,3.194,30.163,30.163,0,0,1,.179,3.372m-5.38-18.641a8.072,8.072,0,1,1-2.364-5.705,7.773,7.773,0,0,1,2.364,5.705" fill="#fff"/>
                        <path id="Path_9907" data-name="Path 9907" d="M5971.922,8104.406h0a.479.479,0,0,1-.479-.479h0v-.345a1.041,1.041,0,0,0-1.041-1.041h-8.3a2.979,2.979,0,0,0,0,5.958h8.3a1.042,1.042,0,0,0,1.042-1.042v-.345a.479.479,0,0,1,.479-.479h0a.479.479,0,0,0,.479-.479h0v-1.267a.481.481,0,0,0-.479-.481h0m-3.458,2.88h-1.412a1.767,1.767,0,0,1,0-3.534h1.414a1.767,1.767,0,0,1,0,3.534" fill="#0b2645"/>
                        <path id="Path_9908" data-name="Path 9908" d="M5951.917,8108.5h0a.873.873,0,0,0,.871-.871v-6.55a.872.872,0,0,0-1.743,0v6.549a.872.872,0,0,0,.872.871" fill="#0b2645"/>
                        <path id="Path_9909" data-name="Path 9909" d="M5948.7,8108.5h0a.872.872,0,0,0,.871-.872v-4.883a.871.871,0,1,0-1.743,0h0v4.884a.872.872,0,0,0,.871.872" fill="#0b2645"/>
                        <path id="Path_9910" data-name="Path 9910" d="M5945.481,8108.5h0a.872.872,0,0,0,.87-.872v-3a.871.871,0,0,0-1.741,0v3a.873.873,0,0,0,.871.872" fill="#0b2645"/>
                        <path id="Path_9911" data-name="Path 9911" d="M5942.263,8108.5h0a.872.872,0,0,0,.871-.871v-1.06a.871.871,0,1,0-1.743,0v1.059a.872.872,0,0,0,.871.871" fill="#0b2645"/>
                        <path id="Path_9912" data-name="Path 9912" d="M5821.469,8107.287H5804.68a3.237,3.237,0,0,1-.114-6.473h16.9a3.237,3.237,0,0,1,.114,6.473h-.114" fill="#0b2645"/>
                      </g>
                    </g>
                  </g>
                </g>
                <g id="Group_863" data-name="Group 863">
                  <g id="Group_1303" data-name="Group 1303">
                    <g id="Group_1302" data-name="Group 1302" clip-path="url(#clip-path)">
                      <g id="Group_862" data-name="Group 862">
                        <path id="Path_9927" data-name="Path 9927" d="M5966.57,8276.947H5838.286a15.917,15.917,0,1,1,0-31.833H5966.57a15.917,15.917,0,0,1,0,31.833" fill="#d8e2e8"/>
                        <path id="Path_9928" data-name="Path 9928" d="M5838.286,8245.114a15.917,15.917,0,1,0,0,31.833H5925.9v-31.833Z" fill="#fdc61b"/>
                        <g id="Group_1301" data-name="Group 1301">
                          <path id="Path_10485" data-name="Path 10485" d="M5882.1,8125.152l.007,5.664a1.649,1.649,0,0,1-.135.666,1.76,1.76,0,0,1-.369.547,1.717,1.717,0,0,1-.548.368,1.693,1.693,0,0,1-1.118.076,1.613,1.613,0,0,1-.415-.172l0,1.848a3.535,3.535,0,0,0,.863.106,3.331,3.331,0,0,0,1.341-.271,3.43,3.43,0,0,0,1.825-1.83,3.34,3.34,0,0,0,.269-1.34l-.007-5.665Z" fill="#15375e"/>
                          <path id="Path_10486" data-name="Path 10486" d="M5891.34,8130.852a3.408,3.408,0,0,1-4.712,3.135,3.457,3.457,0,0,1-1.081-.713,3.325,3.325,0,0,1-.731-1.073,3.366,3.366,0,0,1-.269-1.341,3.415,3.415,0,0,1,.266-1.357,3.32,3.32,0,0,1,.728-1.078,3.413,3.413,0,0,1,2.4-.972,3.6,3.6,0,0,1,1.326.242,3.2,3.2,0,0,1,1.078.689,3.239,3.239,0,0,1,.728,1.073,3.518,3.518,0,0,1,.269,1.4m-1.708,0a1.851,1.851,0,0,0-.134-.717,1.69,1.69,0,0,0-.364-.552,1.558,1.558,0,0,0-.537-.353,1.812,1.812,0,0,0-1.31,0,1.558,1.558,0,0,0-.534.355,1.672,1.672,0,0,0-.356.553,1.889,1.889,0,0,0-.13.717,1.8,1.8,0,0,0,.131.69,1.747,1.747,0,0,0,.358.551,1.666,1.666,0,0,0,.535.369,1.62,1.62,0,0,0,.655.134,1.71,1.71,0,0,0,.655-.127,1.642,1.642,0,0,0,.536-.354,1.673,1.673,0,0,0,.363-.553,1.84,1.84,0,0,0,.132-.714" fill="#15375e"/>
                          <path id="Path_10487" data-name="Path 10487" d="M5898.856,8130.842a3.407,3.407,0,0,1-4.712,3.135,3.432,3.432,0,0,1-1.081-.713,3.3,3.3,0,0,1-.731-1.073,3.531,3.531,0,0,1,0-2.7,3.286,3.286,0,0,1,.728-1.078,3.41,3.41,0,0,1,2.4-.972,3.584,3.584,0,0,1,1.325.241,3.214,3.214,0,0,1,1.079.689,3.265,3.265,0,0,1,.727,1.073,3.508,3.508,0,0,1,.269,1.4m-1.707,0a1.854,1.854,0,0,0-.135-.717,1.7,1.7,0,0,0-.364-.551,1.565,1.565,0,0,0-.537-.354,1.762,1.762,0,0,0-.655-.122,1.74,1.74,0,0,0-.655.124,1.524,1.524,0,0,0-.534.355,1.681,1.681,0,0,0-.356.552,1.892,1.892,0,0,0-.13.717,1.8,1.8,0,0,0,.132.69,1.725,1.725,0,0,0,.357.552,1.647,1.647,0,0,0,.535.368,1.6,1.6,0,0,0,.655.134,1.712,1.712,0,0,0,.655-.126,1.64,1.64,0,0,0,.536-.355,1.662,1.662,0,0,0,.363-.553,1.86,1.86,0,0,0,.133-.714" fill="#15375e"/>
                          <path id="Path_10488" data-name="Path 10488" d="M5906.148,8134.1h0a.776.776,0,0,1-.628-.32l-.4-.561a5.408,5.408,0,0,1-.5.394,3.715,3.715,0,0,1-.548.319,3.343,3.343,0,0,1-.563.206,3.127,3.127,0,0,1-.732.085,3.229,3.229,0,0,1-2.231-.959,3.352,3.352,0,0,1-.707-1.073,3.679,3.679,0,0,1,0-2.7,3.335,3.335,0,0,1,.7-1.08,3.232,3.232,0,0,1,1.043-.716,3.2,3.2,0,0,1,1.275-.26,2.858,2.858,0,0,1,.447.036,2.414,2.414,0,0,1,.45.116,1.876,1.876,0,0,1,.411.213,1.252,1.252,0,0,1,.325.324l0-3,1.65,0Zm-1.654-3.268a1.677,1.677,0,0,0-.13-.651,1.872,1.872,0,0,0-.351-.558,1.769,1.769,0,0,0-.52-.389,1.414,1.414,0,0,0-.633-.147,1.691,1.691,0,0,0-.633.121,1.508,1.508,0,0,0-.516.346,1.622,1.622,0,0,0-.344.549,2,2,0,0,0-.125.733,1.83,1.83,0,0,0,.472,1.229,1.611,1.611,0,0,0,.517.378,1.48,1.48,0,0,0,.633.137,1.409,1.409,0,0,0,.633-.148,1.752,1.752,0,0,0,.519-.391,1.9,1.9,0,0,0,.35-.558,1.7,1.7,0,0,0,.128-.651" fill="#15375e"/>
                          <path id="Path_10489" data-name="Path 10489" d="M5886.423,8142.554a2.5,2.5,0,0,1-.2,1,2.622,2.622,0,0,1-1.373,1.376,2.5,2.5,0,0,1-1,.205l-4.3,0-.01-8.6,4.3,0a2.483,2.483,0,0,1,1,.2,2.62,2.62,0,0,1,1.376,1.372,2.461,2.461,0,0,1,.205,1,1.9,1.9,0,0,1-.065.492,2.415,2.415,0,0,1-.185.487,2.081,2.081,0,0,1-.288.426,1.676,1.676,0,0,1-.371.319,1.334,1.334,0,0,1,.378.308,2.165,2.165,0,0,1,.288.429,2.209,2.209,0,0,1,.184.489,2.113,2.113,0,0,1,.064.5m-5.164-2.574,2.58,0a.853.853,0,0,0,.609-.249.842.842,0,0,0,.183-.277.873.873,0,0,0,.065-.339.85.85,0,0,0-.249-.609.873.873,0,0,0-.274-.182.854.854,0,0,0-.336-.066l-2.58,0Zm0,3.438,2.58,0a.851.851,0,0,0,.792-.523.83.83,0,0,0,.065-.336.842.842,0,0,0-.066-.336.843.843,0,0,0-.456-.456.846.846,0,0,0-.337-.065l-2.58,0Z" fill="#15375e"/>
                          <path id="Path_10490" data-name="Path 10490" d="M5893.89,8141.734a3.365,3.365,0,0,1-.99,2.416,3.393,3.393,0,0,1-2.4.978,3.339,3.339,0,0,1-1.32-.259,3.428,3.428,0,0,1-1.081-.713,3.291,3.291,0,0,1-.731-1.073,3.355,3.355,0,0,1-.268-1.341,3.394,3.394,0,0,1,.265-1.356,3.3,3.3,0,0,1,.728-1.078,3.406,3.406,0,0,1,2.4-.972,3.591,3.591,0,0,1,1.326.241,3.209,3.209,0,0,1,1.078.689,3.272,3.272,0,0,1,.727,1.073,3.515,3.515,0,0,1,.269,1.4m-1.707,0a1.844,1.844,0,0,0-.135-.717,1.677,1.677,0,0,0-.364-.551,1.577,1.577,0,0,0-.537-.354,1.808,1.808,0,0,0-1.31,0,1.522,1.522,0,0,0-.534.355,1.682,1.682,0,0,0-.356.552,1.89,1.89,0,0,0-.13.717,1.814,1.814,0,0,0,.132.69,1.717,1.717,0,0,0,.357.552,1.684,1.684,0,0,0,.535.368,1.6,1.6,0,0,0,.655.134,1.692,1.692,0,0,0,.655-.127,1.631,1.631,0,0,0,.537-.354,1.674,1.674,0,0,0,.362-.553,1.852,1.852,0,0,0,.133-.714" fill="#15375e"/>
                          <path id="Path_10491" data-name="Path 10491" d="M5901.429,8141.724a3.374,3.374,0,0,1-.991,2.417,3.41,3.41,0,0,1-1.076.715,3.478,3.478,0,0,1-2.645,0,3.444,3.444,0,0,1-1.081-.713,3.32,3.32,0,0,1-.731-1.074,3.359,3.359,0,0,1-.269-1.341,3.422,3.422,0,0,1,.266-1.356,3.309,3.309,0,0,1,.728-1.078,3.413,3.413,0,0,1,2.4-.972,3.569,3.569,0,0,1,1.326.242,3.212,3.212,0,0,1,1.078.688,3.269,3.269,0,0,1,.728,1.074,3.526,3.526,0,0,1,.269,1.394m-1.708,0a1.857,1.857,0,0,0-.134-.718,1.706,1.706,0,0,0-.364-.551,1.56,1.56,0,0,0-.537-.353,1.8,1.8,0,0,0-1.31,0,1.563,1.563,0,0,0-.534.355,1.667,1.667,0,0,0-.356.552,1.9,1.9,0,0,0-.13.718,1.8,1.8,0,0,0,.131.689,1.736,1.736,0,0,0,.358.552,1.665,1.665,0,0,0,.534.369,1.629,1.629,0,0,0,.655.134,1.715,1.715,0,0,0,.656-.127,1.639,1.639,0,0,0,.536-.355,1.659,1.659,0,0,0,.363-.552,1.858,1.858,0,0,0,.132-.714" fill="#15375e"/>
                          <path id="Path_10492" data-name="Path 10492" d="M5908.209,8138.691l-1.884,0-2.438,3.1-.006-5.287-1.651,0,.01,8.606,1.651,0v-.822l1.139-1.514,1.3,2.333,1.884,0-2.135-3.737Z" fill="#15375e"/>
                          <path id="Path_10493" data-name="Path 10493" d="M5910.742,8137.071a1.007,1.007,0,0,1-.082.405,1.063,1.063,0,0,1-.224.327,1.087,1.087,0,0,1-.334.223,1.045,1.045,0,0,1-.814,0,1.054,1.054,0,0,1-.331-.222,1.066,1.066,0,0,1-.222-.327.988.988,0,0,1-.083-.4,1.006,1.006,0,0,1,.082-.4,1.061,1.061,0,0,1,.222-.331,1.034,1.034,0,0,1,.329-.222,1.053,1.053,0,0,1,.815,0,1.084,1.084,0,0,1,.334.222,1.04,1.04,0,0,1,.225.33,1.011,1.011,0,0,1,.083.4" fill="#fdc61b"/>
                          <path id="Path_10494" data-name="Path 10494" d="M5912.825,8145.1l-1.638,0-.008-6.427a.865.865,0,0,1,.655.3l.282.324a2.882,2.882,0,0,1,1.943-.752,2.757,2.757,0,0,1,1.11.223,2.862,2.862,0,0,1,.913.617,2.942,2.942,0,0,1,.616.917,2.81,2.81,0,0,1,.227,1.119l0,3.673-1.638,0,0-3.673a1.206,1.206,0,0,0-.1-.477,1.234,1.234,0,0,0-.264-.392,1.252,1.252,0,0,0-.391-.264,1.165,1.165,0,0,0-.474-.1,1.244,1.244,0,0,0-.882.36,1.221,1.221,0,0,0-.263.394,1.2,1.2,0,0,0-.1.477Z" fill="#15375e"/>
                          <path id="Path_10495" data-name="Path 10495" d="M5924.115,8144.285a3.161,3.161,0,0,1-.258,1.272,3.3,3.3,0,0,1-.705,1.038,3.363,3.363,0,0,1-1.044.7,3.18,3.18,0,0,1-1.276.258l-.822-.012V8145.9l.81.012a1.91,1.91,0,0,0,.654-.1,1.364,1.364,0,0,0,.457-.27,1.342,1.342,0,0,0,.3-.393,2.49,2.49,0,0,0,.177-.468.716.716,0,0,1-.276.255,1.955,1.955,0,0,1-.4.162,2.626,2.626,0,0,1-.457.087,4.359,4.359,0,0,1-.441.024,3.456,3.456,0,0,1-1.275-.234,3.047,3.047,0,0,1-1.749-1.734,3.725,3.725,0,0,1-.258-1.422,3.5,3.5,0,0,1,.258-1.351,3.351,3.351,0,0,1,.705-1.08,3.248,3.248,0,0,1,1.044-.714,3.172,3.172,0,0,1,1.275-.258,2.506,2.506,0,0,1,.618.078,3.2,3.2,0,0,1,.594.216,3.756,3.756,0,0,1,.55.324,4.531,4.531,0,0,1,.488.4l.383-.458a.85.85,0,0,1,.65-.3Zm-1.65-2.46a1.687,1.687,0,0,0-.13-.651,1.852,1.852,0,0,0-.351-.558,1.706,1.706,0,0,0-.519-.391,1.4,1.4,0,0,0-.633-.147,1.755,1.755,0,0,0-.633.114,1.469,1.469,0,0,0-.516.336,1.594,1.594,0,0,0-.345.549,2.075,2.075,0,0,0-.126.748,1.965,1.965,0,0,0,.126.723,1.656,1.656,0,0,0,.345.549,1.507,1.507,0,0,0,.516.351,1.644,1.644,0,0,0,.633.123,1.4,1.4,0,0,0,.633-.147,1.717,1.717,0,0,0,.519-.39,1.873,1.873,0,0,0,.351-.558,1.687,1.687,0,0,0,.13-.651" fill="#15375e"/>
                          <rect id="Rectangle_1365" data-name="Rectangle 1365" width="1.65" height="6.427" transform="translate(5908.874 8138.678) rotate(-0.077)" fill="#15375e"/>
                          <g id="Group_1299" data-name="Group 1299">
                            <g id="Group_1298" data-name="Group 1298">
                              <path id="Path_10496" data-name="Path 10496" d="M5866.087,8140.537l-4.386-.769a4.139,4.139,0,0,1-3.363-3.363l-.419-2.381-.35-2,4.384.766a4.138,4.138,0,0,1,1.931.893,4.086,4.086,0,0,1,.458.443,3.874,3.874,0,0,1,.372.492,4.1,4.1,0,0,1,.6,1.535l.24,1.371.113.638.112.644Z" fill="#fdc61b"/>
                            </g>
                          </g>
                          <g id="Group_1300" data-name="Group 1300">
                            <path id="Path_10497" data-name="Path 10497" d="M5853.437,8140.792a.573.573,0,0,0,.169.406.3.3,0,0,0,.056.051.555.555,0,0,0,.064.042l1.116.644,2.076,1.2h0l4.619,2.668a.577.577,0,0,0,.577,0h0l7.812-4.513a.555.555,0,0,0,.064-.042.257.257,0,0,0,.056-.051.567.567,0,0,0,.169-.406v-4.35a.347.347,0,0,1,.174-.3l2.243-1.295a.346.346,0,0,1,.52.3v5.646a3.527,3.527,0,0,1-1.757,3.044l-7.815,4.511a3.523,3.523,0,0,1-3.515,0l-7.813-4.511a3.526,3.526,0,0,1-1.757-3.044v-5.646a.346.346,0,0,1,.52-.3l2.244,1.295a.348.348,0,0,1,.173.3Z" fill="#15375e"/>
                            <path id="Path_10498" data-name="Path 10498" d="M5851.526,8129.288a3.521,3.521,0,0,1,.731-.563l7.813-4.513a3.343,3.343,0,0,1,.419-.2,3.537,3.537,0,0,1,2.68,0,3.123,3.123,0,0,1,.416.2l5.411,3.125,2.4,1.388a3.516,3.516,0,0,1,.387.259,3.466,3.466,0,0,1,.345.3,3.537,3.537,0,0,1,1.025,2.482v.429a.348.348,0,0,1-.173.3l-1.259.727-.984.569a.347.347,0,0,1-.521-.3v-1.724a.572.572,0,0,0-.076-.284.146.146,0,0,0-.022-.037c-.009-.015-.022-.029-.032-.044a.314.314,0,0,0-.039-.042c0-.007-.012-.012-.017-.019a.249.249,0,0,0-.039-.032l-.008,0a.525.525,0,0,0-.056-.037l-4.971-2.872-2.841-1.641h0a.741.741,0,0,0-.068-.034.4.4,0,0,0-.108-.032.554.554,0,0,0-.223,0,.428.428,0,0,0-.11.032.732.732,0,0,0-.068.034l-4.619,2.668h0l-2.078,1.2-1.114.644a.364.364,0,0,0-.064.044.249.249,0,0,0-.039.032c0,.007-.012.012-.017.019s-.027.027-.039.042a.192.192,0,0,0-.032.047.2.2,0,0,0-.029.046.581.581,0,0,0-.069.272v1.724a.346.346,0,0,1-.52.3l-2.244-1.295a.348.348,0,0,1-.173-.3v-.428A3.534,3.534,0,0,1,5851.526,8129.288Z" fill="#15375e"/>
                          </g>
                        </g>
                      </g>
                    </g>
                  </g>
                </g>
                <g id="Group_867" data-name="Group 867">
                  <g id="Group_1305" data-name="Group 1305">
                    <g id="Group_1304" data-name="Group 1304" clip-path="url(#clip-path)">
                      <g id="Group_866" data-name="Group 866">
                        <path id="Path_9930" data-name="Path 9930" d="M5807.255,8448.341c0-.1.427-.172.962-.179s.962.07.962.159-.426.172-.962.172-.962-.069-.962-.152" fill="#fff"/>
                        <path id="Path_9931" data-name="Path 9931" d="M5803.4,8448.372c0-.095.427-.172.962-.178s.962.069.962.158-.426.172-.962.172-.962-.062-.962-.152" fill="#fff"/>
                        <path id="Path_9932" data-name="Path 9932" d="M5799.546,8448.422c0-.095.427-.172.962-.179s.962.071.962.159-.426.172-.962.172-.962-.082-.962-.152" fill="#fff"/>
                        <path id="Path_9933" data-name="Path 9933" d="M5795.691,8448.422c0-.095.427-.172.962-.179s.962.071.962.159-.426.172-.962.172-.962-.051-.962-.152" fill="#fff"/>
                        <path id="Path_9934" data-name="Path 9934" d="M5791.836,8448.468c0-.095.433-.172.962-.178s.962.07.969.159-.433.172-.962.172-.969-.063-.969-.153" fill="#fff"/>
                        <path id="Path_9935" data-name="Path 9935" d="M5787.981,8448.423c.032-.1.427-.1.962-.128s.969.07.969.159-.433.173-.962.173-.994-.1-.969-.2" fill="#fff"/>
                        <path id="Path_9936" data-name="Path 9936" d="M5785.236,8446.034c.09,0,.268.356.542.784s.548.745.484.815-.459-.16-.765-.638-.35-.949-.261-.962" fill="#fff"/>
                        <path id="Path_9937" data-name="Path 9937" d="M5785.07,8442.191c.089,0,.172.427.172.962s-.064.962-.16.962-.165-.427-.171-.962.068-.962.159-.962" fill="#fff"/>
                        <path id="Path_9938" data-name="Path 9938" d="M5785.038,8438.336c.089,0,.172.427.172.962s-.064.962-.159.962-.166-.427-.172-.962.068-.962.159-.962" fill="#fff"/>
                        <path id="Path_9939" data-name="Path 9939" d="M5785.006,8434.482c.089,0,.172.427.172.962s-.064.962-.159.962-.166-.428-.172-.962.07-.962.159-.962" fill="#fff"/>
                        <path id="Path_9940" data-name="Path 9940" d="M5784.974,8430.627c.09,0,.172.433.172.962s-.064.962-.153.962-.172-.427-.178-.962.07-.962.159-.962" fill="#fff"/>
                        <path id="Path_9941" data-name="Path 9941" d="M5784.941,8426.759c.09,0,.172.435.172.962s-.063.962-.159.97-.165-.434-.172-.963.07-.969.159-.969" fill="#fff"/>
                        <path id="Path_9942" data-name="Path 9942" d="M5785.247,8422.971c.09.038-.038.446-.115.941s-.1.937-.2.937-.211-.427-.128-.987.37-.922.446-.891" fill="#fff"/>
                        <path id="Path_9943" data-name="Path 9943" d="M5788.332,8421.027c0,.095-.421.152-.905.3s-.866.325-.917.242.28-.4.821-.562,1.007-.1,1,.02" fill="#fff"/>
                        <path id="Path_9944" data-name="Path 9944" d="M5792.188,8420.963c0,.09-.433.166-.962.172s-.969-.062-.969-.159.434-.165.962-.171.963.063.969.157" fill="#fff"/>
                        <path id="Path_9945" data-name="Path 9945" d="M5796.042,8420.93c0,.09-.433.166-.962.172s-.969-.063-.969-.158.434-.165.962-.172.963.063.969.158" fill="#fff"/>
                        <path id="Path_9946" data-name="Path 9946" d="M5799.89,8420.9c0,.089-.427.165-.962.172s-.962-.064-.962-.159.427-.166.962-.172.962.063.962.159" fill="#fff"/>
                        <path id="Path_9947" data-name="Path 9947" d="M5803.777,8420.866c0,.09-.427.166-.962.172s-.962-.064-.962-.159.427-.165.962-.172.962.064.962.159" fill="#fff"/>
                        <path id="Path_9948" data-name="Path 9948" d="M5807.6,8420.831c0,.09-.427.165-.962.172s-.962-.063-.962-.159.427-.165.962-.172.962.064.962.159" fill="#fff"/>
                        <path id="Path_9949" data-name="Path 9949" d="M5811.249,8421.668c-.063.07-.421-.165-.879-.376s-.854-.344-.848-.434.479-.108,1,.134.8.625.732.676" fill="#fff"/>
                        <path id="Path_9950" data-name="Path 9950" d="M5812.428,8425.193c-.09,0-.166-.434-.172-.962a3.636,3.636,0,0,1,0-.955c.064-.034.3.38.306.948s-.039.969-.134.969" fill="#fff"/>
                        <path id="Path_9951" data-name="Path 9951" d="M5812.46,8429.047c-.09,0-.166-.434-.172-.962s.063-.969.159-.969.166.434.172.962-.064.962-.159.969" fill="#fff"/>
                        <path id="Path_9952" data-name="Path 9952" d="M5812.492,8432.9c-.089,0-.165-.434-.172-.962s.064-.969.159-.969.166.434.172.962-.063.963-.159.969" fill="#fff"/>
                        <path id="Path_9953" data-name="Path 9953" d="M5812.525,8436.751c-.089,0-.166-.427-.172-.962s.064-.962.159-.962.166.427.172.962-.064.962-.159.962" fill="#fff"/>
                        <path id="Path_9954" data-name="Path 9954" d="M5812.557,8440.606c-.089,0-.166-.428-.172-.963s.064-.962.159-.962.166.428.172.962-.064.963-.159.963" fill="#fff"/>
                        <path id="Path_9955" data-name="Path 9955" d="M5812.589,8444.461c-.09,0-.166-.427-.172-.962s.063-.962.159-.962.166.427.172.962-.051.962-.159.962" fill="#fff"/>
                        <path id="Path_9956" data-name="Path 9956" d="M5811.014,8447.788c-.045-.083.274-.357.606-.739s.56-.732.637-.693,0,.49-.4.917-.8.579-.841.516" fill="#fff"/>
                        <path id="Path_9957" data-name="Path 9957" d="M5807.255,8324.513c0-.095.427-.171.962-.178s.962.07.962.159-.426.172-.962.172-.962-.068-.962-.153" fill="#fff"/>
                        <path id="Path_9958" data-name="Path 9958" d="M5803.4,8324.545c0-.093.427-.172.962-.178s.962.071.962.157-.426.172-.962.172-.962-.063-.962-.152" fill="#fff"/>
                        <path id="Path_9959" data-name="Path 9959" d="M5799.546,8324.6c0-.1.427-.172.962-.179s.962.071.962.159-.426.172-.962.172-.962-.082-.962-.152" fill="#fff"/>
                        <path id="Path_9960" data-name="Path 9960" d="M5795.691,8324.6c0-.1.427-.172.962-.179s.962.071.962.159-.426.172-.962.172-.962-.051-.962-.152" fill="#fff"/>
                        <path id="Path_9961" data-name="Path 9961" d="M5791.836,8324.638c0-.095.433-.172.962-.178s.962.07.969.159-.433.171-.962.171-.969-.062-.969-.152" fill="#fff"/>
                        <path id="Path_9962" data-name="Path 9962" d="M5787.981,8324.6c.032-.1.427-.1.962-.128s.969.07.969.159-.433.173-.962.173-.994-.1-.969-.2" fill="#fff"/>
                        <path id="Path_9963" data-name="Path 9963" d="M5785.236,8322.207c.09,0,.268.357.542.783s.548.746.484.815-.459-.158-.765-.637-.35-.949-.261-.962" fill="#fff"/>
                        <path id="Path_9964" data-name="Path 9964" d="M5785.07,8318.364c.089,0,.172.427.172.962s-.064.962-.16.962-.165-.427-.171-.962.068-.962.159-.962" fill="#fff"/>
                        <path id="Path_9965" data-name="Path 9965" d="M5785.038,8314.515c.089,0,.172.428.172.962s-.064.963-.159.963-.166-.428-.172-.963.068-.962.159-.962" fill="#fff"/>
                        <path id="Path_9966" data-name="Path 9966" d="M5785.006,8310.655c.089,0,.172.427.172.962s-.064.962-.159.962-.166-.427-.172-.962.07-.962.159-.962" fill="#fff"/>
                        <path id="Path_9967" data-name="Path 9967" d="M5784.974,8306.8c.09,0,.172.434.172.962s-.064.962-.153.962-.172-.427-.178-.962.07-.962.159-.962" fill="#fff"/>
                        <path id="Path_9968" data-name="Path 9968" d="M5784.941,8302.932c.09,0,.172.435.172.962s-.063.963-.159.97-.165-.435-.172-.962.07-.97.159-.97" fill="#fff"/>
                        <path id="Path_9969" data-name="Path 9969" d="M5785.247,8299.144c.09.036-.038.446-.115.941s-.1.938-.2.938-.211-.428-.128-.988.37-.922.446-.891" fill="#fff"/>
                        <path id="Path_9970" data-name="Path 9970" d="M5788.332,8297.2c0,.095-.421.152-.905.3s-.866.325-.917.242.28-.4.821-.562,1.007-.1,1,.02" fill="#fff"/>
                        <path id="Path_9971" data-name="Path 9971" d="M5792.188,8297.135c0,.089-.433.165-.962.172s-.969-.063-.969-.158.434-.166.962-.173.963.063.969.159" fill="#fff"/>
                        <path id="Path_9972" data-name="Path 9972" d="M5796.042,8297.1c0,.09-.433.166-.962.173s-.969-.064-.969-.159.434-.166.962-.172.963.063.969.158" fill="#fff"/>
                        <path id="Path_9973" data-name="Path 9973" d="M5799.89,8297.071c0,.089-.427.166-.962.172s-.962-.064-.962-.159.427-.166.962-.172.962.063.962.159" fill="#fff"/>
                        <path id="Path_9974" data-name="Path 9974" d="M5803.777,8297.038c0,.092-.427.168-.962.173s-.962-.062-.962-.159.427-.166.962-.172.962.064.962.157" fill="#fff"/>
                        <path id="Path_9975" data-name="Path 9975" d="M5807.6,8297.008c0,.089-.427.165-.962.172s-.962-.063-.962-.16.427-.164.962-.17.962.063.962.159" fill="#fff"/>
                        <path id="Path_9976" data-name="Path 9976" d="M5811.249,8297.836c-.063.07-.421-.166-.879-.376s-.854-.344-.848-.434.479-.108,1,.134.8.625.732.676" fill="#fff"/>
                        <path id="Path_9977" data-name="Path 9977" d="M5812.428,8301.365c-.09,0-.166-.434-.172-.962a3.644,3.644,0,0,1,0-.956c.064-.032.3.382.306.949s-.039.969-.134.969" fill="#fff"/>
                        <path id="Path_9978" data-name="Path 9978" d="M5812.46,8305.221c-.09,0-.166-.433-.172-.962s.063-.968.159-.968.166.433.172.962-.064.962-.159.968" fill="#fff"/>
                        <path id="Path_9979" data-name="Path 9979" d="M5812.492,8309.075c-.089,0-.165-.434-.172-.962s.064-.97.159-.97.166.435.172.964-.063.96-.159.968" fill="#fff"/>
                        <path id="Path_9980" data-name="Path 9980" d="M5812.525,8312.924c-.089,0-.166-.427-.172-.962s.064-.962.159-.962.166.427.172.962-.064.962-.159.962" fill="#fff"/>
                        <path id="Path_9981" data-name="Path 9981" d="M5812.557,8316.778c-.089,0-.166-.428-.172-.963s.064-.963.159-.963.166.428.172.963-.064.963-.159.963" fill="#fff"/>
                        <path id="Path_9982" data-name="Path 9982" d="M5812.589,8320.633c-.09,0-.166-.427-.172-.962s.063-.962.159-.962.166.427.172.962-.051.962-.159.962" fill="#fff"/>
                        <path id="Path_9983" data-name="Path 9983" d="M5811.014,8323.958c-.045-.083.274-.357.606-.739s.56-.732.637-.693,0,.489-.4.917-.8.58-.841.516" fill="#fff"/>
                        <path id="Path_9984" data-name="Path 9984" d="M5807.255,8200.687c0-.1.427-.172.962-.179s.962.07.962.16-.426.171-.962.171-.962-.067-.962-.152" fill="#fff"/>
                        <path id="Path_9985" data-name="Path 9985" d="M5803.4,8200.718c0-.095.427-.172.962-.178s.962.07.962.159-.426.172-.962.172-.962-.063-.962-.153" fill="#fff"/>
                        <path id="Path_9986" data-name="Path 9986" d="M5799.546,8200.764c0-.095.427-.172.962-.179s.962.071.962.16-.426.172-.962.172-.962-.083-.962-.153" fill="#fff"/>
                        <path id="Path_9987" data-name="Path 9987" d="M5795.691,8200.764c0-.095.427-.172.962-.179s.962.071.962.16-.426.172-.962.172-.962-.051-.962-.153" fill="#fff"/>
                        <path id="Path_9988" data-name="Path 9988" d="M5791.836,8200.814c0-.1.433-.173.962-.18s.962.07.969.16-.433.171-.962.171-.969-.062-.969-.151" fill="#fff"/>
                        <path id="Path_9989" data-name="Path 9989" d="M5787.981,8200.769c.032-.1.427-.1.962-.127s.969.068.969.159-.433.172-.962.172-.994-.1-.969-.2" fill="#fff"/>
                        <path id="Path_9990" data-name="Path 9990" d="M5785.236,8198.38c.09,0,.268.357.542.784s.548.745.484.816-.459-.16-.765-.639-.35-.949-.261-.962" fill="#fff"/>
                        <path id="Path_9991" data-name="Path 9991" d="M5785.07,8194.537c.089,0,.172.428.172.962s-.064.962-.16.962-.165-.427-.171-.962.068-.962.159-.962" fill="#fff"/>
                        <path id="Path_9992" data-name="Path 9992" d="M5785.038,8190.682c.089,0,.172.428.172.962s-.064.962-.159.962-.166-.428-.172-.962.068-.962.159-.962" fill="#fff"/>
                        <path id="Path_9993" data-name="Path 9993" d="M5785.006,8186.828c.089,0,.172.428.172.963s-.064.962-.159.962-.166-.427-.172-.962.07-.963.159-.963" fill="#fff"/>
                        <path id="Path_9994" data-name="Path 9994" d="M5784.974,8182.973c.09,0,.172.433.172.962s-.064.962-.153.962-.172-.427-.178-.962.07-.962.159-.962" fill="#fff"/>
                        <path id="Path_9995" data-name="Path 9995" d="M5784.941,8179.107c.09,0,.172.433.172.962s-.063.962-.159.969-.165-.434-.172-.962.07-.969.159-.969" fill="#fff"/>
                        <path id="Path_9996" data-name="Path 9996" d="M5785.247,8175.317c.09.038-.038.446-.115.943s-.1.937-.2.937-.211-.427-.128-.988.37-.924.446-.892" fill="#fff"/>
                        <path id="Path_9997" data-name="Path 9997" d="M5788.332,8173.373c0,.095-.421.153-.905.3s-.866.324-.917.242.28-.4.821-.561,1.007-.1,1,.019" fill="#fff"/>
                        <path id="Path_9998" data-name="Path 9998" d="M5792.188,8173.308c0,.09-.433.166-.962.172s-.969-.063-.969-.159.434-.166.962-.172.963.064.969.159" fill="#fff"/>
                        <path id="Path_9999" data-name="Path 9999" d="M5796.042,8173.278c0,.089-.433.165-.962.172s-.969-.064-.969-.16.434-.165.962-.171.963.063.969.159" fill="#fff"/>
                        <path id="Path_10000" data-name="Path 10000" d="M5799.89,8173.245c0,.089-.427.166-.962.172s-.962-.064-.962-.159.427-.166.962-.172.962.063.962.159" fill="#fff"/>
                        <path id="Path_10001" data-name="Path 10001" d="M5803.777,8173.213c0,.089-.427.166-.962.172s-.962-.064-.962-.159.427-.166.962-.172.962.064.962.159" fill="#fff"/>
                        <path id="Path_10002" data-name="Path 10002" d="M5807.6,8173.181c0,.09-.427.166-.962.172s-.962-.064-.962-.159.427-.166.962-.172.962.064.962.159" fill="#fff"/>
                        <path id="Path_10003" data-name="Path 10003" d="M5811.249,8174.009c-.063.07-.421-.166-.879-.376s-.854-.344-.848-.433.479-.108,1,.134.8.624.732.675" fill="#fff"/>
                        <path id="Path_10004" data-name="Path 10004" d="M5812.428,8177.538c-.09,0-.166-.433-.172-.962a3.644,3.644,0,0,1,0-.956c.064-.032.3.382.306.949s-.039.969-.134.969" fill="#fff"/>
                        <path id="Path_10005" data-name="Path 10005" d="M5812.46,8181.393c-.09,0-.166-.433-.172-.96s.063-.971.159-.971.166.433.172.963-.064.962-.159.968" fill="#fff"/>
                        <path id="Path_10006" data-name="Path 10006" d="M5812.492,8185.245c-.089,0-.165-.431-.172-.96s.064-.969.159-.969.166.433.172.962-.063.963-.159.968" fill="#fff"/>
                        <path id="Path_10007" data-name="Path 10007" d="M5812.525,8189.1c-.089,0-.166-.427-.172-.962s.064-.962.159-.962.166.427.172.962-.064.962-.159.962" fill="#fff"/>
                        <path id="Path_10008" data-name="Path 10008" d="M5812.557,8192.952c-.089,0-.166-.427-.172-.962s.064-.962.159-.962.166.427.172.962-.064.962-.159.962" fill="#fff"/>
                        <path id="Path_10009" data-name="Path 10009" d="M5812.589,8196.807c-.09,0-.166-.427-.172-.962s.063-.962.159-.962.166.427.172.962-.051.962-.159.962" fill="#fff"/>
                        <path id="Path_10010" data-name="Path 10010" d="M5811.014,8200.132c-.045-.083.274-.356.606-.739s.56-.732.637-.7,0,.49-.4.918-.8.579-.841.516" fill="#fff"/>
                        <path id="Path_10011" data-name="Path 10011" d="M5752.052,8433.145l22.14-.22a3.694,3.694,0,0,1,3.731,3.655h0l.222,22.14a3.7,3.7,0,0,1-3.657,3.731h0l-22.14.223a3.7,3.7,0,0,1-3.731-3.658l-.222-22.14a3.7,3.7,0,0,1,3.658-3.732" fill="#15375e"/>
                        <path id="Path_10012" data-name="Path 10012" d="M5767.753,8447.8a4.487,4.487,0,1,0-1.313,3.168,4.311,4.311,0,0,0,1.313-3.168m8.967-1.909v3.888a.669.669,0,0,1-.14.4.531.531,0,0,1-.35.229l-3.241.491a11.219,11.219,0,0,1-.682,1.593q.612.877,1.873,2.416a.672.672,0,0,1,.176.438.591.591,0,0,1-.157.4,18.048,18.048,0,0,1-1.734,1.89q-1.261,1.244-1.647,1.243a.857.857,0,0,1-.455-.156l-2.418-1.892a10.1,10.1,0,0,1-1.593.665,28.118,28.118,0,0,1-.509,3.257.59.59,0,0,1-.631.491h-3.887a.658.658,0,0,1-.428-.149.518.518,0,0,1-.2-.378l-.491-3.222a10.924,10.924,0,0,1-1.575-.648l-2.469,1.876a.641.641,0,0,1-.439.156.6.6,0,0,1-.437-.192,23.127,23.127,0,0,1-2.89-2.94.687.687,0,0,1-.122-.4.666.666,0,0,1,.14-.4q.262-.369.893-1.166t.946-1.234a8.625,8.625,0,0,1-.718-1.734l-3.2-.472a.548.548,0,0,1-.367-.22.658.658,0,0,1-.14-.411v-3.887a.681.681,0,0,1,.14-.4.523.523,0,0,1,.332-.227l3.257-.49a8.605,8.605,0,0,1,.684-1.612q-.7-1-1.874-2.418a.653.653,0,0,1-.175-.42.731.731,0,0,1,.157-.4,17.173,17.173,0,0,1,1.725-1.884q1.27-1.252,1.654-1.253a.751.751,0,0,1,.456.175l2.416,1.874a10.21,10.21,0,0,1,1.594-.666,28.665,28.665,0,0,1,.507-3.256.588.588,0,0,1,.631-.49h3.887a.651.651,0,0,1,.43.149.519.519,0,0,1,.2.375l.491,3.222a11.207,11.207,0,0,1,1.577.65l2.486-1.874a.562.562,0,0,1,.42-.159.676.676,0,0,1,.437.175,24.031,24.031,0,0,1,2.89,2.978.562.562,0,0,1,.124.386.666.666,0,0,1-.14.4q-.264.368-.9,1.164t-.946,1.235a10.437,10.437,0,0,1,.718,1.716l3.2.49a.553.553,0,0,1,.369.22.667.667,0,0,1,.14.411" fill="#fff"/>
                        <path id="Path_10013" data-name="Path 10013" d="M5823.612,8318.932l22.14-.222a3.694,3.694,0,0,1,3.731,3.655h0l.222,22.141a3.7,3.7,0,0,1-3.656,3.731l-22.14.222a3.7,3.7,0,0,1-3.732-3.658l-.221-22.138a3.7,3.7,0,0,1,3.658-3.732" fill="#15375e"/>
                        <path id="Path_10014" data-name="Path 10014" d="M5832.139,8336.948h0c0-.682.057-.367-3.573-7.631a2.02,2.02,0,0,0-3.61,0c-3.662,7.325-3.575,6.97-3.575,7.631h0c0,1.856,2.409,3.361,5.38,3.361s5.38-1.5,5.38-3.361m-5.38-6.728,3.027,6.055h-6.052Zm21.519,6.728c0-.682.057-.367-3.573-7.631a2.02,2.02,0,0,0-3.61,0c-3.662,7.325-3.575,6.97-3.575,7.631,0,1.856,2.409,3.361,5.38,3.361s5.379-1.5,5.379-3.361Zm-8.4-.673,3.027-6.055,3.025,6.055Zm3.7,5.381h-7.4v-12.39a3.367,3.367,0,0,0,1.95-2.405h5.448a.672.672,0,0,0,.672-.672h0v-1.346a.671.671,0,0,0-.67-.672h-6.07a3.33,3.33,0,0,0-5.348,0h-6.068a.67.67,0,0,0-.672.67v1.348a.673.673,0,0,0,.671.673h5.449a3.366,3.366,0,0,0,1.95,2.405v12.39h-7.4a.67.67,0,0,0-.672.67v1.347a.672.672,0,0,0,.671.673h17.486a.672.672,0,0,0,.672-.672h0v-1.349a.671.671,0,0,0-.67-.672h0" fill="#fff"/>
                      </g>
                    </g>
                  </g>
                </g>
              </g>
            </g>
          </g>
        </g>
      </g>
    </g>
    <g id="Group_877" data-name="Group 877">
      <rect id="Rectangle_1181" data-name="Rectangle 1181" width="97.516" height="3.573" transform="translate(5637.107 8424.729) rotate(-89.933)" fill="#15375e"/>
      <rect id="Rectangle_1182" data-name="Rectangle 1182" width="97.516" height="3.572" transform="translate(5659.961 8424.758) rotate(-89.925)" fill="#15375e"/>
      <g id="Group_876" data-name="Group 876">
        <g id="Group_1309" data-name="Group 1309">
          <g id="Group_1308" data-name="Group 1308" clip-path="url(#clip-path-7)">
            <g id="Group_875" data-name="Group 875">
              <path id="Path_10017" data-name="Path 10017" d="M5665.8,8331.536l-29.648-.041a4.286,4.286,0,1,1,.011-8.572l29.648.039a4.287,4.287,0,0,1-.011,8.573h0" fill="#fdc61b"/>
              <path id="Path_10018" data-name="Path 10018" d="M5627.633,8556.166h0a3.928,3.928,0,0,1-3.924-3.933l.014-10.359,7.86.014-.019,10.355a3.927,3.927,0,0,1-3.932,3.924h0" fill="#15375e"/>
              <path id="Path_10019" data-name="Path 10019" d="M5673.714,8556.228h0a3.927,3.927,0,0,1-3.924-3.933l.014-10.359,7.859.015-.014,10.358a3.928,3.928,0,0,1-3.932,3.925h0" fill="#15375e"/>
              <path id="Path_10020" data-name="Path 10020" d="M5671.445,8547.295l-41.874-.056a24.141,24.141,0,0,1-24.038-24.1l.141-106.175a24.142,24.142,0,0,1,24.1-24.033l41.874.058a24.142,24.142,0,0,1,24.04,24.1l-.142,106.175a24.141,24.141,0,0,1-24.106,24.033" fill="#fdc61b"/>
              <path id="Path_10021" data-name="Path 10021" d="M5620.353,8525.794h0a1.612,1.612,0,0,1-1.6-1.609l.142-107.875a1.608,1.608,0,0,1,3.215,0l-.145,107.881a1.61,1.61,0,0,1-1.609,1.6" fill="#fef3d1"/>
              <path id="Path_10022" data-name="Path 10022" d="M5635.445,8525.814h0a1.614,1.614,0,0,1-1.606-1.61l.143-107.878a1.608,1.608,0,0,1,3.215,0l-.145,107.879a1.611,1.611,0,0,1-1.609,1.605" fill="#fef3d1"/>
              <path id="Path_10023" data-name="Path 10023" d="M5650.536,8525.835h0a1.611,1.611,0,0,1-1.6-1.61l.143-107.878a1.607,1.607,0,0,1,3.215,0h0l-.145,107.879a1.612,1.612,0,0,1-1.61,1.606" fill="#fef3d1"/>
              <path id="Path_10024" data-name="Path 10024" d="M5665.629,8525.856h0a1.615,1.615,0,0,1-1.606-1.61l.143-107.879a1.607,1.607,0,1,1,3.215,0l-.145,107.88a1.61,1.61,0,0,1-1.609,1.6" fill="#fef3d1"/>
              <path id="Path_10025" data-name="Path 10025" d="M5680.721,8525.518h0a1.61,1.61,0,0,1-1.6-1.608l.143-107.879a1.608,1.608,0,1,1,3.215,0h0l-.145,107.88a1.613,1.613,0,0,1-1.61,1.6" fill="#fef3d1"/>
            </g>
          </g>
        </g>
      </g>
    </g>
  </g>
</svg>
