<svg xmlns="http://www.w3.org/2000/svg" xmlns:xlink="http://www.w3.org/1999/xlink" width="530" height="431.041" viewBox="0 0 530 431.041">
  <defs>
    <clipPath id="clip-path">
      <path id="Path_10611" data-name="Path 10611" d="M435.691,121.8l-19.6,6.752-9.362-19.618a4.41,4.41,0,0,0-5.494-2.282L334.63,129.6a5.286,5.286,0,0,0-3.464,5.368l1.743,22.242L221.663,195.53a11.131,11.131,0,0,0-6.988,13.2L259.6,378.067a9.345,9.345,0,0,0,12.236,6.578l214.027-73.725a11.133,11.133,0,0,0,6.99-13.2L447.927,128.382A9.344,9.344,0,0,0,435.691,121.8Z" transform="translate(-214.321 -106.4)" fill="#d6a418"/>
    </clipPath>
    <clipPath id="clip-path-2">
      <path id="Path_10614" data-name="Path 10614" d="M493.8,304,279.76,377.732a11.763,11.763,0,0,1-14.074-5.938l-1.044-2.166-50.508-104.5-24.986-51.658a8.879,8.879,0,0,1,5.134-12.555L408.32,127.184a11.762,11.762,0,0,1,14.072,5.938l76.539,158.325A8.839,8.839,0,0,1,493.8,304Z" transform="translate(-188.171 -126.606)" fill="#eec437"/>
    </clipPath>
  </defs>
  <g id="Group_54692" data-name="Group 54692" transform="translate(-28.471 -52.866)">
    <g id="Group_54664" data-name="Group 54664" transform="translate(28.471 52.866)" opacity="0.8" style="isolation: isolate">
      <path id="Path_10570" data-name="Path 10570" d="M108.085,91.049c18.172-21.724,42.744-38.538,72.034-38.177,49.979.615,77,44.862,105.691,79,14.88,17.7,31.735,34.782,53.815,43.1,33.127,12.475,70.01,5.191,102.28-6.388,14.454-5.186,31.58-12.479,47.857-8.756,49.495,11.323,44.337,71.728,36.161,109.971-11.039,51.635-28.977,106.613-65.341,146.289-87.049,94.975-243.723,36.755-322.247-39.033-5.772-5.571-11.3-11.392-16.5-17.5a243.09,243.09,0,0,1-34-51.946c-25.329-52.62-28.812-116.594-6.865-170.977A172.851,172.851,0,0,1,108.085,91.049Z" transform="translate(-15.13 -52.866)" fill="#fef3d1"/>
      <path id="Path_10571" data-name="Path 10571" d="M108.085,91.049c18.172-21.724,42.744-38.538,72.034-38.177,49.979.615,77,44.862,105.691,79,14.88,17.7,31.735,34.782,53.815,43.1,33.127,12.475,70.01,5.191,102.28-6.388,14.454-5.186,31.58-12.479,47.857-8.756,49.495,11.323,44.337,71.728,36.161,109.971-11.039,51.635-28.977,106.613-65.341,146.289-87.049,94.975-243.723,36.755-322.247-39.033-5.772-5.571-11.3-11.392-16.5-17.5a243.09,243.09,0,0,1-34-51.946c-25.329-52.62-28.812-116.594-6.865-170.977A172.851,172.851,0,0,1,108.085,91.049Z" transform="translate(-15.13 -52.866)" fill="#fef3d1" opacity="0.7"/>
      <g id="Group_54663" data-name="Group 54663" transform="translate(0 177.523)">
        <g id="Group_54662" data-name="Group 54662">
          <g id="Layer0_13_1_STROKES" data-name="Layer0 13 1 STROKES">
            <path id="Path_10572" data-name="Path 10572" d="M160.4,193.123l3.468-1.189.492-.169c.251-.086.081-.458-.028-.582a.652.652,0,0,0-.686-.238l-3.468,1.189-.49.169c-.253.086-.081.458.027.582a.648.648,0,0,0,.686.238Z" transform="translate(17.562 -181.908)" fill="#273a5d"/>
            <path id="Path_10573" data-name="Path 10573" d="M168.207,191.85l17.267-5.921,2.451-.84c.465-.159-.281-.969-.713-.822l-17.267,5.921-2.452.842c-.463.158.282.969.715.82Z" transform="translate(20.297 -184.25)" fill="#273a5d"/>
            <path id="Path_10574" data-name="Path 10574" d="M109.122,220.629l2.986-1.024.423-.145c.249-.085.085-.459-.027-.582a.656.656,0,0,0-.688-.238l-2.986,1.024-.423.145c-.249.085-.085.459.028.582a.653.653,0,0,0,.686.238Z" transform="translate(-0.446 -172.183)" fill="#273a5d"/>
            <path id="Path_10575" data-name="Path 10575" d="M98.759,224.536l6.455-2.213.913-.313c.253-.086.08-.457-.027-.584a.65.65,0,0,0-.686-.236L98.959,223.4l-.915.312c-.253.088-.078.458.027.584a.652.652,0,0,0,.688.238Z" transform="translate(-4.085 -171.287)" fill="#273a5d"/>
            <path id="Path_10576" data-name="Path 10576" d="M29.332,248.089l3.124-1.07,8.449-2.9,12.55-4.3L68.7,234.59,85.47,228.84l16.932-5.807,15.715-5.388,13.343-4.575,9.553-3.275c1.49-.511,3.114-.905,4.549-1.561.062-.028.131-.045.195-.066.463-.159-.281-.969-.713-.82l-3.124,1.07-8.449,2.9-12.55,4.3-15.241,5.226L88.9,226.6,71.973,232.4l-15.715,5.39-13.343,4.575-9.553,3.275c-1.49.511-3.114.905-4.549,1.561-.062.027-.131.045-.195.066-.463.159.281.969.713.82Z" transform="translate(-28.471 -176.145)" fill="#273a5d"/>
            <path id="Path_10577" data-name="Path 10577" d="M122.437,295.81l10.969-3.762,17.481-5.994,4.012-1.375c.463-.159-.281-.969-.713-.822l-10.969,3.762-17.483,6-4.012,1.376c-.463.158.282.969.715.82Z" transform="translate(4.224 -149.276)" fill="#273a5d"/>
            <path id="Path_10578" data-name="Path 10578" d="M66.976,353.642l-9.119,3.127-1.29.443c-.463.158.281.969.713.82l9.119-3.127,1.292-.443c.463-.159-.282-.969-.715-.82Z" transform="translate(-18.657 -124.77)" fill="#273a5d"/>
            <path id="Path_10579" data-name="Path 10579" d="M130.31,341.919l5.283-1.812.747-.257c.253-.086.081-.458-.027-.582a.651.651,0,0,0-.686-.238l-5.283,1.812-.749.255c-.251.086-.081.458.028.584a.652.652,0,0,0,.686.238Z" transform="translate(6.995 -129.905)" fill="#273a5d"/>
            <path id="Path_10580" data-name="Path 10580" d="M110.267,350.078l17.937-6.151,2.542-.871c.463-.159-.281-.969-.713-.822l-17.937,6.152-2.543.872c-.463.158.282.969.715.82Z" transform="translate(-0.05 -128.776)" fill="#273a5d"/>
            <path id="Path_10581" data-name="Path 10581" d="M85.422,301.412l9.356-3.208,14.847-5.091,3.462-1.186c.463-.159-.282-.969-.715-.822l-9.356,3.209-14.847,5.091-3.462,1.186c-.463.159.282.969.715.82Z" transform="translate(-8.774 -146.731)" fill="#273a5d"/>
            <path id="Path_10582" data-name="Path 10582" d="M85.341,382.356l3.1-1.061,8.376-2.873,12.374-4.243,15.172-5.2L140.9,363.3l16.776-5.752,15.571-5.34,13.163-4.514,9.514-3.262c1.471-.5,3.074-.893,4.49-1.539.062-.028.132-.046.2-.068.463-.159-.281-.969-.713-.82l-3.1,1.061-8.375,2.873-12.375,4.243-15.172,5.2-16.541,5.672-16.778,5.752-15.57,5.34-13.164,4.514-9.514,3.262c-1.471.5-3.073.893-4.49,1.539a1.965,1.965,0,0,1-.2.068c-.463.159.281.969.713.82Z" transform="translate(-8.803 -128.855)" fill="#273a5d"/>
            <path id="Path_10583" data-name="Path 10583" d="M270.388,242.638l4.456-1.527.631-.218c.253-.086.081-.457-.027-.582a.653.653,0,0,0-.686-.238l-4.456,1.528-.631.216c-.253.086-.081.458.027.584a.65.65,0,0,0,.686.236Z" transform="translate(56.187 -164.656)" fill="#273a5d"/>
            <path id="Path_10584" data-name="Path 10584" d="M157.213,294.317l3.994-1.369,10.867-3.727,16.076-5.513,19.692-6.753,21.494-7.369,21.694-7.44,20.228-6.937,17.1-5.861,12.3-4.217c1.936-.663,3.922-1.25,5.828-2,.082-.032.169-.057.251-.085.465-.159-.281-.97-.713-.822l-3.993,1.37-10.869,3.727-16.075,5.511-19.692,6.753-21.494,7.371L212.2,274.4l-20.23,6.937-17.1,5.863-12.3,4.216c-1.935.663-3.922,1.25-5.828,2-.082.032-.168.057-.251.086-.463.158.281.969.713.82Z" transform="translate(16.437 -163.896)" fill="#273a5d"/>
            <path id="Path_10585" data-name="Path 10585" d="M116.6,223.753l6.7-2.3,16.083-5.514,19.368-6.641,16.813-5.765,5.52-1.893,1.735-.595a4.608,4.608,0,0,0,.9-.311.607.607,0,0,1,.112-.038c.463-.159-.281-.969-.713-.82l-6.7,2.3-16.082,5.514-19.369,6.641L124.155,220.1l-5.521,1.893-1.735.594a4.608,4.608,0,0,0-.9.311.609.609,0,0,1-.112.038c-.463.159.281.969.713.82Z" transform="translate(2.174 -178.768)" fill="#273a5d"/>
            <path id="Path_10586" data-name="Path 10586" d="M120.214,210.815l16.234-5.567,25.691-8.81,5.929-2.034c.463-.158-.281-.969-.713-.82l-16.236,5.567-25.69,8.81-5.93,2.034c-.463.158.282.969.715.82Z" transform="translate(3.444 -180.978)" fill="#273a5d"/>
            <path id="Path_10587" data-name="Path 10587" d="M110.67,303.234l3.874-1.328,10.593-3.633,15.613-5.353,19.12-6.556,20.866-7.156,21.059-7.221,19.638-6.734,16.6-5.693,11.982-4.109c1.877-.643,3.806-1.208,5.652-1.938.08-.031.164-.055.243-.084.465-.159-.281-.969-.713-.82l-3.874,1.328-10.593,3.632-15.613,5.353L206,269.48l-20.866,7.154-21.059,7.222-19.638,6.733-16.6,5.693-11.982,4.109c-1.877.643-3.808,1.208-5.652,1.939-.08.031-.163.055-.245.082-.463.159.282.969.715.822Z" transform="translate(0.092 -160.25)" fill="#273a5d"/>
            <path id="Path_10588" data-name="Path 10588" d="M150.765,283.584l3.744-1.284.531-.181c.251-.086.081-.458-.027-.584a.655.655,0,0,0-.688-.238l-3.744,1.284-.53.182c-.253.086-.081.458.027.582a.648.648,0,0,0,.686.238Z" transform="translate(14.178 -150.179)" fill="#273a5d"/>
            <path id="Path_10589" data-name="Path 10589" d="M243.916,307.392l-4.614,1.582-12.556,4.306-18.568,6.367L185.6,327.388l-24.72,8.476-25.033,8.584-23.34,8-19.719,6.761L78.66,364.058c-2.229.765-4.5,1.459-6.7,2.3-.1.036-.195.068-.292.1-.463.159.282.969.715.822l4.613-1.582,12.556-4.306,18.568-6.367,22.574-7.741,24.718-8.476,25.035-8.584,23.34-8,19.718-6.761,14.132-4.847c2.229-.765,4.5-1.458,6.7-2.3.1-.036.195-.068.292-.1.463-.159-.281-.969-.713-.822Z" transform="translate(-13.355 -141.012)" fill="#273a5d"/>
          </g>
        </g>
      </g>
    </g>
    <g id="Group_54691" data-name="Group 54691" transform="translate(63.837 112.101)">
      <g id="Group_54674" data-name="Group 54674" transform="translate(94.649)">
        <path id="Path_10590" data-name="Path 10590" d="M438.466,211.647s-56.483-6.28-91.35-68.475-220.924-41.761-220.924-41.761,1.073,21.784,29.889,27.392l-20.1,9.7s5.886,24.918,58.653,22.727l-14.314,15.428s22.163,18.119,77.779,10.155L247.612,200.3s26,18.1,70.079,5.4l-4.733,12.5s33.458,2.416,53.155-6.178C366.113,212.019,404.228,235.508,438.466,211.647Z" transform="translate(-124.17 -96.181)" fill="#fff"/>
        <path id="Path_10591" data-name="Path 10591" d="M438.477,210.825c-34.235,23.85-72.355.373-72.355.373-19.706,8.56-53.144,6.183-53.144,6.183l4.71-12.529c-44.086,12.732-70.079-5.386-70.079-5.386l10.492-13.49c-55.6,7.976-77.792-10.161-77.792-10.161L194.637,160.4C141.876,162.578,136,137.678,136,137.678l20.1-9.695c-28.843-5.638-29.927-27.4-29.927-27.4s10.578,18.8,41.008,18.2c0,0-5.114,12.693,26.059,15.041,0,0,26.322,11.236,45.421,2.842,0,0,6.421,13.039,29.314,10.816l-7.757,10.239s2.375,13.423,30.75,6.761l-4.14,13.173s9.323,10.8,45.825,2.759c0,0-11.415,7.465-7.672,11.25s15.286,5.626,25.236,4.645C350.221,196.307,389.189,227.023,438.477,210.825Z" transform="translate(-124.174 -95.345)" fill="#d9e0e6"/>
        <path id="Path_10592" data-name="Path 10592" d="M404.816,224.818c-18.93,0-34.441-7.876-38.312-10.02-20,8.222-51.8,6.041-53.165,5.942a2.023,2.023,0,0,1-1.747-2.735l3.328-8.791c-42.15,10.753-66.876-5.988-67.938-6.728a2.022,2.022,0,0,1-.44-2.9l7.46-9.6c-52.271,6.3-73.534-10.5-74.437-11.239a2.021,2.021,0,0,1-.2-2.943l11.042-11.9q-.859.01-1.7.011c-47.83,0-53.92-23.385-54.164-24.424a2.021,2.021,0,0,1,1.089-2.288l15.039-7.257C126,122.52,124.708,102.254,124.7,102.035a2.025,2.025,0,0,1,1.8-2.112c.467-.051,47.263-5.1,97.713-2.451,68.253,3.577,110.375,18.8,125.2,45.235,17.718,31.607,41.174,48.257,57.73,56.66,17.972,9.12,31.939,10.777,32.079,10.793a2.024,2.024,0,0,1,.931,3.671A60.678,60.678,0,0,1,404.816,224.818Zm-38.179-14.3a2.037,2.037,0,0,1,1.062.3c.354.218,34.245,20.581,65.813,2.432a118.932,118.932,0,0,1-28.034-10.191c-17.111-8.653-41.342-25.8-59.6-58.376C314.006,87.837,149.43,101.773,129,103.739c1.009,5.179,5.78,19.279,27.99,23.6a2.023,2.023,0,0,1,.493,3.808l-18.431,8.895c2.379,5.093,13.366,21.455,56.02,19.691a2.022,2.022,0,0,1,1.566,3.4l-12.708,13.7c6.255,3.824,29.106,14.99,74.4,8.506a2.025,2.025,0,0,1,1.885,3.246l-9.084,11.684c6.583,3.627,30.462,14.406,66.518,4.014a2.023,2.023,0,0,1,2.452,2.662l-3.751,9.905c8.312.343,33.677.736,49.472-6.156A2.034,2.034,0,0,1,366.637,210.52Z" transform="translate(-124.695 -96.705)" fill="#273a5d"/>
        <g id="Group_54665" data-name="Group 54665" transform="translate(26.983 15.033)">
          <path id="Path_10593" data-name="Path 10593" d="M190.144,109.329c-18.741,4.735-30.053,3.2-43.982,10.3,0,0,12.294,16.591,44.109,14.348" transform="translate(-144.139 -107.305)" fill="#fff"/>
          <path id="Path_10594" data-name="Path 10594" d="M184.927,136.741c-28.126,0-39.369-14.71-39.865-15.379a2.024,2.024,0,0,1,.707-3.006c8.853-4.513,16.641-5.651,25.659-6.965a177.707,177.707,0,0,0,18.746-3.5,2.024,2.024,0,0,1,.992,3.924,180.4,180.4,0,0,1-19.154,3.577c-7.808,1.139-14.658,2.139-21.98,5.407a36.779,36.779,0,0,0,7.973,5.718c6.169,3.337,16.842,7.08,32.65,5.969a2,2,0,0,1,2.161,1.875,2.024,2.024,0,0,1-1.875,2.161Q187.813,136.745,184.927,136.741Z" transform="translate(-144.665 -107.831)" fill="#273a5d"/>
        </g>
        <g id="Group_54666" data-name="Group 54666" transform="translate(61.673 46.092)">
          <path id="Path_10595" data-name="Path 10595" d="M203.06,156.27c-28.946,0-32.511-14.856-32.677-15.634a2.024,2.024,0,0,1,1.189-2.283c.539-.228,13.324-5.624,23.975-7.5a2.023,2.023,0,0,1,.7,3.985c-7.887,1.392-17.323,4.934-21.247,6.491,2.4,4.391,12.693,16.2,52.189,8.131a2.024,2.024,0,0,1,.811,3.966A125.844,125.844,0,0,1,203.06,156.27Z" transform="translate(-170.339 -130.818)" fill="#273a5d"/>
        </g>
        <g id="Group_54667" data-name="Group 54667" transform="translate(121.793 71.922)">
          <path id="Path_10596" data-name="Path 10596" d="M250.509,170.1a91.269,91.269,0,0,1-34.482-6.76,2.023,2.023,0,0,1-.265-3.547l14.824-9.541a2.023,2.023,0,1,1,2.19,3.4l-11.462,7.377c7.991,2.767,28.076,8.229,49.239,2.373a2.024,2.024,0,0,1,1.08,3.9A79.164,79.164,0,0,1,250.509,170.1Z" transform="translate(-214.834 -149.935)" fill="#273a5d"/>
        </g>
        <g id="Group_54668" data-name="Group 54668" transform="translate(176.514 85.857)">
          <path id="Path_10597" data-name="Path 10597" d="M270.887,161.745s-14.5,10.2-14.01,11.638,29.01,12.123,54.847-1.924" transform="translate(-254.794 -159.722)" fill="#fff"/>
          <path id="Path_10598" data-name="Path 10598" d="M283.059,181.189a70.691,70.691,0,0,1-23.779-4c-2.8-1.094-3.489-1.769-3.782-2.631-.478-1.413-.973-2.871,14.764-13.943a2.023,2.023,0,1,1,2.327,3.309,151.821,151.821,0,0,0-12.173,9.353c6.249,2.493,29.234,8.693,50.88-3.073a2.023,2.023,0,0,1,1.932,3.555A62.709,62.709,0,0,1,283.059,181.189Z" transform="translate(-255.332 -160.248)" fill="#273a5d"/>
        </g>
        <g id="Group_54669" data-name="Group 54669" transform="translate(64.925 21.112)">
          <path id="Path_10599" data-name="Path 10599" d="M211.128,113.828c-8.879,3.843-35.145,7.857-36.884,11.705,0,0,8.6,24.058,52.707,10.488" transform="translate(-172.22 -111.804)" fill="#fff"/>
          <path id="Path_10600" data-name="Path 10600" d="M203.05,142.758c-24.106,0-29.891-15.194-30.187-16.018a2.027,2.027,0,0,1,.062-1.515c1.3-2.875,7.2-4.57,21.363-8.026,6.422-1.567,13.063-3.189,16.561-4.7a2.023,2.023,0,1,1,1.608,3.713c-3.813,1.651-10.32,3.239-17.21,4.92-6.245,1.524-15.368,3.751-18.057,5.364,2.319,4.39,13.185,19.347,49.689,8.118a2.024,2.024,0,0,1,1.19,3.868C218.086,141.553,209.841,142.758,203.05,142.758Z" transform="translate(-172.746 -112.33)" fill="#273a5d"/>
        </g>
        <g id="Group_54670" data-name="Group 54670" transform="translate(112.565 49.155)">
          <path id="Path_10601" data-name="Path 10601" d="M228.159,134.583A76.147,76.147,0,0,0,209.5,145.348s17.075,23.741,58.553,3.252" transform="translate(-207.478 -132.559)" fill="#fff"/>
          <path id="Path_10602" data-name="Path 10602" d="M237.469,159.453a42.618,42.618,0,0,1-14.4-2.363c-9.932-3.547-14.5-9.772-14.685-10.035a2.023,2.023,0,0,1,.332-2.723,77.634,77.634,0,0,1,19.195-11.093,2.023,2.023,0,0,1,1.546,3.74,79.743,79.743,0,0,0-16.51,9.192c4.513,4.693,21.117,17.749,54.737,1.142a2.023,2.023,0,1,1,1.792,3.628C256.516,157.343,245.869,159.453,237.469,159.453Z" transform="translate(-208.004 -133.085)" fill="#273a5d"/>
        </g>
        <g id="Group_54671" data-name="Group 54671" transform="translate(160.65 63.145)">
          <path id="Path_10603" data-name="Path 10603" d="M260.834,144.937A29.33,29.33,0,0,0,245.09,162.1s20.487,13.258,55.653-.538" transform="translate(-243.066 -142.913)" fill="#fff"/>
          <path id="Path_10604" data-name="Path 10604" d="M270.47,170.419c-16.248,0-25.383-5.73-25.953-6.1a2.025,2.025,0,0,1-.851-2.238,31.183,31.183,0,0,1,16.85-18.458A2.024,2.024,0,1,1,262.2,147.3a27.847,27.847,0,0,0-14.094,14.372c5.08,2.5,23.8,9.754,52.42-1.474a2.023,2.023,0,1,1,1.478,3.767C289.651,168.815,279.066,170.419,270.47,170.419Z" transform="translate(-243.592 -143.439)" fill="#273a5d"/>
        </g>
        <g id="Group_54672" data-name="Group 54672" transform="translate(112.459 29.32)">
          <path id="Path_10605" data-name="Path 10605" d="M235.121,119.9s-25.026,5.357-25.7,9.969c0,0,20.081,17.28,52.232,8.6" transform="translate(-207.4 -117.879)" fill="#fff"/>
          <path id="Path_10606" data-name="Path 10606" d="M244.2,143.484c-21.831,0-34.891-10.969-35.571-11.553a2.027,2.027,0,0,1-.682-1.825c.722-4.962,15.232-9.077,27.276-11.655a2.024,2.024,0,1,1,.847,3.958c-10.576,2.265-20.347,5.484-23.309,7.571,5.117,3.563,23.056,14.043,48.894,7.063a2.023,2.023,0,1,1,1.055,3.906A70.784,70.784,0,0,1,244.2,143.484Z" transform="translate(-207.926 -118.405)" fill="#273a5d"/>
        </g>
        <g id="Group_54673" data-name="Group 54673" transform="translate(158.596 45.663)">
          <path id="Path_10607" data-name="Path 10607" d="M253.442,132a27.666,27.666,0,0,0-9.873,8.262s9.669,14.344,34.579,6.538" transform="translate(-241.545 -129.975)" fill="#fff"/>
          <path id="Path_10608" data-name="Path 10608" d="M264.626,151.7c-15.393,0-21.871-9.28-22.209-9.78a2.023,2.023,0,0,1,.026-2.3,29.556,29.556,0,0,1,10.7-8.941,2.023,2.023,0,1,1,1.654,3.693,24.658,24.658,0,0,0-8.1,6.4c2.805,3.017,12.189,10.641,31.374,4.626a2.023,2.023,0,0,1,1.211,3.862A49.038,49.038,0,0,1,264.626,151.7Z" transform="translate(-242.071 -130.501)" fill="#273a5d"/>
        </g>
      </g>
      <g id="Group_54676" data-name="Group 54676" transform="translate(215.749 13.099)">
        <path id="Path_10609" data-name="Path 10609" d="M435.691,121.8l-19.6,6.752-9.362-19.618a4.41,4.41,0,0,0-5.494-2.282L334.63,129.6a5.286,5.286,0,0,0-3.464,5.368l1.743,22.242L221.663,195.53a11.131,11.131,0,0,0-6.988,13.2L259.6,378.067a9.345,9.345,0,0,0,12.236,6.578l214.027-73.725a11.133,11.133,0,0,0,6.99-13.2L447.927,128.382A9.344,9.344,0,0,0,435.691,121.8Z" transform="translate(-214.321 -106.4)" fill="#d6a418"/>
        <g id="Group_54675" data-name="Group 54675" clip-path="url(#clip-path)">
          <path id="Path_10610" data-name="Path 10610" d="M435.691,121.8l-19.6,6.752-9.362-19.618a4.41,4.41,0,0,0-5.494-2.282L334.63,129.6a5.286,5.286,0,0,0-3.464,5.368l1.743,22.242L221.663,195.53a11.131,11.131,0,0,0-6.988,13.2L259.6,378.067a9.345,9.345,0,0,0,12.236,6.578l214.027-73.725a11.133,11.133,0,0,0,6.99-13.2L447.927,128.382A9.344,9.344,0,0,0,435.691,121.8Z" transform="translate(-214.321 -106.4)" fill="#d6a418"/>
        </g>
      </g>
      <g id="Group_54678" data-name="Group 54678" transform="translate(180.416 40.4)">
        <path id="Path_10612" data-name="Path 10612" d="M493.8,304,279.76,377.732a11.763,11.763,0,0,1-14.074-5.938l-1.044-2.166-50.508-104.5-24.986-51.658a8.879,8.879,0,0,1,5.134-12.555L408.32,127.184a11.762,11.762,0,0,1,14.072,5.938l76.539,158.325A8.839,8.839,0,0,1,493.8,304Z" transform="translate(-188.171 -126.606)" fill="#eec437"/>
        <g id="Group_54677" data-name="Group 54677" clip-path="url(#clip-path-2)">
          <path id="Path_10613" data-name="Path 10613" d="M334.175,230.521s-2.252,47.387-52.693,57.144c0,0-4.7,22.506-23.587,45.962l-50.508-104.5C250.115,236.492,299.133,240.622,334.175,230.521Z" transform="translate(-181.423 -90.604)" fill="#eec437" opacity="0.2"/>
        </g>
      </g>
      <g id="Group_54690" data-name="Group 54690" transform="translate(0 127.335)">
        <g id="Group_54680" data-name="Group 54680" transform="translate(2.007 2.106)">
          <g id="Group_54679" data-name="Group 54679">
            <path id="Path_10615" data-name="Path 10615" d="M387.276,243.37s-55.513,12.171-108.488-35.551S56.144,239.141,56.144,239.141s8,20.288,37.1,16.356L77.313,271.133s13.57,21.713,62.844,2.71l-8.608,19.2s26.8,10.049,76.926-15.336l-5.6,16.14s30.434,8.8,68.106-17.371l-.474,13.358s32.466-8.446,48.365-22.9C318.868,266.935,362.5,276.952,387.276,243.37Z" transform="translate(-56.126 -192.504)" fill="#fff"/>
            <path id="Path_10616" data-name="Path 10616" d="M387.291,231.754c-24.774,33.573-68.411,23.566-68.411,23.566-15.918,14.428-48.352,22.9-48.352,22.9l.442-13.378c-37.671,26.2-68.1,17.382-68.1,17.382l5.61-16.142c-50.106,25.393-76.941,15.333-76.941,15.333l8.626-19.193c-49.275,18.985-62.826-2.713-62.826-2.713l15.93-15.632c-29.127,3.913-37.137-16.356-37.137-16.356s16.052,14.417,44.679,4.085c0,0-.772,13.663,29.507,5.886,0,0,28.535,2.2,43.932-11.88,0,0,10.265,10.289,31.235.84l-4.063,12.185s6.556,11.952,31.295-3.46l.3,13.8s12.294,7.237,44.287-12.088c0,0-8.416,10.731-3.656,13.116s16.283.426,25.391-3.7C299.042,246.315,345.8,262.908,387.291,231.754Z" transform="translate(-56.131 -180.877)" fill="#d9e0e6"/>
          </g>
        </g>
        <g id="Group_54681" data-name="Group 54681" transform="translate(32.656 35.154)">
          <path id="Path_10617" data-name="Path 10617" d="M118.664,218.461c-16.23,10.5-27.437,12.673-38.352,23.868,0,0,16.967,11.77,46.38-.562" transform="translate(-78.288 -216.437)" fill="#fff"/>
          <path id="Path_10618" data-name="Path 10618" d="M101.419,249.978c-13.627,0-21.257-5.129-21.735-5.46a2.023,2.023,0,0,1-.295-3.075c6.937-7.114,13.948-10.689,22.067-14.829a177.138,177.138,0,0,0,16.634-9.324,2.023,2.023,0,1,1,2.2,3.4,180.477,180.477,0,0,1-16.994,9.534c-7.03,3.585-13.2,6.727-19.083,12.173a36.714,36.714,0,0,0,9.385,2.856c6.914,1.181,18.226,1.307,32.839-4.82A2.023,2.023,0,1,1,128,244.159C117.57,248.533,108.651,249.978,101.419,249.978Z" transform="translate(-78.814 -216.963)" fill="#273a5d"/>
        </g>
        <path id="Path_10619" data-name="Path 10619" d="M216.787,297.9a53.859,53.859,0,0,1-13.952-1.555,2.023,2.023,0,0,1-1.35-2.606l3.987-11.484c-47.483,22.738-73.012,13.647-74.108,13.236a2.023,2.023,0,0,1-1.136-2.721l6.641-14.816c-46.587,16.372-60.173-4.285-60.746-5.2a2.024,2.024,0,0,1,.3-2.516l11.916-11.7c-25.707.88-33.47-17.9-33.551-18.108a2.023,2.023,0,0,1,1.028-2.575c.426-.2,43.128-19.989,91.762-33.67,65.791-18.508,110.569-17.606,133.091,2.679,26.921,24.251,54.479,32.5,72.858,35.144,19.945,2.873,33.708-.039,33.846-.068a2.023,2.023,0,0,1,2.059,3.178c-23.105,31.322-62.52,25.8-69.442,24.541-16.3,14.2-47.125,22.339-48.45,22.683a2.023,2.023,0,0,1-2.531-2.029l.332-9.395C247.765,294.943,228.875,297.9,216.787,297.9Zm-10.728-5c7.4,1.326,33.473,3.874,64.289-17.536a2.023,2.023,0,0,1,3.177,1.732l-.374,10.586c7.98-2.342,32.134-10.108,44.883-21.7a2.028,2.028,0,0,1,1.812-.476c.405.093,39.038,8.506,63.116-18.81a119.086,119.086,0,0,1-29.822-.658c-18.984-2.706-47.436-11.178-75.181-36.171-48.414-43.615-199.83,22.379-218.546,30.793,2.619,4.58,11.663,16.4,34.082,13.375a2.024,2.024,0,0,1,1.689,3.45l-14.6,14.336c3.889,4.062,19.564,16.033,59.376.677a2.023,2.023,0,0,1,2.574,2.715l-7.642,17.053c7.15,1.612,32.374,4.86,73.2-15.815a2.023,2.023,0,0,1,2.825,2.47Z" transform="translate(-54.646 -190.946)" fill="#273a5d"/>
        <g id="Group_54682" data-name="Group 54682" transform="translate(74.538 60.002)">
          <path id="Path_10620" data-name="Path 10620" d="M128.25,260.612c-13.346,0-17.856-7.164-18.156-7.668a2.024,2.024,0,0,1,.393-2.544c.438-.389,10.818-9.6,20.3-14.8a2.024,2.024,0,1,1,1.946,3.55c-7.023,3.847-14.825,10.231-18.042,12.963,3.679,3.39,17.221,11.267,52.04-9.041a2.023,2.023,0,0,1,2.039,3.5C150.292,257.349,137.259,260.612,128.25,260.612Z" transform="translate(-109.811 -235.353)" fill="#273a5d"/>
        </g>
        <g id="Group_54683" data-name="Group 54683" transform="translate(140.462 67.973)">
          <path id="Path_10621" data-name="Path 10621" d="M165.627,259.28c-3.032,0-4.909-.169-5.2-.2a2.023,2.023,0,0,1-1.389-3.274l10.981-13.793a2.023,2.023,0,1,1,3.164,2.52L164.7,255.2c8.427.061,29.231-1.212,47.4-13.55A2.023,2.023,0,1,1,214.369,245C195.754,257.643,175.083,259.28,165.627,259.28Z" transform="translate(-158.601 -241.253)" fill="#273a5d"/>
        </g>
        <g id="Group_54684" data-name="Group 54684" transform="translate(197.408 59.958)">
          <path id="Path_10622" data-name="Path 10622" d="M211.856,240.72s-10.458,14.312-9.537,15.517,31.366,2.175,51.331-19.419" transform="translate(-200.214 -234.794)" fill="#fff"/>
          <path id="Path_10623" data-name="Path 10623" d="M206.967,259.3c-.724,0-1.174-.018-1.3-.023-3-.141-3.866-.557-4.418-1.28-.905-1.182-1.843-2.406,9.51-17.941a2.023,2.023,0,0,1,3.267,2.388,151.784,151.784,0,0,0-8.529,12.763c6.721.35,30.481-1.144,47.2-19.233a2.024,2.024,0,0,1,2.973,2.747C237.779,258.067,212.964,259.3,206.967,259.3Zm-3.189-4.3" transform="translate(-200.746 -235.32)" fill="#273a5d"/>
        </g>
        <g id="Group_54685" data-name="Group 54685" transform="translate(70.994 31.017)">
          <path id="Path_10624" data-name="Path 10624" d="M139.866,215.4c-7.176,6.488-30.766,18.718-31.18,22.92,0,0,15.863,20.027,53.285-6.975" transform="translate(-106.662 -213.376)" fill="#fff"/>
          <path id="Path_10625" data-name="Path 10625" d="M127.329,248.1c-13.12,0-19.287-7.472-19.7-8a2.026,2.026,0,0,1-.428-1.455c.309-3.14,5.353-6.637,17.663-14.456,5.579-3.544,11.347-7.21,14.174-9.765a2.023,2.023,0,1,1,2.715,3c-3.082,2.786-8.734,6.378-14.718,10.18-5.428,3.447-13.356,8.484-15.384,10.874,3.6,3.413,18.7,14.1,49.666-8.252a2.024,2.024,0,1,1,2.369,3.282C148.164,244.7,136.168,248.1,127.329,248.1Z" transform="translate(-107.188 -213.901)" fill="#273a5d"/>
        </g>
        <g id="Group_54686" data-name="Group 54686" transform="translate(124.811 48.142)">
          <path id="Path_10626" data-name="Path 10626" d="M162.733,228.073a76.182,76.182,0,0,0-14.218,16.18s23.79,17.01,56.5-15.7" transform="translate(-146.492 -226.049)" fill="#fff"/>
          <path id="Path_10627" data-name="Path 10627" d="M165.6,251.223c-.205,0-.405,0-.6-.005-10.546-.17-16.864-4.6-17.127-4.791a2.023,2.023,0,0,1-.559-2.686,77.614,77.614,0,0,1,14.621-16.665,2.023,2.023,0,0,1,2.663,3.047,79.854,79.854,0,0,0-12.688,14c5.782,3,25.7,10.035,52.209-16.478a2.024,2.024,0,0,1,2.862,2.862C189.938,247.544,175.168,251.223,165.6,251.223Z" transform="translate(-147.018 -226.575)" fill="#273a5d"/>
        </g>
        <g id="Group_54687" data-name="Group 54687" transform="translate(176.882 46.9)">
          <path id="Path_10628" data-name="Path 10628" d="M196.473,227.154a29.331,29.331,0,0,0-9.408,21.3s23.656,5.984,52.539-18.364" transform="translate(-185.029 -225.13)" fill="#fff"/>
          <path id="Path_10629" data-name="Path 10629" d="M194.77,251.686a33.618,33.618,0,0,1-7.676-.742,2.028,2.028,0,0,1-1.524-1.847A31.18,31.18,0,0,1,195.61,226.21a2.023,2.023,0,0,1,2.778,2.942,28.026,28.026,0,0,0-8.731,18.134c5.625.736,25.672,1.594,49.169-18.214a2.024,2.024,0,0,1,2.609,3.094C221.642,248.852,204.281,251.686,194.77,251.686Z" transform="translate(-185.556 -225.656)" fill="#273a5d"/>
        </g>
        <g id="Group_54688" data-name="Group 54688" transform="translate(118.078 27.129)">
          <path id="Path_10630" data-name="Path 10630" d="M164.69,212.523s-21.986,13.1-21.142,17.686c0,0,24.564,9.926,52.23-8.614" transform="translate(-141.512 -210.498)" fill="#fff"/>
          <path id="Path_10631" data-name="Path 10631" d="M160.838,235.463a50.083,50.083,0,0,1-17.525-2.852,2.02,2.02,0,0,1-1.231-1.509c-.909-4.932,11.513-13.483,22.1-19.791a2.023,2.023,0,0,1,2.071,3.477c-9.291,5.538-17.513,11.723-19.649,14.648,5.987,1.735,26.34,5.906,48.575-8.995a2.023,2.023,0,0,1,2.252,3.362C183.627,233.049,170.634,235.461,160.838,235.463Z" transform="translate(-142.035 -211.024)" fill="#273a5d"/>
        </g>
        <g id="Group_54689" data-name="Group 54689" transform="translate(166.484 32.886)">
          <path id="Path_10632" data-name="Path 10632" d="M186.06,216.782a27.648,27.648,0,0,0-6.7,10.992s13.76,10.484,34.849-4.9" transform="translate(-177.334 -214.759)" fill="#fff"/>
          <path id="Path_10633" data-name="Path 10633" d="M192.381,233.854c-8.383,0-13.373-3.677-13.724-3.945a2.025,2.025,0,0,1-.713-2.185,29.559,29.559,0,0,1,7.265-11.9,2.023,2.023,0,1,1,2.751,2.967,24.639,24.639,0,0,0-5.62,8.657c3.625,1.957,14.955,6.171,31.2-5.683a2.023,2.023,0,1,1,2.383,3.268C206.572,231.857,198.556,233.854,192.381,233.854Z" transform="translate(-177.86 -215.285)" fill="#273a5d"/>
        </g>
      </g>
    </g>
  </g>
</svg>
