<svg xmlns="http://www.w3.org/2000/svg" xmlns:xlink="http://www.w3.org/1999/xlink" width="537" height="335" viewBox="0 0 537 335">
  <defs>
    <clipPath id="clip-path">
      <rect id="Rectangle_1303" data-name="Rectangle 1303" width="537" height="335" transform="translate(384.076 606.013)" fill="none"/>
    </clipPath>
    <clipPath id="clip-path-2">
      <rect id="Rectangle_1302" data-name="Rectangle 1302" width="508.729" height="350.095" transform="translate(399.076 590.013)" fill="none"/>
    </clipPath>
  </defs>
  <g id="Group_1210" data-name="Group 1210" transform="translate(-384.076 -606.013)">
    <g id="Group_1209" data-name="Group 1209" clip-path="url(#clip-path)">
      <g id="Mask_Group_5" data-name="Mask Group 5">
        <g id="Group_825" data-name="Group 825">
          <path id="Path_8921" data-name="Path 8921" d="M416.566,905.192c98.693,102.39,227.566-51.98,349.356-38.578,78.441,8.633,165.194-29.757,154.208-126.557-15.98-140.763-239.778-143.29-360.489-114.424S329.176,814.525,416.566,905.192" fill="#fef3d1"/>
          <g id="Group_611" data-name="Group 611">
            <g id="Group_1208" data-name="Group 1208">
              <g id="Group_1207" data-name="Group 1207" clip-path="url(#clip-path-2)">
                <g id="Group_610" data-name="Group 610">
                  <path id="Path_9243" data-name="Path 9243" d="M436.062,799.272l-6.211,10.8-6.21,10.806-6.255-10.78-6.253-10.782,8.615-.017-.083-41.662,7.7-.015.084,41.662Z" fill="#fdc61b"/>
                  <path id="Path_9244" data-name="Path 9244" d="M404.164,745.841l.05,24.845-5.138.009,3.73,6.433,3.729,6.43,3.7-6.444,3.7-6.444-5.139.01-.042-24.852Z" fill="#fdc61b"/>
                  <path id="Path_9245" data-name="Path 9245" d="M808.448,617.819l-6.211,10.807,8.617-.018.084,41.662,7.7-.015-.083-41.662,8.615-.017-6.253-10.782-6.259-10.781Z" fill="#0b2645"/>
                  <path id="Path_9246" data-name="Path 9246" d="M826.777,656.026l3.755-6.533,3.755-6.533,3.782,6.518,3.78,6.518-5.208.011.05,25.187-4.653.008-.05-25.186Z" fill="#0b2645"/>
                  <rect id="Rectangle_889" data-name="Rectangle 889" width="314.616" height="244.435" transform="translate(470.367 627.953)" fill="#fff"/>
                  <path id="Path_9247" data-name="Path 9247" d="M784.137,871.543H471.212V628.8H784.137Zm1.691-244.435H469.521V873.232H785.828Z" fill="#15375e"/>
                  <g id="Group_609" data-name="Group 609">
                    <g id="Group_1206" data-name="Group 1206">
                      <g id="Group_1205" data-name="Group 1205" clip-path="url(#clip-path-2)">
                        <g id="Group_608" data-name="Group 608">
                          <path id="Path_9248" data-name="Path 9248" d="M697.732,733.057a1.121,1.121,0,1,0,1.121-1.121,1.121,1.121,0,0,0-1.121,1.121h0" fill="#15375e"/>
                          <path id="Path_9249" data-name="Path 9249" d="M650.869,699.786a1.121,1.121,0,1,0,1.121-1.121,1.121,1.121,0,0,0-1.121,1.121h0" fill="#15375e"/>
                          <path id="Path_9250" data-name="Path 9250" d="M651.99,703.717a3.932,3.932,0,1,0-3.931-3.933v0a3.936,3.936,0,0,0,3.931,3.931m0-7.606a3.674,3.674,0,1,1-3.674,3.674,3.674,3.674,0,0,1,3.674-3.674" fill="#15375e"/>
                          <path id="Path_9251" data-name="Path 9251" d="M609.776,676.16a1.121,1.121,0,1,0,1.121-1.121h0a1.121,1.121,0,0,0-1.12,1.121" fill="#15375e"/>
                          <path id="Path_9252" data-name="Path 9252" d="M560.462,734.177a1.121,1.121,0,1,0,1.122-1.12h0a1.121,1.121,0,0,0-1.121,1.12" fill="#15375e"/>
                          <path id="Path_9253" data-name="Path 9253" d="M506.557,699.786a1.121,1.121,0,1,0,1.121-1.121,1.121,1.121,0,0,0-1.121,1.121h0" fill="#15375e"/>
                          <path id="Path_9254" data-name="Path 9254" d="M745.863,700.907a1.121,1.121,0,1,0,1.121-1.121,1.121,1.121,0,0,0-1.121,1.121h0" fill="#15375e"/>
                          <path id="Path_9255" data-name="Path 9255" d="M497.089,753.856a3.983,3.983,0,0,0,.883.287,18.854,18.854,0,0,1,2.545.872,24.52,24.52,0,0,1,8.167,6.2c3.059,3.31,6.12,7.924,9.964,13.107a63.563,63.563,0,0,0,6.77,7.858,37.612,37.612,0,0,0,4.4,3.635,30.6,30.6,0,0,0,5.293,2.9,29.857,29.857,0,0,0,12.684,2.133,34.089,34.089,0,0,0,6.823-.855,17.818,17.818,0,0,0,6.6-2.9,21.415,21.415,0,0,0,5.155-5.379c1.424-2.06,2.7-4.239,3.936-6.458,2.464-4.456,5.021-8.942,7.931-13.445,2.856-4.564,5.5-9.372,8.46-14.1a67.556,67.556,0,0,1,10.358-13.37,30.1,30.1,0,0,1,6.956-4.983,23.086,23.086,0,0,1,8.266-2.421,29.371,29.371,0,0,1,8.794.5,29.687,29.687,0,0,1,8.346,3.167,43.451,43.451,0,0,1,13.049,12.169,134.841,134.841,0,0,1,9.325,15,152.976,152.976,0,0,0,9.036,14.672,72.142,72.142,0,0,0,10.938,12.47c1.04.877,2.061,1.762,3.174,2.525a36.553,36.553,0,0,0,3.361,2.2,29.238,29.238,0,0,0,7.289,3,24.163,24.163,0,0,0,3.81.71,13.014,13.014,0,0,0,1.913.112c.637.007,1.272.048,1.9.024a28.882,28.882,0,0,0,7.3-1.353,49.454,49.454,0,0,0,12.337-6.445c3.663-2.523,7.014-5.134,10.288-7.492a54.86,54.86,0,0,1,9.77-5.919,32.308,32.308,0,0,1,9.726-2.764,23.954,23.954,0,0,1,8.739.565,14.4,14.4,0,0,1,1.89.61,11.937,11.937,0,0,1,1.766.7,22.572,22.572,0,0,1,3.088,1.712,32.853,32.853,0,0,1,4.646,3.717l1.616,1.77a14.793,14.793,0,0,1,1.3,1.507l1.636,2.155a4.038,4.038,0,0,0,.6.706,3.936,3.936,0,0,0-.469-.8l-1.515-2.261a13.987,13.987,0,0,0-1.251-1.589l-1.58-1.844a32.16,32.16,0,0,0-4.642-3.9,22.908,22.908,0,0,0-3.137-1.821,12.533,12.533,0,0,0-1.808-.752,14.984,14.984,0,0,0-1.943-.662,24.621,24.621,0,0,0-9.034-.719,33.034,33.034,0,0,0-10.046,2.723,55.527,55.527,0,0,0-10.016,5.929c-3.318,2.344-6.686,4.925-10.325,7.39a48.417,48.417,0,0,1-12.045,6.2,27.623,27.623,0,0,1-6.953,1.251c-.6.02-1.2-.025-1.8-.035a12.032,12.032,0,0,1-1.809-.113,22.736,22.736,0,0,1-3.6-.691,32.764,32.764,0,0,1-13.2-7.466,70.928,70.928,0,0,1-10.661-12.242,152.549,152.549,0,0,1-8.915-14.554,135.7,135.7,0,0,0-9.417-15.184,44.925,44.925,0,0,0-13.544-12.61,30.63,30.63,0,0,0-18.094-3.857,24.646,24.646,0,0,0-8.822,2.595,31.6,31.6,0,0,0-7.319,5.254,68.741,68.741,0,0,0-10.58,13.7c-2.972,4.785-5.6,9.6-8.413,14.131-2.889,4.5-5.486,9.1-7.908,13.538-2.466,4.376-4.871,8.778-8.634,11.443a16.528,16.528,0,0,1-6.135,2.738,33,33,0,0,1-6.563.866,28.754,28.754,0,0,1-12.2-1.946,29.588,29.588,0,0,1-5.114-2.735,36.678,36.678,0,0,1-4.3-3.484,63.449,63.449,0,0,1-6.758-7.661c-3.887-5.095-7.049-9.7-10.223-12.99a23.856,23.856,0,0,0-8.5-6.072,14.885,14.885,0,0,0-2.629-.732,4.023,4.023,0,0,0-.92-.126" fill="#fdc61b"/>
                          <path id="Path_9256" data-name="Path 9256" d="M694.488,657.8h52.083a1.534,1.534,0,0,0,0-3.068H694.488a1.534,1.534,0,0,0,0,3.068h0" fill="#15375e"/>
                          <path id="Path_9257" data-name="Path 9257" d="M722.385,664.985H746.57a1.534,1.534,0,0,0,0-3.068H722.385a1.534,1.534,0,0,0,0,3.068" fill="#15375e"/>
                          <path id="Path_9258" data-name="Path 9258" d="M781.568,607.028H474.158a4.637,4.637,0,0,0-4.637,4.636v15.443H786.2V611.664a4.636,4.636,0,0,0-4.636-4.636" fill="#15375e"/>
                          <path id="Path_9259" data-name="Path 9259" d="M485.934,617.455a2.16,2.16,0,1,1-2.16-2.16,2.16,2.16,0,0,1,2.16,2.16h0" fill="#de221d"/>
                          <path id="Path_9260" data-name="Path 9260" d="M495.363,617.455a2.16,2.16,0,1,1-2.16-2.16,2.16,2.16,0,0,1,2.16,2.16v0" fill="#f2833f"/>
                          <path id="Path_9261" data-name="Path 9261" d="M504.794,617.455a2.16,2.16,0,1,1-2.16-2.16,2.16,2.16,0,0,1,2.16,2.16v0" fill="#fff"/>
                          <line id="Line_77" data-name="Line 77" y1="152.782" transform="translate(507.704 699.781)" fill="none"/>
                          <g id="Line_78" data-name="Line 78">
                            <path id="Path_10455" data-name="Path 10455" d="M507.7,853.063a.5.5,0,0,1-.5-.5V699.781a.5.5,0,0,1,1,0V852.563A.5.5,0,0,1,507.7,853.063Z" fill="#15375e"/>
                          </g>
                          <line id="Line_79" data-name="Line 79" y1="118.39" transform="translate(561.583 734.173)" fill="none"/>
                          <g id="Line_80" data-name="Line 80">
                            <path id="Path_10456" data-name="Path 10456" d="M561.583,853.063a.5.5,0,0,1-.5-.5V734.173a.5.5,0,0,1,1,0v118.39A.5.5,0,0,1,561.583,853.063Z" fill="#15375e"/>
                          </g>
                          <line id="Line_81" data-name="Line 81" y1="176.068" transform="translate(610.896 676.495)" fill="none"/>
                          <g id="Line_82" data-name="Line 82">
                            <path id="Path_10457" data-name="Path 10457" d="M610.9,853.063a.5.5,0,0,1-.5-.5V676.495a.5.5,0,0,1,1,0V852.563A.5.5,0,0,1,610.9,853.063Z" fill="#15375e"/>
                          </g>
                          <line id="Line_83" data-name="Line 83" y1="152.829" transform="translate(651.99 699.735)" fill="none"/>
                          <g id="Line_84" data-name="Line 84">
                            <path id="Path_10458" data-name="Path 10458" d="M651.99,853.064a.5.5,0,0,1-.5-.5V699.735a.5.5,0,0,1,1,0V852.564A.5.5,0,0,1,651.99,853.064Z" fill="#15375e"/>
                          </g>
                          <line id="Line_85" data-name="Line 85" y1="119.511" transform="translate(698.853 733.052)" fill="none"/>
                          <g id="Line_86" data-name="Line 86">
                            <path id="Path_10459" data-name="Path 10459" d="M698.853,853.063a.5.5,0,0,1-.5-.5V733.052a.5.5,0,0,1,1,0V852.563A.5.5,0,0,1,698.853,853.063Z" fill="#15375e"/>
                          </g>
                          <line id="Line_87" data-name="Line 87" y1="151.661" transform="translate(746.984 700.902)" fill="none"/>
                          <g id="Line_88" data-name="Line 88">
                            <path id="Path_10460" data-name="Path 10460" d="M746.984,853.063a.5.5,0,0,1-.5-.5V700.9a.5.5,0,0,1,1,0V852.563A.5.5,0,0,1,746.984,853.063Z" fill="#15375e"/>
                          </g>
                          <path id="Path_9262" data-name="Path 9262" d="M781.248,808.355H904.481a3.325,3.325,0,0,0,3.324-3.325V775.264a3.323,3.323,0,0,0-3.323-3.323H781.248a3.325,3.325,0,0,0-3.324,3.323V805.03a3.325,3.325,0,0,0,3.324,3.325" fill="#e8e8e9"/>
                          <path id="Path_9263" data-name="Path 9263" d="M880.428,796.221a7.914,7.914,0,1,0,1.224-11.125h0a7.914,7.914,0,0,0-1.223,11.124" fill="#fff"/>
                          <line id="Line_89" data-name="Line 89" x2="73.747" transform="translate(790.6 787.48)" fill="none"/>
                          <g id="Line_90" data-name="Line 90">
                            <path id="Path_10461" data-name="Path 10461" d="M864.347,788.48H790.6a1,1,0,0,1,0-2h73.747a1,1,0,0,1,0,2Z" fill="#15375e"/>
                          </g>
                          <line id="Line_91" data-name="Line 91" x2="42.636" transform="translate(820.848 794.682)" fill="none"/>
                          <g id="Line_92" data-name="Line 92">
                            <path id="Path_10462" data-name="Path 10462" d="M863.484,795.682H820.848a1,1,0,0,1,0-2h42.636a1,1,0,0,1,0,2Z" fill="#15375e"/>
                          </g>
                          <g id="Path_9264" data-name="Path 9264">
                            <path id="Path_10463" data-name="Path 10463" d="M885.532,794.574l-3.727-3.646a.5.5,0,1,1,.7-.715l3.035,2.969,5.166-4.958a.5.5,0,1,1,.692.72Z" fill="#15375e"/>
                          </g>
                          <path id="Path_9265" data-name="Path 9265" d="M744.114,737.376H866.775a2.692,2.692,0,0,0,2.692-2.692h0V686.9a2.692,2.692,0,0,0-2.692-2.692H744.114a2.692,2.692,0,0,0-2.692,2.692v47.791a2.692,2.692,0,0,0,2.692,2.692" fill="#e2e2e2"/>
                          <path id="Path_9266" data-name="Path 9266" d="M842.976,699.839a5.973,5.973,0,1,0,4.69-4.69,5.972,5.972,0,0,0-4.69,4.69" fill="#fdc61b"/>
                          <path id="Path_9267" data-name="Path 9267" d="M796.458,699.193h39.285a1.155,1.155,0,1,0,0-2.309H796.458a1.155,1.155,0,0,0,0,2.309" fill="#fdc61b"/>
                          <path id="Path_9268" data-name="Path 9268" d="M757.14,704.441h78.6a1.154,1.154,0,1,0,0-2.309h-78.6a1.154,1.154,0,0,0,0,2.309" fill="#fff"/>
                          <path id="Path_9269" data-name="Path 9269" d="M842.865,719.359a5.969,5.969,0,1,0,5.969-5.97,5.969,5.969,0,0,0-5.969,5.97" fill="#fdc61b"/>
                          <path id="Path_9270" data-name="Path 9270" d="M816.811,717.545h18.93a1.154,1.154,0,1,0,0-2.309h-18.93a1.154,1.154,0,0,0,0,2.309" fill="#fdc61b"/>
                          <path id="Path_9271" data-name="Path 9271" d="M757.14,722.793h78.6a1.155,1.155,0,1,0,0-2.309h-78.6a1.155,1.155,0,0,0,0,2.309" fill="#fff"/>
                          <path id="Path_9272" data-name="Path 9272" d="M685.77,894.266H842.829a4.073,4.073,0,0,0,4.073-4.072V828.118a4.073,4.073,0,0,0-4.073-4.073H685.77a4.074,4.074,0,0,0-4.073,4.073v62.075a4.072,4.072,0,0,0,4.072,4.072h0" fill="#e2e2e2"/>
                          <path id="Path_9273" data-name="Path 9273" d="M816.678,857.98l.093-14.244a18.183,18.183,0,0,1,11.751,4.581,16.85,16.85,0,0,1,5.663,14.753,20.075,20.075,0,0,1-.332,2.069.312.312,0,0,1-.009.05h0l-17.166-3.858Z" fill="#fdc61b"/>
                          <path id="Path_9274" data-name="Path 9274" d="M798.99,853.595a16.892,16.892,0,0,1,13.852-9.7c.18-.018.361-.035.544-.047.116-.008.229-.02.346-.027q.51-.028,1.034-.03h.09l-.093,14.243-.022,3.347-17.167,3.746h-.022a16.905,16.905,0,0,1-.38-3.692,18.479,18.479,0,0,1,1.816-7.847" fill="#15375e"/>
                          <path id="Path_9276" data-name="Path 9276" d="M815.759,863.1l17.163,3.862a17.592,17.592,0,0,1-34.352-.115l17.168-3.746" fill="#fff"/>
                          <path id="Path_9278" data-name="Path 9278" d="M700.451,851.946H783.7a1.975,1.975,0,0,0,0-3.95H700.451a1.975,1.975,0,0,0,0,3.95" fill="#fff"/>
                          <path id="Path_9279" data-name="Path 9279" d="M700.451,862.36H783.7a1.975,1.975,0,0,0,0-3.95H700.451a1.975,1.975,0,0,0,0,3.95" fill="#fff"/>
                          <path id="Path_9280" data-name="Path 9280" d="M740.518,873.877H783.7a1.975,1.975,0,1,0,0-3.951H740.518a1.975,1.975,0,0,0,0,3.951h0" fill="#fff"/>
                          <path id="Path_9281" data-name="Path 9281" d="M490.721,940.108H645.672a8.656,8.656,0,0,0,8.656-8.655V782.908a8.655,8.655,0,0,0-8.656-8.656H490.721a8.655,8.655,0,0,0-8.655,8.655h0V931.453a8.655,8.655,0,0,0,8.655,8.655" fill="#e8e8e9"/>
                          <path id="Path_9282" data-name="Path 9282" d="M637.448,889.5h4.024a.815.815,0,1,0,.057-1.629h-4.081a.815.815,0,0,0,0,1.629" fill="#15375e"/>
                          <path id="Path_9283" data-name="Path 9283" d="M623.084,898.212h5.6a.815.815,0,0,0,0-1.629h-5.6a.815.815,0,0,0,0,1.629" fill="#15375e"/>
                          <path id="Path_9284" data-name="Path 9284" d="M597.915,898.212h5.6a.815.815,0,0,0,0-1.629h-5.6a.815.815,0,0,0,0,1.629" fill="#15375e"/>
                          <path id="Path_9285" data-name="Path 9285" d="M572.746,898.212h5.6a.815.815,0,0,0,0-1.629h-5.6a.815.815,0,0,0,0,1.629" fill="#15375e"/>
                          <path id="Path_9286" data-name="Path 9286" d="M547.578,898.212h5.6a.815.815,0,0,0,0-1.629h-5.6a.815.815,0,0,0,0,1.629" fill="#15375e"/>
                          <path id="Path_9287" data-name="Path 9287" d="M522.409,898.212h5.6a.815.815,0,0,0,0-1.629h-5.6a.815.815,0,0,0,0,1.629" fill="#15375e"/>
                          <path id="Path_9288" data-name="Path 9288" d="M497.24,898.212h5.6a.815.815,0,0,0,0-1.629h-5.6a.815.815,0,0,0,0,1.629" fill="#15375e"/>
                          <path id="Path_9289" data-name="Path 9289" d="M637.448,867.74h4.024a.815.815,0,0,0,0-1.63h-4.024a.815.815,0,0,0,0,1.63" fill="#15375e"/>
                          <path id="Path_9290" data-name="Path 9290" d="M637.448,826.79h4.024a.815.815,0,1,0,.057-1.629.522.522,0,0,0-.057,0h-4.024a.815.815,0,0,0,0,1.629" fill="#15375e"/>
                          <path id="Path_9291" data-name="Path 9291" d="M637.448,806.21h4.024a.815.815,0,1,0,.057-1.629h-4.081a.815.815,0,0,0,0,1.629" fill="#15375e"/>
                          <path id="Path_9292" data-name="Path 9292" d="M637.164,847.267h4.023a.815.815,0,1,0,.057-1.629h-4.08a.815.815,0,0,0-.057,1.629h.057" fill="#15375e"/>
                          <line id="Line_93" data-name="Line 93" x2="133.182" transform="translate(495.035 805.396)" fill="none"/>
                          <g id="Line_94" data-name="Line 94">
                            <path id="Path_10464" data-name="Path 10464" d="M628.217,805.9H495.035a.5.5,0,0,1,0-1H628.217a.5.5,0,0,1,0,1Z" fill="#15375e"/>
                          </g>
                          <line id="Line_95" data-name="Line 95" x2="133.182" transform="translate(495.035 825.976)" fill="none"/>
                          <g id="Line_96" data-name="Line 96">
                            <path id="Path_10465" data-name="Path 10465" d="M628.217,826.476H495.035a.5.5,0,0,1,0-1H628.217a.5.5,0,0,1,0,1Z" fill="#15375e"/>
                          </g>
                          <line id="Line_97" data-name="Line 97" x2="133.182" transform="translate(495.035 846.452)" fill="none"/>
                          <g id="Line_98" data-name="Line 98">
                            <path id="Path_10466" data-name="Path 10466" d="M628.217,846.952H495.035a.5.5,0,0,1,0-1H628.217a.5.5,0,0,1,0,1Z" fill="#15375e"/>
                          </g>
                          <line id="Line_99" data-name="Line 99" x2="133.182" transform="translate(495.035 866.928)" fill="none"/>
                          <g id="Line_100" data-name="Line 100">
                            <path id="Path_10467" data-name="Path 10467" d="M628.217,867.428H495.035a.5.5,0,0,1,0-1H628.217a.5.5,0,0,1,0,1Z" fill="#15375e"/>
                          </g>
                          <path id="Path_9293" data-name="Path 9293" d="M626.843,885.1V866.929l-11.321-17.575-7.683,5.9-15.772-24.5-9.3,6.55-12.94-22.6-10.515,8.565-15.769-29.987L526.559,826.79l-13.75-16.766L496.634,805.4v79.7Z" fill="#fdc61b"/>
                          <g id="Path_9294" data-name="Path 9294">
                            <path id="Path_10468" data-name="Path 10468" d="M626.844,873.481a.5.5,0,0,1-.423-.231l-15.85-24.894a7.955,7.955,0,0,0-13.136-.414l-3.308,4.535a8.954,8.954,0,0,1-14.906-.66l-18.755-31.15a8,8,0,0,0-6.815-3.853h-24.3a9.009,9.009,0,0,1-7.106-3.5L514,802.56a8,8,0,0,0-6.309-3.114H495.034a.5.5,0,0,1,0-1h12.657a9.006,9.006,0,0,1,7.1,3.5l8.245,10.75a8,8,0,0,0,6.312,3.114h24.3a9,9,0,0,1,7.671,4.337L580.077,851.3a7.954,7.954,0,0,0,13.242.585l3.308-4.534a8.956,8.956,0,0,1,14.788.466l15.85,24.894a.5.5,0,0,1-.421.768Z" fill="#15375e"/>
                          </g>
                          <path id="Path_9295" data-name="Path 9295" d="M598.872,843.49a1.278,1.278,0,1,0,1.325-1.229h-.048a1.254,1.254,0,0,0-1.277,1.229h0" fill="#15375e"/>
                          <path id="Path_9296" data-name="Path 9296" d="M560.459,821.657a1.278,1.278,0,1,0,1.325-1.229h-.048a1.254,1.254,0,0,0-1.277,1.23" fill="#15375e"/>
                          <path id="Path_9297" data-name="Path 9297" d="M530.6,816.293a1.278,1.278,0,1,0,1.325-1.229h-.048a1.254,1.254,0,0,0-1.277,1.23" fill="#15375e"/>
                          <path id="Path_9298" data-name="Path 9298" d="M612.974,918.352a8.268,8.268,0,1,0,8.575-7.949q-.156-.006-.312-.006a8.113,8.113,0,0,0-8.263,7.955" fill="#fff"/>
                          <path id="Path_9299" data-name="Path 9299" d="M505.144,916h94.082a1.488,1.488,0,1,0,0-2.977H505.144a1.488,1.488,0,0,0,0,2.977" fill="#fff"/>
                          <path id="Path_9300" data-name="Path 9300" d="M561.9,923.438h37.323a1.488,1.488,0,1,0,0-2.977H561.9a1.488,1.488,0,0,0,0,2.977" fill="#fff"/>
                          <path id="Path_9301" data-name="Path 9301" d="M428.222,740.289H532.436a5.079,5.079,0,0,0,5.08-5.08h0v-84.7a5.079,5.079,0,0,0-5.08-5.08H428.222a5.082,5.082,0,0,0-5.08,5.08v84.7a5.08,5.08,0,0,0,5.08,5.08h0" fill="#e8e8e9"/>
                          <path id="Path_9302" data-name="Path 9302" d="M511.39,729.955h6.166V686.491a3.083,3.083,0,0,0-6.166,0Z" fill="#fdc61b"/>
                          <path id="Path_9303" data-name="Path 9303" d="M483.367,729.954h6.166V682.713a3.082,3.082,0,0,0-3.081-3.083h0a3.084,3.084,0,0,0-3.083,3.082Z" fill="#fdc61b"/>
                          <path id="Path_9304" data-name="Path 9304" d="M454.342,729.954h6.166V676.322a3.083,3.083,0,1,0-6.166,0Z" fill="#fdc61b"/>
                          <path id="Path_9305" data-name="Path 9305" d="M467.98,729.955h6.166V710.374a3.083,3.083,0,1,0-6.166,0Z" fill="#15375e"/>
                          <path id="Path_9307" data-name="Path 9307" d="M504.2,729.951h6.166V681.5a3.083,3.083,0,1,0-6.166,0Z" fill="#fff"/>
                          <path id="Path_9309" data-name="Path 9309" d="M475.679,729.955h6.166V670.707a3.083,3.083,0,0,0-6.166,0Z" fill="#fff"/>
                          <path id="Path_9311" data-name="Path 9311" d="M438.44,729.955h6.166V670.707a3.083,3.083,0,0,0-6.166,0Z" fill="#15375e"/>
                          <path id="Path_9313" data-name="Path 9313" d="M446.486,729.954h6.166V658.4a3.083,3.083,0,0,0-6.166,0Z" fill="#fff"/>
                          <path id="Path_9315" data-name="Path 9315" d="M496.662,729.955h6.166V700.33a3.083,3.083,0,0,0-6.166,0Z" fill="#15375e"/>
                          <path id="Path_9317" data-name="Path 9317" d="M429.619,732.778c0,.148,22,.268,49.134.268s49.138-.12,49.138-.268-22-.268-49.138-.268-49.134.12-49.134.268" fill="#15375e"/>
                          <path id="Path_9318" data-name="Path 9318" d="M527.6,722.914h2.522a.62.62,0,0,0,0-1.24H527.6a.62.62,0,0,0,0,1.24h0" fill="#15375e"/>
                          <path id="Path_9319" data-name="Path 9319" d="M527.6,706.35h2.522a.62.62,0,0,0,0-1.24H527.6a.62.62,0,0,0,0,1.24h0" fill="#15375e"/>
                          <path id="Path_9320" data-name="Path 9320" d="M527.6,675.176h2.522a.62.62,0,0,0,0-1.24H527.6a.62.62,0,0,0,0,1.24" fill="#15375e"/>
                          <path id="Path_9321" data-name="Path 9321" d="M527.6,659.51h2.522a.62.62,0,0,0,0-1.24H527.6a.62.62,0,0,0,0,1.24" fill="#15375e"/>
                          <path id="Path_9322" data-name="Path 9322" d="M527.414,690.764h2.522a.62.62,0,0,0,0-1.24h-2.522a.62.62,0,0,0,0,1.24h0" fill="#15375e"/>
                          <line id="Line_101" data-name="Line 101" x2="98.272" transform="translate(429.619 732.778)" fill="none"/>
                          <g id="Line_102" data-name="Line 102">
                            <path id="Path_10469" data-name="Path 10469" d="M527.891,733.278H429.619a.5.5,0,0,1,0-1h98.272a.5.5,0,0,1,0,1Z" fill="#15375e"/>
                          </g>
                          <path id="Path_9323" data-name="Path 9323" d="M555.237,670.608H665.9a3.324,3.324,0,0,0,3.324-3.324V641.041a3.325,3.325,0,0,0-3.324-3.325H555.237a3.325,3.325,0,0,0-3.325,3.325v26.243a3.325,3.325,0,0,0,3.325,3.324" fill="#fdc61b"/>
                          <path id="Path_9324" data-name="Path 9324" d="M644.494,659.648a7.148,7.148,0,1,0,1.1-10.049,7.148,7.148,0,0,0-1.1,10.049h0" fill="#fff"/>
                          <line id="Line_103" data-name="Line 103" x2="66.612" transform="translate(563.357 651.752)" fill="none"/>
                          <line id="Line_104" data-name="Line 104" x2="66.612" transform="translate(563.357 651.752)" fill="none" stroke="#fff" stroke-linecap="round" stroke-miterlimit="10" stroke-width="1"/>
                        </g>
                      </g>
                    </g>
                  </g>
                </g>
              </g>
            </g>
          </g>
        </g>
      </g>
    </g>
  </g>
</svg>
