<svg xmlns="http://www.w3.org/2000/svg" xmlns:xlink="http://www.w3.org/1999/xlink" width="537" height="335" viewBox="0 0 537 335">
  <defs>
    <clipPath id="clip-path">
      <rect id="Rectangle_1311" data-name="Rectangle 1311" width="537" height="335" transform="translate(259.332 744.129)" fill="none"/>
    </clipPath>
    <clipPath id="clip-path-2">
      <rect id="Rectangle_1304" data-name="Rectangle 1304" width="36.021" height="93.878" transform="translate(412.561 763.094) rotate(-39)" fill="none"/>
    </clipPath>
    <clipPath id="clip-path-3">
      <rect id="Rectangle_1305" data-name="Rectangle 1305" width="196.491" height="109.284" transform="matrix(0.454, -0.891, 0.891, 0.454, 544.752, 965.884)" fill="none"/>
    </clipPath>
    <clipPath id="clip-path-4">
      <rect id="Rectangle_1306" data-name="Rectangle 1306" width="93.016" height="101.105" transform="matrix(0.92, -0.391, 0.391, 0.92, 317.307, 956.06)" fill="none"/>
    </clipPath>
    <clipPath id="clip-path-5">
      <rect id="Rectangle_1307" data-name="Rectangle 1307" width="89.425" height="89.306" transform="translate(350.266 908.761) rotate(-53.989)" fill="none"/>
    </clipPath>
    <clipPath id="clip-path-6">
      <rect id="Rectangle_1310" data-name="Rectangle 1310" width="434.325" height="350.464" transform="translate(311.332 728.129)" fill="none"/>
    </clipPath>
    <clipPath id="clip-path-7">
      <rect id="Rectangle_1309" data-name="Rectangle 1309" width="434.325" height="350.464" transform="translate(311.332 745.129)" fill="none"/>
    </clipPath>
    <clipPath id="clip-path-8">
      <rect id="Rectangle_1308" data-name="Rectangle 1308" width="101.127" height="197.848" transform="translate(422.357 814.794)" fill="none"/>
    </clipPath>
  </defs>
  <g id="Group_1227" data-name="Group 1227" transform="translate(-259.332 -744.129)">
    <g id="Group_1226" data-name="Group 1226">
      <g id="Group_1225" data-name="Group 1225" clip-path="url(#clip-path)">
        <g id="Mask_Group_6" data-name="Mask Group 6">
          <g id="Group_620" data-name="Group 620">
            <path id="Path_8921" data-name="Path 8921" d="M291.822,1043.308c98.693,102.39,227.566-51.98,349.356-38.578,78.441,8.633,165.194-29.757,154.208-126.557C779.406,737.41,555.608,734.883,434.9,763.749S204.432,952.641,291.822,1043.308" fill="#fef3d1"/>
          </g>
          <g id="Group_889" data-name="Group 889">
            <g id="Group_1212" data-name="Group 1212">
              <g id="Group_1211" data-name="Group 1211" clip-path="url(#clip-path-2)">
                <g id="Group_878" data-name="Group 878">
                  <path id="Path_10026" data-name="Path 10026" d="M453.539,761.371l.048-.038a3.027,3.027,0,0,0,.45-4.256h0l-2.266-2.8-.01.008a17.981,17.981,0,1,0-27.849,22.753l45.525,56.288a3.48,3.48,0,0,0,4.894.518l22.56-18.246a3.479,3.479,0,0,0,.518-4.893l-22.748-28.131a3.475,3.475,0,0,0-2.338-1.272l-35.668-3.771h0a11.78,11.78,0,0,1-5.882-2.338,12.571,12.571,0,0,1-1.044-.885l-.1-.093a11.462,11.462,0,0,1-.951-1.031,11.869,11.869,0,1,1,18.346-15.065l2.266,2.8a3.024,3.024,0,0,0,4.25.451" fill="#eeedee"/>
                </g>
              </g>
            </g>
          </g>
          <g id="Group_959" data-name="Group 959">
            <rect id="Rectangle_1181" data-name="Rectangle 1181" width="82.384" height="3.018" transform="matrix(0.732, -0.681, 0.681, 0.732, 645.798, 888.108)" fill="#e2e2e2"/>
            <rect id="Rectangle_1182" data-name="Rectangle 1182" width="82.383" height="3.018" transform="matrix(0.732, -0.681, 0.681, 0.732, 658.949, 902.244)" fill="#e2e2e2"/>
            <g id="Group_876" data-name="Group 876">
              <g id="Group_1214" data-name="Group 1214">
                <g id="Group_1213" data-name="Group 1213" clip-path="url(#clip-path-3)">
                  <g id="Group_875" data-name="Group 875">
                    <path id="Path_10017" data-name="Path 10017" d="M719.91,852.136l-17.057-18.344a3.621,3.621,0,0,1,5.3-4.93l17.057,18.343a3.621,3.621,0,1,1-5.181,5.06q-.062-.063-.12-.129" fill="#eeedee"/>
                    <path id="Path_10018" data-name="Path 10018" d="M559.138,957.993h0a3.319,3.319,0,0,1,.169-4.691l6.4-5.962,4.522,4.861-6.405,5.962a3.317,3.317,0,0,1-4.689-.168l0,0" fill="#e2e2e2"/>
                    <path id="Path_10019" data-name="Path 10019" d="M585.652,986.5h0a3.321,3.321,0,0,1,.169-4.692l6.405-5.962,4.522,4.861-6.4,5.962a3.319,3.319,0,0,1-4.691-.169h0" fill="#e2e2e2"/>
                    <path id="Path_10020" data-name="Path 10020" d="M589.863,979.948l-24.093-25.9a20.394,20.394,0,0,1,1.039-28.741l65.673-61.09a20.4,20.4,0,0,1,28.74,1.039l24.094,25.9a20.4,20.4,0,0,1-1.038,28.74L618.6,980.986a20.4,20.4,0,0,1-28.739-1.039" fill="#eeedee"/>
                    <path id="Path_10021" data-name="Path 10021" d="M573.706,935.993h0a1.362,1.362,0,0,1,.068-1.919L640.5,872a1.359,1.359,0,0,1,1.85,1.99l-66.728,62.071a1.361,1.361,0,0,1-1.919-.069" fill="#fff" opacity="0.8" style="isolation: isolate"/>
                    <path id="Path_10022" data-name="Path 10022" d="M582.39,945.329h0a1.362,1.362,0,0,1,.068-1.919l66.728-62.071a1.359,1.359,0,1,1,1.9,1.945l-.048.045L584.308,945.4a1.361,1.361,0,0,1-1.919-.069" fill="#fff" opacity="0.8" style="isolation: isolate"/>
                    <path id="Path_10023" data-name="Path 10023" d="M591.073,954.665h0a1.362,1.362,0,0,1,.068-1.919l66.728-62.071a1.358,1.358,0,1,1,1.85,1.989l-66.728,62.071a1.361,1.361,0,0,1-1.919-.069" fill="#fff" opacity="0.8" style="isolation: isolate"/>
                    <path id="Path_10024" data-name="Path 10024" d="M599.757,964h0a1.361,1.361,0,0,1,.069-1.919l66.727-62.071A1.359,1.359,0,1,1,668.4,902L601.675,964.07a1.361,1.361,0,0,1-1.919-.069" fill="#fff" opacity="0.8" style="isolation: isolate"/>
                    <path id="Path_10025" data-name="Path 10025" d="M608.662,973.13h0a1.36,1.36,0,0,1,.068-1.919l66.728-62.071a1.358,1.358,0,1,1,1.85,1.989L610.581,973.2a1.361,1.361,0,0,1-1.919-.069" fill="#fff" opacity="0.8" style="isolation: isolate"/>
                  </g>
                </g>
              </g>
            </g>
          </g>
          <g id="Group_924" data-name="Group 924">
            <g id="Group_1216" data-name="Group 1216">
              <g id="Group_1215" data-name="Group 1215" clip-path="url(#clip-path-4)">
                <g id="Group_923" data-name="Group 923">
                  <path id="Path_10060" data-name="Path 10060" d="M428.621,988.147l-29.391,42.972-70.539-48.245,29.39-42.974a6.709,6.709,0,0,1,9.325-1.749h0l59.46,40.672a6.71,6.71,0,0,1,1.751,9.325h0" fill="#eeedee"/>
                  <path id="Path_10061" data-name="Path 10061" d="M353.867,971.122h0a10.982,10.982,0,1,0,17.151-8.229h0a10.983,10.983,0,0,0-17.151,8.228" fill="#fff" opacity="0.8" style="isolation: isolate"/>
                  <path id="Path_10062" data-name="Path 10062" d="M374.005,1004.566a19.707,19.707,0,0,1,1.622-2.819,5.379,5.379,0,0,1,2.968-2.414,3.518,3.518,0,0,1,2.906.6,3.857,3.857,0,0,1,1.74,2.413,5.423,5.423,0,0,1-1.072,4.112,5.843,5.843,0,0,1-.864,1.056l4.327,2.959-.953,1.393Zm6.161,2.167a5.629,5.629,0,0,0,.9-1.077c1.15-1.684,1.036-3.266-.455-4.285-1.426-.976-2.807-.439-3.857,1.1a7.009,7.009,0,0,0-.786,1.391Z" fill="#fff" opacity="0.8" style="isolation: isolate"/>
                  <path id="Path_10063" data-name="Path 10063" d="M388.479,999.015l2.631,3.448-.987,1.442-8.292-11.059,1.151-1.684,13.32,3.7-1.018,1.49-4.186-1.168Zm1.332-4.287-3.832-1.069c-.864-.243-1.62-.52-2.354-.786l-.021.031c.531.6,1.064,1.225,1.581,1.881l2.4,3.194Z" fill="#fff" opacity="0.8" style="isolation: isolate"/>
                  <path id="Path_10064" data-name="Path 10064" d="M396.652,990.708a5.982,5.982,0,0,0,2.415-2.017c.976-1.427.793-2.775-.3-3.52-1.01-.69-1.981-.508-3.539.567-1.83,1.334-3.488,1.8-5.01.758-1.684-1.15-1.978-3.4-.544-5.5a5.955,5.955,0,0,1,2.162-2.024l.875,1.162a5.2,5.2,0,0,0-1.917,1.7c-1.005,1.473-.51,2.638.228,3.143,1.01.688,1.956.372,3.551-.722,1.954-1.345,3.472-1.672,5.058-.587,1.666,1.14,2.265,3.359.522,5.907a6.763,6.763,0,0,1-2.573,2.289Z" fill="#fff" opacity="0.8" style="isolation: isolate"/>
                  <path id="Path_10065" data-name="Path 10065" d="M403.147,981.208a5.989,5.989,0,0,0,2.415-2.017c.975-1.426.792-2.774-.3-3.52-1.01-.689-1.982-.507-3.539.567-1.83,1.334-3.489,1.8-5.011.758-1.684-1.15-1.979-3.4-.543-5.5a5.955,5.955,0,0,1,2.161-2.025l.875,1.163a5.209,5.209,0,0,0-1.916,1.7c-1.005,1.473-.511,2.638.227,3.142,1.011.689,1.956.373,3.552-.722,1.954-1.345,3.471-1.671,5.057-.587,1.666,1.14,2.265,3.36.522,5.908a6.761,6.761,0,0,1-2.573,2.288Z" fill="#fff" opacity="0.8" style="isolation: isolate"/>
                </g>
              </g>
            </g>
          </g>
          <g id="Group_1218" data-name="Group 1218">
            <g id="Group_1217" data-name="Group 1217" clip-path="url(#clip-path-5)">
              <g id="Group_887" data-name="Group 887">
                <path id="Path_10038" data-name="Path 10038" d="M415.668,946.124,402.7,927.965a5.269,5.269,0,0,0-4.382-2.207l-22.31.387a5.272,5.272,0,0,1-4.328-8.4L384.944,899.8a5.273,5.273,0,0,0,.745-4.85l-7.266-21.1a5.274,5.274,0,0,1,6.656-6.717l21.164,7.069a5.267,5.267,0,0,0,4.842-.789l17.823-13.428a5.272,5.272,0,0,1,8.444,4.255l-.183,22.312a5.272,5.272,0,0,0,2.248,4.361l18.277,12.8a5.274,5.274,0,0,1-1.434,9.344l-21.276,6.726a5.273,5.273,0,0,0-3.454,3.487L425,944.606a5.272,5.272,0,0,1-9.332,1.521" fill="#15375e" opacity="0.8" style="isolation: isolate"/>
                <path id="Path_10039" data-name="Path 10039" d="M391.071,896.708a10.353,10.353,0,0,0-.566-3.422l-4.742-13.778a4,4,0,0,1,5.043-5.089l13.822,4.616a10.372,10.372,0,0,0,9.526-1.553l11.639-8.768a3.994,3.994,0,0,1,6.4,3.223l-.059,7.442L431,879.37l.062-7.446a2.861,2.861,0,0,0-4.582-2.31l-11.642,8.774a11.5,11.5,0,0,1-10.568,1.723l-13.821-4.617a2.86,2.86,0,0,0-3.611,3.645l4.742,13.778a11.469,11.469,0,0,1,.627,3.794Z" fill="#15375e"/>
                <path id="Path_10040" data-name="Path 10040" d="M381.525,920.345a4,4,0,0,1-1.349-5.495c.063-.1.131-.2.2-.3l6.627-8.965.912.674-6.626,8.966a2.861,2.861,0,0,0,2.352,4.561l14.568-.252a11.617,11.617,0,0,1,9.563,4.816l8.468,11.86a2.861,2.861,0,0,0,5.065-.827l4.264-13.936a11.5,11.5,0,0,1,7.534-7.6l13.9-4.392a2.859,2.859,0,0,0,.78-5.07l-11.937-8.36a11.444,11.444,0,0,1-3.085-3.217l.954-.611a10.3,10.3,0,0,0,2.782,2.9l11.938,8.36a3.992,3.992,0,0,1-1.089,7.079l-13.9,4.388a10.362,10.362,0,0,0-6.793,6.854l-4.263,13.936a3.995,3.995,0,0,1-7.071,1.154L406.848,925a10.465,10.465,0,0,0-8.622-4.341l-14.569.251a3.982,3.982,0,0,1-2.135-.57" fill="#15375e"/>
              </g>
            </g>
          </g>
          <g id="Group_982" data-name="Group 982">
            <g id="Group_1224" data-name="Group 1224">
              <g id="Group_1223" data-name="Group 1223" clip-path="url(#clip-path-6)">
                <g id="Group_619" data-name="Group 619">
                  <g id="Group_618" data-name="Group 618">
                    <g id="Group_1222" data-name="Group 1222">
                      <g id="Group_1221" data-name="Group 1221" clip-path="url(#clip-path-7)">
                        <g id="Group_617" data-name="Group 617">
                          <path id="Path_9325" data-name="Path 9325" d="M346.071,1030.756a.751.751,0,0,0-.262-.229c-1.142-.6-1.767-.981-1.774-.985a.662.662,0,0,0-.916.187l-.008.013a.7.7,0,0,0,.259.93c.027.017.672.415,1.868,1.038a.651.651,0,0,0,.887-.247l.013-.024a.679.679,0,0,0-.068-.684" fill="#15375e"/>
                          <path id="Path_9326" data-name="Path 9326" d="M396.258,1035.007c1.221-.406,2.451-.856,3.658-1.342a.724.724,0,0,1,.9.379.636.636,0,0,1-.285.854l-.04.019c-1.23.5-2.486.956-3.733,1.371a.722.722,0,0,1-.882-.431.635.635,0,0,1,.337-.833l.043-.016" fill="#15375e"/>
                          <path id="Path_9327" data-name="Path 9327" d="M403.472,1032.1c1.153-.549,2.313-1.144,3.45-1.769a.7.7,0,0,1,.9.23.453.453,0,0,1,.03.046.646.646,0,0,1-.191.893l-.029.018c-1.157.636-2.34,1.244-3.515,1.8a.714.714,0,0,1-.921-.327.641.641,0,0,1,.236-.874l.036-.019" fill="#15375e"/>
                          <path id="Path_9328" data-name="Path 9328" d="M420.568,1021.628a.658.658,0,0,1-.084.882c-.994.859-2.012,1.7-3.026,2.491a.7.7,0,0,1-.957-.133.657.657,0,0,1,.059-.927l.017-.015c1-.783,2-1.608,2.98-2.455a.689.689,0,0,1,.959.091.661.661,0,0,1,.053.066" fill="#15375e"/>
                          <path id="Path_9329" data-name="Path 9329" d="M410.087,1029.294a.65.65,0,0,1,.145-.907l.025-.017c.507-.319,1.016-.646,1.509-.974.57-.377,1.146-.77,1.71-1.167a.7.7,0,0,1,.952.178l.01.015a.654.654,0,0,1-.126.916l-.005,0c-.574.4-1.159.8-1.739,1.188-.5.334-1.02.667-1.537.991a.7.7,0,0,1-.935-.212l-.01-.015" fill="#15375e"/>
                          <path id="Path_9330" data-name="Path 9330" d="M392.511,1036.117a.716.716,0,0,1,.758.289.7.7,0,0,1,.1.194.63.63,0,0,1-.383.8l-.051.016c-1.286.338-2.6.637-3.906.89a.729.729,0,0,1-.827-.534.629.629,0,0,1,.435-.776.453.453,0,0,1,.051-.012c1.279-.247,2.565-.54,3.826-.87" fill="#15375e"/>
                          <path id="Path_9331" data-name="Path 9331" d="M349.48,1032.276c1.224.534,2.494,1.043,3.775,1.514a.73.73,0,0,1,.347.266.686.686,0,0,1,.1.6.642.642,0,0,1-.811.406l-.037-.014c-1.309-.481-2.605-1-3.856-1.547a.71.71,0,0,1-.394-.89.645.645,0,0,1,.842-.352l.033.015" fill="#15375e"/>
                          <path id="Path_9332" data-name="Path 9332" d="M361.006,1036.153a.738.738,0,0,1,.425.291.686.686,0,0,1,.12.525.634.634,0,0,1-.742.5l-.048-.011c-1.33-.325-2.669-.693-3.98-1.092a.718.718,0,0,1-.5-.843.637.637,0,0,1,.778-.454l.043.013c1.286.392,2.6.752,3.9,1.069" fill="#15375e"/>
                          <path id="Path_9333" data-name="Path 9333" d="M376.894,1038.106a.728.728,0,0,1,.59.311.71.71,0,0,1,.13.363.626.626,0,0,1-.579.671.537.537,0,0,1-.056,0c-1.347,0-2.716-.045-4.07-.13a.729.729,0,0,1-.678-.714.627.627,0,0,1,.623-.631.537.537,0,0,1,.056,0c1.326.084,2.666.125,3.985.127" fill="#15375e"/>
                          <path id="Path_9334" data-name="Path 9334" d="M368.923,1037.606a.73.73,0,0,1,.506.306.7.7,0,0,1,.13.446.628.628,0,0,1-.664.59.546.546,0,0,1-.056-.006c-1.344-.165-2.707-.375-4.054-.623a.725.725,0,0,1-.591-.786.63.63,0,0,1,.7-.546.42.42,0,0,1,.052.009c1.32.242,2.656.447,3.973.61" fill="#15375e"/>
                          <path id="Path_9335" data-name="Path 9335" d="M384.8,1037.611a.723.723,0,0,1,.675.305.708.708,0,0,1,.118.278.626.626,0,0,1-.482.742.584.584,0,0,1-.058.01c-1.326.17-2.68.3-4.02.382a.73.73,0,0,1-.758-.63.626.626,0,0,1,.524-.712l.064-.006c1.312-.083,2.637-.209,3.936-.373" fill="#15375e"/>
                          <path id="Path_9350" data-name="Path 9350" d="M516.889,762.034a32.376,32.376,0,0,0-32.54,37.7,6.6,6.6,0,0,0,6.6,5.646,6.764,6.764,0,0,0,1.86-.264,85.09,85.09,0,0,1,48.288,0,6.762,6.762,0,0,0,5.448-.989,7.047,7.047,0,0,0,2.994-4.8,29.738,29.738,0,0,0,.4-4.326,32.974,32.974,0,0,0-32.986-32.962h0Z" fill="#fdc61b"/>
                          <path id="Path_9351" data-name="Path 9351" d="M556.458,1025.835h-79.14a6.6,6.6,0,0,0-6.6,6.6h0a46.166,46.166,0,0,0,92.331,0h0a6.6,6.6,0,0,0-6.6-6.6h0" fill="#fdc61b"/>
                          <path id="Path_9352" data-name="Path 9352" d="M639.831,1002.21c-2.084-4.6-4.709-9.747-7.61-15.42a214.723,214.723,0,0,1-29.6-99.452c0-52.27-27.7-90.628-70.54-97.71a84.32,84.32,0,0,0-69.4,20.234,92.6,92.6,0,0,0-31.656,72.808,210.617,210.617,0,0,1-29.44,104.306c-2.836,5.592-5.422,10.684-7.479,15.221a26.065,26.065,0,0,0,23.86,36.826h198.06a26.061,26.061,0,0,0,23.82-36.813h-.011Z" fill="#fdc61b"/>
                          <g id="Group_616" data-name="Group 616" opacity="0.32">
                            <g id="Group_615" data-name="Group 615">
                              <g id="Group_1220" data-name="Group 1220">
                                <g id="Group_1219" data-name="Group 1219" clip-path="url(#clip-path-8)">
                                  <g id="Group_614" data-name="Group 614">
                                    <path id="Path_9353" data-name="Path 9353" d="M428.951,1012.642a6.6,6.6,0,0,1-5.9-9.549l2.124-4.168a241.628,241.628,0,0,0,32.354-111.586c0-33.462,15.551-72.544,59.355-72.544a6.6,6.6,0,0,1,0,13.191c-42.841,0-46.165,45.426-46.165,59.354a252.847,252.847,0,0,1-33.806,117.588L434.856,1009a6.6,6.6,0,0,1-5.91,3.639" fill="#fff"/>
                                  </g>
                                </g>
                              </g>
                            </g>
                          </g>
                          <path id="Path_9356" data-name="Path 9356" d="M637.04,760.459a.753.753,0,0,0,.347,0c1.25-.307,1.975-.432,1.982-.433a.658.658,0,0,0,.564-.74l0-.02a.7.7,0,0,0-.809-.527c-.031.005-.778.133-2.088.455a.652.652,0,0,0-.506.772l.006.028a.681.681,0,0,0,.5.468" fill="#15375e"/>
                          <path id="Path_9357" data-name="Path 9357" d="M596.572,790.435c-.649,1.111-1.274,2.263-1.858,3.424a.712.712,0,0,1-.8.355.823.823,0,0,1-.127-.043.637.637,0,0,1-.35-.83.3.3,0,0,1,.018-.041c.6-1.184,1.233-2.36,1.9-3.495a.722.722,0,0,1,.946-.259.635.635,0,0,1,.3.849.393.393,0,0,1-.021.04" fill="#15375e"/>
                          <path id="Path_9358" data-name="Path 9358" d="M593.075,797.382c-.5,1.174-.98,2.388-1.419,3.608a.708.708,0,0,1-.831.425l-.053-.015a.647.647,0,0,1-.446-.8l.01-.031c.447-1.244.935-2.48,1.446-3.677a.715.715,0,0,1,.907-.363.641.641,0,0,1,.4.815l-.013.036" fill="#15375e"/>
                          <path id="Path_9359" data-name="Path 9359" d="M587.167,816.545a.657.657,0,0,1-.519-.717c.178-1.3.388-2.6.624-3.87a.694.694,0,0,1,.807-.533.656.656,0,0,1,.569.734l0,.023c-.232,1.247-.439,2.53-.614,3.812a.69.69,0,0,1-.78.566.4.4,0,0,1-.084-.015" fill="#15375e"/>
                          <path id="Path_9360" data-name="Path 9360" d="M589.965,803.86a.65.65,0,0,1,.491.779l-.007.028c-.171.574-.336,1.156-.49,1.727-.178.661-.35,1.336-.511,2.007a.7.7,0,0,1-.833.494H588.6a.653.653,0,0,1-.51-.769l0-.008c.164-.682.338-1.37.52-2.041.157-.582.325-1.174.5-1.759a.7.7,0,0,1,.841-.458h.017" fill="#15375e"/>
                          <path id="Path_9361" data-name="Path 9361" d="M598.648,787.126a.727.727,0,0,1-.961.2.632.632,0,0,1-.242-.859c.008-.014.016-.028.025-.041.743-1.1,1.532-2.2,2.344-3.249a.726.726,0,0,1,.973-.146.629.629,0,0,1,.188.869c-.01.016-.021.03-.032.045-.8,1.03-1.568,2.1-2.295,3.181" fill="#15375e"/>
                          <path id="Path_9362" data-name="Path 9362" d="M633.482,761.567c-1.271.408-2.561.865-3.834,1.358a.734.734,0,0,1-.437.03.688.688,0,0,1-.473-.386.641.641,0,0,1,.341-.84l.037-.014c1.3-.5,2.618-.969,3.916-1.387a.708.708,0,0,1,.885.408.644.644,0,0,1-.4.819l-.034.011" fill="#15375e"/>
                          <path id="Path_9363" data-name="Path 9363" d="M622.269,766.278a.731.731,0,0,1-.511.063.693.693,0,0,1-.437-.315.632.632,0,0,1,.224-.865.366.366,0,0,1,.044-.024c1.212-.635,2.46-1.245,3.709-1.813a.719.719,0,0,1,.931.3.637.637,0,0,1-.284.855c-.013.007-.027.013-.041.019-1.224.556-2.448,1.154-3.636,1.776" fill="#15375e"/>
                          <path id="Path_9364" data-name="Path 9364" d="M609.054,775.312a.73.73,0,0,1-.648.158.718.718,0,0,1-.336-.187.627.627,0,0,1-.011-.885.528.528,0,0,1,.043-.04c1.01-.889,2.067-1.76,3.14-2.592a.728.728,0,0,1,.981.087.627.627,0,0,1-.051.886.381.381,0,0,1-.043.036c-1.049.814-2.084,1.667-3.074,2.538" fill="#15375e"/>
                          <path id="Path_9365" data-name="Path 9365" d="M615.367,770.419a.732.732,0,0,1-.581.1.7.7,0,0,1-.392-.249.629.629,0,0,1,.109-.883l.045-.032c1.118-.763,2.28-1.506,3.455-2.211a.723.723,0,0,1,.962.2.63.63,0,0,1-.172.875c-.012.009-.026.017-.039.025-1.151.69-2.29,1.418-3.385,2.166" fill="#15375e"/>
                          <path id="Path_9366" data-name="Path 9366" d="M603.449,780.908a.727.727,0,0,1-.981.088.627.627,0,0,1-.129-.876c.012-.016.025-.031.038-.046.884-1,1.815-1.995,2.765-2.944a.729.729,0,0,1,.986-.028.626.626,0,0,1,.067.884.462.462,0,0,1-.037.04c-.931.929-1.842,1.9-2.708,2.881" fill="#15375e"/>
                          <path id="Path_9367" data-name="Path 9367" d="M637.738,756.029l-1.409-10.9,36.94,5.3Z" fill="#fdc61b"/>
                          <path id="Path_9368" data-name="Path 9368" d="M673.267,750.425l-34.122,8.381-.09.024-1.714,1.966.4-4.765Z" fill="#af3910"/>
                          <path id="Path_9369" data-name="Path 9369" d="M637.34,760.795l3.066-.038-1.351-1.928Z" fill="#fdc61b"/>
                          <path id="Path_9370" data-name="Path 9370" d="M643.347,757.775l-4.295,1.054,6.985,9.946,27.225-18.349Z" fill="#fdc61b"/>
                          <path id="Path_9371" data-name="Path 9371" d="M345.493,1028.424l4.738-9.919-36.747-6.485Z" fill="#fdc61b"/>
                          <path id="Path_9372" data-name="Path 9372" d="M313.484,1012.018l29.806,18.6.079.05,1.016,2.4,1.108-4.65Z" fill="#af3910"/>
                          <path id="Path_9373" data-name="Path 9373" d="M344.385,1033.075l-2.9-.993,1.886-1.409Z" fill="#fdc61b"/>
                          <path id="Path_9374" data-name="Path 9374" d="M339.619,1028.332l3.752,2.341-9.738,7.272-20.149-25.925Z" fill="#fdc61b"/>
                          <rect id="Rectangle_902" data-name="Rectangle 902" width="66.372" height="45.848" transform="translate(335.651 796.333) rotate(-21.663)" fill="#15375e"/>
                          <path id="Path_9375" data-name="Path 9375" d="M352.6,838.954l19.94-39.7,41.76,15.17Z" fill="#fff" opacity="0.3" style="isolation: isolate"/>
                          <path id="Path_9376" data-name="Path 9376" d="M335.649,796.334l41.757,15.171,19.94-39.7Z" fill="#4b617b"/>
                          <rect id="Rectangle_903" data-name="Rectangle 903" width="32.282" height="46.732" transform="translate(607.766 823.445) rotate(-66.683)" fill="#fdc61b"/>
                          <path id="Path_9377" data-name="Path 9377" d="M607.764,823.444l29.684-9.836,13.233,28.334Z" fill="#fff" opacity="0.3" style="isolation: isolate"/>
                          <path id="Path_9378" data-name="Path 9378" d="M620.542,793.8l13.233,28.338,29.684-9.836Z" fill="#fdc61b"/>
                        </g>
                      </g>
                    </g>
                  </g>
                </g>
              </g>
            </g>
          </g>
        </g>
      </g>
    </g>
    <path id="Path_9352-2" data-name="Path 9352" d="M639.831,1002.21c-2.084-4.6-4.709-9.747-7.61-15.42a214.723,214.723,0,0,1-29.6-99.452c0-52.27-27.7-90.628-70.54-97.71a84.32,84.32,0,0,0-69.4,20.234,92.6,92.6,0,0,0-31.656,72.808,210.617,210.617,0,0,1-29.44,104.306c-2.836,5.592-5.422,10.684-7.479,15.221a26.065,26.065,0,0,0,23.86,36.826h198.06a26.061,26.061,0,0,0,23.82-36.813h-.011Z" fill="#fff" opacity="0.3" style="isolation: isolate"/>
    <path id="Path_9371-2" data-name="Path 9371" d="M345.493,1028.424l4.738-9.919-36.747-6.485Z" fill="#fff" opacity="0.3" style="isolation: isolate"/>
    <path id="Path_9374-2" data-name="Path 9374" d="M339.619,1028.332l3.752,2.341-9.738,7.272-20.149-25.925Z" fill="#fff" opacity="0.3" style="isolation: isolate"/>
    <path id="Path_9378-2" data-name="Path 9378" d="M620.542,793.8l13.233,28.338,29.684-9.836Z" fill="#fff" opacity="0.3" style="isolation: isolate"/>
    <rect id="Rectangle_901" data-name="Rectangle 901" width="139.992" height="96.702" transform="translate(579.086 960.281)" fill="#15375e"/>
    <path id="Path_9354" data-name="Path 9354" d="M579.082,1056.983l70-62.253,70,62.253Z" fill="#fff" opacity="0.3" style="isolation: isolate"/>
    <path id="Path_9355" data-name="Path 9355" d="M579.082,960.28l70,62.253,70-62.253Z" fill="#4b617b"/>
  </g>
</svg>
