<svg xmlns="http://www.w3.org/2000/svg" xmlns:xlink="http://www.w3.org/1999/xlink" width="537" height="335" viewBox="0 0 537 335">
  <defs>
    <clipPath id="clip-path">
      <rect id="Rectangle_1317" data-name="Rectangle 1317" width="537" height="335" transform="translate(599.078 280.538)" fill="none"/>
    </clipPath>
    <clipPath id="clip-path-2">
      <rect id="Rectangle_1312" data-name="Rectangle 1312" width="115.821" height="92.144" transform="translate(1031.686 544.247) rotate(-59)" fill="none"/>
    </clipPath>
    <clipPath id="clip-path-3">
      <rect id="Rectangle_1313" data-name="Rectangle 1313" width="74.506" height="133.96" transform="translate(598.885 442.188) rotate(-8.973)" fill="none"/>
    </clipPath>
    <clipPath id="clip-path-4">
      <rect id="Rectangle_1316" data-name="Rectangle 1316" width="536" height="268.738" transform="translate(600.078 305.538)" fill="none"/>
    </clipPath>
    <clipPath id="clip-path-6">
      <rect id="Rectangle_1314" data-name="Rectangle 1314" width="282.986" height="230.481" transform="translate(769.849 335.432)" fill="none"/>
    </clipPath>
  </defs>
  <g id="Group_1242" data-name="Group 1242" transform="translate(-599.078 -280.538)">
    <g id="Group_1241" data-name="Group 1241" clip-path="url(#clip-path)">
      <g id="Mask_Group_7" data-name="Mask Group 7">
        <g id="Group_1018" data-name="Group 1018">
          <g id="Group_644" data-name="Group 644">
            <path id="Path_8921" data-name="Path 8921" d="M631.569,579.717c98.693,102.39,227.566-51.98,349.355-38.578,78.442,8.633,165.194-29.757,154.209-126.557-15.981-140.763-239.778-143.29-360.489-114.424S544.179,489.05,631.569,579.717" fill="#fef3d1"/>
          </g>
          <g id="Group_983" data-name="Group 983">
            <g id="Group_1229" data-name="Group 1229">
              <g id="Group_1228" data-name="Group 1228" clip-path="url(#clip-path-2)">
                <g id="Group_880" data-name="Group 880">
                  <path id="Path_10027" data-name="Path 10027" d="M1078.532,514.476a24.823,24.823,0,1,1-34.062,8.494h0a24.852,24.852,0,0,1,34.061-8.493M1054.3,554.811a22.233,22.233,0,1,0-7.6-30.508,22.233,22.233,0,0,0,7.6,30.508" fill="#15375e"/>
                  <path id="Path_10028" data-name="Path 10028" d="M1080.024,532.733l2.245,21.741a6.024,6.024,0,0,0,6.61,5.373h0l40.644-4.2a6.025,6.025,0,0,0,5.373-6.611l-2.246-21.737a6.021,6.021,0,0,0-6.606-5.372h0l-40.646,4.2a6.026,6.026,0,0,0-5.373,6.612m12.14,9.727a3.362,3.362,0,1,1-3.689-3h0a3.361,3.361,0,0,1,3.689,3v0" fill="#4b617b"/>
                  <path id="Path_10029" data-name="Path 10029" d="M1084.732,555.974a4.1,4.1,0,0,1-.565-1.7l-2.245-21.737a4.115,4.115,0,0,1,3.67-4.516h0l40.646-4.2a4.129,4.129,0,0,1,3.948,1.972,4.056,4.056,0,0,1,.564,1.7L1133,549.232a4.112,4.112,0,0,1-3.668,4.514h0l-40.645,4.2a4.137,4.137,0,0,1-3.948-1.972m8.606-15.877a5.272,5.272,0,1,0,.716,2.17,5.219,5.219,0,0,0-.726-2.174m-10.238,16.867a6.019,6.019,0,0,0,5.782,2.891l40.65-4.2a6.023,6.023,0,0,0,5.372-6.61v0l-2.246-21.738a6.019,6.019,0,0,0-6.6-5.374h-.01l-40.646,4.2a6.022,6.022,0,0,0-5.372,6.61h0l2.246,21.738a6,6,0,0,0,.825,2.488m8.607-15.877a3.363,3.363,0,1,1-3.23-1.614,3.362,3.362,0,0,1,3.23,1.614" fill="#fdc61b"/>
                  <path id="Path_10030" data-name="Path 10030" d="M1087.623,491.5l6.943,4.172a1.081,1.081,0,0,0,1.477-.371l5.779-9.618a1.04,1.04,0,0,0,.155-.508l.142-2.966a1.037,1.037,0,0,1,.155-.507l.838-1.414a1.124,1.124,0,0,1,.668-.5l.947-.229a1.081,1.081,0,0,0,.791-1.308v-.007l0-.022a1.078,1.078,0,0,1,.777-1.311l.013,0,.013,0a1.082,1.082,0,0,0,.792-1.308l0-.007-.239-.961a1.1,1.1,0,0,1,.122-.817l1.786-2.991a1.092,1.092,0,0,1,.663-.491l.218-.053a1.08,1.08,0,0,0,.792-1.307v-.008l-.163-.653.213-.355.654-.163a1.081,1.081,0,0,0,.791-1.308v-.007l-.158-.662.42-.105a.886.886,0,0,0,.647-1.074v0a1.087,1.087,0,0,1,.128-.826l.5-.84a1.086,1.086,0,0,0,.143-.7l-.48-3.6-.016-.127a1.081,1.081,0,0,0-.513-.781,1.1,1.1,0,0,0-.938-.091l-.119.045-1.28.478-2.121.8a1.028,1.028,0,0,0-.55.455l-.5.837a1.134,1.134,0,0,1-.671.5.893.893,0,0,0-.647,1.077l.107.42-.658.172a1.081,1.081,0,0,0-.792,1.308v.007l.163.653-.213.356-.654.162a1.081,1.081,0,0,0-.791,1.308v.007l.047.213a1.051,1.051,0,0,1-.122.815l-1.794,2.987a1.11,1.11,0,0,1-.664.491l-.972.233a1.1,1.1,0,0,0-.79,1.315l.012.019a1.081,1.081,0,0,1-.783,1.313l-.007,0-.027.006a1.1,1.1,0,0,0-.79,1.315l.241.944a1.082,1.082,0,0,1-.126.824l-.847,1.409a1.17,1.17,0,0,1-.375.376l-2.56,1.51a1.171,1.171,0,0,0-.375.376l-5.78,9.62a1.082,1.082,0,0,0,.376,1.484h0" fill="#4b617b"/>
                  <path id="Path_10031" data-name="Path 10031" d="M1111.582,459.457l.016.009a.909.909,0,0,1,.311,1.246h0l-16.178,26.924a.908.908,0,0,1-1.246.311h0l-.016-.01a.908.908,0,0,1-.31-1.245h0l16.178-26.923a.907.907,0,0,1,1.244-.312h0" fill="#15375e"/>
                  <path id="Path_10032" data-name="Path 10032" d="M1069.08,499.183a15.979,15.979,0,1,0,27.637.439,4.539,4.539,0,0,0,.386-.54c1.679-2.794-.03-6.9-3.81-9.172s-8.21-1.851-9.888.942a4.477,4.477,0,0,0-.293.6,15.96,15.96,0,0,0-14.032,7.736m7.321,18.841c-2.473-1.487-3.71-3.98-2.754-5.571s3.731-1.659,6.205-.172,3.7,3.974,2.752,5.555-3.728,1.675-6.2.188" fill="#fdc61b"/>
                  <path id="Path_10033" data-name="Path 10033" d="M1086.575,543.442l2.265,1.361a24.858,24.858,0,0,0-1.291-20.842l-1.57,2.613a22.258,22.258,0,0,1,.6,16.868" fill="#15375e"/>
                  <path id="Path_10034" data-name="Path 10034" d="M1052.963,557.032a24.808,24.808,0,0,0,23.578,1.052l-1.637-.984.945-1.572a22.221,22.221,0,1,1,1.35-38.832c.161.1.306.211.465.311l1.333-2.219c-.162-.1-.3-.213-.465-.31a24.822,24.822,0,0,0-25.569,42.554" fill="#15375e"/>
                </g>
              </g>
            </g>
          </g>
          <g id="Group_984" data-name="Group 984">
            <rect id="Rectangle_1181" data-name="Rectangle 1181" width="2.057" height="56.165" transform="translate(615.218 443.037) rotate(-29.033)" fill="#e2e2e2"/>
            <rect id="Rectangle_1182" data-name="Rectangle 1182" width="2.057" height="56.165" transform="matrix(0.874, -0.485, 0.485, 0.874, 603.703, 449.431)" fill="#e2e2e2"/>
            <g id="Group_876" data-name="Group 876">
              <g id="Group_1231" data-name="Group 1231">
                <g id="Group_1230" data-name="Group 1230" clip-path="url(#clip-path-3)">
                  <g id="Group_875" data-name="Group 875">
                    <path id="Path_10017" data-name="Path 10017" d="M603.822,452.189,618.75,443.9a2.469,2.469,0,1,0-2.4-4.317l-14.928,8.29a2.468,2.468,0,1,0,2.358,4.337l.039-.021" fill="#eeedee"/>
                    <path id="Path_10018" data-name="Path 10018" d="M685.71,554.738h0a2.263,2.263,0,0,0,.881-3.075l-2.9-5.214-3.957,2.2,2.9,5.213a2.262,2.262,0,0,0,3.076.878" fill="#e2e2e2"/>
                    <path id="Path_10019" data-name="Path 10019" d="M662.508,567.622h0a2.265,2.265,0,0,0,.88-3.076l-2.9-5.213-3.957,2.2,2.9,5.214a2.263,2.263,0,0,0,3.077.878" fill="#e2e2e2"/>
                    <path id="Path_10020" data-name="Path 10020" d="M661.159,562.487l21.086-11.708a13.9,13.9,0,0,0,5.389-18.851l-29.686-53.461a13.9,13.9,0,0,0-18.85-5.39l-21.085,11.707a13.9,13.9,0,0,0-5.388,18.852L642.308,557.1a13.9,13.9,0,0,0,18.851,5.39" fill="#eeedee"/>
                    <path id="Path_10021" data-name="Path 10021" d="M680.907,537.4h0a.929.929,0,0,0,.36-1.259L651.1,481.824a.927.927,0,1,0-1.62.9l30.163,54.318a.928.928,0,0,0,1.259.36" fill="#fff" opacity="0.8" style="isolation: isolate"/>
                    <path id="Path_10022" data-name="Path 10022" d="M673.308,541.622h0a.928.928,0,0,0,.36-1.259l-30.162-54.32a.926.926,0,1,0-1.619.9l30.162,54.318a.929.929,0,0,0,1.259.361" fill="#fff" opacity="0.8" style="isolation: isolate"/>
                    <path id="Path_10023" data-name="Path 10023" d="M665.709,545.841h0a.929.929,0,0,0,.361-1.259l-30.162-54.319a.927.927,0,0,0-1.621.9l30.164,54.319a.927.927,0,0,0,1.258.36" fill="#fff" opacity="0.8" style="isolation: isolate"/>
                    <path id="Path_10024" data-name="Path 10024" d="M658.11,550.061h0a.93.93,0,0,0,.36-1.259l-30.162-54.32a.926.926,0,0,0-1.619.9l30.162,54.32a.928.928,0,0,0,1.259.36" fill="#fff" opacity="0.8" style="isolation: isolate"/>
                    <path id="Path_10025" data-name="Path 10025" d="M650.411,554.1h0a.928.928,0,0,0,.36-1.259l-30.162-54.32a.926.926,0,0,0-1.619.9l30.162,54.319a.929.929,0,0,0,1.259.361" fill="#fff" opacity="0.8" style="isolation: isolate"/>
                  </g>
                </g>
              </g>
            </g>
          </g>
          <g id="Group_987" data-name="Group 987">
            <g id="Group_1240" data-name="Group 1240">
              <g id="Group_1239" data-name="Group 1239" clip-path="url(#clip-path-4)">
                <g id="Group_642" data-name="Group 642">
                  <g id="Group_625" data-name="Group 625">
                    <g id="Group_1235" data-name="Group 1235">
                      <g id="Group_1234" data-name="Group 1234" clip-path="url(#clip-path-4)">
                        <g id="Group_624" data-name="Group 624">
                          <path id="Path_9385" data-name="Path 9385" d="M1061.43,522.193q-4.844-20.209-9.686-40.418" fill="none" stroke="#003c49" stroke-linecap="round" stroke-miterlimit="10" stroke-width="1.161"/>
                          <path id="Path_9390" data-name="Path 9390" d="M1051.047,572.947H670.508a11,11,0,0,1-11-11V317.868a11,11,0,0,1,11-11h380.539a11,11,0,0,1,11,11h0V561.951a11,11,0,0,1-11,11" fill="#fff"/>
                          <path id="Rectangle_906" data-name="Rectangle 906" d="M671.918,306.868h377.718a12.406,12.406,0,0,1,12.406,12.406h0V560.542a12.4,12.4,0,0,1-12.4,12.4H671.912a12.4,12.4,0,0,1-12.4-12.4h0V319.274A12.406,12.406,0,0,1,671.918,306.868Z" fill="none" stroke="#15375e" stroke-miterlimit="10" stroke-width="3"/>
                          <rect id="Rectangle_907" data-name="Rectangle 907" width="280.787" height="228.282" transform="translate(770.948 336.531)" fill="#fff"/>
                          <rect id="Rectangle_908" data-name="Rectangle 908" width="40.71" height="82.666" transform="translate(809.758 357.733)" fill="#fdc61b"/>
                          <rect id="Rectangle_909" data-name="Rectangle 909" width="40.71" height="41.091" transform="translate(1011.406 358.219)" fill="#fdc61b"/>
                          <rect id="Rectangle_910" data-name="Rectangle 910" width="40.71" height="41.091" transform="translate(890.252 358.219)" fill="#4b617b"/>
                          <rect id="Rectangle_911" data-name="Rectangle 911" width="79.766" height="41.091" transform="translate(770.582 482.225)" fill="#4b617b"/>
                          <path id="Path_9391" data-name="Path 9391" d="M1062.043,332.727H659.513V317.868a11,11,0,0,1,11-11h380.535a11,11,0,0,1,11,11h0Z" fill="#15375e"/>
                          <g id="Group_623" data-name="Group 623" opacity="0.8">
                            <g id="Group_622" data-name="Group 622">
                              <g id="Group_1233" data-name="Group 1233">
                                <g id="Group_1232" data-name="Group 1232" clip-path="url(#clip-path-6)">
                                  <g id="Group_621" data-name="Group 621">
                                    <path id="Path_9392" data-name="Path 9392" d="M1040.741,338.73a8.807,8.807,0,0,1,8.8,8.8V553.818a8.808,8.808,0,0,1-8.8,8.8h-258.8a8.806,8.806,0,0,1-8.8-8.8V347.527a8.805,8.805,0,0,1,8.8-8.8h258.8m0-2.2h-258.8a11,11,0,0,0-11,11V553.818a11,11,0,0,0,11,11h258.8a11,11,0,0,0,11-11V347.527a11,11,0,0,0-11-11" fill="#15375e"/>
                                    <line id="Line_105" data-name="Line 105" y2="204.693" transform="translate(810.409 359.359)" fill="none"/>
                                    <line id="Line_106" data-name="Line 106" y2="204.693" transform="translate(810.409 359.359)" fill="none" stroke="#15375e" stroke-miterlimit="10" stroke-width="3"/>
                                    <line id="Line_107" data-name="Line 107" y2="204.693" transform="translate(850.63 359.359)" fill="none"/>
                                    <line id="Line_108" data-name="Line 108" y2="204.693" transform="translate(850.63 359.359)" fill="none" stroke="#15375e" stroke-miterlimit="10" stroke-width="3"/>
                                    <line id="Line_109" data-name="Line 109" y2="204.693" transform="translate(890.852 359.359)" fill="none"/>
                                    <line id="Line_110" data-name="Line 110" y2="204.693" transform="translate(890.852 359.359)" fill="none" stroke="#15375e" stroke-miterlimit="10" stroke-width="3"/>
                                    <line id="Line_111" data-name="Line 111" y2="204.693" transform="translate(931.073 359.359)" fill="none"/>
                                    <line id="Line_112" data-name="Line 112" y2="204.693" transform="translate(931.073 359.359)" fill="none" stroke="#15375e" stroke-miterlimit="10" stroke-width="3"/>
                                    <line id="Line_113" data-name="Line 113" y2="204.693" transform="translate(971.294 359.359)" fill="none"/>
                                    <line id="Line_114" data-name="Line 114" y2="204.693" transform="translate(971.294 359.359)" fill="none" stroke="#15375e" stroke-miterlimit="10" stroke-width="3"/>
                                    <line id="Line_115" data-name="Line 115" y2="204.693" transform="translate(1011.515 359.359)" fill="none"/>
                                    <line id="Line_116" data-name="Line 116" y2="204.693" transform="translate(1011.515 359.359)" fill="none" stroke="#15375e" stroke-miterlimit="10" stroke-width="3"/>
                                    <line id="Line_117" data-name="Line 117" x2="280.787" transform="translate(770.948 358.599)" fill="none"/>
                                    <line id="Line_118" data-name="Line 118" x2="280.787" transform="translate(770.948 358.599)" fill="none" stroke="#15375e" stroke-miterlimit="10" stroke-width="3"/>
                                    <line id="Line_119" data-name="Line 119" x2="280.787" transform="translate(770.948 399.69)" fill="none"/>
                                    <line id="Line_120" data-name="Line 120" x2="280.787" transform="translate(770.948 399.69)" fill="none" stroke="#15375e" stroke-miterlimit="10" stroke-width="3"/>
                                    <line id="Line_121" data-name="Line 121" x2="280.787" transform="translate(770.948 440.781)" fill="none"/>
                                    <line id="Line_122" data-name="Line 122" x2="280.787" transform="translate(770.948 440.781)" fill="none" stroke="#15375e" stroke-miterlimit="10" stroke-width="3"/>
                                    <line id="Line_123" data-name="Line 123" x2="280.787" transform="translate(770.948 481.872)" fill="none"/>
                                    <line id="Line_124" data-name="Line 124" x2="280.787" transform="translate(770.948 481.872)" fill="none" stroke="#15375e" stroke-miterlimit="10" stroke-width="3"/>
                                    <line id="Line_125" data-name="Line 125" x2="280.787" transform="translate(770.948 522.962)" fill="none"/>
                                    <line id="Line_126" data-name="Line 126" x2="280.787" transform="translate(770.948 522.962)" fill="none" stroke="#15375e" stroke-miterlimit="10" stroke-width="3"/>
                                  </g>
                                </g>
                              </g>
                            </g>
                          </g>
                          <g id="Line_127" data-name="Line 127">
                            <path id="Path_10470" data-name="Path 10470" d="M753.48,466.958H676.094a3.1,3.1,0,1,1,0-6.2H753.48a3.1,3.1,0,1,1,0,6.2Z" fill="#15375e"/>
                          </g>
                          <g id="Line_128" data-name="Line 128">
                            <path id="Path_10471" data-name="Path 10471" d="M735.693,490.43H675.854a3.1,3.1,0,0,1,0-6.2h59.839a3.1,3.1,0,1,1,0,6.2Z" fill="#15375e"/>
                          </g>
                          <g id="Line_129" data-name="Line 129">
                            <path id="Path_10472" data-name="Path 10472" d="M743.6,513.9H675.96a3.1,3.1,0,0,1,0-6.2H743.6a3.1,3.1,0,1,1,0,6.2Z" fill="#15375e"/>
                          </g>
                          <path id="Path_9393" data-name="Path 9393" d="M707.153,324.716a4.92,4.92,0,1,1,4.919-4.921v0a4.926,4.926,0,0,1-4.919,4.919" fill="#fff"/>
                          <path id="Path_9394" data-name="Path 9394" d="M691.55,324.716a4.92,4.92,0,1,1,4.919-4.921v0a4.926,4.926,0,0,1-4.919,4.919" fill="#fdc61b"/>
                          <path id="Path_9395" data-name="Path 9395" d="M675.946,324.716a4.92,4.92,0,1,1,4.919-4.921v0a4.926,4.926,0,0,1-4.919,4.919" fill="#df231c"/>
                          <path id="Path_9396" data-name="Path 9396" d="M876.884,477.895a1.1,1.1,0,0,1-.836-.384l-13.778-16.08a3.3,3.3,0,0,0-5.509.785l-4.321,9.545a1.1,1.1,0,0,1-2.034-.078l-19.12-52.436a1.043,1.043,0,0,1,.121-.994,1.134,1.134,0,0,1,.909-.49,1.1,1.1,0,0,1,.534.145l48.885,26.924a1.1,1.1,0,0,1-.236,2.022l-10.094,2.812a3.3,3.3,0,0,0-1.62,5.323l13.778,16.081a1.1,1.1,0,0,1-.119,1.549l-5.845,5.008a1.09,1.09,0,0,1-.714.265" fill="#fff"/>
                          <path id="Path_9397" data-name="Path 9397" d="M832.344,418.888,881.2,445.8,871.11,448.61a4.4,4.4,0,0,0-2.159,7.1l13.777,16.078-5.845,5.009L863.1,460.717a4.4,4.4,0,0,0-7.345,1.047l-4.326,9.543-19.09-52.419m-.028-2.221a2.208,2.208,0,0,0-2.063,2.96l19.115,52.433a2.2,2.2,0,0,0,4.069.155l4.325-9.544a2.2,2.2,0,0,1,3.674-.524l13.778,16.08a2.2,2.2,0,0,0,3.1.239l5.845-5.009a2.2,2.2,0,0,0,.238-3.1L870.62,454.278a2.2,2.2,0,0,1,1.08-3.55l10.094-2.811a2.2,2.2,0,0,0,.471-4.045l-48.884-26.925a2.187,2.187,0,0,0-1.065-.281" fill="#15375e"/>
                        </g>
                      </g>
                    </g>
                  </g>
                  <g id="Group_1237" data-name="Group 1237">
                    <g id="Group_1236" data-name="Group 1236">
                      <path id="Path_10473" data-name="Path 10473" d="M730.6,410.387l-15.658-2.743a14.781,14.781,0,0,1-12.005-12.006l-1.494-8.5L700.2,379.99l15.648,2.734a14.8,14.8,0,0,1,6.894,3.19,14.6,14.6,0,0,1,1.634,1.581,13.692,13.692,0,0,1,1.328,1.756,14.627,14.627,0,0,1,2.158,5.479l.857,4.893.4,2.28.4,2.3Z" fill="#fdc61b"/>
                    </g>
                  </g>
                  <g id="Group_1238" data-name="Group 1238">
                    <path id="Path_10474" data-name="Path 10474" d="M685.446,411.3a2.039,2.039,0,0,0,.6,1.45,1,1,0,0,0,.2.184,1.97,1.97,0,0,0,.227.148l3.984,2.3,7.41,4.29h.009l16.487,9.524a2.069,2.069,0,0,0,2.062,0h.009l27.89-16.112a2.058,2.058,0,0,0,.227-.148,1.025,1.025,0,0,0,.2-.184,2.028,2.028,0,0,0,.6-1.45V395.768a1.241,1.241,0,0,1,.619-1.073l8.008-4.624a1.238,1.238,0,0,1,1.858,1.072V411.3a12.591,12.591,0,0,1-6.274,10.869l-27.9,16.1a12.566,12.566,0,0,1-12.547,0l-27.89-16.1a12.591,12.591,0,0,1-6.274-10.869V391.143a1.238,1.238,0,0,1,1.858-1.072l8.008,4.624a1.241,1.241,0,0,1,.619,1.073Z" fill="#15375e"/>
                    <path id="Path_10475" data-name="Path 10475" d="M678.622,370.23a12.244,12.244,0,0,1,1.232-1.084,11.63,11.63,0,0,1,1.381-.926l27.89-16.112a11.8,11.8,0,0,1,1.494-.725,12.6,12.6,0,0,1,9.567,0,11.2,11.2,0,0,1,1.486.725l19.318,11.158,8.58,4.954a12.41,12.41,0,0,1,1.381.926,12.244,12.244,0,0,1,1.232,1.084,12.636,12.636,0,0,1,3.661,8.86v1.531a1.238,1.238,0,0,1-.619,1.072l-4.493,2.6q-1.758,1.011-3.516,2.03a1.238,1.238,0,0,1-1.857-1.073V379.09a2.044,2.044,0,0,0-.271-1.014.508.508,0,0,0-.079-.131c-.035-.052-.078-.105-.113-.157a1.164,1.164,0,0,0-.14-.149c-.018-.026-.044-.043-.061-.07a.962.962,0,0,0-.14-.113c-.009-.008-.019-.012-.028-.019a1.831,1.831,0,0,0-.2-.132l-17.744-10.25-10.144-5.86h-.009a2.245,2.245,0,0,0-.245-.122,1.527,1.527,0,0,0-.384-.114,2.045,2.045,0,0,0-.795,0,1.593,1.593,0,0,0-.393.114,2.234,2.234,0,0,0-.245.122l-16.487,9.524h-.009L690.453,375l-3.976,2.3a1.279,1.279,0,0,0-.227.157.912.912,0,0,0-.14.113c-.017.027-.044.044-.061.07-.044.044-.1.1-.14.149a.708.708,0,0,0-.113.166.818.818,0,0,0-.105.166,2.066,2.066,0,0,0-.245.97v6.155a1.238,1.238,0,0,1-1.858,1.072l-8.008-4.624a1.238,1.238,0,0,1-.619-1.073v-1.53A12.631,12.631,0,0,1,678.622,370.23Z" fill="#15375e"/>
                  </g>
                </g>
              </g>
            </g>
          </g>
        </g>
      </g>
    </g>
  </g>
</svg>
