<svg xmlns="http://www.w3.org/2000/svg" xmlns:xlink="http://www.w3.org/1999/xlink" width="537" height="335" viewBox="0 0 537 335">
  <defs>
    <clipPath id="clip-path">
      <rect id="Rectangle_1362" data-name="Rectangle 1362" width="537" height="335" transform="translate(6447.401 7956.187)" fill="none"/>
    </clipPath>
    <clipPath id="clip-path-2">
      <rect id="Rectangle_1349" data-name="Rectangle 1349" width="129.245" height="49.592" transform="translate(6671.944 8037.55) rotate(-45)" fill="none"/>
    </clipPath>
    <clipPath id="clip-path-3">
      <rect id="Rectangle_1350" data-name="Rectangle 1350" width="87.437" height="109.904" transform="translate(6420.848 8075.723) rotate(-31)" fill="none"/>
    </clipPath>
    <clipPath id="clip-path-4">
      <rect id="Rectangle_1351" data-name="Rectangle 1351" width="105.882" height="115.089" transform="translate(6640.401 8183.982) rotate(-14)" fill="none"/>
    </clipPath>
    <clipPath id="clip-path-5">
      <rect id="Rectangle_1352" data-name="Rectangle 1352" width="102.237" height="102.101" transform="translate(6865.972 8200.062) rotate(-13)" fill="none"/>
    </clipPath>
    <clipPath id="clip-path-6">
      <rect id="Rectangle_1353" data-name="Rectangle 1353" width="46.414" height="34.307" transform="translate(6857.599 8113.264) rotate(-0.118)" fill="none"/>
    </clipPath>
    <clipPath id="clip-path-7">
      <rect id="Rectangle_1361" data-name="Rectangle 1361" width="445.779" height="329.464" transform="translate(6524.401 7961.187)" fill="none"/>
    </clipPath>
    <clipPath id="clip-path-9">
      <rect id="Rectangle_1354" data-name="Rectangle 1354" width="18.588" height="8.351" transform="translate(6729.88 8225.332)" fill="none"/>
    </clipPath>
    <clipPath id="clip-path-10">
      <rect id="Rectangle_1355" data-name="Rectangle 1355" width="9.418" height="9.418" transform="translate(6734.465 8214.787)" fill="none"/>
    </clipPath>
    <clipPath id="clip-path-11">
      <rect id="Rectangle_1356" data-name="Rectangle 1356" width="18.588" height="8.352" transform="translate(6729.88 8260.221)" fill="none"/>
    </clipPath>
    <clipPath id="clip-path-12">
      <rect id="Rectangle_1357" data-name="Rectangle 1357" width="9.418" height="9.418" transform="translate(6734.465 8249.676)" fill="none"/>
    </clipPath>
    <clipPath id="clip-path-13">
      <rect id="Rectangle_1358" data-name="Rectangle 1358" width="137.846" height="13.169" transform="translate(6759.179 8251.419)" fill="none"/>
    </clipPath>
  </defs>
  <g id="Group_1291" data-name="Group 1291" transform="translate(-6447.401 -7956.187)">
    <g id="Group_1290" data-name="Group 1290" clip-path="url(#clip-path)">
      <g id="Mask_Group_10" data-name="Mask Group 10">
        <g id="Group_1014" data-name="Group 1014">
          <g id="Group_707" data-name="Group 707">
            <g id="Group_654" data-name="Group 654">
              <path id="Path_8921" data-name="Path 8921" d="M6952.912,8255.366c-98.693,102.39-227.566-51.98-349.356-38.578-78.442,8.633-165.2-29.757-154.209-126.557,15.98-140.763,239.778-143.29,360.489-114.424S7040.3,8164.7,6952.912,8255.366" fill="#fef3d1"/>
            </g>
          </g>
          <g id="Group_958" data-name="Group 958">
            <g id="Group_1262" data-name="Group 1262">
              <g id="Group_1261" data-name="Group 1261" clip-path="url(#clip-path-2)">
                <g id="Group_878" data-name="Group 878">
                  <path id="Path_10026" data-name="Path 10026" d="M6771.59,8002.02l.06.06a4.167,4.167,0,0,0,5.889,0l3.5-3.5-.013-.013a24.755,24.755,0,1,0-35.16-34.858l-70.517,70.431a4.793,4.793,0,0,0-.011,6.777l0,0,28.229,28.263a4.79,4.79,0,0,0,6.774,0h0l35.241-35.2a4.788,4.788,0,0,0,1.405-3.385l.036-49.379h0a16.221,16.221,0,0,1,2.355-8.391,17.451,17.451,0,0,1,1.061-1.555c.037-.049.075-.1.114-.151a15.549,15.549,0,0,1,1.274-1.45,16.341,16.341,0,0,1,23.267,22.951l-3.5,3.5a4.165,4.165,0,0,0-.006,5.89l0,0" fill="#4b617b"/>
                </g>
              </g>
            </g>
          </g>
          <g id="Group_988" data-name="Group 988">
            <g id="Group_1264" data-name="Group 1264">
              <g id="Group_1263" data-name="Group 1263" clip-path="url(#clip-path-3)">
                <g id="Group_880" data-name="Group 880">
                  <path id="Path_10027" data-name="Path 10027" d="M6507.948,8096.647a23.555,23.555,0,1,0,32.322,8.059h0a23.581,23.581,0,0,0-32.321-8.058m23,38.275a21.1,21.1,0,1,1,7.219-28.954h0a21.122,21.122,0,0,1-7.219,28.954" fill="#003c49"/>
                  <path id="Path_10028" data-name="Path 10028" d="M6506.532,8113.971,6504.4,8134.6a5.714,5.714,0,0,1-6.271,5.1l-38.571-3.983a5.717,5.717,0,0,1-5.1-6.27l2.133-20.633a5.714,5.714,0,0,1,6.271-5.1l38.567,3.985a5.717,5.717,0,0,1,5.1,6.27m-11.517,9.237a3.19,3.19,0,1,0,3.5-2.845h0a3.191,3.191,0,0,0-3.5,2.845" fill="#4b617b"/>
                  <path id="Path_10029" data-name="Path 10029" d="M6502.064,8136.024a3.887,3.887,0,0,0,.539-1.607l2.13-20.631a3.9,3.9,0,0,0-3.473-4.285h-.011l-38.57-3.981a3.919,3.919,0,0,0-3.749,1.871,3.853,3.853,0,0,0-.536,1.606l-2.131,20.631a3.9,3.9,0,0,0,3.475,4.284h.008l38.567,3.984a3.927,3.927,0,0,0,3.75-1.873m-8.164-15.067a5.016,5.016,0,1,1-.688,2.063,4.938,4.938,0,0,1,.688-2.063m9.716,16a5.716,5.716,0,0,1-5.487,2.741l-38.568-3.982a5.716,5.716,0,0,1-5.1-6.271l2.132-20.633a5.712,5.712,0,0,1,6.267-5.1h.005l38.567,3.983a5.714,5.714,0,0,1,5.1,6.271l-2.125,20.628a5.707,5.707,0,0,1-.786,2.358m-8.165-15.067a3.191,3.191,0,1,0,3.062-1.53,3.191,3.191,0,0,0-3.062,1.53" fill="#fdc61b"/>
                  <path id="Path_10030" data-name="Path 10030" d="M6499.322,8074.842l-6.586,3.957a1.026,1.026,0,0,1-1.4-.35l-5.485-9.129a.982.982,0,0,1-.145-.481l-.134-2.812a.985.985,0,0,0-.147-.48l-.795-1.342a1.066,1.066,0,0,0-.634-.473l-.9-.22a1.025,1.025,0,0,1-.751-1.241v-.006l0-.02a1.023,1.023,0,0,0-.738-1.245l-.011,0-.012,0a1.026,1.026,0,0,1-.751-1.242v0l.229-.915a1.048,1.048,0,0,0-.116-.775l-1.694-2.839a1.036,1.036,0,0,0-.63-.466l-.206-.05a1.026,1.026,0,0,1-.751-1.242v-.006l.154-.618-.2-.338-.619-.154a1.025,1.025,0,0,1-.751-1.242v-.006l.149-.627-.4-.1a.841.841,0,0,1-.614-1.018v0a1.043,1.043,0,0,0-.121-.784l-.479-.8a1.033,1.033,0,0,1-.136-.663l.454-3.418.016-.119a1.023,1.023,0,0,1,.487-.742,1.04,1.04,0,0,1,.89-.085l.113.042,1.214.454,2.01.753a.988.988,0,0,1,.522.431l.478.8a1.072,1.072,0,0,0,.635.474.847.847,0,0,1,.614,1.022l-.1.4.624.163a1.027,1.027,0,0,1,.751,1.242v0l-.155.619.2.339.619.154a1.026,1.026,0,0,1,.75,1.242v0l-.044.2a1,1,0,0,0,.115.774l1.7,2.834a1.059,1.059,0,0,0,.631.466l.922.223a1.045,1.045,0,0,1,.75,1.248l-.011.018a1.026,1.026,0,0,0,.744,1.246h0l.026.007a1.043,1.043,0,0,1,.75,1.247l-.229.9a1.024,1.024,0,0,0,.12.782l.8,1.336a1.118,1.118,0,0,0,.356.356l2.432,1.434a1.113,1.113,0,0,1,.355.356l5.485,9.129a1.027,1.027,0,0,1-.356,1.408h0" fill="#4b617b"/>
                  <path id="Path_10031" data-name="Path 10031" d="M6476.587,8044.438l-.015.009a.863.863,0,0,0-.295,1.183h0l15.348,25.543a.861.861,0,0,0,1.183.295l.015-.009a.861.861,0,0,0,.295-1.181h0l-15.348-25.544a.861.861,0,0,0-1.181-.3h0" fill="#003c49"/>
                  <path id="Path_10032" data-name="Path 10032" d="M6516.917,8082.134a15.163,15.163,0,1,1-26.226.416,4.274,4.274,0,0,1-.365-.511c-1.593-2.651.03-6.552,3.614-8.705s7.789-1.755,9.382.9a4.031,4.031,0,0,1,.278.564,15.145,15.145,0,0,1,13.316,7.34m-6.947,17.878c2.348-1.411,3.52-3.778,2.614-5.287s-3.541-1.575-5.889-.164-3.512,3.772-2.611,5.272,3.537,1.589,5.886.178" fill="#fdc61b"/>
                  <path id="Path_10033" data-name="Path 10033" d="M6500.316,8124.133l-2.149,1.291a23.584,23.584,0,0,1,1.223-19.78l1.493,2.486a21.124,21.124,0,0,0-.566,16.007" fill="#003c49"/>
                  <path id="Path_10034" data-name="Path 10034" d="M6532.211,8137.028a23.536,23.536,0,0,1-22.374,1l1.554-.933-.9-1.493a21.086,21.086,0,1,0-1.282-36.847c-.153.093-.29.2-.44.295l-1.265-2.1c.153-.092.287-.2.44-.295a23.554,23.554,0,1,1,24.263,40.38" fill="#003c49"/>
                </g>
              </g>
            </g>
          </g>
          <g id="Group_924" data-name="Group 924">
            <g id="Group_1266" data-name="Group 1266">
              <g id="Group_1265" data-name="Group 1265" clip-path="url(#clip-path-4)">
                <g id="Group_923" data-name="Group 923">
                  <path id="Path_10060" data-name="Path 10060" d="M6759.834,8239.886l-40.7,43.078-70.713-66.807,40.7-43.079a7.637,7.637,0,0,1,10.8-.307h0l59.61,56.318a7.637,7.637,0,0,1,.308,10.8h0" fill="#fdc61b"/>
                  <path id="Path_10061" data-name="Path 10061" d="M6678.822,8207.429h0a12.5,12.5,0,1,0,20.748-6.2h0a12.5,12.5,0,0,0-20.747,6.2" fill="#fee28d"/>
                  <path id="Path_10062" data-name="Path 10062" d="M6695.506,8248.617a22.375,22.375,0,0,1,2.325-2.88,6.124,6.124,0,0,1,3.767-2.186,4,4,0,0,1,3.159,1.191,4.38,4.38,0,0,1,1.525,3.021,6.172,6.172,0,0,1-1.937,4.432,6.608,6.608,0,0,1-1.159,1.033l4.338,4.1-1.321,1.4Zm6.54,3.536a6.466,6.466,0,0,0,1.206-1.052c1.592-1.685,1.746-3.486.251-4.9-1.43-1.351-3.077-.991-4.533.551a8.016,8.016,0,0,0-1.132,1.423Z" fill="#fee28d"/>
                  <path id="Path_10063" data-name="Path 10063" d="M6712.765,8244.954l2.344,4.342-1.367,1.445-7.351-13.906,1.594-1.687,14.316,6.53-1.412,1.494-4.5-2.06Zm2.259-4.583-4.119-1.883c-.93-.428-1.728-.873-2.506-1.3l-.031.032c.491.768.982,1.566,1.443,2.4l2.136,4.017Z" fill="#fee28d"/>
                  <path id="Path_10064" data-name="Path 10064" d="M6723.436,8237.07a6.809,6.809,0,0,0,3.074-1.837c1.351-1.433,1.385-2.979.293-4.012-1.012-.956-2.136-.924-4.08.006-2.295,1.175-4.243,1.4-5.769-.038-1.686-1.595-1.619-4.177.37-6.276a6.759,6.759,0,0,1,2.791-1.892l.777,1.463a5.9,5.9,0,0,0-2.457,1.568c-1.4,1.474-1.045,2.873-.307,3.57,1.012.955,2.133.767,4.122-.179,2.436-1.164,4.2-1.263,5.791.24,1.67,1.579,1.948,4.182-.465,6.735a7.7,7.7,0,0,1-3.3,2.111Z" fill="#fee28d"/>
                  <path id="Path_10065" data-name="Path 10065" d="M6732.435,8227.546a6.821,6.821,0,0,0,3.075-1.837c1.35-1.43,1.385-2.979.293-4.011-1.012-.956-2.138-.924-4.08.006-2.295,1.174-4.243,1.4-5.768-.04-1.687-1.593-1.62-4.174.369-6.276a6.769,6.769,0,0,1,2.791-1.892l.777,1.462a5.922,5.922,0,0,0-2.457,1.571c-1.4,1.48-1.043,2.874-.305,3.571,1.013.956,2.131.769,4.121-.179,2.437-1.164,4.2-1.261,5.792.241,1.67,1.579,1.947,4.182-.466,6.736a7.708,7.708,0,0,1-3.3,2.109Z" fill="#fee28d"/>
                </g>
              </g>
            </g>
          </g>
          <g id="Group_884" data-name="Group 884">
            <g id="Group_1268" data-name="Group 1268">
              <g id="Group_1267" data-name="Group 1267" clip-path="url(#clip-path-5)">
                <g id="Group_883" data-name="Group 883">
                  <path id="Path_10035" data-name="Path 10035" d="M6894.394,8281.351l2.426-25.4a6.026,6.026,0,0,0-2.122-5.193l-19.548-16.393a6.028,6.028,0,0,1,2.565-10.5l24.9-5.543a6.034,6.034,0,0,0,4.28-3.626l9.553-23.656a6.028,6.028,0,0,1,10.78-.805l12.964,21.971a6.028,6.028,0,0,0,4.771,2.95l25.452,1.776a6.028,6.028,0,0,1,4.1,10.01l-16.891,19.119a6.028,6.028,0,0,0-1.331,5.449l6.173,24.752a6.027,6.027,0,0,1-8.248,6.988l-23.4-10.156a6.025,6.025,0,0,0-5.594.419l-21.633,13.521a6.029,6.029,0,0,1-9.195-5.687" fill="#eeedee"/>
                  <path id="Path_10036" data-name="Path 10036" d="M6910.223,8220.26a11.789,11.789,0,0,0,2.079-3.376l6.24-15.448a4.567,4.567,0,0,1,8.166-.609l8.467,14.349a11.856,11.856,0,0,0,9.386,5.8l16.625,1.16a4.566,4.566,0,0,1,3.1,7.581l-5.635,6.38-.971-.856,5.636-6.381a3.272,3.272,0,0,0-2.223-5.43l-16.622-1.16a13.16,13.16,0,0,1-10.415-6.438l-8.462-14.349a3.27,3.27,0,0,0-5.852.438l-6.24,15.446a13.084,13.084,0,0,1-2.306,3.745Z" fill="#e2e2e2"/>
                  <path id="Path_10037" data-name="Path 10037" d="M6884.262,8233.5a4.575,4.575,0,0,1,2.96-5.754q.2-.063.4-.108l12.442-2.77.282,1.269-12.442,2.771a3.27,3.27,0,0,0-1.391,5.7l12.761,10.7a13.287,13.287,0,0,1,4.641,11.328l-1.586,16.582a3.271,3.271,0,0,0,4.99,3.084l14.129-8.828a13.148,13.148,0,0,1,12.207-.912l15.284,6.633a3.271,3.271,0,0,0,4.474-3.791l-4.033-16.166a13.064,13.064,0,0,1-.251-5.089l1.281.188a11.776,11.776,0,0,0,.227,4.587l4.033,16.167a4.566,4.566,0,0,1-6.248,5.293l-15.283-6.632a11.846,11.846,0,0,0-11,.82l-14.128,8.83a4.567,4.567,0,0,1-6.967-4.308l1.587-16.582a11.961,11.961,0,0,0-4.185-10.211l-12.769-10.71a4.555,4.555,0,0,1-1.415-2.094" fill="#e2e2e2"/>
                </g>
              </g>
            </g>
          </g>
          <g id="Group_989" data-name="Group 989">
            <g id="Group_1270" data-name="Group 1270">
              <g id="Group_1269" data-name="Group 1269" clip-path="url(#clip-path-6)">
                <g id="Group_890" data-name="Group 890">
                  <path id="Path_10041" data-name="Path 10041" d="M6904.084,8147.476l-46.414.095v-.046a4.482,4.482,0,0,1,4.473-4.492h0l37.447-.077a4.484,4.484,0,0,1,4.493,4.474h0Z" fill="#fdc61b"/>
                  <rect id="Rectangle_1188" data-name="Rectangle 1188" width="37.701" height="3.327" transform="translate(6862.011 8139.705) rotate(-0.118)" fill="#fdc61b"/>
                  <rect id="Rectangle_1189" data-name="Rectangle 1189" width="3.305" height="25.469" transform="translate(6879.155 8114.2) rotate(-0.118)" fill="#b18910"/>
                  <path id="Path_10042" data-name="Path 10042" d="M6880.911,8113.216h-.211a4.152,4.152,0,0,0-4.143,4.161v.047l8.517-.017v-.047a4.153,4.153,0,0,0-4.162-4.144h0" fill="#fdc61b"/>
                  <rect id="Rectangle_1190" data-name="Rectangle 1190" width="8.517" height="3.813" transform="translate(6876.562 8119.797) rotate(-0.118)" fill="#fdc61b"/>
                  <path id="Path_10043" data-name="Path 10043" d="M6899,8137.293c-.023-11.186-8.914-16.129-18.312-16.045-9.31.084-18.008,5.189-17.985,16.12Z" fill="#fdc61b"/>
                  <path id="Path_10044" data-name="Path 10044" d="M6878.294,8121.669c-7.228,1.522-13.064,6.381-13.047,15.016l3.717-.008c.41-7.6,4.2-12.525,9.33-15.008" fill="#fff"/>
                </g>
              </g>
            </g>
          </g>
          <g id="Group_990" data-name="Group 990">
            <g id="Group_1289" data-name="Group 1289">
              <g id="Group_1288" data-name="Group 1288" clip-path="url(#clip-path-7)">
                <g id="Group_695" data-name="Group 695">
                  <g id="Group_678" data-name="Group 678">
                    <g id="Group_1282" data-name="Group 1282">
                      <g id="Group_1281" data-name="Group 1281" clip-path="url(#clip-path-7)">
                        <g id="Group_677" data-name="Group 677">
                          <path id="Path_9524" data-name="Path 9524" d="M6720.038,8290.071a3.631,3.631,0,0,1-3.527-3.721V8159.159h190.368v127.191a3.631,3.631,0,0,1-3.527,3.721Z" fill="#fff"/>
                          <path id="Path_9525" data-name="Path 9525" d="M6906.3,8159.739v126.612a3.05,3.05,0,0,1-2.946,3.14H6720.037a3.05,3.05,0,0,1-2.946-3.14V8159.739H6906.3m1.161-1.161H6715.93v127.772a4.22,4.22,0,0,0,4.107,4.3h183.315a4.22,4.22,0,0,0,4.107-4.3Z" fill="#15375e"/>
                          <path id="Path_9526" data-name="Path 9526" d="M6715.93,8151.28a4.12,4.12,0,0,1,4.107-4.107h183.315a4.119,4.119,0,0,1,4.107,4.107V8164.5H6715.93Z" fill="#15375e"/>
                          <path id="Path_9527" data-name="Path 9527" d="M6749.141,8159.306a3.469,3.469,0,1,1,3.47-3.469,3.469,3.469,0,0,1-3.47,3.469" fill="#f4f4f5"/>
                          <path id="Path_9528" data-name="Path 9528" d="M6738.136,8159.306a3.469,3.469,0,1,1,3.47-3.469,3.469,3.469,0,0,1-3.47,3.469" fill="#f4f4f5"/>
                          <path id="Path_9529" data-name="Path 9529" d="M6727.131,8159.306a3.469,3.469,0,1,1,3.47-3.469,3.469,3.469,0,0,1-3.47,3.469" fill="#f4f4f5"/>
                          <path id="Path_9530" data-name="Path 9530" d="M6800.926,8191.9h-72.069a2.493,2.493,0,0,1-2.492-2.493v-9.625a2.492,2.492,0,0,1,2.492-2.492h72.069a2.492,2.492,0,0,1,2.493,2.491h0v9.625a2.493,2.493,0,0,1-2.493,2.493h0" fill="#fdc61b"/>
                          <path id="Path_9531" data-name="Path 9531" d="M6894.532,8177.94a1.841,1.841,0,0,1,1.839,1.838v9.625a1.841,1.841,0,0,1-1.839,1.838h-72.069a1.84,1.84,0,0,1-1.838-1.838v-9.625a1.84,1.84,0,0,1,1.838-1.838h72.069m0-.654h-72.069a2.492,2.492,0,0,0-2.492,2.492h0v9.625a2.492,2.492,0,0,0,2.492,2.492h72.069a2.492,2.492,0,0,0,2.492-2.492h0v-9.625a2.492,2.492,0,0,0-2.492-2.492h0" fill="#fdc61b"/>
                          <path id="Path_9532" data-name="Path 9532" d="M6739.174,8210.959a12.155,12.155,0,1,1-12.155,12.155h0a12.168,12.168,0,0,1,12.155-12.154m0-.654a12.808,12.808,0,1,0,12.808,12.809,12.808,12.808,0,0,0-12.808-12.809" fill="#fdc61b"/>
                          <g id="Group_664" data-name="Group 664" opacity="0.4">
                            <g id="Group_663" data-name="Group 663">
                              <g id="Group_1272" data-name="Group 1272">
                                <g id="Group_1271" data-name="Group 1271" clip-path="url(#clip-path-9)">
                                  <g id="Group_662" data-name="Group 662">
                                    <path id="Path_9533" data-name="Path 9533" d="M6748.468,8228.147a10.569,10.569,0,0,1-18.588,0,16.744,16.744,0,0,1,18.588,0" fill="#fdc61b"/>
                                  </g>
                                </g>
                              </g>
                            </g>
                          </g>
                          <g id="Group_667" data-name="Group 667" opacity="0.4">
                            <g id="Group_666" data-name="Group 666">
                              <g id="Group_1274" data-name="Group 1274">
                                <g id="Group_1273" data-name="Group 1273" clip-path="url(#clip-path-10)">
                                  <g id="Group_665" data-name="Group 665">
                                    <path id="Path_9534" data-name="Path 9534" d="M6743.884,8219.5a4.709,4.709,0,1,1-4.709-4.709,4.709,4.709,0,0,1,4.709,4.709h0" fill="#fdc61b"/>
                                  </g>
                                </g>
                              </g>
                            </g>
                          </g>
                          <path id="Path_9535" data-name="Path 9535" d="M6890.44,8229.7H6765.763a6.584,6.584,0,0,1,0-13.169H6890.44a6.584,6.584,0,1,1,0,13.169" fill="#fdc61b"/>
                          <path id="Path_9536" data-name="Path 9536" d="M6739.174,8245.849A12.155,12.155,0,1,1,6727.019,8258h0a12.168,12.168,0,0,1,12.155-12.154m0-.654a12.809,12.809,0,1,0,12.808,12.81h0a12.809,12.809,0,0,0-12.808-12.809" fill="#fdc61b"/>
                          <g id="Group_670" data-name="Group 670" opacity="0.4">
                            <g id="Group_669" data-name="Group 669">
                              <g id="Group_1276" data-name="Group 1276">
                                <g id="Group_1275" data-name="Group 1275" clip-path="url(#clip-path-11)">
                                  <g id="Group_668" data-name="Group 668">
                                    <path id="Path_9537" data-name="Path 9537" d="M6748.468,8263.037a10.569,10.569,0,0,1-18.588,0,16.744,16.744,0,0,1,18.588,0" fill="#fdc61b"/>
                                  </g>
                                </g>
                              </g>
                            </g>
                          </g>
                          <g id="Group_673" data-name="Group 673" opacity="0.4">
                            <g id="Group_672" data-name="Group 672">
                              <g id="Group_1278" data-name="Group 1278">
                                <g id="Group_1277" data-name="Group 1277" clip-path="url(#clip-path-12)">
                                  <g id="Group_671" data-name="Group 671">
                                    <path id="Path_9538" data-name="Path 9538" d="M6743.884,8254.385a4.709,4.709,0,1,1-4.709-4.709,4.708,4.708,0,0,1,4.709,4.709h0" fill="#fdc61b"/>
                                  </g>
                                </g>
                              </g>
                            </g>
                          </g>
                          <g id="Group_676" data-name="Group 676" opacity="0.4">
                            <g id="Group_675" data-name="Group 675">
                              <g id="Group_1280" data-name="Group 1280">
                                <g id="Group_1279" data-name="Group 1279" clip-path="url(#clip-path-13)">
                                  <g id="Group_674" data-name="Group 674">
                                    <path id="Path_9539" data-name="Path 9539" d="M6890.44,8264.588H6765.763a6.584,6.584,0,0,1,0-13.169H6890.44a6.584,6.584,0,1,1,0,13.169" fill="#fdc61b"/>
                                  </g>
                                </g>
                              </g>
                            </g>
                          </g>
                          <path id="Path_9540" data-name="Path 9540" d="M6528.509,8146.592a3.63,3.63,0,0,1-3.527-3.72V8015.68H6715.35v127.192a3.63,3.63,0,0,1-3.527,3.72Z" fill="#fff"/>
                          <path id="Path_9541" data-name="Path 9541" d="M6714.769,8016.261v126.611a3.051,3.051,0,0,1-2.946,3.139H6528.508a3.052,3.052,0,0,1-2.946-3.139V8016.261h189.207m1.161-1.161H6524.4v127.772a4.219,4.219,0,0,0,4.107,4.3h183.315a4.219,4.219,0,0,0,4.107-4.3Z" fill="#15375e"/>
                          <path id="Path_9542" data-name="Path 9542" d="M6524.4,8007.8a4.121,4.121,0,0,1,4.107-4.107h183.315a4.12,4.12,0,0,1,4.107,4.107v13.222H6524.4Z" fill="#15375e"/>
                          <path id="Path_9543" data-name="Path 9543" d="M6557.611,8015.828a3.469,3.469,0,1,1,3.47-3.469,3.469,3.469,0,0,1-3.47,3.469" fill="#fff"/>
                          <path id="Path_9544" data-name="Path 9544" d="M6546.607,8015.828a3.469,3.469,0,1,1,3.47-3.469,3.469,3.469,0,0,1-3.47,3.469" fill="#fdc61b"/>
                          <path id="Path_9545" data-name="Path 9545" d="M6535.6,8015.828a3.469,3.469,0,1,1,3.47-3.469,3.469,3.469,0,0,1-3.47,3.469" fill="#df231c"/>
                          <path id="Path_9546" data-name="Path 9546" d="M6770.355,8147.172a54.42,54.42,0,1,1-54.421-54.421,54.42,54.42,0,0,1,54.421,54.421" fill="#15375e"/>
                          <path id="Path_9547" data-name="Path 9547" d="M6765.8,8147.1a49.61,49.61,0,1,1-49.61-49.61h0A49.611,49.611,0,0,1,6765.8,8147.1" fill="#fff"/>
                          <path id="Path_9548" data-name="Path 9548" d="M6724.8,8156.041a19.732,19.732,0,0,1-27.877,0L6678.7,8137.82a19.713,19.713,0,0,1,27.878-27.878l12.294,12.289a5.819,5.819,0,1,1-8.158,8.3l-.071-.071-12.294-12.288a8.074,8.074,0,0,0-11.419,11.418l18.222,18.222a8.083,8.083,0,0,0,11.418,0,5.819,5.819,0,0,1,8.229,8.229" fill="#15375e"/>
                          <path id="Path_9549" data-name="Path 9549" d="M6753.159,8184.4a19.732,19.732,0,0,1-27.877,0l-12.293-12.293a5.819,5.819,0,0,1,8.229-8.229l12.289,12.294a8.074,8.074,0,1,0,11.418-11.419l-18.218-18.222a8.083,8.083,0,0,0-11.419,0,5.819,5.819,0,0,1-8.229-8.23h0a19.736,19.736,0,0,1,27.877,0l18.221,18.222a19.735,19.735,0,0,1,0,27.877" fill="#4b617b"/>
                        </g>
                      </g>
                    </g>
                  </g>
                  <g id="Group_694" data-name="Group 694">
                    <g id="Group_1287" data-name="Group 1287">
                      <g id="Group_1286" data-name="Group 1286" clip-path="url(#clip-path-7)">
                        <g id="Group_1284" data-name="Group 1284">
                          <g id="Group_1283" data-name="Group 1283">
                            <path id="Path_10481" data-name="Path 10481" d="M6632,8098.452l-17.92-3.14a16.919,16.919,0,0,1-13.74-13.74l-1.71-9.73-1.43-8.18,17.91,3.13a16.969,16.969,0,0,1,9.76,5.46,15.568,15.568,0,0,1,1.52,2.01,16.745,16.745,0,0,1,2.47,6.27l.98,5.6.46,2.61.46,2.63Z" fill="#fdc61b"/>
                          </g>
                        </g>
                        <g id="Group_1285" data-name="Group 1285">
                          <path id="Path_10482" data-name="Path 10482" d="M6580.318,8099.492a2.337,2.337,0,0,0,.69,1.66,1.173,1.173,0,0,0,.23.21,2.388,2.388,0,0,0,.26.17l4.56,2.63,8.48,4.91h.01l18.87,10.9a2.368,2.368,0,0,0,2.36,0h.01l31.92-18.44a2.336,2.336,0,0,0,.26-.17,1.162,1.162,0,0,0,.23-.21,2.32,2.32,0,0,0,.69-1.66V8081.72a1.418,1.418,0,0,1,.708-1.228l9.166-5.293a1.418,1.418,0,0,1,2.126,1.228v23.065a14.412,14.412,0,0,1-7.18,12.44l-31.93,18.43a14.382,14.382,0,0,1-14.36,0l-31.92-18.43a14.412,14.412,0,0,1-7.18-12.44v-23.065a1.417,1.417,0,0,1,2.126-1.228l9.165,5.293a1.417,1.417,0,0,1,.709,1.228Z" fill="#15375e"/>
                          <path id="Path_10483" data-name="Path 10483" d="M6572.508,8052.492a13.878,13.878,0,0,1,1.41-1.24,13.214,13.214,0,0,1,1.58-1.06l31.92-18.44a13.462,13.462,0,0,1,1.71-.83,14.417,14.417,0,0,1,10.95,0,12.7,12.7,0,0,1,1.7.83l22.11,12.77,9.82,5.67a14.092,14.092,0,0,1,1.58,1.06,13.878,13.878,0,0,1,1.41,1.24,14.459,14.459,0,0,1,4.19,10.14v1.752a1.416,1.416,0,0,1-.709,1.227l-5.141,2.971q-2.013,1.158-4.024,2.323a1.417,1.417,0,0,1-2.126-1.228v-7.045a2.343,2.343,0,0,0-.31-1.16.6.6,0,0,0-.09-.15c-.04-.06-.09-.12-.13-.18a1.284,1.284,0,0,0-.16-.17c-.02-.03-.05-.05-.07-.08a.96.96,0,0,0-.16-.13c-.01-.009-.022-.014-.032-.022a2.305,2.305,0,0,0-.23-.151l-20.308-11.732-11.61-6.705h-.01a2.372,2.372,0,0,0-.28-.14,1.713,1.713,0,0,0-.44-.13,2.321,2.321,0,0,0-.91,0,1.777,1.777,0,0,0-.45.13,2.379,2.379,0,0,0-.28.14l-18.87,10.9h-.01l-8.49,4.9-4.55,2.63a1.494,1.494,0,0,0-.26.18.977.977,0,0,0-.16.13c-.02.03-.05.05-.07.08-.05.05-.11.11-.16.17a.807.807,0,0,0-.13.19.993.993,0,0,0-.12.19,2.372,2.372,0,0,0-.28,1.11v7.044a1.417,1.417,0,0,1-2.126,1.228l-9.166-5.293a1.417,1.417,0,0,1-.708-1.228v-1.751A14.459,14.459,0,0,1,6572.508,8052.492Z" fill="#15375e"/>
                        </g>
                      </g>
                    </g>
                  </g>
                </g>
              </g>
            </g>
          </g>
        </g>
      </g>
    </g>
  </g>
</svg>
