<svg xmlns="http://www.w3.org/2000/svg" xmlns:xlink="http://www.w3.org/1999/xlink" width="537" height="335" viewBox="0 0 537 335">
  <defs>
    <clipPath id="clip-path">
      <rect id="Rectangle_1343" data-name="Rectangle 1343" width="537" height="335" transform="translate(7281.018 7741.356)" fill="none"/>
    </clipPath>
    <clipPath id="clip-path-2">
      <path id="Path_10480" data-name="Path 10480" d="M7786.528,7781.161c-98.694-102.389-486.93-28.94-486.93-28.94s-27.621,97.276-16.635,194.073c15.98,140.766,239.779,143.292,360.489,114.427s230.466-188.893,143.076-279.56" fill="none"/>
    </clipPath>
    <clipPath id="clip-path-3">
      <path id="Path_10479" data-name="Path 10479" d="M7465.592,7821.529a81.831,81.831,0,1,0,38.518-9.659,81.83,81.83,0,0,0-38.518,9.659" fill="none"/>
    </clipPath>
    <clipPath id="clip-path-4">
      <rect id="Rectangle_1342" data-name="Rectangle 1342" width="80.745" height="15.165" transform="translate(7494.757 7747.084)" fill="none"/>
    </clipPath>
  </defs>
  <g id="Group_1250" data-name="Group 1250" transform="translate(-7281.018 -7741.356)">
    <g id="Group_1249" data-name="Group 1249" clip-path="url(#clip-path)">
      <g id="Mask_Group_8" data-name="Mask Group 8">
        <g id="Group_1019" data-name="Group 1019">
          <g id="Group_1246" data-name="Group 1246">
            <g id="Group_1245" data-name="Group 1245" clip-path="url(#clip-path-2)">
              <g id="Mask_Group_1" data-name="Mask Group 1">
                <g id="Group_654" data-name="Group 654">
                  <path id="Path_8921" data-name="Path 8921" d="M7786.528,7782.16c-98.693-102.39-227.567,51.98-349.356,38.578-78.442-8.633-165.195,29.758-154.209,126.555,15.98,140.766,239.779,143.292,360.489,114.427s230.466-188.893,143.076-279.56" fill="#fef3d1"/>
                  <g id="Group_651" data-name="Group 651">
                    <rect id="Rectangle_924" data-name="Rectangle 924" width="87.32" height="115.171" transform="translate(7366.271 7960.667)" fill="#eeedee"/>
                    <rect id="Rectangle_925" data-name="Rectangle 925" width="40.942" height="115.171" transform="translate(7412.648 7960.667)" fill="#e2e2e2"/>
                    <rect id="Rectangle_926" data-name="Rectangle 926" width="7.851" height="19.075" transform="translate(7384.58 7976.262)" fill="#f8f9fa"/>
                    <rect id="Rectangle_927" data-name="Rectangle 927" width="7.851" height="19.075" transform="translate(7384.58 8050.917)" fill="#f8f9fa"/>
                    <g id="Group_646" data-name="Group 646">
                      <g id="Group_652" data-name="Group 652">
                        <path id="Path_9412" data-name="Path 9412" d="M7412.649,8002.823c0,.214-10.383.388-23.187.388s-23.19-.174-23.19-.388,10.381-.388,23.19-.388,23.187.174,23.187.388" fill="#f8f9fa"/>
                        <rect id="Rectangle_928" data-name="Rectangle 928" width="7.851" height="19.075" transform="translate(7384.581 8013.872)" fill="#f8f9fa"/>
                        <path id="Path_9413" data-name="Path 9413" d="M7412.649,8040.434c0,.214-10.383.388-23.187.388s-23.19-.174-23.19-.388,10.381-.388,23.19-.388,23.187.174,23.187.388" fill="#f8f9fa"/>
                        <rect id="Rectangle_929" data-name="Rectangle 929" width="7.851" height="19.075" transform="translate(7421.342 7976.262)" fill="#f8f9fa"/>
                        <rect id="Rectangle_930" data-name="Rectangle 930" width="7.851" height="19.075" transform="translate(7438.376 7976.262)" fill="#f8f9fa"/>
                        <rect id="Rectangle_931" data-name="Rectangle 931" width="7.851" height="19.075" transform="translate(7421.342 8012.457)" fill="#f8f9fa"/>
                        <rect id="Rectangle_932" data-name="Rectangle 932" width="7.851" height="19.075" transform="translate(7438.376 8012.457)" fill="#f8f9fa"/>
                        <rect id="Rectangle_933" data-name="Rectangle 933" width="7.851" height="19.075" transform="translate(7421.342 8048.652)" fill="#f8f9fa"/>
                        <rect id="Rectangle_934" data-name="Rectangle 934" width="7.851" height="19.075" transform="translate(7438.376 8048.652)" fill="#f8f9fa"/>
                        <rect id="Rectangle_935" data-name="Rectangle 935" width="100.448" height="4.153" transform="translate(7359.708 7956.659)" fill="#e2e2e2"/>
                        <path id="Path_9414" data-name="Path 9414" d="M7454.2,7961.2c0,.214-19.517.388-43.586.388s-43.59-.173-43.59-.388,19.513-.388,43.59-.388,43.586.174,43.586.388" fill="#eeedee"/>
                        <rect id="Rectangle_936" data-name="Rectangle 936" width="72.845" height="190.669" transform="translate(7442.815 7885.17)" fill="#eeedee"/>
                        <rect id="Rectangle_937" data-name="Rectangle 937" width="36.422" height="190.669" transform="translate(7479.238 7885.17)" fill="#e2e2e2"/>
                        <rect id="Rectangle_938" data-name="Rectangle 938" width="25.723" height="22.665" transform="translate(7451.132 7862.506)" fill="#eeedee"/>
                        <rect id="Rectangle_939" data-name="Rectangle 939" width="6.131" height="22.665" transform="translate(7470.726 7862.506)" fill="#e2e2e2"/>
                        <rect id="Rectangle_940" data-name="Rectangle 940" width="81.048" height="1.322" transform="translate(7436.745 7883.85)" fill="#e2e2e2"/>
                        <rect id="Rectangle_941" data-name="Rectangle 941" width="6.166" height="13.002" transform="translate(7457.194 7895.055)" fill="#fff"/>
                        <path id="Path_9415" data-name="Path 9415" d="M7479.238,7913.16c0,.137-8.155.248-18.211.248s-18.212-.111-18.212-.248,8.151-.248,18.212-.248,18.211.111,18.211.248" fill="#e2e2e2"/>
                        <rect id="Rectangle_942" data-name="Rectangle 942" width="6.166" height="13.002" transform="translate(7493.934 7895.055)" fill="#f8f9fa"/>
                        <path id="Path_9416" data-name="Path 9416" d="M7515.974,7913.16c0,.137-8.154.248-18.209.248s-18.212-.111-18.212-.248,8.152-.248,18.212-.248,18.209.111,18.209.248" fill="#eeedee"/>
                        <rect id="Rectangle_943" data-name="Rectangle 943" width="6.166" height="13.002" transform="translate(7493.934 7920.869)" fill="#f8f9fa"/>
                        <path id="Path_9417" data-name="Path 9417" d="M7515.974,7938.973c0,.136-8.154.247-18.209.247s-18.212-.111-18.212-.247,8.152-.248,18.212-.248,18.209.111,18.209.248" fill="#eeedee"/>
                        <rect id="Rectangle_944" data-name="Rectangle 944" width="6.166" height="13.002" transform="translate(7493.934 7947.46)" fill="#f8f9fa"/>
                        <path id="Path_9418" data-name="Path 9418" d="M7515.974,7965.566c0,.137-8.154.248-18.209.248s-18.212-.111-18.212-.248,8.152-.248,18.212-.248,18.209.111,18.209.248" fill="#eeedee"/>
                        <rect id="Rectangle_945" data-name="Rectangle 945" width="6.166" height="13.002" transform="translate(7493.934 7974.053)" fill="#f8f9fa"/>
                        <path id="Path_9419" data-name="Path 9419" d="M7515.974,7992.157c0,.137-8.154.248-18.209.248s-18.212-.111-18.212-.248,8.152-.248,18.212-.248,18.209.111,18.209.248" fill="#eeedee"/>
                        <rect id="Rectangle_946" data-name="Rectangle 946" width="6.166" height="13.002" transform="translate(7493.934 7999.884)" fill="#f8f9fa"/>
                        <path id="Path_9420" data-name="Path 9420" d="M7515.974,8017.99c0,.137-8.154.248-18.209.248s-18.212-.111-18.212-.248,8.152-.248,18.212-.248,18.209.111,18.209.248" fill="#eeedee"/>
                        <rect id="Rectangle_947" data-name="Rectangle 947" width="6.166" height="13.002" transform="translate(7493.934 8025.821)" fill="#f8f9fa"/>
                        <rect id="Rectangle_948" data-name="Rectangle 948" width="6.166" height="13.002" transform="translate(7493.934 8052.097)" fill="#f8f9fa"/>
                        <path id="Path_9421" data-name="Path 9421" d="M7515.974,8043.925c0,.137-8.154.248-18.209.248s-18.212-.11-18.212-.248,8.152-.248,18.212-.248,18.209.111,18.209.248" fill="#eeedee"/>
                        <rect id="Rectangle_949" data-name="Rectangle 949" width="6.166" height="13.002" transform="translate(7457.194 7921.263)" fill="#fff"/>
                        <path id="Path_9422" data-name="Path 9422" d="M7479.238,7939.367c0,.137-8.155.248-18.211.248s-18.212-.111-18.212-.248,8.151-.248,18.212-.248,18.211.111,18.211.248" fill="#e2e2e2"/>
                        <rect id="Rectangle_950" data-name="Rectangle 950" width="6.166" height="13.002" transform="translate(7457.194 7947.47)" fill="#fff"/>
                        <path id="Path_9423" data-name="Path 9423" d="M7479.238,7965.575c0,.137-8.155.248-18.211.248s-18.212-.111-18.212-.248,8.151-.248,18.212-.248,18.211.111,18.211.248" fill="#e2e2e2"/>
                        <rect id="Rectangle_951" data-name="Rectangle 951" width="6.166" height="13.002" transform="translate(7457.194 7973.677)" fill="#fff"/>
                        <path id="Path_9424" data-name="Path 9424" d="M7479.238,7991.782c0,.137-8.155.248-18.211.248s-18.212-.111-18.212-.248,8.151-.248,18.212-.248,18.211.11,18.211.248" fill="#e2e2e2"/>
                        <rect id="Rectangle_952" data-name="Rectangle 952" width="6.166" height="13.002" transform="translate(7457.194 7999.884)" fill="#fff"/>
                        <path id="Path_9425" data-name="Path 9425" d="M7479.238,8017.99c0,.137-8.155.248-18.211.248s-18.212-.111-18.212-.248,8.151-.248,18.212-.248,18.211.111,18.211.248" fill="#e2e2e2"/>
                        <rect id="Rectangle_953" data-name="Rectangle 953" width="6.166" height="13.002" transform="translate(7457.194 8026.091)" fill="#fff"/>
                        <path id="Path_9426" data-name="Path 9426" d="M7479.238,8044.2c0,.137-8.155.248-18.211.248s-18.212-.111-18.212-.248,8.151-.248,18.212-.248,18.211.111,18.211.248" fill="#e2e2e2"/>
                        <rect id="Rectangle_954" data-name="Rectangle 954" width="6.166" height="13.002" transform="translate(7457.194 8052.299)" fill="#fff"/>
                        <rect id="Rectangle_955" data-name="Rectangle 955" width="116.606" height="309.742" transform="translate(7504.087 7766.098)" fill="#4b617b"/>
                        <rect id="Rectangle_956" data-name="Rectangle 956" width="44.743" height="309.742" transform="translate(7575.951 7766.098)" fill="#15375e"/>
                        <rect id="Rectangle_957" data-name="Rectangle 957" width="8.863" height="18.688" transform="translate(7593.891 7790.542)" fill="#4b617b"/>
                        <rect id="Rectangle_958" data-name="Rectangle 958" width="8.863" height="18.688" transform="translate(7593.891 7823.328)" fill="#4b617b"/>
                        <rect id="Rectangle_959" data-name="Rectangle 959" width="8.863" height="18.688" transform="translate(7593.891 7860.036)" fill="#4b617b"/>
                        <rect id="Rectangle_960" data-name="Rectangle 960" width="8.863" height="18.688" transform="translate(7593.891 7895.119)" fill="#4b617b"/>
                        <rect id="Rectangle_961" data-name="Rectangle 961" width="8.863" height="18.688" transform="translate(7593.891 7930.203)" fill="#4b617b"/>
                        <rect id="Rectangle_962" data-name="Rectangle 962" width="8.863" height="18.687" transform="translate(7593.891 7965.287)" fill="#4b617b"/>
                        <rect id="Rectangle_963" data-name="Rectangle 963" width="8.863" height="18.687" transform="translate(7593.891 8000.371)" fill="#4b617b"/>
                        <rect id="Rectangle_964" data-name="Rectangle 964" width="8.863" height="18.688" transform="translate(7593.891 8038.939)" fill="#4b617b"/>
                        <rect id="Rectangle_965" data-name="Rectangle 965" width="132.574" height="3.613" transform="translate(7493.934 7764.154)" fill="#15375e"/>
                        <rect id="Rectangle_966" data-name="Rectangle 966" width="47.196" height="23.604" transform="translate(7551.126 7742.356)" fill="#15375e"/>
                        <rect id="Rectangle_967" data-name="Rectangle 967" width="24.825" height="21.797" transform="translate(7551.125 7742.356)" fill="#4b617b"/>
                        <rect id="Rectangle_968" data-name="Rectangle 968" width="8.863" height="18.688" transform="translate(7520.685 7789.774)" fill="#15375e"/>
                        <rect id="Rectangle_969" data-name="Rectangle 969" width="8.862" height="18.688" transform="translate(7544.268 7789.774)" fill="#15375e"/>
                        <rect id="Rectangle_970" data-name="Rectangle 970" width="8.863" height="18.688" transform="translate(7520.685 7825.37)" fill="#15375e"/>
                        <rect id="Rectangle_971" data-name="Rectangle 971" width="8.862" height="18.688" transform="translate(7544.268 7825.37)" fill="#15375e"/>
                        <rect id="Rectangle_972" data-name="Rectangle 972" width="8.863" height="18.688" transform="translate(7520.685 7860.965)" fill="#15375e"/>
                        <rect id="Rectangle_973" data-name="Rectangle 973" width="8.862" height="18.688" transform="translate(7544.268 7860.965)" fill="#15375e"/>
                        <rect id="Rectangle_974" data-name="Rectangle 974" width="8.863" height="18.688" transform="translate(7520.685 7896.561)" fill="#15375e"/>
                        <rect id="Rectangle_975" data-name="Rectangle 975" width="8.862" height="18.688" transform="translate(7544.268 7896.561)" fill="#15375e"/>
                        <rect id="Rectangle_976" data-name="Rectangle 976" width="8.863" height="18.687" transform="translate(7520.685 7932.156)" fill="#15375e"/>
                        <rect id="Rectangle_977" data-name="Rectangle 977" width="8.862" height="18.687" transform="translate(7544.268 7932.156)" fill="#15375e"/>
                        <rect id="Rectangle_978" data-name="Rectangle 978" width="8.863" height="18.688" transform="translate(7520.685 7967.75)" fill="#15375e"/>
                        <rect id="Rectangle_979" data-name="Rectangle 979" width="8.862" height="18.688" transform="translate(7544.268 7967.75)" fill="#15375e"/>
                        <rect id="Rectangle_980" data-name="Rectangle 980" width="8.863" height="18.688" transform="translate(7520.685 8003.346)" fill="#15375e"/>
                        <rect id="Rectangle_981" data-name="Rectangle 981" width="8.862" height="18.688" transform="translate(7544.268 8003.346)" fill="#15375e"/>
                        <rect id="Rectangle_982" data-name="Rectangle 982" width="8.863" height="18.688" transform="translate(7520.685 8038.939)" fill="#15375e"/>
                        <rect id="Rectangle_983" data-name="Rectangle 983" width="8.862" height="18.688" transform="translate(7544.268 8038.939)" fill="#15375e"/>
                        <g id="Line_130" data-name="Line 130">
                          <rect id="Rectangle_1318" data-name="Rectangle 1318" width="71.862" height="2" transform="translate(7504.088 7814.797)" fill="#0b2645"/>
                        </g>
                        <g id="Line_131" data-name="Line 131">
                          <rect id="Rectangle_1319" data-name="Rectangle 1319" width="71.862" height="2" transform="translate(7504.088 7850.748)" fill="#0b2645"/>
                        </g>
                        <g id="Line_132" data-name="Line 132">
                          <rect id="Rectangle_1320" data-name="Rectangle 1320" width="71.862" height="2" transform="translate(7504.088 7886.697)" fill="#0b2645"/>
                        </g>
                        <g id="Line_133" data-name="Line 133">
                          <rect id="Rectangle_1321" data-name="Rectangle 1321" width="71.862" height="2" transform="translate(7504.088 7922.648)" fill="#0b2645"/>
                        </g>
                        <g id="Line_134" data-name="Line 134">
                          <rect id="Rectangle_1322" data-name="Rectangle 1322" width="71.862" height="2" transform="translate(7504.088 7958.599)" fill="#0b2645"/>
                        </g>
                        <g id="Line_135" data-name="Line 135">
                          <rect id="Rectangle_1323" data-name="Rectangle 1323" width="71.862" height="2" transform="translate(7504.088 7994.55)" fill="#0b2645"/>
                        </g>
                        <g id="Line_136" data-name="Line 136">
                          <rect id="Rectangle_1324" data-name="Rectangle 1324" width="71.862" height="2" transform="translate(7504.088 8030.5)" fill="#0b2645"/>
                        </g>
                        <g id="Line_137" data-name="Line 137">
                          <rect id="Rectangle_1325" data-name="Rectangle 1325" width="44.771" height="2" transform="translate(7575.95 7814.797)" fill="#0b2645"/>
                        </g>
                        <g id="Line_138" data-name="Line 138">
                          <rect id="Rectangle_1326" data-name="Rectangle 1326" width="44.771" height="2" transform="translate(7575.95 7850.748)" fill="#0b2645"/>
                        </g>
                        <g id="Line_139" data-name="Line 139">
                          <rect id="Rectangle_1327" data-name="Rectangle 1327" width="44.771" height="2" transform="translate(7575.95 7886.697)" fill="#0b2645"/>
                        </g>
                        <g id="Line_140" data-name="Line 140">
                          <rect id="Rectangle_1328" data-name="Rectangle 1328" width="44.771" height="2" transform="translate(7575.95 7922.648)" fill="#0b2645"/>
                        </g>
                        <g id="Line_141" data-name="Line 141">
                          <rect id="Rectangle_1329" data-name="Rectangle 1329" width="44.771" height="2" transform="translate(7575.95 7958.599)" fill="#0b2645"/>
                        </g>
                        <g id="Line_142" data-name="Line 142">
                          <rect id="Rectangle_1330" data-name="Rectangle 1330" width="44.771" height="2" transform="translate(7575.95 7994.55)" fill="#0b2645"/>
                        </g>
                        <g id="Line_143" data-name="Line 143">
                          <rect id="Rectangle_1331" data-name="Rectangle 1331" width="44.771" height="2" transform="translate(7575.95 8030.5)" fill="#0b2645"/>
                        </g>
                        <rect id="Rectangle_984" data-name="Rectangle 984" width="62.74" height="164.219" transform="translate(7611.354 7911.621)" fill="#eeedee"/>
                        <rect id="Rectangle_985" data-name="Rectangle 985" width="31.37" height="164.219" transform="translate(7642.725 7911.621)" fill="#e2e2e2"/>
                        <rect id="Rectangle_986" data-name="Rectangle 986" width="22.155" height="19.521" transform="translate(7618.519 7892.1)" fill="#eeedee"/>
                        <rect id="Rectangle_987" data-name="Rectangle 987" width="5.281" height="19.521" transform="translate(7635.393 7892.1)" fill="#e2e2e2"/>
                        <rect id="Rectangle_988" data-name="Rectangle 988" width="69.804" height="1.139" transform="translate(7606.126 7910.481)" fill="#e2e2e2"/>
                        <rect id="Rectangle_989" data-name="Rectangle 989" width="5.311" height="11.198" transform="translate(7623.738 7920.134)" fill="#fff"/>
                        <path id="Path_9427" data-name="Path 9427" d="M7642.725,7935.727c0,.118-7.024.214-15.684.214s-15.686-.1-15.686-.214,7.021-.214,15.686-.214,15.684.1,15.684.214" fill="#e2e2e2"/>
                        <rect id="Rectangle_990" data-name="Rectangle 990" width="5.31" height="11.198" transform="translate(7655.382 7920.134)" fill="#f8f9fa"/>
                        <path id="Path_9428" data-name="Path 9428" d="M7674.364,7935.727c0,.118-7.023.214-15.683.214s-15.686-.1-15.686-.214,7.021-.214,15.686-.214,15.683.1,15.683.214" fill="#eeedee"/>
                        <rect id="Rectangle_991" data-name="Rectangle 991" width="5.31" height="11.198" transform="translate(7655.382 7942.367)" fill="#f8f9fa"/>
                        <path id="Path_9429" data-name="Path 9429" d="M7674.364,7957.959c0,.118-7.023.214-15.683.214s-15.686-.1-15.686-.214,7.021-.213,15.686-.213,15.683.1,15.683.213" fill="#eeedee"/>
                        <rect id="Rectangle_992" data-name="Rectangle 992" width="5.31" height="11.198" transform="translate(7655.382 7965.27)" fill="#f8f9fa"/>
                        <path id="Path_9430" data-name="Path 9430" d="M7674.364,7980.863c0,.119-7.023.213-15.683.213s-15.686-.1-15.686-.213,7.021-.213,15.686-.213,15.683.1,15.683.213" fill="#eeedee"/>
                        <rect id="Rectangle_993" data-name="Rectangle 993" width="5.31" height="11.198" transform="translate(7655.382 7988.174)" fill="#f8f9fa"/>
                        <path id="Path_9431" data-name="Path 9431" d="M7674.364,8003.766c0,.118-7.023.214-15.683.214s-15.686-.1-15.686-.214,7.021-.214,15.686-.214,15.683.1,15.683.214" fill="#eeedee"/>
                        <rect id="Rectangle_994" data-name="Rectangle 994" width="5.31" height="11.198" transform="translate(7655.382 8010.42)" fill="#f8f9fa"/>
                        <path id="Path_9432" data-name="Path 9432" d="M7674.364,8026.015c0,.118-7.023.214-15.683.214s-15.686-.1-15.686-.214,7.021-.213,15.686-.213,15.683.1,15.683.213" fill="#eeedee"/>
                        <rect id="Rectangle_995" data-name="Rectangle 995" width="5.31" height="11.198" transform="translate(7655.382 8032.759)" fill="#f8f9fa"/>
                        <rect id="Rectangle_996" data-name="Rectangle 996" width="5.31" height="11.198" transform="translate(7655.382 8055.39)" fill="#f8f9fa"/>
                        <path id="Path_9433" data-name="Path 9433" d="M7674.364,8048.352c0,.119-7.023.214-15.683.214s-15.686-.095-15.686-.214,7.021-.213,15.686-.213,15.683.095,15.683.213" fill="#eeedee"/>
                        <rect id="Rectangle_997" data-name="Rectangle 997" width="5.311" height="11.198" transform="translate(7623.738 7942.706)" fill="#fff"/>
                        <path id="Path_9434" data-name="Path 9434" d="M7642.725,7958.3c0,.119-7.024.214-15.684.214s-15.686-.1-15.686-.214,7.021-.213,15.686-.213,15.684.1,15.684.213" fill="#e2e2e2"/>
                        <rect id="Rectangle_998" data-name="Rectangle 998" width="5.311" height="11.198" transform="translate(7623.738 7965.278)" fill="#fff"/>
                        <path id="Path_9435" data-name="Path 9435" d="M7642.725,7980.87c0,.118-7.024.214-15.684.214s-15.686-.1-15.686-.214,7.021-.214,15.686-.214,15.684.1,15.684.214" fill="#e2e2e2"/>
                        <rect id="Rectangle_999" data-name="Rectangle 999" width="5.311" height="11.198" transform="translate(7623.738 7987.849)" fill="#fff"/>
                        <path id="Path_9436" data-name="Path 9436" d="M7642.725,8003.443c0,.119-7.024.214-15.684.214s-15.686-.1-15.686-.214,7.021-.213,15.686-.213,15.684.1,15.684.213" fill="#e2e2e2"/>
                        <rect id="Rectangle_1000" data-name="Rectangle 1000" width="5.311" height="11.198" transform="translate(7623.738 8010.42)" fill="#fff"/>
                        <path id="Path_9437" data-name="Path 9437" d="M7642.725,8026.015c0,.118-7.024.214-15.684.214s-15.686-.1-15.686-.214,7.021-.213,15.686-.213,15.684.1,15.684.213" fill="#e2e2e2"/>
                        <rect id="Rectangle_1001" data-name="Rectangle 1001" width="5.311" height="11.198" transform="translate(7623.738 8032.993)" fill="#fff"/>
                        <path id="Path_9438" data-name="Path 9438" d="M7642.725,8048.587c0,.119-7.024.214-15.684.214s-15.686-.095-15.686-.214,7.021-.213,15.686-.213,15.684.1,15.684.213" fill="#e2e2e2"/>
                        <rect id="Rectangle_1002" data-name="Rectangle 1002" width="5.311" height="11.198" transform="translate(7623.738 8055.564)" fill="#fff"/>
                        <rect id="Rectangle_1003" data-name="Rectangle 1003" width="63.872" height="84.244" transform="translate(7668.185 7991.596)" fill="#f8f9fa"/>
                        <rect id="Rectangle_1004" data-name="Rectangle 1004" width="29.948" height="84.244" transform="translate(7702.108 7991.596)" fill="#eeedee"/>
                        <rect id="Rectangle_1005" data-name="Rectangle 1005" width="5.743" height="13.953" transform="translate(7681.577 8003.001)" fill="#eeedee"/>
                        <rect id="Rectangle_1006" data-name="Rectangle 1006" width="5.743" height="13.953" transform="translate(7681.577 8057.609)" fill="#eeedee"/>
                        <path id="Path_9439" data-name="Path 9439" d="M7702.108,8022.43c0,.121-7.594.218-16.961.218s-16.963-.1-16.963-.218,7.593-.217,16.963-.217,16.961.1,16.961.217" fill="#eeedee"/>
                        <rect id="Rectangle_1007" data-name="Rectangle 1007" width="5.743" height="13.953" transform="translate(7681.577 8030.513)" fill="#eeedee"/>
                        <path id="Path_9440" data-name="Path 9440" d="M7702.108,8049.941c0,.121-7.594.218-16.961.218s-16.963-.1-16.963-.218,7.593-.217,16.963-.217,16.961.1,16.961.217" fill="#eeedee"/>
                        <rect id="Rectangle_1008" data-name="Rectangle 1008" width="5.743" height="13.953" transform="translate(7708.467 8003.001)" fill="#e2e2e2"/>
                        <rect id="Rectangle_1009" data-name="Rectangle 1009" width="5.743" height="13.953" transform="translate(7720.926 8003.001)" fill="#e2e2e2"/>
                        <rect id="Rectangle_1010" data-name="Rectangle 1010" width="5.743" height="13.953" transform="translate(7708.467 8029.478)" fill="#e2e2e2"/>
                        <rect id="Rectangle_1011" data-name="Rectangle 1011" width="5.743" height="13.953" transform="translate(7720.926 8029.478)" fill="#e2e2e2"/>
                        <rect id="Rectangle_1012" data-name="Rectangle 1012" width="5.743" height="13.952" transform="translate(7708.467 8055.954)" fill="#e2e2e2"/>
                        <rect id="Rectangle_1013" data-name="Rectangle 1013" width="5.743" height="13.952" transform="translate(7720.926 8055.954)" fill="#e2e2e2"/>
                        <rect id="Rectangle_1014" data-name="Rectangle 1014" width="73.474" height="3.038" transform="translate(7663.382 7988.663)" fill="#e2e2e2"/>
                        <path id="Path_9441" data-name="Path 9441" d="M7732.5,7991.987c0,.12-14.276.218-31.882.218s-31.884-.1-31.884-.218,14.272-.218,31.884-.218,31.882.1,31.882.218" fill="#f8f9fa"/>
                        <path id="Path_9442" data-name="Path 9442" d="M7681.425,7817.833l112.121.468s-10.621-24.292-33.307-24.3c-17.3-.01-18.07,10.764-28.449,13.84s-32.294-15.764-50.364,10" fill="#fdc61b"/>
                        <path id="Path_9443" data-name="Path 9443" d="M7301.088,7772.515l136.045.568s-12.888-29.475-40.414-29.49c-20.993-.012-21.924,13.062-34.519,16.794s-39.185-19.126-61.11,12.128" fill="#fdc61b"/>
                        <path id="Path_9442-2" data-name="Path 9442" d="M7681.425,7817.833l112.121.468s-10.621-24.292-33.307-24.3c-17.3-.01-18.07,10.764-28.449,13.84s-32.294-15.764-50.364,10" fill="#fff" opacity="0.5" style="isolation: isolate"/>
                        <path id="Path_9443-2" data-name="Path 9443" d="M7301.088,7772.515l136.045.568s-12.888-29.475-40.414-29.49c-20.993-.012-21.924,13.062-34.519,16.794s-39.185-19.126-61.11,12.128" fill="#fff" opacity="0.5" style="isolation: isolate"/>
                      </g>
                    </g>
                    <g id="Group_648" data-name="Group 648">
                      <g id="Group_1244" data-name="Group 1244">
                        <g id="Group_1243" data-name="Group 1243" clip-path="url(#clip-path-3)">
                          <g id="Group_647" data-name="Group 647">
                            <rect id="Rectangle_1016" data-name="Rectangle 1016" width="270.031" height="717.286" transform="translate(7421.383 7492.143)" fill="#15375e"/>
                            <rect id="Rectangle_1017" data-name="Rectangle 1017" width="103.614" height="717.286" transform="translate(7587.8 7492.143)" fill="#15375e"/>
                            <rect id="Rectangle_1018" data-name="Rectangle 1018" width="20.524" height="43.276" transform="translate(7629.346 7709.68)" fill="#4b617b"/>
                            <rect id="Rectangle_1019" data-name="Rectangle 1019" width="20.524" height="43.276" transform="translate(7629.346 7790.925)" fill="#4b617b"/>
                            <rect id="Rectangle_1020" data-name="Rectangle 1020" width="20.524" height="43.276" transform="translate(7629.346 7872.169)" fill="#4b617b"/>
                            <rect id="Rectangle_1021" data-name="Rectangle 1021" width="20.524" height="43.275" transform="translate(7629.346 7953.415)" fill="#4b617b"/>
                            <rect id="Rectangle_1022" data-name="Rectangle 1022" width="20.524" height="43.275" transform="translate(7629.346 8034.661)" fill="#4b617b"/>
                            <rect id="Rectangle_1023" data-name="Rectangle 1023" width="20.524" height="43.275" transform="translate(7459.818 7629.404)" fill="#4b617b"/>
                            <rect id="Rectangle_1024" data-name="Rectangle 1024" width="20.523" height="43.275" transform="translate(7514.429 7629.404)" fill="#4b617b"/>
                            <rect id="Rectangle_1025" data-name="Rectangle 1025" width="20.524" height="43.276" transform="translate(7459.818 7711.833)" fill="#4b617b"/>
                            <rect id="Rectangle_1026" data-name="Rectangle 1026" width="20.523" height="43.276" transform="translate(7514.429 7711.833)" fill="#4b617b"/>
                            <rect id="Rectangle_1027" data-name="Rectangle 1027" width="20.524" height="43.275" transform="translate(7459.818 7794.262)" fill="#4b617b"/>
                            <rect id="Rectangle_1028" data-name="Rectangle 1028" width="20.523" height="43.275" transform="translate(7514.429 7794.262)" fill="#4b617b"/>
                            <rect id="Rectangle_1029" data-name="Rectangle 1029" width="20.524" height="43.275" transform="translate(7459.818 7876.691)" fill="#4b617b"/>
                            <rect id="Rectangle_1030" data-name="Rectangle 1030" width="20.523" height="43.275" transform="translate(7514.429 7876.691)" fill="#4b617b"/>
                            <rect id="Rectangle_1031" data-name="Rectangle 1031" width="20.524" height="43.276" transform="translate(7459.818 7959.12)" fill="#4b617b"/>
                            <rect id="Rectangle_1032" data-name="Rectangle 1032" width="20.523" height="43.276" transform="translate(7514.429 7959.12)" fill="#4b617b"/>
                            <rect id="Rectangle_1033" data-name="Rectangle 1033" width="20.524" height="43.275" transform="translate(7459.818 8041.55)" fill="#4b617b"/>
                            <rect id="Rectangle_1034" data-name="Rectangle 1034" width="20.523" height="43.275" transform="translate(7514.429 8041.55)" fill="#4b617b"/>
                            <g id="Line_144" data-name="Line 144">
                              <rect id="Rectangle_1332" data-name="Rectangle 1332" width="166.416" height="4" transform="translate(7421.384 7688.486)" fill="#0b2645"/>
                            </g>
                            <g id="Line_145" data-name="Line 145">
                              <rect id="Rectangle_1333" data-name="Rectangle 1333" width="166.416" height="4" transform="translate(7421.384 7771.738)" fill="#0b2645"/>
                            </g>
                            <g id="Line_146" data-name="Line 146">
                              <rect id="Rectangle_1334" data-name="Rectangle 1334" width="166.416" height="4" transform="translate(7421.384 7854.99)" fill="#0b2645"/>
                            </g>
                            <g id="Line_147" data-name="Line 147">
                              <rect id="Rectangle_1335" data-name="Rectangle 1335" width="166.416" height="4" transform="translate(7421.384 7938.242)" fill="#0b2645"/>
                            </g>
                            <g id="Line_148" data-name="Line 148">
                              <rect id="Rectangle_1336" data-name="Rectangle 1336" width="166.416" height="4" transform="translate(7421.384 8021.496)" fill="#0b2645"/>
                            </g>
                            <g id="Line_149" data-name="Line 149">
                              <rect id="Rectangle_1337" data-name="Rectangle 1337" width="103.678" height="4" transform="translate(7587.8 7688.486)" fill="#0b2645"/>
                            </g>
                            <g id="Line_150" data-name="Line 150">
                              <rect id="Rectangle_1338" data-name="Rectangle 1338" width="103.678" height="4" transform="translate(7587.8 7771.738)" fill="#0b2645"/>
                            </g>
                            <g id="Line_151" data-name="Line 151">
                              <rect id="Rectangle_1339" data-name="Rectangle 1339" width="103.678" height="4" transform="translate(7587.8 7854.99)" fill="#0b2645"/>
                            </g>
                            <g id="Line_152" data-name="Line 152">
                              <rect id="Rectangle_1340" data-name="Rectangle 1340" width="103.678" height="4" transform="translate(7587.8 7938.242)" fill="#0b2645"/>
                            </g>
                            <g id="Line_153" data-name="Line 153">
                              <rect id="Rectangle_1341" data-name="Rectangle 1341" width="103.678" height="4" transform="translate(7587.8 8021.496)" fill="#0b2645"/>
                            </g>
                            <rect id="Rectangle_1035" data-name="Rectangle 1035" width="163.341" height="81.714" transform="translate(7422.92 7856.991)" fill="#fff"/>
                            <g id="Rectangle_1036" data-name="Rectangle 1036">
                              <path id="Path_10476" data-name="Path 10476" d="M7588.262,7940.705H7420.921V7854.99h167.341Zm-163.341-4h159.341V7858.99H7424.921Z" fill="#0b2645"/>
                            </g>
                            <line id="Line_154" data-name="Line 154" y2="62.356" transform="translate(7477.369 7866.669)" fill="none"/>
                            <g id="Line_155" data-name="Line 155">
                              <path id="Path_10477" data-name="Path 10477" d="M7477.368,7931.025a2,2,0,0,1-2-2V7866.67a2,2,0,0,1,4,0v62.355A2,2,0,0,1,7477.368,7931.025Z" fill="#0b2645"/>
                            </g>
                            <line id="Line_156" data-name="Line 156" y2="62.356" transform="translate(7531.814 7866.669)" fill="none"/>
                            <g id="Line_157" data-name="Line 157">
                              <path id="Path_10478" data-name="Path 10478" d="M7531.814,7931.025a2,2,0,0,1-2-2V7866.67a2,2,0,0,1,4,0v62.355A2,2,0,0,1,7531.814,7931.025Z" fill="#0b2645"/>
                            </g>
                            <path id="Path_9445" data-name="Path 9445" d="M7450.134,7881.509c13.349,0,24.17,7.316,24.17,16.339s-10.821,16.339-24.17,16.339-24.169-7.315-24.169-16.339,10.821-16.339,24.169-16.339" fill="#15375e"/>
                            <path id="Path_9446" data-name="Path 9446" d="M7450.135,7912.164c-11.349,0-20.581-6.423-20.581-14.316s9.232-14.316,20.581-14.316,20.581,6.422,20.581,14.316-9.233,14.316-20.581,14.316m0-26.143c-9.975,0-18.091,5.305-18.091,11.827s8.116,11.827,18.091,11.827,18.091-5.3,18.091-11.827-8.116-11.827-18.091-11.827" fill="#eeedee"/>
                            <path id="Path_9447" data-name="Path 9447" d="M7462.869,7895.513a2.335,2.335,0,1,1-2.334,2.336h0a2.332,2.332,0,0,1,2.332-2.335h0" fill="#eeedee"/>
                            <path id="Path_9448" data-name="Path 9448" d="M7437.4,7895.513a2.335,2.335,0,1,1-2.334,2.336h0a2.334,2.334,0,0,1,2.334-2.335" fill="#eeedee"/>
                            <path id="Path_9449" data-name="Path 9449" d="M7443.577,7900.878h5.96v1.566h-9.02v-1.408l5.4-3.274c1.1-.7,1.665-1.322,1.665-1.853,0-.847-.789-1.264-2.355-1.264-1.824,0-2.613.445-2.944,1.478h-1.824c.4-1.637,1.552-3.03,4.741-3.03a6.185,6.185,0,0,1,2.844.617,2.334,2.334,0,0,1,1.363,2.183,2.439,2.439,0,0,1-.875,1.766,10.449,10.449,0,0,1-1.738,1.322Z" fill="#eeedee"/>
                            <path id="Path_9450" data-name="Path 9450" d="M7459.8,7899.382a2.761,2.761,0,0,1-1.207,2.355,5.617,5.617,0,0,1-3.317.862,7.078,7.078,0,0,1-2.614-.517,3.2,3.2,0,0,1-1.9-2.169h1.852a2.8,2.8,0,0,0,2.657,1.135c1.8,0,2.7-.559,2.714-1.665-.014-1.093-1.162-1.666-2.785-1.666a3.06,3.06,0,0,0-2.471.79h-1.551l.574-5.257h7.5v1.566h-6.118c0,.043-.043.4-.115,1.077s-.115,1.048-.129,1.12a2.262,2.262,0,0,1,1.134-.56,5.755,5.755,0,0,1,1.437-.186c2.269,0,4.337.948,4.337,3.117" fill="#eeedee"/>
                            <path id="Rectangle_1037" data-name="Rectangle 1037" d="M0,0H40.639V4.876H0Z" transform="translate(7484.675 7887.125)" fill="#fee28d"/>
                            <rect id="Rectangle_1038" data-name="Rectangle 1038" width="40.639" height="4.876" transform="translate(7484.675 7913.134)" fill="#fee28d"/>
                            <path id="Path_9451" data-name="Path 9451" d="M7491.34,7880.623h15v6.5h-21.665a6.586,6.586,0,0,1,6.665-6.5" fill="#fdc61b"/>
                            <rect id="Rectangle_1039" data-name="Rectangle 1039" width="14.63" height="4.876" transform="translate(7510.685 7882.249)" fill="#eeedee"/>
                            <path id="Path_9452" data-name="Path 9452" d="M7526.94,7921.262h0a1.626,1.626,0,0,1-1.626-1.626v-43.89a1.626,1.626,0,0,1,3.251-.081c0,.027,0,.054,0,.081v43.89a1.625,1.625,0,0,1-1.624,1.626h0" fill="#15375e"/>
                            <path id="Path_9453" data-name="Path 9453" d="M7483.05,7874.121h0a1.626,1.626,0,0,1,1.626,1.626v43.89a1.626,1.626,0,0,1-3.251.08c0-.027,0-.054,0-.08v-43.89a1.624,1.624,0,0,1,1.624-1.626h0" fill="#15375e"/>
                            <path id="Path_9454" data-name="Path 9454" d="M7508.25,7879h0a2.436,2.436,0,0,1,2.438,2.437h0v5.69h-4.877v-5.69a2.438,2.438,0,0,1,2.439-2.438" fill="#15375e"/>
                            <path id="Path_9455" data-name="Path 9455" d="M7516.372,7877.371h4.876a2.438,2.438,0,1,1,0,4.877h-4.876a2.438,2.438,0,0,1,0-4.877" fill="#fdc61b"/>
                            <path id="Path_9456" data-name="Path 9456" d="M7516.372,7903.381h4.876a2.438,2.438,0,0,1,.016,4.876h-4.892a2.438,2.438,0,0,1-.015-4.876h.015" fill="#fdc61b"/>
                            <path id="Path_9457" data-name="Path 9457" d="M7491.674,7906.632h15.747v6.5h-22.746a6.765,6.765,0,0,1,7-6.5" fill="#fdc61b"/>
                            <rect id="Rectangle_1040" data-name="Rectangle 1040" width="14.63" height="4.876" transform="translate(7510.685 7908.258)" fill="#eeedee"/>
                            <path id="Path_9458" data-name="Path 9458" d="M7508.25,7905.009h0a2.438,2.438,0,0,1,2.438,2.438v5.69h-4.877v-5.69a2.439,2.439,0,0,1,2.439-2.438" fill="#15375e"/>
                            <path id="Path_9459" data-name="Path 9459" d="M7534.955,7886.374v30.849a3.768,3.768,0,0,0,3.762,3.762h40.63a3.767,3.767,0,0,0,3.762-3.763v-30.848Z" fill="#d8dbe2"/>
                            <path id="Path_9460" data-name="Path 9460" d="M7579.347,7875.84h-40.63a3.767,3.767,0,0,0-3.762,3.762v6.772h48.154V7879.6a3.765,3.765,0,0,0-3.762-3.762m-38.371,7.524a2.257,2.257,0,1,1,2.258-2.258,2.258,2.258,0,0,1-2.258,2.258h0m36.116,0a2.257,2.257,0,1,1,2.257-2.258,2.258,2.258,0,0,1-2.257,2.258h0" fill="#fdc61b"/>
                            <path id="Path_9461" data-name="Path 9461" d="M7559.032,7893.145a3.01,3.01,0,1,0,3.011,3.01,3.009,3.009,0,0,0-3.011-3.01" fill="#fff"/>
                            <path id="Path_9462" data-name="Path 9462" d="M7551.509,7893.145a3.01,3.01,0,1,0,3.009,3.011h0a3.013,3.013,0,0,0-3.009-3.01" fill="#fff"/>
                            <path id="Path_9463" data-name="Path 9463" d="M7543.984,7893.145a3.01,3.01,0,1,0,3.01,3.01,3.008,3.008,0,0,0-3.01-3.01" fill="#fff"/>
                            <path id="Path_9464" data-name="Path 9464" d="M7566.556,7893.145a3.01,3.01,0,1,0,3.011,3.01,3.009,3.009,0,0,0-3.011-3.01" fill="#fff"/>
                            <path id="Path_9465" data-name="Path 9465" d="M7574.08,7899.164a3.009,3.009,0,1,0-3.009-3.009h0a3.013,3.013,0,0,0,3.009,3.009" fill="#fff"/>
                            <path id="Path_9466" data-name="Path 9466" d="M7559.032,7900.67a3.01,3.01,0,1,0,3.011,3.01,3.009,3.009,0,0,0-3.011-3.01" fill="#15375e"/>
                            <path id="Path_9467" data-name="Path 9467" d="M7551.509,7900.67a3.01,3.01,0,1,0,3.009,3.011h0a3.013,3.013,0,0,0-3.009-3.01" fill="#fff"/>
                            <path id="Path_9468" data-name="Path 9468" d="M7543.984,7900.67a3.01,3.01,0,1,0,3.01,3.01,3.008,3.008,0,0,0-3.01-3.01" fill="#fff"/>
                            <path id="Path_9469" data-name="Path 9469" d="M7566.556,7900.67a3.01,3.01,0,1,0,3.011,3.01,3.009,3.009,0,0,0-3.011-3.01" fill="#fff"/>
                            <path id="Path_9470" data-name="Path 9470" d="M7574.08,7900.67a3.01,3.01,0,1,0,3.01,3.01,3.009,3.009,0,0,0-3.01-3.01" fill="#fff"/>
                            <path id="Path_9471" data-name="Path 9471" d="M7559.032,7908.194a3.009,3.009,0,1,0,3.011,3.01,3.01,3.01,0,0,0-3.011-3.01" fill="#fff"/>
                            <path id="Path_9472" data-name="Path 9472" d="M7551.509,7908.194a3.009,3.009,0,1,0,3.009,3.01,3.009,3.009,0,0,0-3.009-3.01" fill="#fdc61b"/>
                            <path id="Path_9473" data-name="Path 9473" d="M7543.984,7908.194a3.009,3.009,0,1,0,3.01,3.01,3.01,3.01,0,0,0-3.01-3.01" fill="#fff"/>
                            <path id="Path_9474" data-name="Path 9474" d="M7566.556,7908.194a3.009,3.009,0,1,0,3.011,3.01,3.01,3.01,0,0,0-3.011-3.01" fill="#fff"/>
                            <path id="Path_9475" data-name="Path 9475" d="M7574.08,7908.194a3.009,3.009,0,1,0,3.01,3.01,3.01,3.01,0,0,0-3.01-3.01" fill="#fff"/>
                            <path id="Path_9476" data-name="Path 9476" d="M7540.975,7882.235a1.129,1.129,0,0,1-1.129-1.129h0v-5.267a1.128,1.128,0,0,1,2.256,0v5.267a1.127,1.127,0,0,1-1.126,1.129h0" fill="#605c5b"/>
                            <path id="Path_9477" data-name="Path 9477" d="M7577.089,7882.235a1.128,1.128,0,0,1-1.127-1.128h0v-5.267a1.128,1.128,0,1,1,2.256,0v5.267a1.127,1.127,0,0,1-1.126,1.129h0" fill="#605c5b"/>
                            <path id="Path_9478" data-name="Path 9478" d="M7543.984,7893.145a3.01,3.01,0,1,1-3.01,3.01,3.009,3.009,0,0,1,3.01-3.01h0" fill="#fdc61b"/>
                            <path id="Path_9479" data-name="Path 9479" d="M7559.032,7908.194a3.009,3.009,0,1,1-3.01,3.01,3.008,3.008,0,0,1,3.01-3.01h0" fill="#fff"/>
                            <path id="Path_9480" data-name="Path 9480" d="M7566.556,7900.67a3.01,3.01,0,1,1-3.009,3.011h0a3.011,3.011,0,0,1,3.009-3.01" fill="#15375e"/>
                          </g>
                        </g>
                      </g>
                    </g>
                    <g id="Group_650" data-name="Group 650">
                      <g id="Group_653" data-name="Group 653">
                        <path id="Path_9482" data-name="Path 9482" d="M7457.958,7806.985a98.216,98.216,0,0,0,17.382,180.823h0a98.783,98.783,0,0,0,89.538-16.572l83.1,103.635,12.713-10.131-83.8-104.508a97.638,97.638,0,0,0,21.612-37.64,99.7,99.7,0,0,0,2.582-10.333,98.6,98.6,0,0,0-143.127-105.274m70.364,8.336a82.38,82.38,0,1,1-62.73,5.993,82.039,82.039,0,0,1,62.73-5.993" fill="#fdc61b"/>
                      </g>
                    </g>
                  </g>
                </g>
              </g>
            </g>
          </g>
          <g id="Group_986" data-name="Group 986">
            <g id="Group_1248" data-name="Group 1248">
              <g id="Group_1247" data-name="Group 1247" clip-path="url(#clip-path-4)">
                <g id="Group_985" data-name="Group 985">
                  <path id="Path_10285" data-name="Path 10285" d="M7503.445,7747.639l1.7,3.286a1.03,1.03,0,0,0,.785.547l3.673.459a1.027,1.027,0,0,1,.6,1.741l-2.6,2.636a1.031,1.031,0,0,0-.277.915l.7,3.635a1.028,1.028,0,0,1-.816,1.2,1.039,1.039,0,0,1-.653-.09l-3.3-1.657a1.027,1.027,0,0,0-.956.019l-3.244,1.787a1.029,1.029,0,0,1-1.512-1.054l.553-3.66a1.026,1.026,0,0,0-.314-.9l-2.7-2.53a1.027,1.027,0,0,1,.533-1.766l3.651-.6a1.026,1.026,0,0,0,.762-.577l1.572-3.352a1.027,1.027,0,0,1,1.843-.037" fill="#fdc61b"/>
                  <path id="Path_10286" data-name="Path 10286" d="M7507.033,7761.46a.422.422,0,0,1-.19-.045l-3.31-1.657a1.649,1.649,0,0,0-1.534.03l-3.241,1.788a.4.4,0,0,1-.189.053.422.422,0,0,1-.318-.144.393.393,0,0,1-.092-.326l.552-3.66a1.647,1.647,0,0,0-.5-1.449l-2.7-2.53a.407.407,0,0,1,.212-.7l3.651-.6a1.648,1.648,0,0,0,1.223-.926l1.571-3.351a.407.407,0,0,1,.729-.015l1.7,3.286a1.652,1.652,0,0,0,1.259.877l3.672.459a.408.408,0,0,1,.353.455.4.4,0,0,1-.114.234l-2.6,2.629a1.651,1.651,0,0,0-.445,1.468l.7,3.635a.386.386,0,0,1-.079.329.421.421,0,0,1-.312.157" fill="#fdc61b"/>
                  <path id="Path_10287" data-name="Path 10287" d="M7519.694,7747.639l1.7,3.286a1.03,1.03,0,0,0,.785.547l3.673.459a1.027,1.027,0,0,1,.6,1.741l-2.6,2.636a1.03,1.03,0,0,0-.277.915l.7,3.635a1.028,1.028,0,0,1-.816,1.2,1.039,1.039,0,0,1-.653-.09l-3.31-1.657a1.027,1.027,0,0,0-.956.019l-3.241,1.788a1.028,1.028,0,0,1-1.512-1.054l.553-3.66a1.024,1.024,0,0,0-.314-.9l-2.7-2.53a1.027,1.027,0,0,1,.544-1.767l3.651-.6a1.028,1.028,0,0,0,.762-.577l1.568-3.352a1.027,1.027,0,0,1,1.843-.037" fill="#fdc61b"/>
                  <path id="Path_10288" data-name="Path 10288" d="M7523.281,7761.46a.421.421,0,0,1-.19-.045l-3.31-1.657a1.648,1.648,0,0,0-1.534.03l-3.241,1.787a.4.4,0,0,1-.189.053.421.421,0,0,1-.318-.144.393.393,0,0,1-.093-.326l.553-3.66a1.647,1.647,0,0,0-.5-1.449l-2.7-2.53a.407.407,0,0,1,.212-.7l3.651-.6a1.648,1.648,0,0,0,1.223-.926l1.568-3.354a.408.408,0,0,1,.542-.2.4.4,0,0,1,.188.182l1.7,3.286a1.653,1.653,0,0,0,1.259.877l3.673.459a.408.408,0,0,1,.353.455.4.4,0,0,1-.114.234l-2.6,2.636a1.651,1.651,0,0,0-.445,1.468l.7,3.635a.388.388,0,0,1-.08.329.421.421,0,0,1-.312.157" fill="#fdc61b"/>
                  <path id="Path_10289" data-name="Path 10289" d="M7535.942,7747.639l1.7,3.286a1.029,1.029,0,0,0,.785.547l3.672.459a1.027,1.027,0,0,1,.6,1.741l-2.6,2.636a1.029,1.029,0,0,0-.277.915l.7,3.635a1.028,1.028,0,0,1-.816,1.2,1.039,1.039,0,0,1-.653-.09l-3.31-1.657a1.027,1.027,0,0,0-.956.019l-3.241,1.788a1.027,1.027,0,0,1-1.511-1.054l.552-3.66a1.026,1.026,0,0,0-.313-.9l-2.7-2.53a1.026,1.026,0,0,1,.534-1.764l3.651-.6a1.028,1.028,0,0,0,.761-.577l1.58-3.355a1.028,1.028,0,0,1,1.843-.037" fill="#fdc61b"/>
                  <path id="Path_10290" data-name="Path 10290" d="M7539.53,7761.46a.421.421,0,0,1-.19-.045l-3.31-1.657a1.648,1.648,0,0,0-1.534.03l-3.241,1.787a.41.41,0,0,1-.188.053.422.422,0,0,1-.318-.144.393.393,0,0,1-.092-.326l.553-3.66a1.647,1.647,0,0,0-.5-1.449l-2.7-2.53a.407.407,0,0,1,.212-.7l3.651-.6a1.651,1.651,0,0,0,1.224-.926l1.569-3.354a.408.408,0,0,1,.542-.2.4.4,0,0,1,.188.182l1.7,3.286a1.652,1.652,0,0,0,1.259.877l3.673.459a.407.407,0,0,1,.239.689l-2.6,2.633a1.651,1.651,0,0,0-.445,1.468l.7,3.635a.389.389,0,0,1-.079.329.42.42,0,0,1-.312.157" fill="#fdc61b"/>
                  <path id="Path_10291" data-name="Path 10291" d="M7552.191,7747.639l1.7,3.286a1.029,1.029,0,0,0,.785.547l3.672.459a1.027,1.027,0,0,1,.6,1.741l-2.6,2.636a1.03,1.03,0,0,0-.277.915l.7,3.635a1.028,1.028,0,0,1-.816,1.2,1.041,1.041,0,0,1-.653-.09l-3.31-1.657a1.025,1.025,0,0,0-.955.019l-3.241,1.788a1.028,1.028,0,0,1-1.512-1.054l.553-3.66a1.029,1.029,0,0,0-.314-.9l-2.7-2.53a1.026,1.026,0,0,1,.534-1.764l3.651-.6a1.031,1.031,0,0,0,.762-.577l1.578-3.355a1.028,1.028,0,0,1,1.843-.037" fill="#fdc61b"/>
                  <path id="Path_10292" data-name="Path 10292" d="M7555.78,7761.46a.421.421,0,0,1-.19-.045l-3.31-1.657a1.648,1.648,0,0,0-1.534.03l-3.241,1.787a.4.4,0,0,1-.188.053.419.419,0,0,1-.318-.144.393.393,0,0,1-.093-.326l.554-3.66a1.652,1.652,0,0,0-.5-1.449l-2.7-2.53a.407.407,0,0,1,.213-.7l3.651-.6a1.648,1.648,0,0,0,1.222-.926l1.572-3.351a.407.407,0,0,1,.729-.015l1.7,3.286a1.649,1.649,0,0,0,1.259.877l3.673.459a.408.408,0,0,1,.239.689l-2.6,2.636a1.643,1.643,0,0,0-.445,1.468l.7,3.635a.39.39,0,0,1-.079.329.426.426,0,0,1-.313.157" fill="#fdc61b"/>
                  <path id="Path_10293" data-name="Path 10293" d="M7568.439,7747.639l1.7,3.286a1.026,1.026,0,0,0,.785.547l3.673.459a1.028,1.028,0,0,1,.6,1.741l-2.6,2.636a1.024,1.024,0,0,0-.277.915l.7,3.635a1.028,1.028,0,0,1-1.469,1.113l-3.31-1.657a1.027,1.027,0,0,0-.956.019l-3.241,1.788a1.028,1.028,0,0,1-1.512-1.054l.553-3.66a1.028,1.028,0,0,0-.314-.9l-2.7-2.53a1.027,1.027,0,0,1,.534-1.764l3.652-.6a1.031,1.031,0,0,0,.762-.577l1.576-3.355a1.027,1.027,0,0,1,1.842-.037" fill="#fdc61b"/>
                  <path id="Path_10294" data-name="Path 10294" d="M7572.027,7761.46a.421.421,0,0,1-.19-.045l-3.31-1.657a1.648,1.648,0,0,0-1.534.03l-3.241,1.787a.412.412,0,0,1-.188.053.422.422,0,0,1-.318-.144.394.394,0,0,1-.092-.326l.553-3.66a1.647,1.647,0,0,0-.5-1.449l-2.7-2.53a.407.407,0,0,1,.212-.7l3.652-.6a1.649,1.649,0,0,0,1.223-.926l1.572-3.351a.407.407,0,0,1,.541-.2.413.413,0,0,1,.189.182l1.7,3.286a1.649,1.649,0,0,0,1.259.877l3.673.459a.408.408,0,0,1,.239.689l-2.6,2.636a1.645,1.645,0,0,0-.445,1.468l.7,3.635a.391.391,0,0,1-.079.329.424.424,0,0,1-.312.157" fill="#fdc61b"/>
                </g>
              </g>
            </g>
          </g>
        </g>
      </g>
    </g>
  </g>
</svg>
