<svg xmlns="http://www.w3.org/2000/svg" xmlns:xlink="http://www.w3.org/1999/xlink" width="535.998" height="333.462" viewBox="0 0 535.998 333.462">
  <defs>
    <clipPath id="clip-path">
      <rect id="Rectangle_1299" data-name="Rectangle 1299" width="41.083" height="29.469" transform="translate(1558.543 631.581)" fill="none"/>
    </clipPath>
    <clipPath id="clip-path-2">
      <rect id="Rectangle_1300" data-name="Rectangle 1300" width="29.733" height="13.549" transform="translate(1499.867 586.39)" fill="none"/>
    </clipPath>
  </defs>
  <g id="Group_1204" data-name="Group 1204" transform="translate(-1304.565 -440.521)">
    <g id="Mask_Group_4" data-name="Mask Group 4">
      <g id="Group_1017" data-name="Group 1017">
        <g id="Group_824" data-name="Group 824">
          <path id="Path_8921" data-name="Path 8921" d="M1336.053,738.7c98.693,102.39,227.566-51.98,349.356-38.578,78.441,8.634,165.194-29.757,154.208-126.557-15.98-140.763-239.778-143.29-360.489-114.424S1248.663,648.031,1336.053,738.7" fill="#fef3d1"/>
          <g id="Group_889" data-name="Group 889">
            <path id="Path_10026" data-name="Path 10026" d="M1492.89,655.13l.071-.057a4.507,4.507,0,0,0,.673-6.336l-3.373-4.166-.015.012a26.789,26.789,0,0,0-41.491,33.891l67.819,83.861a5.187,5.187,0,0,0,7.292.772l33.61-27.184a5.184,5.184,0,0,0,.772-7.29h0l-33.894-41.91a5.183,5.183,0,0,0-3.485-1.895l-53.132-5.617h0a17.535,17.535,0,0,1-8.768-3.479,18.711,18.711,0,0,1-1.553-1.316c-.05-.046-.1-.092-.148-.137a16.918,16.918,0,0,1-1.417-1.54,17.683,17.683,0,0,1,27.332-22.444l3.373,4.166a4.507,4.507,0,0,0,6.336.673" fill="#fff"/>
          </g>
          <g id="Group_582" data-name="Group 582">
            <g id="Group_572" data-name="Group 572">
              <path id="Path_9165" data-name="Path 9165" d="M1790.74,440.73h-98.431V569.088l98.432,2.471Z" fill="#eeedee"/>
              <path id="Path_9166" data-name="Path 9166" d="M1784.265,445.293h-86.133V561.712l86.133,2.908Z" fill="#fff"/>
              <path id="Path_9167" data-name="Path 9167" d="M1769.181,466.446l-57.157-2.178v81.378h57.157Z" fill="#eeedee"/>
              <path id="Path_9168" data-name="Path 9168" d="M1712.024,545.646l57.157-41.8-57.157-39.572Z" fill="#f8f9fa"/>
              <path id="Path_9169" data-name="Path 9169" d="M1396.809,765.963c-1.273-1.086-4.112-4.53-1.923-8.535.8-1.469,2.507-2.193,4.051-2.841a16.454,16.454,0,0,0,4.442-2.291c2.408-2.039,3.073-5.427,4.672-8.148,1.835-3.124,5.261-5.464,8.88-5.3,4.145.187,7.6,3.558,9.168,7.4s1.622,8.108,1.654,12.258c.018,2.294-.084,4.88-1.777,6.43-1.56,1.428-3.909,1.446-6.023,1.381l-22.65-.692" fill="#f8f9fa"/>
              <path id="Path_9170" data-name="Path 9170" d="M1440.13,703.964h-59.567l10.73,63.687a7.123,7.123,0,0,0,5.086,5.67c.068.022.139.037.208.057.177.047.348.1.53.136a7.376,7.376,0,0,0,1.212.139.321.321,0,0,0,.01.061l.291-.046h26.55a7.43,7.43,0,0,0,1.458-.145,7.152,7.152,0,0,0,6.026-6.225l5.172-43.881.234-1.745h-.027l2.049-17.379Zm-11.237,40.62h-6.113l.616-18.484h7.083Zm2.18-18.484h5.852l-2.179,18.484h-5.26Zm-17.465,38.978-.372-16.057h8.8l-.535,16.057Zm-9.517-16.057h8.554l.372,16.057h-7.672Zm.661,16.057h-7.171c-.681-4.335-1.568-9.969-2.528-16.057h8.446Zm-1.007-20.494L1402.3,726.1h9.813l.428,18.484Zm9.389,0-.427-18.484h10.1l-.619,18.484Zm-.53-22.916-.4-17.118h11.32l-.571,17.118Zm-.592,0h-10.056l-1.336-17.118h11Zm-10.649,0h-10.639c-.377-2.364-.734-4.6-1.057-6.615-1.11-6.921-1.527-9.523-1.759-10.5h12.119Zm.346,4.432,1.444,18.484h-8.8c-.3-1.876-.6-3.773-.9-5.671-.689-4.363-1.38-8.725-2.029-12.812Zm-7.954,18.484h-5.747l-3.115-18.479h5.937c.907,5.712,1.913,12.07,2.925,18.484m.7,4.432c.877,5.557,1.739,11.035,2.528,16.057h-5.52l-2.709-16.057Zm27.642,16.057.536-16.057h5.88l-1.378,16.057Zm1.448-43.406.571-17.118h8.213l-1.466,17.119Zm-36.2-17.118c.236,1.238,1.323,7.973,2.78,17.118h-5.979l-2.883-17.117Zm44.986,60.523h-4.6l1.378-16.057h5.118Zm5.116-43.406h-5.994l1.469-17.118h6.541Z" fill="#fff"/>
            </g>
            <g id="Group_580" data-name="Group 580">
              <g id="Group_581" data-name="Group 581">
                <path id="Rectangle_863" data-name="Rectangle 863" d="M0,0H38.4V219.153H0Z" transform="translate(1516.078 554.562)" fill="#15375e"/>
                <rect id="Rectangle_864" data-name="Rectangle 864" width="48.102" height="219.153" transform="translate(1554.48 554.562)" fill="#15375e"/>
                <rect id="Rectangle_864-2" data-name="Rectangle 864" width="48.102" height="219.153" transform="translate(1554.48 554.562)" fill="#fff" opacity="0.3" style="isolation: isolate"/>
                <rect id="Rectangle_865" data-name="Rectangle 865" width="41.432" height="29.469" transform="translate(1558.543 560.289)" fill="#15375e"/>
                <rect id="Rectangle_866" data-name="Rectangle 866" width="41.432" height="29.469" transform="translate(1558.543 595.935)" fill="#15375e"/>
                <rect id="Rectangle_867" data-name="Rectangle 867" width="41.432" height="29.469" transform="translate(1558.543 631.581)" fill="#fdc61b"/>
                <rect id="Rectangle_868" data-name="Rectangle 868" width="41.432" height="29.47" transform="translate(1558.543 667.227)" fill="#15375e"/>
                <rect id="Rectangle_869" data-name="Rectangle 869" width="41.432" height="29.469" transform="translate(1558.543 702.874)" fill="#15375e"/>
                <rect id="Rectangle_870" data-name="Rectangle 870" width="41.432" height="29.469" transform="translate(1558.543 738.52)" fill="#15375e"/>
                <rect id="Rectangle_871" data-name="Rectangle 871" width="12.675" height="4.987" transform="translate(1572.922 569.672)" fill="#fdc61b"/>
                <rect id="Rectangle_872" data-name="Rectangle 872" width="12.675" height="1.87" transform="translate(1572.922 578.504)" fill="#fdc61b"/>
                <rect id="Rectangle_873" data-name="Rectangle 873" width="12.675" height="4.987" transform="translate(1572.922 605.318)" fill="#15375e"/>
                <rect id="Rectangle_874" data-name="Rectangle 874" width="12.675" height="1.87" transform="translate(1572.922 614.15)" fill="#15375e"/>
                <rect id="Rectangle_875" data-name="Rectangle 875" width="12.675" height="4.987" transform="translate(1572.922 676.611)" fill="#fdc61b"/>
                <rect id="Rectangle_876" data-name="Rectangle 876" width="12.675" height="1.87" transform="translate(1572.922 685.442)" fill="#fdc61b"/>
                <rect id="Rectangle_877" data-name="Rectangle 877" width="12.675" height="4.987" transform="translate(1572.922 712.257)" fill="#fdc61b"/>
                <rect id="Rectangle_878" data-name="Rectangle 878" width="12.675" height="1.87" transform="translate(1572.922 721.088)" fill="#fdc61b"/>
                <rect id="Rectangle_879" data-name="Rectangle 879" width="12.675" height="4.987" transform="translate(1572.922 747.903)" fill="#fdc61b"/>
                <rect id="Rectangle_880" data-name="Rectangle 880" width="12.675" height="1.87" transform="translate(1572.922 756.735)" fill="#fdc61b"/>
                <rect id="Rectangle_881" data-name="Rectangle 881" width="40.838" height="27.801" transform="translate(1570.604 604.234)" fill="#fcfdfd"/>
                <path id="Path_9177" data-name="Path 9177" d="M1621.341,608.66l-2.058,23.622-48.679-.247,2.913-23.125a2.744,2.744,0,0,1,3.078-2.351l19.64,1.712,3.344-2.479a1.519,1.519,0,0,1,1.041-.284l19.394,1.71a1.389,1.389,0,0,1,1.328,1.442" fill="#fdc61b"/>
                <path id="Path_9178" data-name="Path 9178" d="M1621.341,608.66l-2.058,23.622-48.679-.247,2.913-23.125a2.744,2.744,0,0,1,3.078-2.351l19.64,1.712,3.344-2.479a1.519,1.519,0,0,1,1.041-.284l19.394,1.71a1.389,1.389,0,0,1,1.328,1.442" fill="#fdc61b"/>
                <path id="Path_9179" data-name="Path 9179" d="M1635.307,626.132l1.023-6.151-45.01-2.973-3.954,15.264,47.051-.237Z" fill="#fcfdfd"/>
                <path id="Path_9180" data-name="Path 9180" d="M1641.053,623.138l-.8,9.144h-48.144l1.12-8.894a2.746,2.746,0,0,1,3.078-2.351l19.64,1.712,3.344-2.479a1.519,1.519,0,0,1,1.041-.284l19.394,1.71a1.391,1.391,0,0,1,1.328,1.442" fill="#fee28d"/>
                <path id="Path_9181" data-name="Path 9181" d="M1590.251,621.135h-6.394a1.611,1.611,0,0,0-1.61,1.611,1.66,1.66,0,0,0,.041.364l2.071,8.916h3.007Z" fill="#fdc61b"/>
                <rect id="Rectangle_882" data-name="Rectangle 882" width="41.083" height="29.469" transform="translate(1558.543 631.581)" fill="#5f657e"/>
                <g id="Group_575" data-name="Group 575" opacity="0.4">
                  <g id="Group_574" data-name="Group 574">
                    <g id="Group_1201" data-name="Group 1201">
                      <g id="Group_1200" data-name="Group 1200" clip-path="url(#clip-path)">
                        <g id="Group_573" data-name="Group 573">
                          <rect id="Rectangle_883" data-name="Rectangle 883" width="41.083" height="29.469" transform="translate(1558.543 631.581)" fill="#15375e"/>
                        </g>
                      </g>
                    </g>
                  </g>
                </g>
                <path id="Rectangle_885" data-name="Rectangle 885" d="M0,0H41.432V29.469H0Z" transform="translate(1599.626 631.581)" fill="#15375e"/>
                <rect id="Rectangle_886" data-name="Rectangle 886" width="12.675" height="4.988" transform="translate(1614.005 640.964)" fill="#fdc61b"/>
                <rect id="Rectangle_887" data-name="Rectangle 887" width="12.675" height="1.87" transform="translate(1614.005 649.796)" fill="#fdc61b"/>
                <path id="Path_9182" data-name="Path 9182" d="M1549.7,499.057l.137-.034,37.5-9.278-.242-.283a29.761,29.761,0,0,1-2.292-3.067,30.9,30.9,0,0,1-2.925-5.812,41.417,41.417,0,0,1-1.721-6.475l-.275-1.23c-.913-4.091-1.307-5.741-1.654-7.2s-.65-2.729-1.4-6.167l-.035-.161c-.267-1.226-.571-2.616-1.055-4.556-1.5-6-2.233-7.2-2.627-7.85a15.507,15.507,0,0,0-3.753-4.2,14.851,14.851,0,0,0-4.069-2.2l-.064-.023-.067.017-34.9,8.517.373.291a16.563,16.563,0,0,1,5.1,6.406,16.86,16.86,0,0,1,.859,2.515c.644,2.329,1.581,6.05,2.386,10.547l.012.06a29.553,29.553,0,0,0,.791,3.463c.368,1.322.982,3.535,2.316,9.149.247,1.041.46,1.947.647,2.747.942,4.018,1.259,5.372,2.207,7.452a30.736,30.736,0,0,0,4.661,7.266Z" fill="#e9eaeb"/>
                <path id="Path_9184" data-name="Path 9184" d="M1544.329,463.5a.278.278,0,0,0,.058-.006l25.493-6.618a.229.229,0,1,0-.115-.444l-25.494,6.617a.229.229,0,0,0,.058.451" fill="#100f0c"/>
                <path id="Path_9186" data-name="Path 9186" d="M1545.22,467.344a.27.27,0,0,0,.058-.007l25.493-6.617a.23.23,0,0,0-.115-.445l-25.494,6.617a.23.23,0,0,0,.058.452" fill="#100f0c"/>
                <path id="Path_9188" data-name="Path 9188" d="M1546.039,471.187a.272.272,0,0,0,.058-.007l25.493-6.617a.23.23,0,0,0,.166-.279h0a.226.226,0,0,0-.274-.167l-.006,0-25.491,6.619a.23.23,0,0,0,.058.452" fill="#100f0c"/>
                <path id="Path_9190" data-name="Path 9190" d="M1547.285,475.03a.277.277,0,0,0,.058-.006l25.494-6.623a.229.229,0,0,0-.116-.444l-25.493,6.617a.229.229,0,0,0,.058.451" fill="#100f0c"/>
                <path id="Path_9192" data-name="Path 9192" d="M1548.183,478.873a.27.27,0,0,0,.058-.007l25.493-6.617a.23.23,0,0,0-.115-.445l-25.493,6.617a.23.23,0,0,0,.058.452" fill="#100f0c"/>
                <path id="Path_9194" data-name="Path 9194" d="M1549.322,482.859a.369.369,0,0,0,.058-.007l25.493-6.617a.23.23,0,1,0-.105-.448l-.011,0-25.493,6.617a.23.23,0,0,0,.058.452" fill="#100f0c"/>
                <path id="Path_9195" data-name="Path 9195" d="M1564.89,465.63l-14.729,3.823" fill="#15375e"/>
                <path id="Path_9196" data-name="Path 9196" d="M1550.16,486.683a.271.271,0,0,0,.058-.007l14.729-3.823a.23.23,0,0,0-.1-.448l-.011,0-14.729,3.823a.23.23,0,0,0,.058.452" fill="#100f0c"/>
                <path id="Path_9198" data-name="Path 9198" d="M1543.695,459.659a.272.272,0,0,0,.058-.007l25.49-6.617a.23.23,0,1,0-.105-.448l-.011,0-25.493,6.617a.23.23,0,0,0,.058.452" fill="#100f0c"/>
                <path id="Path_9199" data-name="Path 9199" d="M1641,573.257l.046-.282a147.281,147.281,0,0,1,14.568-44.025l.113-.218-.226-.1-3.748-1.609-6.691-2.874c-.8-.347-1.617-.679-2.428-1.012-1.507-.616-3.065-1.253-4.546-1.984l-.065-.031a19.563,19.563,0,0,0-3-1.229,16.949,16.949,0,0,0-3.51-.726,14.783,14.783,0,0,0-3.257.062,14.562,14.562,0,0,0-3.907,1.169,14.864,14.864,0,0,0-2.89,1.734,14.235,14.235,0,0,0-2.16,2.062,15.48,15.48,0,0,0-1.69,2.493,25.619,25.619,0,0,0-1.728,4.356c-.349,1.029-.881,2.627-1.426,4.4-.641,2.084-1.1,3.725-1.323,4.518-.006.024-.659,2.394-1.21,4.674-1.493,6.183-2.794,15.3-2.849,15.68l-.025.179Z" fill="#e9eaeb"/>
                <path id="Path_9200" data-name="Path 9200" d="M1634.586,519.753s-4.678,9.6-4.267,9.942c.38.31-11.623-4.484-11.77-4.559a13.276,13.276,0,0,1,4.215-4.179c5.167-3.173,10.789-1.527,11.821-1.2" fill="#bababa"/>
                <path id="Path_9201" data-name="Path 9201" d="M1645.19,537.117a.232.232,0,0,0,.23-.231.228.228,0,0,0-.141-.211l-8.673-3.664a.229.229,0,0,0-.3.122.231.231,0,0,0,.122.3l8.673,3.664a.253.253,0,0,0,.089.018" fill="#100f0c"/>
                <path id="Path_9202" data-name="Path 9202" d="M1643.859,542.65a.23.23,0,0,0,.232-.229.227.227,0,0,0-.132-.209l-22.919-10.581a.23.23,0,0,0-.193.418l22.919,10.58a.251.251,0,0,0,.1.021" fill="#100f0c"/>
                <path id="Path_9203" data-name="Path 9203" d="M1641.747,548.294a.231.231,0,0,0,.232-.229.227.227,0,0,0-.132-.209l-22.918-10.58a.23.23,0,0,0-.193.417l22.918,10.58a.249.249,0,0,0,.1.021" fill="#100f0c"/>
                <path id="Path_9204" data-name="Path 9204" d="M1639.59,553.914a.228.228,0,0,0,.208-.133.23.23,0,0,0-.11-.3L1616.77,542.9a.23.23,0,0,0-.193.417l22.918,10.581a.26.26,0,0,0,.1.021" fill="#100f0c"/>
                <path id="Path_9205" data-name="Path 9205" d="M1637.394,560.28a.23.23,0,0,0,.093-.44l-14.656-6.528a.228.228,0,0,0-.3.116.231.231,0,0,0,.116.3l14.656,6.529a.25.25,0,0,0,.093.019" fill="#100f0c"/>
                <path id="Path_9206" data-name="Path 9206" d="M1518.823,468.333l21.07,20.1a126.97,126.97,0,0,0-29,27.206l-13.505-12.08a12.115,12.115,0,0,1-.934-17.107c.166-.186.339-.366.516-.541a132.924,132.924,0,0,1,21.85-17.576" fill="#fdc61b"/>
                <path id="Path_9207" data-name="Path 9207" d="M1496.492,502.664c4.227-5.088,5.874-6.847,6.069-6.755,0,0,.01.005.012,0,.058-.062-3.531-3.479-7.633-7.349a11.3,11.3,0,0,0-1.647,4.574,11.928,11.928,0,0,0,1.825,7.723,12.323,12.323,0,0,0,1.374,1.8" fill="#fee28d"/>
                <path id="Path_9208" data-name="Path 9208" d="M1528.82,490.687a.23.23,0,0,0,.153-.4h0l-10.451-9.109a.229.229,0,1,0-.305.341l.005.005,10.451,9.108a.232.232,0,0,0,.15.057" fill="#15375e"/>
                <path id="Path_9209" data-name="Path 9209" d="M1524.628,494.724a.229.229,0,0,0,.225-.234.225.225,0,0,0-.077-.166l-16.634-14.108a.23.23,0,1,0-.3.35l16.642,14.1a.232.232,0,0,0,.148.055" fill="#15375e"/>
                <path id="Path_9210" data-name="Path 9210" d="M1521.01,498.461a.23.23,0,0,0,.15-.4h0l-16.634-14.108a.231.231,0,1,0-.3.35l16.634,14.107a.23.23,0,0,0,.148.055" fill="#15375e"/>
                <path id="Path_9211" data-name="Path 9211" d="M1517.356,502.17a.229.229,0,0,0,.225-.234.225.225,0,0,0-.077-.166l-16.634-14.108a.231.231,0,0,0-.3.35h0L1517.2,502.12a.237.237,0,0,0,.148.055" fill="#15375e"/>
                <path id="Path_9212" data-name="Path 9212" d="M1513.5,505.228a.23.23,0,0,0,.231-.228.222.222,0,0,0-.077-.172l-6.029-5.462a.229.229,0,0,0-.323.031.231.231,0,0,0,.014.309l6.029,5.462a.231.231,0,0,0,.154.06" fill="#15375e"/>
                <path id="Path_9213" data-name="Path 9213" d="M1477.442,559.556l34.817-15.079a29.222,29.222,0,0,1-8.353-11.283l-10.166-24.408a14.59,14.59,0,0,0-10.9-8.578l-32.295,13.985a18.9,18.9,0,0,1,7.848,8.832l11.583,26.744a25.583,25.583,0,0,0,7.466,9.786" fill="#d92e41"/>
                <path id="Path_9214" data-name="Path 9214" d="M1477.442,559.556l34.817-15.079a29.222,29.222,0,0,1-8.353-11.283l-10.166-24.408a14.59,14.59,0,0,0-10.9-8.578l-32.295,13.985a18.9,18.9,0,0,1,7.848,8.832l11.583,26.744a25.583,25.583,0,0,0,7.466,9.786" fill="#fee28d"/>
                <path id="Path_9215" data-name="Path 9215" d="M1479.38,514.02l8.632-3.782a.793.793,0,0,0,.408-1.046h0a.793.793,0,0,0-1.046-.408l-8.632,3.783a.793.793,0,0,0,.637,1.453" fill="#15375e"/>
                <line id="Line_75" data-name="Line 75" x1="13.575" y2="5.949" transform="translate(1486.319 534.608)" fill="none"/>
                <line id="Line_76" data-name="Line 76" x1="13.575" y2="5.949" transform="translate(1486.319 534.608)" fill="none" stroke="#1a262a" stroke-linecap="round" stroke-miterlimit="10" stroke-width="0.714"/>
                <path id="Path_9216" data-name="Path 9216" d="M1498.035,530.366l-26.144,11.457" fill="#fcfdfd"/>
                <path id="Path_9217" data-name="Path 9217" d="M1498.035,530.366l-26.144,11.457" fill="none" stroke="#1a262a" stroke-linecap="round" stroke-miterlimit="10" stroke-width="0.714"/>
                <path id="Path_9218" data-name="Path 9218" d="M1496.177,526.122l-26.144,11.457" fill="#fcfdfd"/>
                <path id="Path_9219" data-name="Path 9219" d="M1496.177,526.122l-26.144,11.457" fill="none" stroke="#1a262a" stroke-linecap="round" stroke-miterlimit="10" stroke-width="0.714"/>
                <path id="Path_9220" data-name="Path 9220" d="M1494.319,521.887l-26.144,11.457" fill="#fcfdfd"/>
                <path id="Path_9221" data-name="Path 9221" d="M1494.319,521.887l-26.144,11.457" fill="none" stroke="#1a262a" stroke-linecap="round" stroke-miterlimit="10" stroke-width="0.714"/>
                <path id="Path_9222" data-name="Path 9222" d="M1492.461,517.646,1466.32,529.1" fill="#fcfdfd"/>
                <path id="Path_9223" data-name="Path 9223" d="M1492.461,517.646,1466.32,529.1" fill="none" stroke="#1a262a" stroke-linecap="round" stroke-miterlimit="10" stroke-width="0.714"/>
                <path id="Path_9224" data-name="Path 9224" d="M1490.184,513.223l-25.292,11.084" fill="#fcfdfd"/>
                <path id="Path_9225" data-name="Path 9225" d="M1490.184,513.223l-25.292,11.084" fill="none" stroke="#1a262a" stroke-linecap="round" stroke-miterlimit="10" stroke-width="0.714"/>
                <path id="Path_9226" data-name="Path 9226" d="M1476.749,548.757a4.107,4.107,0,1,0,4.107-4.107h0A4.107,4.107,0,0,0,1476.749,548.757Z" fill="none" stroke="#1a262a" stroke-miterlimit="10" stroke-width="0.714"/>
                <path id="Path_9227" data-name="Path 9227" d="M1497.592,602.72l37.586-.879-13.983-18.727h-36.677Z" fill="#b18910"/>
                <path id="Path_9228" data-name="Path 9228" d="M1529.6,599.035l-29.733.9,4.13-6.072,5.852,2.5,4.626-8Z" fill="#fee28d"/>
                <path id="Path_9229" data-name="Path 9229" d="M1504.784,588.318a1.927,1.927,0,1,0,1.927-1.928,1.928,1.928,0,0,0-1.927,1.928h0" fill="#fee28d"/>
                <g id="Group_578" data-name="Group 578" opacity="0.7">
                  <g id="Group_577" data-name="Group 577">
                    <g id="Group_1203" data-name="Group 1203">
                      <g id="Group_1202" data-name="Group 1202" clip-path="url(#clip-path-2)">
                        <g id="Group_576" data-name="Group 576">
                          <path id="Path_9230" data-name="Path 9230" d="M1529.6,599.035l-29.733.9,4.13-6.072,5.852,2.5,4.626-8Z" fill="#fee28d"/>
                          <path id="Path_9231" data-name="Path 9231" d="M1504.785,588.318a1.927,1.927,0,1,0,1.927-1.928,1.928,1.928,0,0,0-1.927,1.928h0" fill="#fee28d"/>
                        </g>
                      </g>
                    </g>
                  </g>
                </g>
                <path id="Path_9232" data-name="Path 9232" d="M1599.546,492.642l33.112,14.712.788-25.229-33.078-15.633Z" fill="#fee28d"/>
                <path id="Path_9233" data-name="Path 9233" d="M1599.546,492.642l33.112,14.712.788-25.229-33.078-15.633Z" fill="#fee28d"/>
                <path id="Path_9234" data-name="Path 9234" d="M1631.187,502.912,1601.139,488.9l9.766-5.674,3.756,6.611,11.027-5.3Z" fill="#fdc61b"/>
                <path id="Path_9235" data-name="Path 9235" d="M1614.169,483.232a1.619,1.619,0,1,0,1.62-1.62,1.62,1.62,0,0,0-1.62,1.62v0" fill="#fdc61b"/>
              </g>
            </g>
          </g>
        </g>
        <g id="Group_877" data-name="Group 877" transform="translate(2 0.193)">
          <rect id="Rectangle_1181" data-name="Rectangle 1181" width="2.475" height="67.563" transform="translate(1679.138 615.069) rotate(-0.94)" fill="#e2e2e2"/>
          <rect id="Rectangle_1182" data-name="Rectangle 1182" width="2.475" height="67.563" transform="matrix(1, -0.016, 0.016, 1, 1694.98, 614.81)" fill="#e2e2e2"/>
          <path id="Path_10017" data-name="Path 10017" d="M1698.988,617.715l-20.539.333a2.97,2.97,0,0,1-.1-5.938l20.538-.334a2.97,2.97,0,0,1,.167,5.938h-.07" fill="#eeedee"/>
          <path id="Path_10018" data-name="Path 10018" d="M1675.285,773.789h0a2.723,2.723,0,0,1-2.767-2.677h0l-.116-7.176,5.444-.088.116,7.177a2.72,2.72,0,0,1-2.675,2.766h0" fill="#e2e2e2"/>
          <path id="Path_10019" data-name="Path 10019" d="M1707.206,773.271h0a2.722,2.722,0,0,1-2.766-2.677h0l-.117-7.176,5.444-.088.117,7.176a2.723,2.723,0,0,1-2.677,2.766h0" fill="#e2e2e2"/>
          <path id="Path_10020" data-name="Path 10020" d="M1705.526,767.11l-29.008.471a16.725,16.725,0,0,1-16.946-16.4l-1.194-73.55a16.725,16.725,0,0,1,16.4-16.945l29.007-.473a16.725,16.725,0,0,1,16.946,16.4l1.2,73.552a16.727,16.727,0,0,1-16.4,16.946" fill="#eeedee"/>
          <path id="Path_10021" data-name="Path 10021" d="M1669.871,752.837h0a1.116,1.116,0,0,1-1.132-1.095l-1.213-74.729a1.114,1.114,0,1,1,2.228-.035h0l1.212,74.729a1.115,1.115,0,0,1-1.095,1.131" fill="#fff" opacity="0.8" style="isolation: isolate"/>
          <path id="Path_10022" data-name="Path 10022" d="M1680.325,752.668h0a1.118,1.118,0,0,1-1.132-1.1l-1.212-74.728a1.114,1.114,0,0,1,2.228-.036l1.212,74.729a1.118,1.118,0,0,1-1.1,1.132" fill="#fff" opacity="0.8" style="isolation: isolate"/>
          <path id="Path_10023" data-name="Path 10023" d="M1690.78,752.5h0a1.117,1.117,0,0,1-1.131-1.1l-1.213-74.728a1.114,1.114,0,1,1,2.228-.037l1.213,74.727a1.115,1.115,0,0,1-1.095,1.132" fill="#fff" opacity="0.8" style="isolation: isolate"/>
          <path id="Path_10024" data-name="Path 10024" d="M1701.235,752.328h0a1.116,1.116,0,0,1-1.131-1.1l-1.213-74.728a1.114,1.114,0,1,1,2.228-.037l1.212,74.729a1.116,1.116,0,0,1-1.1,1.131" fill="#fff" opacity="0.8" style="isolation: isolate"/>
          <path id="Path_10025" data-name="Path 10025" d="M1711.688,751.911h0a1.117,1.117,0,0,1-1.132-1.1l-1.213-74.729a1.114,1.114,0,0,1,2.228-.037h0l1.212,74.729a1.117,1.117,0,0,1-1.095,1.132" fill="#fff" opacity="0.8" style="isolation: isolate"/>
        </g>
      </g>
    </g>
  </g>
</svg>
