<svg xmlns="http://www.w3.org/2000/svg" xmlns:xlink="http://www.w3.org/1999/xlink" width="537" height="335" viewBox="0 0 537 335">
  <defs>
    <clipPath id="clip-path">
      <rect id="Rectangle_1348" data-name="Rectangle 1348" width="537" height="335" transform="translate(8080.486 7650.431)" fill="none"/>
    </clipPath>
    <clipPath id="clip-path-2">
      <rect id="Rectangle_1344" data-name="Rectangle 1344" width="165.816" height="166.037" transform="translate(8431.819 7817.931)" fill="none"/>
    </clipPath>
    <clipPath id="clip-path-3">
      <rect id="Rectangle_1345" data-name="Rectangle 1345" width="259.09" height="144.101" transform="translate(8388.697 7967.993) rotate(-79)" fill="none"/>
    </clipPath>
    <clipPath id="clip-path-4">
      <rect id="Rectangle_1346" data-name="Rectangle 1346" width="178.675" height="194.211" transform="translate(8052.673 7861.627) rotate(-31)" fill="none"/>
    </clipPath>
    <clipPath id="clip-path-5">
      <rect id="Rectangle_1347" data-name="Rectangle 1347" width="95.94" height="250.036" transform="matrix(0.891, -0.454, 0.454, 0.891, 8106.918, 7750.111)" fill="none"/>
    </clipPath>
  </defs>
  <g id="Group_1260" data-name="Group 1260" transform="translate(-8080.486 -7650.431)">
    <g id="Group_1259" data-name="Group 1259" clip-path="url(#clip-path)">
      <g id="Mask_Group_9" data-name="Mask Group 9">
        <g id="Group_1020" data-name="Group 1020">
          <path id="Path_8921" data-name="Path 8921" d="M8586,7949.61c-98.693,102.39-227.566-51.98-349.356-38.578-78.441,8.633-165.195-29.757-154.208-126.557,15.98-140.763,239.778-143.29,360.489-114.424S8673.386,7858.943,8586,7949.61" fill="#fef3d1"/>
          <g id="Group_1252" data-name="Group 1252">
            <g id="Group_1251" data-name="Group 1251" clip-path="url(#clip-path-2)">
              <g id="Group_887" data-name="Group 887">
                <path id="Path_10038" data-name="Path 10038" d="M8570.834,7968.691l-39.3-13.118a9.784,9.784,0,0,0-8.992,1.468l-33.082,24.936a9.789,9.789,0,0,1-15.681-7.9l.332-41.428a9.793,9.793,0,0,0-4.175-8.1L8436,7900.795a9.789,9.789,0,0,1,2.664-17.353l39.5-12.487a9.785,9.785,0,0,0,6.412-6.472l12.111-39.621a9.788,9.788,0,0,1,17.327-2.831l24.083,33.711a9.79,9.79,0,0,0,8.139,4.1l41.423-.726a9.789,9.789,0,0,1,8.046,15.6l-24.622,33.325a9.787,9.787,0,0,0-1.382,9.006l13.492,39.171a9.789,9.789,0,0,1-12.355,12.473" fill="#15375e"/>
                <path id="Path_10039" data-name="Path 10039" d="M8479.948,7921.324a19.189,19.189,0,0,0-4.584-4.522l-22.164-15.518a7.416,7.416,0,0,1,2.019-13.146l25.8-8.156a19.257,19.257,0,0,0,12.613-12.73l7.908-25.876a7.415,7.415,0,0,1,13.124-2.144l8.037,11.248-1.711,1.223-8.037-11.251a5.313,5.313,0,0,0-9.4,1.534l-7.912,25.88a21.36,21.36,0,0,1-13.99,14.123l-25.8,8.155a5.31,5.31,0,0,0-1.444,9.416l22.163,15.517a21.307,21.307,0,0,1,5.083,5.016Z" fill="#4b617b"/>
                <path id="Path_10040" data-name="Path 10040" d="M8491.411,7967.242a7.433,7.433,0,0,1-8.024-6.788c-.019-.222-.026-.445-.025-.668l.165-20.7,2.1.017-.166,20.7a5.311,5.311,0,0,0,8.51,4.282l21.605-16.281a21.57,21.57,0,0,1,19.62-3.205l25.664,8.569a5.313,5.313,0,0,0,6.7-6.77l-8.811-25.584a21.349,21.349,0,0,1,3.016-19.645l16.083-21.765a5.31,5.31,0,0,0-4.364-8.468l-27.056.475a21.235,21.235,0,0,1-8.145-1.462l.767-1.959a19.134,19.134,0,0,0,7.343,1.314l27.055-.475a7.414,7.414,0,0,1,6.093,11.82l-16.077,21.765a19.244,19.244,0,0,0-2.721,17.709l8.812,25.584a7.416,7.416,0,0,1-9.359,9.451l-25.664-8.568a19.428,19.428,0,0,0-17.687,2.891l-21.607,16.286a7.413,7.413,0,0,1-3.829,1.475" fill="#4b617b"/>
              </g>
            </g>
          </g>
          <g id="Group_959" data-name="Group 959">
            <rect id="Rectangle_1181" data-name="Rectangle 1181" width="108.63" height="3.98" transform="matrix(0.516, -0.857, 0.857, 0.516, 8488.504, 7832.684)" fill="#00446d"/>
            <rect id="Rectangle_1182" data-name="Rectangle 1182" width="108.629" height="3.979" transform="matrix(0.516, -0.857, 0.857, 0.516, 8510.312, 7845.822)" fill="#00446d"/>
            <g id="Group_876" data-name="Group 876">
              <g id="Group_1254" data-name="Group 1254">
                <g id="Group_1253" data-name="Group 1253" clip-path="url(#clip-path-3)">
                  <g id="Group_875" data-name="Group 875">
                    <path id="Path_10017" data-name="Path 10017" d="M8569.36,7760.151l-28.289-17.045a4.775,4.775,0,0,1,4.925-8.18l28.288,17.043a4.775,4.775,0,1,1-4.882,8.208l-.046-.028" fill="#4b617b"/>
                    <path id="Path_10018" data-name="Path 10018" d="M8404.063,7952.763h0a4.376,4.376,0,0,1-1.49-6.008l5.955-9.883,7.5,4.514-5.956,9.883a4.375,4.375,0,0,1-6,1.492l0,0" fill="#00446d"/>
                    <path id="Path_10019" data-name="Path 10019" d="M8448.029,7979.257h0a4.378,4.378,0,0,1-1.49-6.008l5.957-9.886,7.5,4.514-5.956,9.883a4.376,4.376,0,0,1-6.006,1.491h0" fill="#00446d"/>
                    <path id="Path_10020" data-name="Path 10020" d="M8450.987,7969.421l-39.953-24.073a26.89,26.89,0,0,1-9.128-36.806l61.037-101.3a26.891,26.891,0,0,1,36.8-9.128l39.953,24.073a26.894,26.894,0,0,1,9.13,36.806l-61.038,101.3a26.891,26.891,0,0,1-36.8,9.127" fill="#4b617b"/>
                    <path id="Path_10021" data-name="Path 10021" d="M8414.533,7919.579h0a1.8,1.8,0,0,1-.61-2.462l62.017-102.921a1.791,1.791,0,1,1,3.068,1.849l-62.018,102.928a1.8,1.8,0,0,1-2.462.609" fill="#15375e"/>
                    <path id="Path_10022" data-name="Path 10022" d="M8428.932,7928.258h0a1.8,1.8,0,0,1-.609-2.462l62.017-102.925a1.791,1.791,0,1,1,3.068,1.849l-62.019,102.928a1.8,1.8,0,0,1-2.462.61" fill="#15375e"/>
                    <path id="Path_10023" data-name="Path 10023" d="M8443.33,7936.936h0a1.8,1.8,0,0,1-.609-2.462l62.017-102.926a1.791,1.791,0,0,1,3.068,1.848l-62.018,102.93a1.8,1.8,0,0,1-2.462.61" fill="#15375e"/>
                    <path id="Path_10024" data-name="Path 10024" d="M8457.731,7945.612h0a1.8,1.8,0,0,1-.609-2.462l62.017-102.926a1.791,1.791,0,1,1,3.068,1.847h0L8460.189,7945a1.8,1.8,0,0,1-2.462.609" fill="#15375e"/>
                    <path id="Path_10025" data-name="Path 10025" d="M8472.336,7953.947h0a1.8,1.8,0,0,1-.609-2.462l62.017-102.925a1.791,1.791,0,1,1,3.068,1.847l-62.018,102.93a1.8,1.8,0,0,1-2.462.61" fill="#15375e"/>
                  </g>
                </g>
              </g>
            </g>
          </g>
          <g id="Group_924" data-name="Group 924">
            <g id="Group_1256" data-name="Group 1256">
              <g id="Group_1255" data-name="Group 1255" clip-path="url(#clip-path-4)">
                <g id="Group_923" data-name="Group 923">
                  <path id="Path_10060" data-name="Path 10060" d="M8272.991,7892.917l-44.424,89.6-147.075-72.922,44.424-89.6a12.887,12.887,0,0,1,17.27-5.818l123.983,61.471a12.887,12.887,0,0,1,5.825,17.266" fill="#4b617b"/>
                  <path id="Path_10061" data-name="Path 10061" d="M8126.242,7880.507h0a21.1,21.1,0,1,0,30.425-20.234h0a21.1,21.1,0,0,0-30.425,20.234" fill="#15375e"/>
                  <path id="Path_10062" data-name="Path 10062" d="M8173.487,7938.745a37.867,37.867,0,0,1,2.333-5.795c1.424-2.872,3.137-4.645,5-5.385a6.754,6.754,0,0,1,5.686.364,7.4,7.4,0,0,1,3.952,4.122c.874,2.349.467,5.268-.941,8.108a11.11,11.11,0,0,1-1.36,2.239l9.021,4.473-1.44,2.906Zm12.3,2.474a10.883,10.883,0,0,0,1.424-2.289c1.743-3.508,1.1-6.491-2.011-8.03-2.976-1.479-5.454-.081-7.044,3.126a13.581,13.581,0,0,0-1.123,2.855Z" fill="#15375e"/>
                  <path id="Path_10063" data-name="Path 10063" d="M8199.535,7924.318l5.924,5.85-1.492,3.007-18.724-18.815,1.741-3.51,26.325,3.481-1.539,3.108-8.275-1.1Zm1.389-8.51-7.576-1.008c-1.716-.228-3.219-.555-4.687-.867l-.034.066c1.169,1,2.358,2.042,3.512,3.158l5.421,5.433Z" fill="#15375e"/>
                  <path id="Path_10064" data-name="Path 10064" d="M8212.863,7906.33a11.5,11.5,0,0,0,4.055-4.481c1.477-2.978.766-5.49-1.507-6.617-2.105-1.043-3.9-.437-6.581,2.023-3.124,3.028-6.154,4.356-9.329,2.782-3.509-1.741-4.674-5.941-2.5-10.315a11.4,11.4,0,0,1,3.571-4.428l1.974,1.977a9.991,9.991,0,0,0-3.191,3.744c-1.523,3.076-.265,5.155,1.272,5.917,2.1,1.042,3.821.186,6.562-2.322,3.358-3.081,6.157-4.109,9.466-2.468,3.474,1.724,5.206,5.785,2.571,11.1a12.979,12.979,0,0,1-4.287,5.033Z" fill="#15375e"/>
                  <path id="Path_10065" data-name="Path 10065" d="M8222.687,7886.521a11.491,11.491,0,0,0,4.055-4.481c1.478-2.976.767-5.49-1.506-6.617-2.106-1.043-3.905-.436-6.581,2.023-3.125,3.028-6.156,4.357-9.329,2.782-3.509-1.741-4.676-5.94-2.5-10.313a11.4,11.4,0,0,1,3.57-4.43l1.978,1.981a10.007,10.007,0,0,0-3.19,3.746c-1.524,3.073-.266,5.153,1.271,5.915,2.105,1.043,3.818.187,6.562-2.322,3.359-3.081,6.156-4.108,9.465-2.468,3.475,1.723,5.205,5.787,2.572,11.1a12.992,12.992,0,0,1-4.286,5.035Z" fill="#15375e"/>
                </g>
              </g>
            </g>
          </g>
          <g id="Group_958" data-name="Group 958">
            <g id="Group_1258" data-name="Group 1258">
              <g id="Group_1257" data-name="Group 1257" clip-path="url(#clip-path-5)">
                <g id="Group_878" data-name="Group 878">
                  <path id="Path_10026" data-name="Path 10026" d="M8214.63,7768.316l.145-.073a8.06,8.06,0,0,0,3.529-10.837l-4.346-8.543-.031.016a47.891,47.891,0,0,0-85.151,43.854l87.422,171.852a9.271,9.271,0,0,0,12.465,4.061l68.876-35.043a9.267,9.267,0,0,0,4.06-12.461l0,0-43.689-85.881a9.265,9.265,0,0,0-5.389-4.609l-90.827-29.575.006,0a31.358,31.358,0,0,1-14.041-9.344,33.28,33.28,0,0,1-2.227-2.883c-.07-.1-.144-.2-.212-.3a30.221,30.221,0,0,1-1.9-3.209,31.613,31.613,0,0,1,56.136-29.088l4.344,8.54a8.058,8.058,0,0,0,10.835,3.531h0" fill="#15375e"/>
                </g>
              </g>
            </g>
          </g>
          <g id="Group_658" data-name="Group 658">
            <g id="Group_656" data-name="Group 656">
              <g id="Group_657" data-name="Group 657">
                <path id="Path_9493" data-name="Path 9493" d="M8480.485,7842.3l-132,77.841-132-77.841a.753.753,0,0,1,.021-.214c.108-.494,7.393-6.577,18.5-15.6.108-.086.193-.172.3-.257,36.449-29.593,113.172-90.2,113.172-90.2s76.724,60.605,113.173,90.2c11.282,9.156,18.7,15.345,18.8,15.861a.691.691,0,0,1,.022.214" fill="#b18910"/>
                <path id="Path_9494" data-name="Path 9494" d="M8402.77,7671.564H8260.355a22.118,22.118,0,0,0-22.118,22.118h0v215.334a22.12,22.12,0,0,0,22.118,22.119h178.451a22.12,22.12,0,0,0,22.119-22.119v-179.3Z" fill="#fff"/>
                <path id="Path_9495" data-name="Path 9495" d="M8402.77,7707.6a22.119,22.119,0,0,0,22.118,22.118h36.038l-58.156-58.156Z" fill="#e9eaeb"/>
                <path id="Path_9496" data-name="Path 9496" d="M8480.5,7842.3v126.637a16.127,16.127,0,0,1-16.085,16.085H8232.544a16.09,16.09,0,0,1-16.043-16.085V7842.3l132,77.828Z" fill="#fee28d"/>
                <path id="Path_9497" data-name="Path 9497" d="M8476.036,7979.979l-84.958-84.958-42.579,25.106-42.6-25.117-84.964,84.965a15.943,15.943,0,0,0,11.6,5.045h231.877a16.007,16.007,0,0,0,11.623-5.041" fill="#fdc61b"/>
              </g>
            </g>
          </g>
        </g>
      </g>
    </g>
  </g>
</svg>
